<svg xmlns="http://www.w3.org/2000/svg" height="1024" preserveAspectRatio="none" style="display: block;" version="1.1" viewBox="0 0 2048 2048" width="1024">
<path d="M 0 0 L 731.201 0 L 793.066 0 L 903.772 0 L 913.64 0 L 952.427 0 L 976.461 0 L 1062.64 0 L 1113.69 0 L 1263.82 0 L 1269.28 0 L 1365.29 0 L 1372.29 0 L 1401.02 0 L 1421.41 0 L 1424.38 0 L 1449.98 0 L 1551.08 0 L 1554.75 0 L 1593.71 0 L 1599.4 0 L 1603.8 0 L 1613.59 0 L 1656.35 0 L 1665.9 0 L 1718.17 0 L 1734.46 0 L 1765.82 0 L 1778.2 0 L 1782.08 0 L 1795.1 0 L 1977.96 0 L 1980.22 0 L 2048 0 L 2048 29.1852 L 2048 39.4183 L 2048 97.9372 L 2048 123.508 L 2048 219.618 L 2048 325.512 L 2048 719.605 L 2048 1002.29 L 2048 2048 L 1955.47 2048 L 1871.99 2048 L 1850.19 2048 L 1655.15 2048 L 1649.16 2048 L 1555.83 2048 L 1531.77 2048 L 1129.24 2048 L 1110.43 2048 L 952.077 2048 L 0 2048 L 0 1317.4 L 0 1311.62 L 0 971.224 L 0 963.17 L 0 635.885 L 0 629.747 L 0 0 z" fill="rgb(9,9,9)" transform="translate(0,0)"></path>
<path d="M 394.891 927.589 C 441.448 924.317 488.147 923.573 534.784 925.358 C 547.557 925.782 567.984 925.923 579.748 928.963 C 575.4 933.893 568.064 934.454 561.308 935.856 C 573.379 935.991 586.804 934.799 599.277 934.558 C 631.909 933.919 664.544 933.514 697.181 933.343 C 738.343 933.011 782.202 935.086 824.035 935.03 L 825.27 936.44 C 818.008 937.953 812.448 936.853 805.977 937.875 C 768.483 938.646 730.982 939.005 693.481 938.952 C 672.958 939.074 508.184 933.307 507.992 965.041 C 520.271 981.873 635.231 986.31 657.365 986.171 C 662.653 987.877 666.481 987.656 672.017 987.837 C 639.962 989.077 524.746 991.248 502.902 970.218 C 501.553 968.919 500.964 967.837 500.547 965.988 C 502.485 961.067 508.11 957.89 507.333 955.71 C 499.158 956.051 491.348 964.993 491.144 972.874 C 490.845 984.416 505.24 990.283 514.286 992.792 C 544.812 1001.26 576.71 1001.93 608.052 1004.73 L 681.35 1011.69 C 696.864 1013.29 712.221 1016.21 727.639 1018.63 C 746.423 1021.59 765.387 1024.21 784.306 1026.19 C 805.562 1028.41 826.846 1030.02 848.136 1031.84 C 848.593 1032.25 849.05 1032.67 849.508 1033.08 L 849.512 1039.4 C 852.02 1039.01 860.12 1031.64 865.24 1028.75 C 877.876 1021.6 891.058 1015.47 904.663 1010.41 C 988.167 980.267 1071.05 965.527 1159.53 962.309 C 1173.35 961.806 1205.65 960.512 1218 964.675 C 1121.98 967.043 1031.68 975.3 939.689 1005.16 C 923.369 1010.46 854.147 1034.19 853.095 1049.88 C 862.737 1067.43 943.931 1074.15 964.386 1078.26 C 973.478 1080.09 991.04 1080.03 999.18 1082.77 C 1012.34 1082.83 1026.84 1086.13 1037.97 1086.21 L 1037.3 1088.36 C 1030.36 1086.71 1009.97 1087 1000.11 1085.22 C 999.462 1085.26 998.816 1085.31 998.168 1085.35 C 989.065 1085.83 978.4 1083.63 969.255 1082.62 C 945.205 1079.96 865.858 1072.52 850.051 1057.79 C 847.18 1055.12 846.423 1049.54 845.453 1045.81 C 835.467 1047.72 825.542 1058.22 828.372 1067.17 C 835.02 1088.17 895.853 1091.03 913.751 1094.07 C 995.122 1107.89 1110.66 1112.88 1181.43 1157.88 C 1171.72 1171.35 1167.46 1180.09 1170.29 1197.55 C 1170.52 1198.98 1170.77 1200.4 1171.04 1201.82 C 1156.37 1209.06 1154.68 1220.53 1163.26 1233.85 C 1160.88 1239.7 1158.74 1244.86 1156.81 1250.9 C 1148.04 1244.33 1135.94 1243.31 1129.05 1252.97 C 1124.42 1259.46 1122.82 1266.84 1121.04 1274.42 C 1091.94 1260.29 1078.41 1281.7 1073.44 1307.62 C 1034.75 1284.59 998.59 1302.79 1013.42 1349.51 C 1000.18 1350.06 993.862 1350.64 985.05 1362.03 C 978.188 1359.09 971.104 1353.95 963.941 1353.2 C 921.702 1348.77 920.282 1375.63 930.404 1406.89 C 918.517 1403.86 904.87 1399.6 893.497 1406.37 C 875.984 1416.81 887.871 1438.81 898.657 1449.18 C 889.062 1457.79 886.599 1462.21 889.25 1475.58 C 873.226 1472.55 807.929 1452.81 831.076 1493.98 C 805.078 1493.8 776.285 1499.13 801.406 1529.28 C 797.805 1531.59 793.428 1534.22 790.041 1536.72 C 779.421 1537.64 758.562 1538.84 760.132 1554.19 C 760.791 1560.64 764.007 1564.03 768.749 1568.06 C 756.933 1575.34 734.194 1587.42 754.293 1601.04 C 778.863 1595.79 805.685 1586.03 830.211 1579.3 C 852.573 1573.17 874.794 1567.76 897.308 1562.27 C 999.649 1538.41 1103.56 1521.87 1208.25 1512.76 C 1216.77 1512.09 1258.78 1508.2 1264.63 1510.67 L 1265.32 1511.96 C 1259.28 1516.52 1208.15 1519.5 1195.55 1520.78 C 1152.14 1525.1 1108.83 1530.44 1065.67 1536.8 C 983.276 1549.23 901.741 1566.8 821.539 1589.4 C 803.51 1594.57 720.515 1618.36 710.217 1630.92 C 707.957 1662.26 854.627 1684.98 876.88 1688.28 C 977.74 1703.24 1081.28 1703.45 1180.32 1729.58 C 1190.47 1732.26 1205.39 1735.9 1214.61 1740.36 C 1209.7 1740.9 1188.55 1734.32 1182.15 1732.72 C 1160.69 1727.34 1139.53 1724.21 1117.69 1720.99 C 1083.08 1715.81 1048.34 1711.58 1013.49 1708.32 C 943.727 1701.27 762.1 1688.76 711.86 1647.9 C 706.176 1643.28 704.107 1639.56 702.472 1632.57 C 699.124 1633 692.894 1638.89 691.725 1641.37 C 675.905 1674.96 769.821 1694.86 786.406 1699.03 C 853.845 1715.99 920.5 1724.25 988.908 1734.55 C 1062.67 1744.77 1140.65 1750.31 1210.51 1778.82 C 1202.19 1817.39 1194.4 1865.09 1191.44 1904.07 C 1161.25 1943.97 1122.69 1998.69 1110.43 2048 L 952.077 2048 L 0 2048 L 0 1317.4 L 0 1311.62 L 0 971.224 L 0 963.17 C 32.1274 949.095 70.9594 945.792 89.3352 981.844 L 90.2898 982.006 C 91.4003 979.815 90.8303 980.869 91.9918 978.84 C 95.7018 978.371 101.013 979.923 104.845 980.776 L 111.031 990.525 C 116.132 971.005 130.045 959.555 151.545 965.154 C 158.481 966.96 166.947 972.678 171.535 978.16 C 172.792 979.556 177.816 992.128 179.332 992.072 C 207.561 991.023 224.645 998.209 213.411 1042.69 C 242.276 1042.94 270.491 1044.79 299.181 1047.79 C 388.388 1057.13 477.909 1062.66 567.01 1072.86 C 603.844 1077.08 640.536 1080.13 676.746 1088.52 C 654.723 1069.08 626.153 1052.53 596.288 1050.22 C 591.533 1049.85 576.181 1050.95 573.487 1048.15 L 577.835 1044.34 C 577.994 1040.64 574.084 1035.84 570.913 1036.11 C 565.846 1036.55 557.955 1043.73 553.054 1046.84 C 547.372 1046.55 539.205 1046.78 536.452 1041.13 C 531.385 1030.73 523.732 1037.14 516.69 1041.4 C 511.41 1039.99 490.766 1025.75 484.033 1021.54 C 473.193 1014.76 458.39 1016.47 453.285 1013.64 C 433.45 1002.65 411.433 986.045 393.673 971.575 C 406.259 952.77 403.946 947.54 394.891 927.589 z" fill="rgb(255,255,255)" transform="translate(0,0)"></path>
<path d="M 200.393 1061.81 C 202.57 1059.6 212.263 1048.6 213.429 1048.56 C 223.681 1048.4 234.723 1048.71 244.959 1049.58 C 355.385 1059.02 466.338 1067.61 576.469 1079.92 C 646.476 1087.75 715.677 1094.06 775.591 1134.81 C 757.835 1133.73 732.012 1137.49 713.665 1138.53 C 670.23 1141.01 626.101 1144.58 582.953 1149.94 C 567.641 1151.85 503.191 1161.6 494.709 1172.62 C 499.478 1174.04 517.863 1167.76 524.225 1166.22 C 539.597 1162.56 555.114 1159.55 570.736 1157.17 C 639.555 1146.2 711.732 1146.18 779.746 1137.34 C 804.399 1154.74 813.655 1174.42 776.797 1183.33 C 746.487 1190.66 716.44 1196.29 685.346 1199.19 L 685.919 1201.26 C 709.89 1199.41 734.199 1197.28 757.906 1193.04 C 774.806 1190.01 795.606 1186.12 807.572 1172.61 C 812.306 1167.26 807.864 1162.07 804.481 1157.6 C 807.377 1157.01 810.15 1158.42 812.509 1160.02 C 817.665 1163.5 824.059 1169.96 825.235 1176.35 C 825.95 1180.23 824.68 1183.76 822.287 1186.8 C 804.15 1209.86 711.551 1218.47 682.235 1221.04 C 664.244 1222.62 646.171 1224.37 628.139 1225.39 C 614.487 1226.16 600.627 1226.07 587.049 1227.7 C 590.255 1229.94 594.703 1232.4 594.803 1236.69 C 595.083 1248.73 577.424 1255.25 568.534 1259.03 C 548.111 1267.72 526.74 1272.53 505.002 1276.3 C 495.684 1277.96 480.94 1280.03 472.382 1282.82 C 480.693 1290.5 481.527 1294.21 488.366 1302.41 C 495.959 1305.31 573.654 1320.14 562.202 1335.81 C 550.303 1352.11 503.001 1363.03 482.802 1368.52 C 371.058 1394.83 259.468 1395.07 146.867 1418.33 L 150.832 1420.45 C 183.77 1414.32 217.307 1410.15 250.607 1406.55 C 324.034 1398.64 493.72 1386.3 554.07 1351.12 C 561.252 1346.94 566.548 1342.32 571.36 1335.49 C 580 1341.62 583.279 1350.28 575.365 1358.25 C 539.835 1394.05 465.693 1403.53 418.898 1411.18 C 343.949 1423.43 271.578 1427.41 196.862 1439.01 C 135.244 1448.55 59.8936 1462.55 4.90407 1492.63 C 30.0524 1512.51 39.6768 1532.52 52.8683 1561.31 C 59.219 1544.21 69.0969 1523.64 84.9485 1513.44 C 87.1424 1520.93 88.1227 1524.75 89.328 1532.43 C 128.164 1498.3 209.538 1478.82 261.096 1476.54 C 284.398 1475.52 310.595 1478.27 334.526 1477.96 C 364.516 1477.71 394.487 1476.4 424.382 1474.02 C 481 1469.38 714.174 1443.24 743.564 1411.19 C 746.372 1408.13 747.941 1404.58 747.488 1400.38 C 746.766 1393.69 740.95 1389.78 736.032 1386.03 L 736.777 1384.59 C 742.302 1388.62 748.389 1392.87 749.492 1400.15 C 750.106 1404.2 748.915 1407.81 746.48 1411.06 C 722.652 1442.9 530.942 1466.72 487.972 1471.42 C 445.911 1476.01 403.763 1479.68 361.421 1479.96 C 345.74 1480.07 329.958 1480.26 314.289 1479.63 C 299.867 1479.05 285.383 1477.51 270.945 1477.91 C 247.716 1478.54 224.317 1482.13 201.662 1487.19 C 171.275 1493.88 141.766 1504.07 113.726 1517.55 C 107.117 1520.81 92.5358 1532.24 89.1786 1533.12 C 89.058 1546.53 89.0753 1560.23 88.7422 1573.61 C 95.3941 1565.87 114.618 1539.75 125.529 1541.45 C 132.246 1548.24 124.305 1574.75 121.31 1583.56 C 130.4 1577.48 155.887 1557.71 165.317 1566.27 C 169.21 1576.22 161.44 1594.13 157.591 1604.17 L 177.687 1603.73 C 182.296 1612.36 187.251 1622.16 192.214 1630.47 C 190.089 1619.59 183.961 1595.29 187.7 1585.65 C 195.158 1581.22 209.805 1607.62 213.475 1613.06 C 214.223 1599.39 218.222 1546.42 235.215 1544.98 C 250.438 1550.92 260.984 1594.88 265.231 1610.68 C 274.331 1598.98 306.642 1565.34 307.356 1601.36 C 307.601 1613.72 305.211 1626.74 304.655 1639.11 C 310.861 1632.51 324.445 1616.19 332.7 1615.27 C 340.017 1619.11 341.741 1646.76 342.998 1655.37 C 357.081 1622.97 366.821 1602.01 402.444 1586.55 C 407.677 1584.28 413.628 1581.82 418.755 1584.09 C 425.42 1595.44 401.911 1639.09 396.325 1650.25 C 414.297 1643.4 464.224 1626.91 442.093 1668.75 C 437.91 1676.66 426.739 1691.67 420.103 1697.54 C 427.779 1695.41 452.469 1689.2 455.297 1699.24 C 454.465 1702.66 452.566 1703.97 450.036 1706.49 C 496.432 1701.91 523.318 1708.82 474.237 1748.06 C 497.824 1743.86 526.649 1742.58 550.069 1753.54 C 552.514 1754.69 552.812 1756.33 553.352 1758.4 C 548.651 1770.99 499.055 1794.34 486.555 1800.57 C 496.126 1805.96 502.291 1811.06 510.69 1818.16 C 514.675 1812.81 521.308 1802.61 528.724 1809.03 C 536.488 1815.76 539.641 1830.22 540.781 1839.9 C 544.424 1827.29 563.12 1789.1 577.831 1791.39 C 589.284 1798.31 589.568 1831.47 589.962 1844.12 C 596.169 1837.24 605.095 1826.01 613.13 1822.39 C 614.969 1822.52 615.717 1822.13 616.546 1823.37 C 620.558 1829.38 616.949 1849.95 616.293 1857.39 C 627.802 1844.95 635.366 1836.5 651.374 1829.01 C 667.786 1821.34 733.681 1807.07 705.082 1846.58 C 699.269 1854.61 692.342 1863.51 685.914 1871.3 C 695.196 1867.72 744.487 1849.72 751.141 1851.67 C 755.288 1860.48 747.785 1888.43 745.266 1898.23 C 791.466 1870.12 797.8 1870.69 795.033 1928.74 C 818.447 1910.45 846.991 1906.33 875.926 1908.94 C 882.292 1909.51 887.132 1911.14 887.436 1918.17 C 883.374 1927.61 863.17 1946.84 854.681 1953.08 C 865.789 1953.16 907.258 1957.66 910.969 1969.05 C 909.441 1978.65 896.041 1985.24 888.895 1991.26 C 902.402 1989.29 945.544 1990.53 951.532 2004.01 C 951.427 2013.82 929.289 2023.05 921.497 2026.69 C 933.244 2031.36 946.969 2035.46 952.077 2048 L 0 2048 L 0 1317.4 C 39.36 1312.5 100.537 1314.31 140.715 1314.86 C 200.113 1316.18 259.477 1320.27 318.873 1321.71 C 367.531 1322.89 416.387 1322.23 465.059 1322.23 C 468.356 1322.22 481.494 1322.1 482.431 1320.52 C 486.445 1313.79 472.405 1295.35 468.199 1289.6 C 452.975 1270.15 436.281 1267.04 413.35 1264.98 C 411.411 1250.77 405.214 1247.65 394.386 1239.45 C 399.032 1236.95 403.784 1234.21 405.274 1228.8 C 406.78 1223.33 405.893 1213.42 402.857 1208.79 C 394.097 1195.43 373.293 1201.03 360.278 1198.03 C 359.381 1197.83 356.082 1195.84 356.061 1195.52 C 355.553 1187.79 355.005 1179.03 351.084 1172.2 C 344.038 1159.92 333.172 1148.3 318.7 1145.46 C 308.406 1143.63 296.62 1147.32 287.601 1152.32 C 283.001 1154.88 281.727 1156.11 280.889 1161.06 L 279.172 1161.17 C 277.132 1158.62 276.691 1158.58 273.962 1156.91 C 291.138 1141.07 294.93 1122.43 277.673 1104.02 C 265.67 1091.22 258.052 1080.06 239.033 1079.4 C 224.12 1078.88 224.282 1097.98 213.681 1095.85 C 211.549 1087.08 229.45 1059.39 200.393 1061.81 z" fill="rgb(9,9,9)" transform="translate(0,0)"></path>
<path d="M 150.832 1420.45 C 141.689 1421.98 76.2872 1435.08 73.0213 1434.57 C 99.4113 1428.48 119.266 1422.8 146.867 1418.33 L 150.832 1420.45 z" fill="rgb(182,183,185)" transform="translate(0,0)"></path>
<path d="M 659.141 1201.92 C 667.207 1200.69 677.104 1199.99 685.346 1199.19 L 685.919 1201.26 C 678.651 1202.15 671.441 1202.69 664.145 1203.28 L 659.141 1201.92 z" fill="rgb(182,183,185)" transform="translate(0,0)"></path>
<path d="M 664.145 1203.28 C 659.236 1204.03 654.779 1204.83 650.115 1202.89 C 652.906 1201.49 655.918 1201.9 659.141 1201.92 L 664.145 1203.28 z" fill="rgb(57,56,58)" transform="translate(0,0)"></path>
<path d="M 108.348 1955.13 C 117.656 1890.87 143.454 1843.69 196.15 1803.79 C 206.7 1795.8 260.386 1760.47 268.456 1761.23 C 270.905 1763.26 270.234 1762.01 270.745 1764.97 C 268.033 1774.21 225.131 1842.57 217.939 1852.58 C 240.6 1843.39 261.889 1836.76 286.548 1835.76 C 293.498 1835.48 303.052 1832.06 307.285 1839.01 C 307.298 1843.01 306.327 1845.33 303.257 1847.99 C 268.522 1878.14 226.055 1895.73 189.301 1923.83 C 162.785 1944.1 154.385 1958.74 134.45 1981.7 C 160.674 1920.48 217.065 1900.08 267.966 1865.23 C 278.696 1857.88 289.205 1851 298.578 1841.91 C 264.86 1842.48 235.438 1845.67 206.4 1864.54 C 220.707 1837.8 235.448 1811.24 251.407 1785.46 C 253.531 1782.03 255.944 1778.27 257.801 1774.73 C 188.856 1807.8 147.331 1847.24 121.962 1919.71 C 117.425 1932.58 113.62 1945.7 110.563 1959.01 C 109.581 1966.09 109.019 1970.7 107.057 1977.58 C 106.938 1968.26 107.046 1964.29 108.348 1955.13 z" fill="rgb(255,255,255)" transform="translate(0,0)"></path>
<path d="M 92.0436 1653.43 C 93.6078 1653.72 95.3913 1653.9 96.6466 1654.99 C 105.557 1662.74 103.23 1717.94 103.446 1731.39 C 110.843 1708.82 122.896 1690.83 137.959 1672.68 C 141.806 1668.04 145.889 1662.34 150.728 1658.73 C 152.797 1657.19 153.931 1656.59 156.485 1656.87 L 157.67 1658.65 C 157.188 1661.67 154.4 1664.16 152.388 1666.35 C 141.4 1678.31 132.868 1720 125.098 1736.85 C 125.544 1730.72 126.25 1724.81 127.722 1718.84 C 129.58 1711.3 136.96 1691.86 136.56 1685.46 L 133.965 1687.63 C 119.95 1705.55 108.748 1725.79 99.9404 1746.71 C 98.8159 1718.85 97.4806 1691.52 93.2702 1663.94 C 81.899 1690.62 72.9104 1716.13 66.3076 1744.47 C 65.0584 1713.83 77.0381 1679.69 92.0436 1653.43 z" fill="rgb(255,255,255)" transform="translate(0,0)"></path>
<path d="M 352.946 1173.04 C 396.783 1168.71 472.201 1165.73 513.656 1181.82 C 624.446 1224.82 580.536 1239.65 495.917 1248.36 L 496.001 1246.2 C 503.897 1244.96 576.248 1233.9 572.325 1221.57 C 569.148 1211.59 534.032 1195.86 523.866 1192.49 C 483.365 1174.96 442.261 1176.4 399.142 1175.01 C 387.326 1174.63 364.001 1175.13 352.946 1173.04 z" fill="rgb(255,255,255)" transform="translate(0,0)"></path>
<path d="M 534.077 1915.15 C 536.997 1914.91 540.065 1914.49 542.986 1914.8 C 544.913 1915 545.604 1914.84 546.834 1916.43 C 540.732 1920.7 531.625 1922.37 524.713 1925.65 C 502.896 1936.02 471.838 1955.8 456.403 1974.66 C 453.448 1978.3 450.272 1981.68 447.043 1985.07 C 447.626 1983.96 448.219 1982.86 448.824 1981.76 C 466.148 1950.29 499.782 1924.97 534.077 1915.15 z" fill="rgb(255,255,255)" transform="translate(0,0)"></path>
<path d="M 190.435 1724.33 C 191.759 1724.38 192.775 1724.85 194.011 1725.29 C 194.754 1726.53 195.521 1727.18 195.356 1728.7 C 194.195 1739.4 163.668 1760.72 154.668 1768.09 C 161.837 1756.83 172.854 1748.15 181.235 1737.79 C 182.959 1735.66 184.273 1734.33 184.045 1731.5 L 181.737 1731.57 C 157.457 1739.05 151.286 1744.77 131.118 1758.35 C 147.31 1738.56 164.525 1727.59 190.435 1724.33 z" fill="rgb(255,255,255)" transform="translate(0,0)"></path>
<path d="M 108.96 1893.1 C 104.87 1872.76 107.437 1843.91 104.858 1822.48 C 103.862 1814.2 102.042 1798.58 107.484 1792.06 L 109.953 1793.21 C 113.458 1807.98 111.346 1860.05 110.873 1876.8 C 111.038 1880.98 111.613 1894.93 109.599 1898.01 C 108.809 1895.53 108.81 1895.69 108.96 1893.1 z" fill="rgb(255,255,255)" transform="translate(0,0)"></path>
<path d="M 110.873 1876.8 C 111.038 1880.98 111.613 1894.93 109.599 1898.01 C 108.809 1895.53 108.81 1895.69 108.96 1893.1 C 109.908 1888.43 110.438 1881.66 110.873 1876.8 z" fill="rgb(119,119,120)" transform="translate(0,0)"></path>
<path d="M 58.2221 1897.57 C 61.4806 1898.18 63.0709 1899.24 65.298 1901.59 C 80.7846 1917.93 96.2177 1963.9 95.7382 1985.79 C 90.5395 1970.97 85.7494 1955.68 79.3258 1941.34 C 75.7651 1933.4 57.9632 1905.63 57.4712 1900.5 C 57.3749 1899.5 57.9718 1898.55 58.2221 1897.57 z" fill="rgb(255,255,255)" transform="translate(0,0)"></path>
<path d="M 212.948 1982.46 C 231.64 1975.25 257.338 1971.21 276.35 1979.14 L 277.289 1980.51 C 271.522 1983.5 257.671 1981.73 250.509 1982.03 C 238.751 1982.52 227.288 1983.23 215.639 1985.14 C 211.994 1985.86 210.845 1986.22 207.04 1986.05 L 207.41 1984.92 L 212.948 1982.46 z" fill="rgb(255,255,255)" transform="translate(0,0)"></path>
<path d="M 248.871 1933.97 C 250.494 1933.8 251.45 1933.76 253.048 1934.26 C 254.826 1934.81 254.142 1934.48 255.225 1936.45 C 253.452 1940.7 208.173 1966.03 199.937 1972.16 C 198.413 1973.33 199.305 1972.9 197.197 1973.29 C 204.706 1961.74 236.135 1939.7 248.871 1933.97 z" fill="rgb(255,255,255)" transform="translate(0,0)"></path>
<path d="M 541.532 1945.12 C 543.819 1944.83 545.702 1944.92 547.986 1945.21 L 548.801 1946.45 C 547.529 1947.79 503.999 1967.83 496.483 1972.26 L 491.888 1974.51 L 491.243 1973.9 C 491.722 1972.57 491.705 1972.41 492.624 1971.06 C 500.434 1959.56 528.082 1948.14 541.532 1945.12 z" fill="rgb(255,255,255)" transform="translate(0,0)"></path>
<path d="M 541.176 1979.42 C 550.276 1978.79 559.256 1981.08 568.001 1983.25 C 553.14 1984.86 538.653 1983.73 523.766 1986.53 C 515.293 1987.56 507.351 1989.75 499.151 1992.01 C 511.358 1982.97 526.509 1980.92 541.176 1979.42 z" fill="rgb(255,255,255)" transform="translate(0,0)"></path>
<path d="M 495.917 1248.36 C 492.633 1248.85 490.663 1249.45 487.448 1248.57 C 489.505 1246.6 492.943 1246.63 496.001 1246.2 L 495.917 1248.36 z" fill="rgb(147,146,149)" transform="translate(0,0)"></path>
<path d="M 7.10543e-15 971.224 C 13.8726 960.853 31.3859 956.613 48.4657 959.491 C 67.3085 962.508 77.9098 970.304 84.6738 987.884 L 97.1056 982.625 C 101.639 987.084 108.677 994.557 113.775 997.638 C 115.104 996.885 122.48 961.911 147.71 969.919 C 165.898 975.693 171.66 987.337 174.965 1003.77 C 188.818 994.789 198.448 995.916 209.038 1009.86 C 222.074 1027.02 194.739 1053.25 195.006 1065.52 C 200.773 1068.06 207.357 1067.91 210.286 1074.28 C 212.73 1079.59 210.323 1086.42 208.001 1091.34 C 206.64 1094.22 205.171 1097.06 203.597 1099.84 L 194.175 1104.26 C 192.472 1111.65 191.927 1113.85 188.052 1120.68 C 192.298 1124.16 194.647 1125.61 197.336 1130.5 C 211.254 1155.83 224.907 1126.24 232.004 1166.26 C 238.704 1163.27 246.099 1158.29 252.156 1156.46 C 258.739 1157.83 265.867 1159.06 271.744 1162.54 C 278.183 1166.34 278.84 1175.05 286.122 1173.49 C 288.932 1165.88 279.169 1161.77 293.133 1155.71 C 303.028 1151.42 311.021 1150.59 321.608 1151.09 C 326.112 1154.05 330.645 1156.96 335.206 1159.83 L 335.814 1161.24 C 344.08 1180.02 350.732 1169.26 350.026 1194.3 C 348.093 1196.77 345.375 1199.57 344.969 1202.53 L 345.988 1203.88 C 350.96 1202.93 351.207 1201.98 354.598 1203.88 L 354.801 1205.34 C 355.049 1207.01 355.143 1207.51 355.576 1209.07 L 357.515 1209.16 C 360.958 1204.88 360.301 1205.05 366.367 1204.32 C 378.714 1202.85 398.849 1205.23 400.144 1220.97 C 401.063 1232.14 385.673 1236.19 377.913 1241.22 C 395.047 1245.47 403.918 1248.13 409.4 1266.71 C 404.192 1265.21 400.419 1263.13 395.957 1267.2 C 398.707 1274.45 414.855 1270.59 419.933 1271.14 C 447.808 1274.19 464.881 1290.92 476.476 1315.52 C 404.341 1317.68 332.153 1317.36 260.039 1314.59 C 212.563 1312.73 165.47 1309.2 117.5 1308.15 C 91.6464 1307.64 65.7831 1308.05 39.9595 1309.4 C 29.7545 1309.91 8.43842 1312.07 0 1311.62 L 0 971.224 z" fill="rgb(9,9,9)" transform="translate(0,0)"></path>
<path d="M 713.261 1372.72 C 720.8 1375.86 730.192 1379.69 736.777 1384.59 L 736.032 1386.03 C 728.221 1381.4 721.099 1377.9 712.997 1373.89 L 713.261 1372.72 z" fill="rgb(119,119,120)" transform="translate(0,0)"></path>
<path d="M 712.997 1373.89 C 709.754 1372.72 706.314 1371.83 703.841 1369.53 C 707.427 1369.51 709.958 1371.16 713.261 1372.72 L 712.997 1373.89 z" fill="rgb(182,183,185)" transform="translate(0,0)"></path>
<path d="M 238.838 1086.18 C 241.447 1086.32 252.124 1087.45 253.773 1089.11 C 275.39 1110.94 301.317 1127.02 267.787 1154.11 C 263.676 1153.27 259.681 1151.77 255.693 1150.42 C 249.86 1151.63 247.119 1152.47 241.597 1154.35 L 236.469 1157.39 C 233.659 1153.28 233.599 1148.1 230.667 1144.16 C 225.266 1136.89 213.173 1135.59 204.953 1134.5 C 203.477 1130.35 202.579 1125.37 200.987 1120.63 L 197.992 1120.98 C 196.233 1118.93 196.739 1120.06 196.691 1117.43 L 199.798 1116.29 C 203.117 1099.93 213.484 1099.64 228.087 1098.34 C 230.225 1090.68 230.775 1088.27 238.838 1086.18 z" fill="rgb(9,9,9)" transform="translate(0,0)"></path>
<path d="M 819.595 1108.35 C 827.516 1108.22 906.474 1132.51 918.632 1137.05 C 939.951 1145.02 972.539 1157.81 982.247 1180.58 C 985.658 1188.58 985.422 1197.12 981.824 1205.02 C 956.37 1260.89 794.226 1292.71 736.81 1307.98 C 708.876 1315.41 681.653 1324.1 654.458 1333.86 L 653.609 1333.5 C 689.545 1315.56 722.678 1308.36 766.301 1296.14 C 806.882 1284.77 1001.45 1246.07 979.093 1180.91 C 966.58 1144.45 858.543 1122.12 819.595 1108.35 z" fill="rgb(9,9,9)" transform="translate(0,0)"></path>
<path d="M 662.808 1729.65 C 701.143 1738.82 744.123 1743.05 783.512 1747.95 C 870.057 1758.72 958.527 1764.24 1043.4 1785.12 C 1050.5 1786.86 1056.24 1791.05 1060.1 1797.2 C 1060.53 1797.89 1060.95 1798.59 1061.36 1799.3 C 1044.76 1822.42 998.334 1817.58 991.112 1834.46 L 991.551 1837.09 C 1019.45 1858.11 1104.52 1870.23 1140.81 1876.28 L 1142.06 1878.45 C 1109.55 1873.98 1012.78 1860.67 990.816 1838.21 C 989.174 1835.02 989.486 1836.65 989.695 1833.18 C 1000.07 1815.34 1049.23 1817.23 1057.76 1800.68 C 1058.69 1792.46 1047.66 1787.61 1041.07 1786.09 C 949.535 1764.89 853.237 1761.01 760.317 1749.13 C 727.354 1744.7 694.592 1738.88 662.122 1731.68 L 662.808 1729.65 z" fill="rgb(9,9,9)" transform="translate(0,0)"></path>
<path d="M 712.208 1509.84 L 712.199 1511.45 C 696.922 1514.58 675.773 1522.42 660.502 1527.09 C 626.944 1537.35 466.379 1582.48 492.216 1636.74 L 490.969 1638.4 L 490.496 1636.78 C 478.22 1594.37 536.109 1569.07 567.486 1555.88 C 613.536 1536.53 664.079 1523.29 712.208 1509.84 z" fill="rgb(9,9,9)" transform="translate(0,0)"></path>
<path d="M 662.122 1731.68 C 652.102 1730.43 606.74 1717.63 598.936 1712.4 L 599.266 1712.04 C 615.242 1719.57 645.006 1725.62 662.808 1729.65 L 662.122 1731.68 z" fill="rgb(119,119,120)" transform="translate(0,0)"></path>
<path d="M 712.208 1509.84 C 719.162 1506.97 750.85 1495.44 756.79 1496.92 C 742.92 1498.91 726.539 1507.63 712.199 1511.45 L 712.208 1509.84 z" fill="rgb(182,183,185)" transform="translate(0,0)"></path>
<path d="M 1140.81 1876.28 C 1145.82 1876.9 1155.73 1877.85 1160.27 1878.89 L 1160.02 1880.1 C 1153.65 1879.69 1148.39 1879.28 1142.06 1878.45 L 1140.81 1876.28 z" fill="rgb(79,79,81)" transform="translate(0,0)"></path>
<path d="M 492.216 1636.74 C 493.862 1640.65 496.834 1647.14 497.91 1651 C 495.231 1649.75 492.316 1642.14 491.266 1639.23 L 490.969 1638.4 L 492.216 1636.74 z" fill="rgb(147,146,149)" transform="translate(0,0)"></path>
<path d="M 1160.27 1878.89 C 1164.03 1878.9 1165.2 1878.63 1168.64 1880.27 C 1166.52 1881.7 1162.44 1880.81 1160.02 1880.1 L 1160.27 1878.89 z" fill="rgb(182,183,185)" transform="translate(0,0)"></path>
<path d="M 1062.64 0 L 1113.69 0 L 1263.82 0 L 1269.28 0 L 1365.29 0 L 1372.29 0 L 1401.02 0 L 1421.41 0 L 1424.38 0 L 1449.98 0 L 1551.08 0 L 1554.75 0 L 1593.71 0 L 1599.4 0 L 1603.8 0 L 1613.59 0 L 1656.35 0 L 1665.9 0 L 1718.17 0 L 1734.46 0 L 1765.82 0 L 1778.2 0 L 1782.08 0 L 1795.1 0 L 1977.96 0 L 1980.22 0 L 2048 0 L 2048 29.1852 L 2048 39.4183 L 2048 97.9372 L 2048 123.508 L 2048 219.618 L 2048 325.512 L 2048 719.605 L 2048 1002.29 C 2039.92 988.971 2033.14 977.627 2023.23 965.41 C 2008.03 1000.82 2007.28 1022.18 2004.94 1059.63 C 2000.09 1050.99 1982.31 1026.78 1971.12 1030.89 C 1967.53 1034.97 1970.07 1058.03 1969.99 1066.47 C 1955.05 1052.39 1948.74 1046.66 1931.06 1036.12 C 1927.55 1023.11 1925.36 1008.95 1923.13 995.751 C 1915.56 950.9 1913.08 910.594 1924.98 866.01 C 1932.37 838.316 1941.87 807.104 1943.23 778.653 C 1944.84 744.804 1934.63 707.045 1920.61 676.155 C 1905.91 643.744 1878.18 603.984 1852.34 578.972 C 1839.13 566.176 1814.02 549.923 1798.53 539.053 C 1764.15 514.941 1723.38 486.739 1694.87 455.886 L 1693.88 457.339 C 1722.39 486.723 1753.52 512.333 1787.52 535.215 C 1824.94 560.406 1849.97 577.588 1877.82 614.097 C 1913.8 661.285 1938.27 712.181 1938.95 773.006 C 1938.96 818.04 1915.35 865.105 1912.82 909.853 C 1910.69 947.599 1917.41 999.569 1928.86 1035.84 C 1919.63 1033.57 1914.86 1032.59 1905.49 1031.52 C 1910.24 1040.34 1944.46 1099.24 1944.42 1104.3 C 1940.12 1103.11 1933.69 1093.5 1931.53 1089.53 C 1921.32 1070.75 1911.51 1051.83 1903.2 1032.12 C 1902.73 1031 1898.34 1030.77 1897.26 1030.73 C 1893.89 1035.68 1913.05 1072.11 1916.91 1079.03 C 1919.01 1082.81 1933.8 1103.53 1933.37 1105.27 C 1924.55 1106.74 1903.01 1108.99 1894.47 1108.33 C 1899.12 1116.23 1920.03 1165.03 1920.91 1172.05 L 1919.53 1172.95 C 1914.76 1171.44 1901.51 1157.07 1895.89 1152.4 C 1890.43 1147.83 1884.55 1143.79 1878.33 1140.33 C 1897.36 1146.26 1902.14 1149.44 1915.52 1164.35 C 1907.63 1144.05 1893.71 1138.54 1873.82 1133.71 C 1868.47 1132.41 1864.27 1130.93 1858.73 1132.39 L 1857.38 1134 C 1859.57 1140.66 1868.31 1152.66 1872.26 1163.06 C 1864.5 1155.51 1859.34 1145.42 1854.08 1141.3 L 1852.6 1141.48 C 1850.22 1148.46 1852.46 1161.08 1853.45 1168.82 L 1851.98 1169.09 L 1840.07 1159.95 C 1836.64 1156.36 1833.9 1152.82 1830.82 1148.96 C 1831.11 1138.61 1833.93 1121.72 1835.73 1111.26 C 1846.06 1051.07 1853.53 992.39 1858.52 931.495 C 1866 840.34 1871.77 744.412 1849.58 654.762 C 1878.93 676.886 1879.23 680.956 1901.01 709.28 C 1890.96 683.793 1876.97 661.597 1854.82 644.787 C 1796.26 601.641 1727.92 569.008 1663.43 535.348 C 1580.84 492.245 1505.43 447.362 1432.57 388.633 C 1350.82 322.742 1271.28 254.833 1202.99 174.543 C 1180.96 148.645 1159.53 121.819 1137.94 95.5377 C 1121.87 75.7364 1108.35 55.8591 1091.05 36.0928 C 1087.31 29.7456 1082.49 24.0071 1077.45 18.6697 C 1075.67 16.4772 1074.41 14.4528 1072.88 12.1034 C 1069.61 7.71938 1066.27 4.06609 1062.64 0 z" fill="rgb(255,255,255)" transform="translate(0,0)"></path>
<path d="M 1269.28 0 L 1365.29 0 L 1372.29 0 L 1401.02 0 L 1421.41 0 L 1424.38 0 L 1449.98 0 L 1551.08 0 L 1554.75 0 L 1593.71 0 L 1599.4 0 L 1603.8 0 L 1613.59 0 L 1656.35 0 L 1665.9 0 L 1718.17 0 C 1719.22 9.63513 1736.95 55.8762 1740.97 66.8715 C 1752.87 99.4189 1763.95 130.664 1773.55 164.217 C 1781.92 192.811 1787.17 221.968 1793.7 250.931 C 1799.45 276.462 1806.15 301.848 1811.99 327.429 C 1825.7 387.571 1836.68 449.487 1850.78 509.442 C 1881.09 521.154 1900.68 530.828 1925.27 553.463 C 1912.5 545.227 1894.29 534.004 1880.46 528.922 C 1849.63 517.591 1819.73 511.667 1789.25 498.313 C 1705.51 461.631 1641.53 408.017 1598.67 326.19 C 1588.19 306.185 1576.38 287.34 1571.62 264.288 C 1567.7 245.303 1566.39 225.161 1563.61 206.021 C 1558.09 168.12 1554.02 132.62 1551.88 94.3896 C 1560.01 86.4857 1607.95 45.3619 1607.27 37.5663 C 1607.08 35.4827 1606.06 33.0048 1605.44 30.9836 C 1598.03 29.9163 1560.18 62.4748 1552.73 68.763 L 1545.11 77.3356 C 1541.94 108.869 1546.89 146.265 1548.9 179.243 C 1550.33 202.774 1546.71 258.904 1551.1 279.938 C 1561.73 330.845 1603.49 403.198 1631.56 448.196 C 1636.39 455.933 1652.67 472.231 1659.47 480.992 C 1646.54 470.691 1639.02 463.048 1628.05 451.024 C 1565.92 451.837 1407.09 328.3 1372.43 276.023 C 1324.32 203.467 1294.93 85.0976 1269.28 0 z" fill="rgb(9,9,9)" transform="translate(0,0)"></path>
<path d="M 1593.71 0 L 1599.4 0 L 1603.8 0 L 1613.59 0 C 1629.34 37.3376 1643.74 68.4053 1667.79 101.155 C 1678.09 115.169 1690.7 130.238 1699.72 144.105 C 1718.95 173.68 1741.43 220.449 1764.94 246.133 L 1763.22 246.926 C 1757.54 241.629 1749.78 235.663 1743.62 230.7 C 1689.23 186.86 1653.32 129.279 1623.36 66.5021 L 1617.65 54.7606 L 1607.36 28.8232 L 1605.89 27.2222 C 1593.56 30.3198 1562.63 57.7376 1551.96 67.049 C 1550.32 68.7043 1550.21 68.6688 1548.15 69.8158 C 1545.46 64.8573 1550.03 47.6857 1551.83 41.9107 C 1566.19 28.4415 1583.31 24.6547 1601.78 20.2605 C 1599.31 13.4218 1596.62 6.66479 1593.71 0 z" fill="rgb(255,255,255)" transform="translate(0,0)"></path>
<path d="M 1599.4 0 L 1603.8 0 C 1624.01 56.4249 1660.43 104.104 1689.83 156.061 C 1695.22 165.587 1700.94 174.874 1707.1 183.928 L 1705.98 185.288 C 1686.02 155.828 1666.97 123.483 1648.63 92.9275 C 1635.74 71.4593 1622.13 49.3183 1610.79 27.0729 C 1606.95 19.5401 1603.04 8.35339 1599.4 0 z" fill="rgb(9,9,9)" transform="translate(0,0)"></path>
<path d="M 1707.1 183.928 C 1708.09 185.504 1712.34 191.997 1712.9 193.269 L 1712.04 194.4 L 1713.86 196.282 L 1713.84 195.605 C 1710.71 193.744 1707.99 188.479 1705.98 185.288 L 1707.1 183.928 z" fill="rgb(119,119,120)" transform="translate(0,0)"></path>
<path d="M 1656.35 0 L 1665.9 0 C 1695.66 74.816 1732.65 143.554 1775.32 211.41 C 1779.3 217.729 1783.43 224.946 1786.55 231.735 C 1791.18 246.818 1792.15 262.712 1796.2 278.616 C 1771.41 247.906 1746.56 220.577 1728.17 185.331 C 1722 173.516 1714.07 162.103 1708.04 150.029 C 1719.36 162.623 1729.93 177.659 1741.28 189.239 L 1747.08 192.58 C 1742.58 186.771 1731.98 173.728 1729.47 167.665 C 1706.38 111.947 1677.82 56.1728 1656.35 0 z" fill="rgb(255,255,255)" transform="translate(0,0)"></path>
<path d="M 1741.28 189.239 L 1747.08 192.58 C 1746.82 192.429 1767.33 211.509 1768.24 212.434 C 1761.71 210.4 1746.64 194.725 1741.28 189.239 z" fill="rgb(119,119,120)" transform="translate(0,0)"></path>
<path d="M 1365.29 0 L 1372.29 0 C 1387.35 42.5644 1404.14 96.782 1427.74 134.468 C 1446.94 162.952 1472.66 188.23 1496 213.312 C 1520.05 239.155 1540.12 254.707 1548.29 290.198 C 1533.77 273.746 1520.85 256.553 1505.39 240.151 C 1480.09 213.331 1442.02 175.236 1423.38 142.875 C 1401.73 105.297 1378.33 41.4241 1365.29 0 z" fill="rgb(255,255,255)" transform="translate(0,0)"></path>
<path d="M 1401.02 0 L 1421.41 0 C 1415.85 28.742 1412.94 39.3206 1400.23 66.2693 C 1404.54 42.4533 1398.78 26.3959 1401.02 0 z" fill="rgb(255,255,255)" transform="translate(0,0)"></path>
<path d="M 1424.38 0 L 1449.98 0 C 1437.67 23.0261 1431.65 31.1662 1410.81 47.2053 C 1419.04 29.626 1421.51 19.2437 1424.38 0 z" fill="rgb(255,255,255)" transform="translate(0,0)"></path>
<path d="M 1551.08 0 L 1554.75 0 C 1552.46 14.9845 1553.13 26.4107 1548.29 41.8325 C 1548.08 29.6712 1549.81 12.1619 1551.08 0 z" fill="rgb(255,255,255)" transform="translate(0,0)"></path>
<path d="M 1764.94 246.133 C 1767.12 248.229 1769.5 249.903 1770.12 252.694 C 1767.15 252.019 1765.4 249.333 1763.22 246.926 L 1764.94 246.133 z" fill="rgb(79,79,81)" transform="translate(0,0)"></path>
<path d="M 1305.72 65.2429 C 1332.66 62.8963 1360.34 76.1113 1381.44 92.0187 C 1393.9 101.405 1402.23 114.956 1409.22 128.687 C 1379.86 116.309 1356.28 101.353 1331.22 82.272 L 1330.06 82.4994 L 1331.52 85.3033 C 1353.75 105.091 1381.68 119.677 1408.68 131.534 C 1378.32 133.874 1352.53 133.619 1327.31 112.896 C 1317.86 105.125 1302.04 81.2079 1301.14 69.5059 C 1302.44 66.1972 1301.76 67.3222 1305.72 65.2429 z" fill="rgb(255,255,255)" transform="translate(0,0)"></path>
<path d="M 1610.01 53.3593 L 1613.13 51.993 L 1615.97 55.9978 L 1621.58 67.3183 C 1631.44 93.3671 1622.29 113.765 1617.59 139.377 C 1615.76 149.346 1615.81 157.221 1615.9 167.359 C 1613.35 163.296 1607.92 156.416 1604.53 152.807 C 1575.34 121.659 1576.64 81.9085 1610.01 53.3593 z" fill="rgb(255,255,255)" transform="translate(0,0)"></path>
<path d="M 1612.07 61.1965 C 1611.81 75.5829 1610.04 91.2106 1609.14 105.767 C 1607.76 128.022 1609.35 142.546 1612.92 164.02 C 1598.31 124.969 1608.79 101.257 1610.01 65.3775 L 1612.07 61.1965 z" fill="rgb(9,9,9)" transform="translate(0,0)"></path>
<path d="M 1610.01 53.3593 L 1613.13 51.993 C 1611.85 55.9387 1612.06 56.94 1612.07 61.1965 L 1610.01 65.3775 L 1610.01 53.3593 z" fill="rgb(79,79,81)" transform="translate(0,0)"></path>
<path d="M 1666.76 234.2 L 1667.5 234.948 C 1667.82 238.679 1665.61 242.35 1664.32 245.961 C 1656.15 268.794 1638.75 274.432 1623.37 289.877 C 1625.28 287.956 1620.17 294.97 1620.81 294.091 L 1619.32 294.047 C 1619.17 286.73 1616.19 279.713 1615.77 272.06 C 1612.62 215.587 1670.81 216.088 1705.56 239.355 C 1706.93 240.27 1707.2 241.563 1707.14 242.957 C 1694.82 237.112 1678.84 229.247 1665.02 233.042 C 1646.62 242.401 1624.34 267.806 1617.73 287.978 C 1630.47 271.229 1645.97 244.08 1666.76 234.2 z" fill="rgb(255,255,255)" transform="translate(0,0)"></path>
<path d="M 1795.1 0 L 1977.96 0 L 1980.22 0 L 2048 0 L 2048 29.1852 L 2048 39.4183 L 2048 97.9372 L 2048 123.508 L 2048 219.618 C 2045.7 224.606 2044.11 231.416 2042.39 236.716 C 2025.06 290.018 2016.46 346.254 1990.39 396.477 C 1986.05 404.821 1979.22 412.541 1976.64 421.216 L 1975.59 421.469 C 1975.06 414.356 1949.67 355.667 1944.71 342.833 C 1931.31 308.165 1921.18 272.456 1908.3 237.65 C 1878.23 155.004 1840.33 75.425 1795.1 0 z" fill="rgb(9,9,9)" transform="translate(0,0)"></path>
<path d="M 1977.96 0 L 1980.22 0 C 1978.19 11.5428 1977.77 26.5081 1975.53 39.1508 C 1963.48 107.099 1956.02 152.383 1898.05 194.429 C 1893.94 185.303 1890.18 177.095 1886.78 167.642 C 1892.36 164.424 1897.91 161.156 1903.43 157.838 C 1914.26 151.215 1928.56 140.684 1935.91 130.286 C 1959.9 96.3867 1968.48 39.5726 1977.96 0 z" fill="rgb(255,255,255)" transform="translate(0,0)"></path>
<path d="M 1975.66 108.74 C 1977.28 98.9576 1990.68 91.3184 1999.73 89.1932 C 2018.56 84.7687 2031.74 88.3363 2048 97.9372 L 2048 123.508 C 2029.03 127.081 2011.9 129.691 1993.48 121.148 C 1989 119.071 1982.52 114.646 1980.8 109.859 C 1999.13 104.94 2016.05 102.832 2034.72 108.34 L 2036.8 106.766 C 2019.73 102.311 2009.14 100.935 1991.58 104.96 C 1988.06 105.767 1978.59 108.347 1975.66 108.74 z" fill="rgb(255,255,255)" transform="translate(0,0)"></path>
<path d="M 2036.8 106.766 C 2039.19 107.677 2043.22 108.74 2044.53 110.427 C 2040.15 110.124 2039 109.647 2034.72 108.34 L 2036.8 106.766 z" fill="rgb(79,79,81)" transform="translate(0,0)"></path>
<path d="M 1959.13 118.004 C 1960.95 113.261 1966.43 98.2509 1969.33 94.9389 C 1989.55 71.8367 2023.17 47.2841 2048 29.1852 L 2048 39.4183 C 2042.09 42.7782 2029.67 53.3879 2024.12 58.0892 C 2010.25 69.8467 1995.06 81.6258 1981.79 93.9868 C 1974.06 101.187 1967.23 110.133 1959.13 118.004 z" fill="rgb(255,255,255)" transform="translate(0,0)"></path>
<path d="M 1928.07 42.3593 C 1931.29 42.0674 1930.12 41.818 1932.99 42.9087 C 1931.29 44.6017 1925.09 50.7469 1924.25 52.4358 C 1919.11 62.6544 1917.01 75.2967 1910.15 84.8517 C 1902.26 95.831 1887.6 98.8994 1875.01 100.63 C 1882.65 87.1019 1892.25 76.4952 1902.78 65.2356 C 1906.03 61.7585 1913.1 54.8051 1915.52 51.1586 L 1913.96 51.6567 C 1893.78 69.8087 1881.57 81.6357 1869 105.543 C 1869.9 90.1143 1866.3 77.8441 1878.27 63.5094 C 1890.56 48.7803 1909.98 44.3363 1928.07 42.3593 z" fill="rgb(255,255,255)" transform="translate(0,0)"></path>
<path d="M 1113.69 0 L 1263.82 0 C 1266.6 28.8969 1271.69 43.5697 1277.1 70.91 C 1291.17 141.987 1318.29 227.313 1360.21 286.755 C 1374.48 306.99 1419.76 352.537 1439.41 368.58 C 1473.09 396.062 1516.06 428.987 1554.5 448.946 C 1600.98 473.072 1648.09 492.941 1693.76 519.889 C 1701.73 524.419 1712.72 530.255 1720.08 535.315 C 1711.51 532.053 1699.83 525.925 1691.8 521.216 C 1648.1 497.601 1604.66 478.192 1561.11 455.99 C 1514.08 432.01 1451.64 385.789 1412.03 349.425 C 1411.33 346.871 1377.26 310.783 1372.69 306.1 C 1357.59 290.636 1345.73 269.884 1331.52 255.316 C 1296.89 219.842 1260.05 184.862 1226.98 147.866 C 1186.28 102.327 1148.49 50.3006 1113.69 0 z" fill="rgb(9,9,9)" transform="translate(0,0)"></path>
<path d="M 1201.4 32.4327 C 1228.89 32.0433 1254.56 39.5825 1268.78 65.1821 C 1243.73 59.7177 1214.91 51.3699 1188.95 45.242 C 1198.2 49.8264 1204.83 51.4753 1214.62 54.3066 C 1229.73 58.0555 1246.55 62.3614 1261.19 67.3683 C 1255.07 69.8463 1248.81 71.9794 1242.45 73.7576 C 1215.09 81.1749 1184.6 74.3965 1173.06 45.81 C 1169.22 36.3095 1195.95 32.9261 1201.4 32.4327 z" fill="rgb(255,255,255)" transform="translate(0,0)"></path>
<path d="M 1997.64 499.224 C 2004.85 491.598 2003.21 484.477 2007.27 476.683 C 2033.26 426.687 2039.24 380.591 2048 325.512 L 2048 719.605 C 2042.95 705.162 2039.99 680.666 2036.23 664.347 C 2023.25 608.097 2013.61 555.061 1997.64 499.224 z" fill="rgb(9,9,9)" transform="translate(0,0)"></path>
<path d="M 1734.46 0 L 1765.82 0 C 1779.57 41.3651 1790.07 83.7397 1797.23 126.738 C 1800.56 146.594 1802.58 169.673 1806.42 188.584 C 1814.8 229.856 1831.63 278.347 1839.16 318.968 C 1828.77 295.641 1823.19 267.889 1817.01 243.084 C 1810.43 216.663 1803.16 189.441 1798.73 162.617 C 1792.74 126.31 1790.2 93.4495 1777.56 58.5096 C 1760.83 47.5693 1745.35 17.9323 1734.46 0 z" fill="rgb(9,9,9)" transform="translate(0,0)"></path>
<path d="M 1778.2 0 L 1782.08 0 C 1789.5 20.2781 1798.92 40.0773 1806.22 60.2191 C 1816.51 88.6006 1823.17 119.639 1830.67 148.993 C 1837.26 174.744 1847.83 211.813 1851.08 237.078 C 1854.27 261.846 1851.55 314.686 1845.55 338.938 C 1843.26 310.994 1851.62 277.926 1848.63 248.742 C 1845.64 219.595 1839.21 193.045 1831.41 164.857 C 1823.31 135.56 1817.89 105.674 1808.72 76.7065 C 1800.17 50.8894 1788.27 25.344 1778.2 0 z" fill="rgb(9,9,9)" transform="translate(0,0)"></path>
<path d="M 1693.88 457.339 C 1691.52 454.794 1688.17 451.786 1687.32 448.64 C 1690.27 449.806 1692.7 453.317 1694.87 455.886 L 1693.88 457.339 z" fill="rgb(147,146,149)" transform="translate(0,0)"></path>
<path d="M 2029.39 317.243 C 2030.75 325.798 2018.17 382.041 2014.93 392.223 C 2003.54 428.038 1989.56 460.965 1987.95 499.473 C 1986.74 528.37 1991.81 556.144 1993.17 584.894 C 1994.17 609.087 1993.28 633.286 1994.16 657.49 C 1996.24 714.936 2019.89 767.897 2025.55 824.599 C 2029.15 860.748 2012.18 890.639 2007.29 925.06 C 2005.49 937.952 2005.29 951.017 2006.7 963.959 C 2007.32 970.122 2008.95 979.346 2008.93 985.11 L 2007.88 984.847 C 1997.11 956.301 2001.69 913.205 2012.09 885.173 C 2036.16 820.319 2006.68 764.857 1995.33 700.067 C 1991.95 680.287 1990.22 660.258 1990.16 640.19 C 1990.11 623.788 1990.75 609.852 1990.32 593.034 C 1989.45 558.722 1981.99 521.908 1985.42 488.308 C 1989.19 451.248 2005.84 415.29 2015.91 379.249 C 2020.72 362.031 2024.11 332.02 2029.39 317.243 z" fill="rgb(9,9,9)" transform="translate(0,0)"></path>
<path d="M 1084.16 5.5467 C 1092.53 12.1023 1111.54 37.9089 1120.16 47.8406 C 1164.51 98.947 1206.42 150.808 1253.54 199.657 C 1267.99 214.631 1284.21 229.494 1298.79 243.988 C 1316.65 261.74 1336.91 281.311 1354.73 298.133 C 1361.29 304.321 1408.67 346.922 1410.92 350.242 C 1402.33 345.735 1373.92 319.098 1365.16 311.122 C 1306.42 257.897 1250.38 201.768 1197.25 142.946 C 1180.02 123.555 1162.64 101.494 1145.79 81.471 C 1125.4 57.2524 1101.71 31.5519 1084.16 5.5467 z" fill="rgb(9,9,9)" transform="translate(0,0)"></path>
<path d="M 1569.1 299.795 C 1571.61 305.091 1574.16 310.776 1576.42 316.162 C 1589.67 347.728 1610.48 374.372 1630.07 402.109 C 1642.61 419.868 1654.1 438.613 1666.99 456.209 C 1689.32 486.109 1714.7 513.6 1742.74 538.235 C 1769.84 561.66 1797.92 583.944 1824.57 607.889 C 1832 614.566 1839.66 621.122 1845.54 629.269 C 1839.59 627.037 1808.04 598.228 1799.72 591.295 C 1756.36 555.169 1712.61 519.645 1677.86 474.784 C 1656.9 447.733 1638.97 419.313 1619.41 391.301 C 1604.69 370.809 1572.05 323.526 1569.1 299.795 z" fill="rgb(9,9,9)" transform="translate(0,0)"></path>
<path d="M 1884.95 1073.56 C 1884.66 1025.72 1878.1 981.164 1879.8 930.789 C 1881.92 868.425 1903.72 813.579 1896.03 752.007 C 1894.81 742.266 1888.42 722.924 1885.32 712.938 C 1916.26 760.838 1893.91 839.893 1886.64 892.536 C 1878.63 950.538 1887.19 1009.87 1887.12 1067.87 C 1887 1071.08 1886.99 1074.17 1886.47 1077.34 L 1884.95 1073.56 z" fill="rgb(9,9,9)" transform="translate(0,0)"></path>
<path d="M 1826.99 97.7593 C 1828.89 100.796 1831.28 107.103 1832.54 110.7 C 1850.04 162.781 1876.58 219.212 1882.08 274.496 C 1886.88 322.866 1897.32 341.177 1918.06 383.169 C 1928.1 403.809 1937.66 424.68 1946.73 445.765 C 1950.77 455.085 1957.94 470.517 1958.89 480.171 C 1947.05 455.752 1936.38 430.076 1924.47 405.306 C 1911.91 379.192 1894.66 348.257 1886.51 320.813 C 1882.29 306.604 1879.94 282.487 1877.64 267.064 C 1874.66 246.701 1870.1 226.602 1863.98 206.952 C 1855.81 180.535 1845.05 154.805 1836.58 128.446 C 1833.87 119.997 1828.43 106.153 1826.99 97.7593 z" fill="rgb(9,9,9)" transform="translate(0,0)"></path>
<path d="M 1861.91 359.689 C 1868.26 372.954 1874.39 392.034 1882.68 403.636 C 1933.59 474.847 1987.69 542.555 1968.22 637.517 L 1967.78 638.227 C 1967.74 638.114 1967.91 603.708 1968.05 600.471 C 1970.2 548.826 1947.74 505.433 1920.85 464.25 C 1899.71 431.885 1867.13 396.546 1861.91 359.689 z" fill="rgb(9,9,9)" transform="translate(0,0)"></path>
<path d="M 1766.61 496.662 C 1769.7 497.526 1799.92 516.19 1806.45 519.339 C 1845.66 538.244 1890.37 547.215 1919.67 581.244 C 1937.85 602.363 1960.59 650.336 1958.57 678.208 C 1957.06 675.691 1952.75 656.422 1951.37 651.721 C 1945.88 633.075 1938.35 614.474 1927.81 598.088 C 1889.75 538.927 1820.16 543.264 1766.61 496.662 z" fill="rgb(9,9,9)" transform="translate(0,0)"></path>
<path d="M 1977.26 774.767 C 1985.61 787.49 1978.95 851.192 1975.34 867.101 C 1967.22 902.85 1958.56 936.378 1965.42 973.635 C 1967.25 983.539 1969.77 994.763 1971.01 1004.72 L 1971.16 1005.98 C 1947.49 952.121 1963.46 903.103 1973.58 849.372 C 1978 825.964 1978.25 798.475 1977.26 774.767 z" fill="rgb(9,9,9)" transform="translate(0,0)"></path>
<path d="M 1873.92 190.562 C 1896.49 238.367 1930.44 327.415 1931.04 379.1 L 1928.96 376.933 C 1929.55 337.19 1889.85 231.683 1872.77 192.229 L 1873.92 190.562 z" fill="rgb(9,9,9)" transform="translate(0,0)"></path>
<path d="M 1821.31 323.887 C 1821.77 324.288 1835.21 354.576 1837.28 358.929 C 1843.48 371.98 1853.41 389.161 1858.66 402.128 C 1868.83 427.226 1895.87 476.248 1898 503.293 C 1895.57 499.37 1891.75 488.096 1889.91 483.022 C 1878.78 451.998 1865.01 422.46 1850.6 392.859 C 1839.5 370.044 1827.62 348.655 1821.31 323.887 z" fill="rgb(9,9,9)" transform="translate(0,0)"></path>
<path d="M 2021.05 613.546 C 2026.6 625.187 2018.83 712.04 2017.58 730.249 C 2014.56 707.988 2017.38 684.553 2018.57 662.061 C 2019.27 648.842 2018.84 625.68 2021.05 613.546 z" fill="rgb(9,9,9)" transform="translate(0,0)"></path>
<path d="M 1835.64 396.591 C 1841.31 404.944 1865.65 475.612 1868.98 488.188 C 1864.07 483.72 1838.15 407.274 1835.64 396.591 z" fill="rgb(9,9,9)" transform="translate(0,0)"></path>
<path d="M 1887.12 1067.87 C 1888.02 1074.5 1888 1077.33 1887.92 1083.95 C 1888.02 1090.81 1888.39 1096.45 1886.97 1103.18 C 1885.76 1100.17 1886.02 1099.74 1886.17 1096.54 C 1885.59 1088.89 1885.19 1081.23 1884.95 1073.56 L 1886.47 1077.34 C 1886.99 1074.17 1887 1071.08 1887.12 1067.87 z" fill="rgb(79,79,81)" transform="translate(0,0)"></path>
<path d="M 1887.92 1083.95 C 1888.02 1090.81 1888.39 1096.45 1886.97 1103.18 C 1885.76 1100.17 1886.02 1099.74 1886.17 1096.54 L 1887.92 1083.95 z" fill="rgb(182,183,185)" transform="translate(0,0)"></path>
<path d="M 1073.63 11.342 C 1075.02 7.17905 1075.45 5.28907 1077.73 1.62221 L 1079.38 1.42952 L 1081.5 4.09084 C 1078.55 7.92776 1077.88 9.53153 1073.63 11.342 z" fill="rgb(9,9,9)" transform="translate(0,0)"></path>
<path d="M 1928.96 376.933 L 1931.04 379.1 C 1931.23 383.713 1930.78 388.145 1930.45 392.75 C 1929.5 386.554 1929.2 383.168 1928.96 376.933 z" fill="rgb(147,146,149)" transform="translate(0,0)"></path>
<path d="M 1872.77 192.229 C 1871.36 189.053 1871.24 188.852 1870.49 185.252 L 1871.43 185.351 L 1873.92 190.562 L 1872.77 192.229 z" fill="rgb(119,119,120)" transform="translate(0,0)"></path>
<path d="M 1170.74 1965.6 C 1195.35 1924.13 1231.27 1883.37 1257.58 1839.81 C 1274.77 1811.77 1290.98 1783.14 1306.19 1753.99 C 1339.43 1689.2 1370.88 1621.25 1410.91 1560.28 C 1424.26 1539.97 1433.65 1521.56 1458.37 1515.1 C 1530.93 1496.14 1608 1496.95 1673.51 1537.71 C 1753.41 1587.7 1774.17 1690.86 1796.91 1775.36 C 1819.14 1865.36 1841.63 1955.95 1850.19 2048 L 1655.15 2048 L 1649.16 2048 L 1555.83 2048 L 1531.77 2048 L 1129.24 2048 C 1138.21 2022.18 1149.78 1999.8 1163.82 1976.54 C 1253.39 2046.67 1434.46 1946.51 1509.48 1886.19 C 1531.57 1868.43 1557.53 1841.67 1576.63 1820.58 C 1579.97 1816.25 1589.15 1805.79 1592.89 1802.07 C 1591.23 1806.5 1588.58 1809.69 1585.82 1813.55 L 1578.06 1823.09 C 1506.36 1916.65 1390.72 1987.29 1274.21 2006.4 L 1261.45 2008.06 L 1267.11 2009.19 C 1273.02 2009.02 1277.42 2008.75 1283.31 2008.12 C 1294.87 2007.99 1306.38 2006.66 1317.67 2004.15 C 1427.47 1980.7 1527.03 1908.92 1587.7 1815.02 C 1590.64 1811.46 1596.07 1802.26 1598.76 1797.93 C 1614.15 1774.06 1629.12 1751.06 1635.33 1722.9 C 1622.68 1748.4 1608.88 1775.13 1590.46 1797.71 C 1524.21 1878.91 1428.35 1941.37 1329.88 1975.7 C 1291.13 1989.22 1233.25 2002.89 1195.78 1983.71 C 1185.8 1978.6 1178.84 1973.13 1170.74 1965.6 z" fill="rgb(255,255,255)" transform="translate(0,0)"></path>
<path d="M 1723.96 1635.27 C 1722.25 1680.7 1695.6 1754.67 1677.56 1796.7 C 1640.97 1881.94 1608.88 1971.18 1555.83 2048 L 1531.77 2048 C 1612.48 1938.4 1668.77 1814.93 1709.42 1685.18 C 1713.88 1670.96 1720.66 1649.48 1723.96 1635.27 z" fill="rgb(9,9,9)" transform="translate(0,0)"></path>
<path d="M 1735.96 1723.03 L 1738.23 1721.41 C 1738.01 1725.61 1737.88 1732.34 1737.28 1736.3 C 1735.69 1758.76 1731.74 1781.61 1728.69 1803.92 C 1717.74 1883.97 1695.36 1976.93 1655.15 2048 L 1649.16 2048 C 1652 2040.39 1659.21 2026.31 1662.87 2017.99 C 1671.43 1998.55 1679.12 1978.73 1685.92 1958.61 C 1709.24 1888.85 1723.21 1802.02 1735.35 1728.21 L 1735.96 1723.03 z" fill="rgb(9,9,9)" transform="translate(0,0)"></path>
<path d="M 1247.11 2009.68 C 1252.62 2008.57 1255.75 2007.7 1261.45 2008.06 L 1267.11 2009.19 C 1260.48 2010.55 1253.88 2009.95 1247.11 2009.68 z" fill="rgb(182,183,185)" transform="translate(0,0)"></path>
<path d="M 1738.37 1705.96 C 1738.82 1712.05 1739.28 1715.29 1738.23 1721.41 L 1735.96 1723.03 C 1736.89 1717.67 1737.62 1711.42 1738.37 1705.96 z" fill="rgb(79,79,81)" transform="translate(0,0)"></path>
<path d="M 1752.35 1609.89 C 1761.66 1619.3 1777.3 1640.47 1785.79 1651.57 C 1864.08 1755.72 1919.06 1875.5 1946.97 2002.78 C 1949.63 2015.49 1953.86 2035.47 1955.47 2048 L 1871.99 2048 C 1869.22 2025.6 1866.65 2002.98 1862.41 1980.8 C 1852.4 1928.45 1839.59 1877.03 1826.64 1825.38 C 1807.88 1750.55 1792.75 1676.89 1752.35 1609.89 z" fill="rgb(255,255,255)" transform="translate(0,0)"></path>
<path d="M 731.201 0 L 793.066 0 C 801.645 4.27532 843.714 26.3341 838.446 39.2639 C 833.079 39.1256 813.113 31.6574 805.77 29.847 C 785.434 24.8329 763.927 23.3598 743.007 24.87 C 737.519 25.2662 730.334 27.1216 724.203 27.815 C 726.494 28.3704 751.641 27.8893 756.205 27.9022 C 785.314 28.0066 814.136 33.6664 841.123 44.5778 C 833.805 50.0726 824.708 53.5395 815.92 55.899 C 805.809 58.573 795.402 59.9683 784.944 60.0523 C 758.669 60.4188 697.981 51.8123 675.609 38.7678 C 686.847 18.062 710.422 7.71424 731.201 0 z" fill="rgb(255,255,255)" transform="translate(0,0)"></path>
<path d="M 1192.7 605.656 C 1211.82 582.309 1216.94 575.853 1249.76 571.489 C 1254.35 570.878 1258.4 570.444 1262.86 571.905 C 1275.33 575.99 1285.08 584.357 1296.14 590.954 C 1307.32 597.625 1318.35 603.301 1329.14 610.693 C 1330.14 613.146 1330.39 614.29 1329.17 617.082 C 1321.91 611.753 1268.26 579.266 1262.23 577.527 C 1257.78 576.244 1252.64 576.826 1248.13 577.508 C 1230.48 580.181 1218.84 585.499 1207 599.008 C 1203.28 603.253 1199.86 607.712 1195.5 611.327 C 1186.94 610.045 1172.25 606.979 1164.19 610.051 C 1154.43 613.774 1153.43 626.992 1151.41 636.132 C 1147.87 639.833 1146.5 641.182 1142.4 644.217 C 1140.67 648.973 1141.08 650.095 1137.55 653.186 C 1128.89 655.147 1125.83 653.944 1123.11 664.245 C 1125.05 673.086 1134.3 668.999 1136.61 672.996 C 1130.66 680.769 1108.82 670.915 1093.47 693.703 C 1084.66 692.373 1075.68 694.573 1068.48 699.825 C 1065.35 702.113 1062.11 705.296 1059.46 708.149 C 1058.98 708.21 1058.51 708.275 1058.03 708.331 C 1031.04 711.494 1003.49 675.845 976.128 710.486 C 969.481 718.9 963.301 731.314 965.044 742.311 C 965.928 747.882 973.189 757.874 970.137 762.762 C 965.277 770.546 948.043 776.844 939.484 779.819 C 935.198 793.093 931.954 791.897 923.386 801.897 C 906.873 802.305 895.834 799.875 879.735 798.156 C 875.493 797.704 865.049 800.542 858.697 800.047 C 839.267 798.534 809.631 793.327 794.497 809.066 C 786.71 817.164 786.955 830.292 786.946 840.914 C 774.714 847.727 755.708 856.243 753.369 871.459 L 753.049 873.481 L 752.841 874.95 C 730.408 884.11 711.616 891.628 687.464 896.84 C 666.567 901.35 644.078 904.1 623.732 910.671 C 612.032 914.449 597.443 926.447 585.461 930.239 C 584.015 930.697 581.154 929.491 579.748 928.963 C 582.246 924.031 603.266 913.854 608.995 910.886 C 633.185 898.35 660.923 896.517 686.875 890.34 C 705.456 885.918 727.551 879.175 745.26 872.109 C 753.783 849.495 764.04 849.359 781.685 835.988 C 783.625 822.596 782.112 808.777 794.772 800.03 C 813.23 787.279 837.841 790.872 858.452 794.085 C 861.576 794.572 888.625 794.662 890.541 792.427 C 890.378 791.181 889.564 788.602 890.54 787.974 C 902.536 780.251 915.47 782.243 927.731 786.171 C 939.496 769.359 961.048 764.837 966.519 757.964 C 964.754 756.307 964.085 755.74 962.115 754.341 C 954.132 728.901 966.375 700.267 992.105 690.456 C 1012.48 682.685 1034.92 699.49 1054.11 704.236 C 1070.7 689.282 1072.54 690.236 1093.69 685.883 C 1099.05 672.493 1106.66 673.716 1119.76 671.492 C 1115.77 652.816 1132.59 644.326 1146.63 632.359 C 1148.05 602.727 1166.63 597.551 1192.7 605.656 z" fill="rgb(255,255,255)" transform="translate(0,0)"></path>
<path d="M 900.475 787.263 C 907.468 787.147 918.626 785.952 923.053 791.738 C 921.944 795.911 922.677 795.972 920.006 798.202 C 913.877 798.142 896.035 798.13 894.6 791.281 C 896.669 788.523 897.3 788.602 900.475 787.263 z" fill="rgb(9,9,9)" transform="translate(0,0)"></path>
<path d="M 0 629.747 C 32.3835 629.262 57.4653 642.275 65.1148 675.944 C 81.013 670.292 90.8209 675.046 98.6931 688.89 C 128.633 664.72 171.729 687.601 165.481 726.564 C 164.531 732.486 159.871 746.739 162.666 751.297 C 169.868 755.757 178.245 757.776 184.943 762.687 C 206.713 778.649 206.362 797.355 189.484 816.176 C 201.558 820.356 215.538 825.787 223.679 836.632 C 225.375 838.891 228.499 844.987 230.192 847.609 C 230.184 847.596 233.526 846.8 233.76 846.739 C 242.293 844.526 243.967 844.594 252.435 846.483 C 260.459 837.523 267.663 830.714 280.613 829.794 C 292.001 829.082 303.171 833.146 311.438 841.01 C 319.347 848.344 323.91 858.593 324.069 869.377 C 324.113 878.659 321.013 890.22 310.812 892.193 C 314.133 896.98 322.305 898.854 323.21 905.757 C 322.514 907.611 321.796 909.458 321.057 911.295 C 326.304 913.412 329.986 912.905 335.347 911.162 C 374.611 898.394 414.088 931.219 385.323 971.226 C 389.414 975.507 395.964 981.779 398.652 986.705 L 398.503 988.756 C 395.305 990.161 395.128 990.561 391.627 990.062 C 386.715 986.32 383.145 979.227 378.393 973.944 C 383.99 962.377 391.889 948.942 386.994 935.893 C 380.293 918.028 354.347 910.823 337.506 916.879 C 334.584 917.942 330.588 920.163 327.794 921.53 C 324.652 919.35 321.439 917.028 318.21 915.006 C 312.793 917.02 311.896 917.637 306.288 917.734 L 305.288 916.427 C 309.709 907.901 314.522 909.694 315.347 904.824 C 312.439 899.47 307.553 895.55 302.892 891.645 C 310.796 887.059 314.225 885.319 316.698 875.63 C 323.435 849.24 288.66 823.507 266.842 841.434 C 263.177 844.446 259.733 849.541 255.307 850.958 C 243.65 849.812 236.697 847.107 231.275 860.022 L 229.475 860.899 C 221.309 857.752 224.348 853.727 222.266 846.947 C 217.362 830.977 194.789 825.374 182.712 816.948 C 190.076 805.966 196.649 797.056 193.977 783.079 C 191.94 772.424 184.683 766.287 174.254 764.882 C 171.99 762.895 170.783 761.729 168.71 759.542 C 164.371 759.038 160.812 759.155 157.384 756.676 C 151.669 748.54 158.849 733.741 159.287 724.16 C 160.168 704.874 155.498 691.85 135.186 687.059 C 121.384 683.803 109.521 684.68 99.7722 695.83 C 79.1689 675.409 81.5907 675.498 56.9022 688.891 C 57.3556 684.58 58.184 678.646 57.6329 674.441 C 53.8542 645.608 24.9379 636.283 0 635.885 L 0 629.747 z" fill="rgb(255,255,255)" transform="translate(0,0)"></path>
<path d="M 952.427 0 L 976.461 0 C 1008.88 8.65537 1042.9 19.2739 1076.36 20.3189 C 1079.8 24.5376 1086.95 32.8286 1089.72 37.011 C 1046.12 31.0134 994.024 15.1234 952.427 0 z" fill="rgb(255,255,255)" transform="translate(0,0)"></path>
<path d="M 903.772 0 L 913.64 0 C 926.279 25.8462 950.896 65.9295 966.383 91.121 C 944.9 83.6735 946.66 82.6654 936.302 62.3045 C 925.73 41.5221 914.685 20.6228 903.772 0 z" fill="rgb(255,255,255)" transform="translate(0,0)"></path>
<path d="M 824.035 935.03 C 831.454 935.027 839.26 934.814 846.58 935.809 C 831.015 938.537 821.552 938.284 805.977 937.875 C 812.448 936.853 818.008 937.953 825.27 936.44 L 824.035 935.03 z" fill="rgb(182,183,185)" transform="translate(0,0)"></path>
<path d="M 1037.97 1086.21 C 1043.49 1086.63 1048.78 1087.54 1054.23 1088.41 C 1047.18 1088.88 1044.36 1089.12 1037.3 1088.36 L 1037.97 1086.21 z" fill="rgb(147,146,149)" transform="translate(0,0)"></path>
<path d="M 657.365 986.171 C 661.628 986.04 668.818 985.461 672.658 986.514 L 672.017 987.837 C 666.481 987.656 662.653 987.877 657.365 986.171 z" fill="rgb(182,183,185)" transform="translate(0,0)"></path>
<path d="M 402.111 131.448 C 523.37 122.45 629.084 213.183 638.575 334.404 C 648.067 455.626 557.765 561.707 436.583 571.693 C 314.702 581.736 207.874 490.798 198.327 368.877 C 188.78 246.955 280.152 140.498 402.111 131.448 z" fill="rgb(255,255,255)" transform="translate(0,0)"></path>
<path d="M 1352.21 644.142 C 1342.8 634.269 1336.42 622.3 1339.75 608.322 C 1348.33 572.233 1390.81 560.373 1423.17 558.891 C 1435 558.35 1445.66 558.433 1457.23 560.939 C 1421.83 565.003 1382.42 567.458 1360.43 599.565 C 1405.6 556.661 1505.05 557.237 1556.96 587.406 C 1543.87 584.591 1530.7 582.193 1517.47 580.216 C 1528.93 585.133 1544.62 592.176 1556.23 595.757 C 1575.67 601.757 1593.42 604.516 1611.89 614.254 C 1628.68 623.33 1641.76 637.082 1656.89 648.57 C 1668.91 657.691 1681.45 665.74 1693.65 674.684 C 1714.36 689.859 1731.87 710.037 1744.35 732.441 C 1751.39 745.063 1757.15 755.835 1761.18 769.673 C 1740.56 731.992 1722.97 718.176 1684.6 701.338 C 1690.79 706.904 1700.56 711.128 1706.94 716.629 C 1745.71 750.097 1774.86 796.999 1756.14 848.099 C 1752.74 831.447 1743.42 808.206 1730.68 796.584 C 1743.61 820.387 1756.07 856.315 1744.62 882.276 C 1732.47 909.834 1729.56 919.686 1729.79 949.992 C 1722.46 928.68 1723.38 918.573 1726.86 896.584 C 1711 930.929 1720.38 954.178 1742.74 981.348 C 1735.36 977.125 1724.98 966.242 1720.01 959.239 C 1704.05 936.737 1705.45 913.774 1709.86 888.109 C 1691.86 929.621 1703.11 955.074 1731.39 986.899 C 1761.67 1020.97 1740.72 1063.95 1708.9 1088.07 C 1715.06 1077.73 1721.78 1069.88 1724.88 1057.51 C 1729.21 1040.22 1727.23 1017.79 1718.22 1002.35 C 1738.13 1080.86 1663.9 1115.65 1596.01 1104.32 C 1591.86 1103.62 1586.69 1101.61 1582.63 1100.21 C 1614.34 1100.01 1642.49 1095.99 1671.08 1081.38 C 1707.97 1062.52 1710.78 1026.6 1693.15 993.256 C 1697.13 1010.29 1702.48 1028.32 1696.17 1045.36 C 1688.93 1064.93 1675.84 1075.27 1658.06 1084.15 C 1666.69 1076.32 1673.28 1070.79 1679.3 1060.59 C 1692.75 1037.81 1691.23 1005.28 1672.85 985.628 C 1667.53 979.936 1658.87 973.358 1652.48 968.424 C 1633.62 953.846 1627.11 938.86 1623.87 916.061 C 1618.46 877.989 1653.25 857.354 1642.48 820.784 C 1630.15 778.94 1581.48 787.623 1552.77 772.072 C 1529.05 759.225 1517.38 726.784 1510.79 702.423 C 1512.54 722.989 1513.15 740.604 1525.94 757.674 C 1542.85 780.243 1565.08 787.081 1591.68 791.303 C 1597.22 791.562 1598.81 792.248 1604.13 794.016 C 1594.39 794.015 1566.27 794.549 1557.66 793.118 C 1552.81 792.975 1547.98 792.476 1543.2 791.624 C 1514.56 786.543 1497.79 771.352 1481.76 748.258 L 1480.62 750.466 C 1492.3 774.139 1502.81 787.256 1528.49 798.464 C 1538.07 802.644 1554.42 803.682 1564.6 804.397 C 1585.32 806.047 1620.17 797.864 1631.72 821.152 C 1636.42 830.623 1636.15 849.269 1631.74 858.9 C 1615.73 893.875 1610.82 937.534 1639.54 967.855 C 1660.05 989.508 1687.26 1006.1 1675.62 1042.39 C 1670.5 1058.14 1660.14 1067.6 1645.52 1074.42 C 1610.06 1090.95 1571.09 1093.83 1541.24 1065.24 C 1575.08 1079.71 1626.07 1072.63 1641.67 1035.48 C 1646.85 1022.79 1646.67 1008.54 1641.17 995.984 C 1628.35 966.515 1602.26 974.442 1580.56 949.54 C 1590.9 927.103 1595.4 901.838 1586.29 878.038 C 1561.08 812.236 1466.21 854.279 1441.03 785.573 C 1433.69 765.532 1433.55 746.749 1435.79 725.766 C 1437.8 731.522 1439.56 737.266 1441.53 743.026 C 1455.43 783.607 1486.3 810.098 1529.22 814.132 L 1529.84 812.275 C 1477.43 798.403 1449.9 760.502 1442.5 707.871 C 1438.4 678.729 1443.4 660.152 1426.44 634.032 C 1474.06 657.733 1473.06 681.862 1532.7 655.629 C 1521.81 657.755 1505.78 661.11 1494.98 660.047 C 1461.49 656.749 1446.99 621.04 1410.03 619.252 C 1384.99 618.04 1369.86 628.969 1352.21 644.142 z" fill="rgb(255,255,255)" transform="translate(0,0)"></path>
<path d="M 1591.68 791.303 C 1597.22 791.562 1598.81 792.248 1604.13 794.016 C 1594.39 794.015 1566.27 794.549 1557.66 793.118 C 1567.98 792.234 1579.98 793.57 1590.91 792.545 L 1591.68 791.303 z" fill="rgb(182,183,185)" transform="translate(0,0)"></path>
<path d="M 1529.84 812.275 C 1533.61 812.782 1535.32 812.346 1537.9 814.326 C 1534.82 815.525 1532.55 814.715 1529.22 814.132 L 1529.84 812.275 z" fill="rgb(57,56,58)" transform="translate(0,0)"></path>
<path d="M 1480.62 750.466 C 1478.72 746.882 1478.29 746.424 1477.73 742.513 C 1479.77 743.472 1480.39 745.775 1481.76 748.258 L 1480.62 750.466 z" fill="rgb(79,79,81)" transform="translate(0,0)"></path>
<path d="M 1563.06 668.184 C 1570.46 684.108 1582.57 714.611 1593.66 726.265 C 1620 753.957 1653.71 751.328 1670.06 793.993 C 1691.93 851.042 1633.41 890.856 1671.22 944.6 C 1666.64 918.47 1668.05 897.065 1683.94 874.804 C 1697.18 856.243 1709.76 841.484 1714.07 818.349 C 1714.82 814.335 1714.65 810.557 1715.24 806.426 C 1717.49 808.678 1717.11 810.384 1717.27 814.044 C 1718.61 845.036 1699.27 860.087 1685.48 883.761 C 1672.04 906.846 1671.71 936.433 1689.46 958.337 C 1612.2 930.826 1684.46 856.067 1663.49 800.429 C 1646.29 754.796 1617.77 762.454 1589.1 730.354 C 1577.55 716.674 1567.57 687.936 1561.63 670.438 L 1563.06 668.184 z" fill="rgb(9,9,9)" transform="translate(0,0)"></path>
<path d="M 1443.66 601.574 C 1475.27 604.29 1486.52 613.584 1515.18 624.164 C 1526.3 628.271 1540.24 628.821 1551.75 630.329 L 1551.73 630.718 C 1540.32 631.057 1527.04 631.599 1516 628.649 C 1488.58 621.321 1475.6 608.074 1446.08 604.137 L 1443.66 601.574 z" fill="rgb(9,9,9)" transform="translate(0,0)"></path>
<path d="M 1446.08 604.137 C 1441.8 603.478 1439.3 603.43 1435.55 601.438 C 1438.21 600.583 1440.81 601.225 1443.66 601.574 L 1446.08 604.137 z" fill="rgb(119,119,120)" transform="translate(0,0)"></path>
<path d="M 1561.63 670.438 C 1560.2 667.066 1559.96 666.932 1559.67 663.165 C 1561.6 664.112 1561.83 665.748 1563.06 668.184 L 1561.63 670.438 z" fill="rgb(57,56,58)" transform="translate(0,0)"></path>
<path d="M 1954.69 1963.06 C 1950.03 1941.9 1943.77 1923.28 1936.88 1902.81 C 1905.66 1809.32 1859.46 1721.52 1800.07 1642.85 C 1769.36 1601.58 1735.29 1560.75 1692.8 1530.89 C 1636.16 1491.07 1571.8 1476.27 1503.4 1487.15 C 1429.4 1498.91 1362.51 1534.87 1310.22 1588.4 C 1300.77 1598.07 1286.66 1617.74 1278.45 1629 L 1277.99 1627.99 C 1284.09 1616.01 1293.16 1603.43 1300.91 1592.32 C 1345.85 1527.31 1408.88 1476.91 1482.2 1447.39 C 1509.24 1436.45 1530.09 1433.65 1557.71 1427.97 C 1673.35 1404.18 1753.08 1427.29 1859.15 1471.91 C 1876.46 1497.63 1910.12 1591.12 1918.18 1622.53 C 1903.5 1610.16 1888.65 1596.75 1873.63 1584.92 C 1849.96 1566.3 1825.1 1548.82 1800.78 1531.04 C 1793.03 1525.5 1787.73 1521.74 1779.31 1517.09 C 1781.16 1519.99 1795.45 1530.32 1799.01 1533 C 1840.23 1564.88 1886.39 1605.57 1924.1 1641.64 C 1947.8 1752.91 1955.49 1849.51 1954.69 1963.06 z" fill="rgb(255,255,255)" transform="translate(0,0)"></path>
<path d="M 1465.47 1031.62 C 1477.08 1027.66 1485.93 1024.54 1496.48 1018.34 C 1505.03 1043.01 1508.67 1037.56 1523.36 1056.66 C 1525.58 1059.54 1529.66 1074.28 1534.82 1081.58 C 1553.7 1108.32 1586.34 1121.14 1617.38 1126.64 C 1633.17 1174.94 1657.79 1212.32 1688.47 1251.93 C 1619.78 1277.68 1559.46 1292.96 1492.7 1324.91 C 1471.81 1334.94 1451.45 1346.04 1431.71 1358.16 C 1417.21 1367.12 1403.58 1376.64 1388.75 1385.27 C 1395.35 1367.33 1406.3 1348.42 1413.51 1329.06 C 1431.81 1279.89 1441.91 1232.23 1453.58 1181.48 L 1450.91 1183.02 C 1437.36 1235.77 1428.5 1268.3 1409.83 1318.68 C 1387.03 1274.6 1358.6 1212.59 1343.06 1166.31 C 1354.03 1141.17 1375.5 1134.33 1398.61 1121.54 C 1445.27 1095.69 1451.17 1079.54 1465.47 1031.62 z" fill="rgb(255,255,255)" transform="translate(0,0)"></path>
<path d="M 1450.91 1183.02 C 1452.18 1177.16 1454.06 1171.29 1455.79 1165.53 L 1457.15 1164.77 L 1457.16 1162.63 L 1456.85 1163.02 L 1457.15 1162.66 L 1457.2 1164.82 L 1456.08 1164.9 L 1457.07 1165.71 C 1456.39 1169.95 1454.56 1177.09 1453.58 1181.48 L 1450.91 1183.02 z" fill="rgb(57,56,58)" transform="translate(0,0)"></path>
<path d="M 1365.34 802.653 C 1340.6 688.214 1301.75 744.752 1285.65 733.444 C 1283.23 720.158 1343.06 663.924 1355.69 655.487 C 1366.32 648.455 1377.97 643.122 1390.24 639.678 C 1456.17 620.564 1424.18 730.637 1428 763.589 C 1430.93 788.841 1438.21 810.298 1444.22 834.682 C 1427.17 859.626 1405.22 892.642 1442.75 911.632 C 1443.93 907.432 1442.71 908.644 1445.46 906.667 C 1447.7 910.257 1445.07 912.043 1442.59 914.93 C 1429.57 934.293 1413.97 951.78 1396.2 966.902 C 1369.4 989.292 1343.13 1000.05 1308.21 996.859 C 1307.67 954.421 1286.59 928.371 1257.51 898.632 C 1258.74 898.54 1259.97 898.433 1261.2 898.31 C 1274.38 896.974 1283.57 887.934 1281.74 874.05 C 1280.26 862.894 1273.13 856.396 1264.76 849.918 C 1273.96 868.73 1282.61 882.51 1256.8 890.582 C 1252.25 888.291 1248.05 885.216 1243.6 882.718 C 1231.2 875.764 1219.39 875.231 1205.6 874.581 C 1200.98 874.363 1193.45 874.913 1189.67 872.136 C 1188.54 871.312 1188.05 869.79 1188 868.434 C 1187.49 855.285 1235.55 803.172 1246.53 791.928 C 1257.94 780.239 1270.24 769.4 1281.82 757.854 C 1294.09 759.907 1304.83 755.933 1318.38 755.872 C 1309.71 773.778 1291.68 777.273 1310.89 798.095 C 1306.18 804.814 1301.08 809.926 1303.97 818.282 C 1305.32 822.181 1304.88 823.197 1308.5 825.382 C 1308.77 822.877 1307.15 818.715 1306.92 814.361 L 1308.04 813.354 C 1324.96 819.997 1333.89 820.092 1349.86 809.327 C 1342.4 796.596 1328.4 779.42 1315.83 771.4 L 1321.21 762.667 C 1344.85 771.061 1343.48 772.763 1356.18 792.305 C 1344.83 757.995 1331.62 762.25 1318.26 741.495 C 1309.02 741.073 1290.15 746.549 1283.82 740.659 C 1282.96 737.228 1282.93 738.935 1284.24 735.379 C 1285.18 735.972 1288.14 738.727 1287.94 738.696 C 1300.15 740.579 1308.2 728.738 1323.08 732.691 C 1352.22 740.429 1348.68 778.862 1365.34 802.653 z" fill="rgb(255,255,255)" transform="translate(0,0)"></path>
<path d="M 1495.15 920.174 C 1490.47 910.167 1484.98 898.198 1489.23 887.153 C 1495 872.619 1510.94 860.085 1524.53 853.411 C 1546.31 842.71 1570.28 856.493 1576.75 878.162 C 1591.84 928.699 1559.41 961.357 1515.82 979.862 C 1501.6 985.904 1490 992.641 1474.77 998.039 C 1474.14 988.358 1473.47 983.706 1475.76 974.221 C 1466.07 980.188 1458.48 1011.35 1452.61 1024.04 C 1451.81 1016.7 1451.23 1012.82 1449.55 1005.65 C 1448.75 1021.19 1448.41 1036.61 1439.07 1050.03 L 1438.78 1049.3 C 1438.69 1046.02 1439.08 1044.7 1439.59 1041.48 L 1437.17 1038.92 C 1436.68 1043.59 1436.38 1044.56 1434.78 1049 C 1428.28 1065.1 1414.56 1078.39 1398.9 1085.57 C 1403.27 1071.83 1404.01 1065.29 1404.16 1050.93 C 1396.35 1074.53 1387.8 1081.27 1368.51 1096.46 C 1372.33 1083.44 1373.24 1073.41 1372.59 1060.05 C 1372.02 1062.19 1371.36 1064.3 1370.62 1066.38 C 1363.18 1087.36 1343.48 1105.47 1323.82 1114.97 C 1328.69 1105.01 1329.47 1100.08 1331.43 1089.33 C 1325.02 1098.56 1321.65 1101.3 1312.59 1107.04 C 1314.59 1091.39 1313.86 1085.03 1312.25 1069.45 C 1307.99 1113.09 1275.74 1127.91 1236.09 1131.9 C 1251.24 1118.3 1257.15 1108.16 1258.72 1087.6 C 1250.08 1104.85 1237.07 1116.99 1219.22 1124.24 C 1222.86 1117.73 1225.74 1111.38 1228.88 1104.62 C 1213.6 1118.22 1201.64 1122.64 1181.78 1125.82 C 1190.16 1109.95 1192.23 1104.46 1197.13 1087.53 C 1188.01 1102.18 1180.45 1109.1 1166.11 1118.15 C 1165.95 1080.77 1162.16 1070.01 1182.31 1038.38 C 1176.49 1043.8 1171.38 1048.71 1165.86 1054.42 C 1175.26 1006.18 1199.51 1000.18 1228.26 965.812 L 1235.75 966.689 C 1232.57 965.105 1232.8 965.185 1230.56 962.378 C 1228.46 954.692 1233.25 947.073 1241.45 950.337 C 1252.81 954.861 1261.45 962.792 1266.8 973.619 C 1265.14 981.109 1261.06 992.574 1258.69 1000.39 C 1264.99 993.707 1266.19 990.418 1269.94 982.221 C 1268.02 992.053 1267.3 997.625 1261.98 1006.35 C 1256.85 1011.85 1253.8 1014.5 1247.98 1019.34 C 1254.8 1016.23 1257.78 1014.29 1263.81 1009.63 C 1263.01 1021.09 1247.27 1032.08 1244.23 1039.27 C 1273.13 1020.88 1279.16 986.953 1271.4 955.694 L 1268.84 964.051 L 1268.03 964.305 C 1267.22 960.556 1267.63 956.959 1267.27 955.091 C 1266.58 951.522 1259.42 940.416 1256.76 938.048 C 1254.13 940.339 1252.68 948.253 1251.81 952.024 C 1250.26 946.37 1247.91 934.117 1243.44 931.405 C 1240.86 933.288 1241.11 934.162 1239.55 937.478 L 1237.56 927.836 L 1236.33 927.475 C 1233.54 930.562 1231.56 933.104 1229.04 936.423 C 1232.14 928.591 1233.17 925.712 1234.9 917.529 C 1231.68 920.877 1228.52 924.276 1225.41 927.725 C 1221.68 926.869 1221.55 924.357 1221.31 920.872 C 1230.19 897.133 1240.33 904.518 1248.42 894.007 C 1254.81 896.666 1282.07 932.385 1286.78 939.801 C 1290.87 946.197 1294.4 952.932 1297.33 959.932 C 1306.01 980.92 1305.71 1014.75 1302.56 1037.06 C 1306.78 1024.86 1307.87 1012.65 1308.05 999.752 C 1361.26 1010.78 1406.55 969.36 1437.46 931.098 C 1440.81 926.953 1448.49 910.793 1451.56 910.153 C 1456.64 914.093 1464.89 914.188 1471.34 915.798 C 1463.23 897.443 1461.59 886.491 1474.72 869.299 L 1492.58 868.841 C 1471.76 889.623 1472.89 901.525 1495.15 920.174 z" fill="rgb(255,255,255)" transform="translate(0,0)"></path>
<path d="M 1437.17 1038.92 L 1438.38 1034.99 L 1439.44 1034.61 C 1440.14 1038.13 1440.13 1037.92 1439.59 1041.48 L 1437.17 1038.92 z" fill="rgb(79,79,81)" transform="translate(0,0)"></path>
<path d="M 1544.61 865.09 C 1545.38 865.039 1546.15 865.005 1546.93 864.986 C 1553.69 864.844 1559.73 866.687 1564.59 871.459 C 1560.53 871.607 1556.57 870.105 1553 871.702 C 1552.61 874.014 1560.99 886.036 1562.37 890.998 C 1570.91 921.715 1554.77 949.855 1525.55 960.375 C 1542.4 948.526 1551.57 941.973 1556.4 920.326 C 1558.96 908.606 1559.62 889.877 1553.36 879.341 C 1547.52 869.504 1538.73 879.584 1534.65 883.86 C 1543.19 892.527 1550.95 907.014 1543.71 918.793 C 1542.67 917.812 1539.79 903.869 1538.37 899.633 C 1535.56 894.66 1534.92 892.137 1529.2 890.85 C 1523.77 892.495 1522.04 896.593 1519.08 901.381 C 1519.6 901.995 1520.11 902.616 1520.62 903.243 C 1524.13 907.644 1528.55 914.172 1527.94 920.009 C 1526.23 922.98 1526.5 923.819 1524.05 924.677 C 1520.4 920.096 1518.1 917.641 1514.02 913.52 C 1508.64 942.061 1490.76 937.149 1487.28 942.667 C 1493.43 947.465 1495.22 942.505 1500.31 948.321 C 1503.67 962.954 1489.24 970.668 1485.35 960.161 C 1487.15 956.559 1485.93 958.175 1489.76 955.643 C 1486.18 953.005 1480.76 953.604 1478.29 951.584 C 1456.83 934.049 1488.16 925.889 1501.33 924.507 C 1506.11 898.13 1517.11 874.219 1544.61 865.09 z" fill="rgb(9,9,9)" transform="translate(0,0)"></path>
<path d="M 1750.53 1247.76 C 1761.15 1264.13 1761.1 1294.27 1754.46 1312.29 C 1739.14 1353.88 1687.67 1363.78 1649.57 1372.61 C 1631.18 1376.87 1613.06 1380.89 1595.04 1385.79 C 1564.4 1394.04 1534.47 1404.74 1505.54 1417.76 C 1471.12 1433.44 1453.52 1445.97 1422.4 1465.34 C 1331.44 1521.96 1277.23 1579.81 1239.21 1681.62 C 1237.87 1684.64 1238.73 1684.2 1236.61 1685.61 C 1228.77 1668.7 1246.37 1579.03 1256.34 1558.75 C 1260.18 1550.95 1283.4 1525.57 1290.53 1517.44 C 1364.5 1433.08 1458.81 1378.55 1562.01 1337.02 C 1585.49 1327.59 1609.16 1318.64 1633 1310.17 C 1673.99 1295.3 1720.37 1280.51 1750.53 1247.76 z" fill="rgb(255,255,255)" transform="translate(0,0)"></path>
<path d="M 1767.22 1275.79 C 1770.53 1279 1782.45 1299.4 1785.75 1304.57 C 1804.16 1333.42 1818.77 1359.14 1830.23 1391.63 C 1836.98 1410.75 1842.36 1434.76 1849.5 1452.75 L 1850.08 1454.19 C 1831.76 1447.89 1813.62 1440.57 1795.06 1434.32 C 1730.82 1412.7 1681.19 1408.35 1614.06 1410.16 C 1575.08 1412.55 1543.6 1418.68 1505.97 1428.92 C 1518.86 1422.64 1533.7 1417.57 1547.06 1412.28 C 1582.33 1398.32 1616.82 1387.52 1653.5 1377.99 C 1675.3 1372.28 1695.99 1369.13 1717.32 1361.37 C 1756.18 1347.25 1771.05 1315.81 1767.22 1275.79 z" fill="rgb(255,255,255)" transform="translate(0,0)"></path>
<path d="M 1673.95 1207.77 C 1688.98 1210.27 1704.2 1213.53 1718.53 1218.9 C 1743.37 1228.21 1761.35 1239.32 1730.35 1259.03 C 1689.67 1284.9 1644.39 1297.52 1599.55 1313.93 C 1580.49 1320.94 1561.59 1328.39 1542.88 1336.27 C 1505.58 1352 1469.99 1368.36 1435.1 1389.16 C 1373.66 1425.89 1319.19 1473.18 1274.19 1528.84 C 1269.37 1534.96 1264.51 1541.03 1259.59 1547.07 C 1313.25 1430.85 1448.9 1354.44 1563.99 1311.38 C 1586.22 1303.06 1715.39 1261.18 1719.25 1242.35 C 1709.66 1229.51 1691.7 1234.49 1673.95 1207.77 z" fill="rgb(255,255,255)" transform="translate(0,0)"></path>
<path d="M 1238.35 1845.45 C 1240.7 1804.59 1249.03 1756.83 1256.23 1716.99 C 1263.7 1675.71 1268.27 1646.24 1300.55 1617.25 C 1310.02 1608.74 1316.67 1599.62 1328.28 1591.89 C 1316.87 1628.13 1311.71 1651.06 1307.76 1689.34 C 1307.03 1696.5 1305.18 1729.89 1303.67 1733.52 C 1293.55 1757.84 1273.54 1789.72 1259.86 1812.43 C 1264.51 1790.09 1268.71 1756.78 1272.56 1733.41 L 1269.94 1735.01 C 1266.58 1751.41 1263.4 1767.84 1260.39 1784.3 C 1254.68 1815.37 1255.52 1818.69 1238.35 1845.45 z" fill="rgb(255,255,255)" transform="translate(0,0)"></path>
<path d="M 1269.94 1735.01 C 1271.27 1728.25 1272.43 1721.7 1274.45 1715.11 C 1274.14 1721.49 1273.38 1727.08 1272.56 1733.41 L 1269.94 1735.01 z" fill="rgb(79,79,81)" transform="translate(0,0)"></path>
<path d="M 752.779 306.036 C 752.665 298.379 753.424 290.734 755.04 283.249 C 766.037 230.684 814.348 174.336 872.628 187.809 C 877.053 188.832 880.02 189.347 882.434 193.267 C 880.439 195.888 871.429 199.744 868.16 201.389 C 843.308 213.895 822.996 230.002 802.831 249.171 L 805.193 250.088 C 827.848 227.118 857.503 210.359 885.622 195.341 C 882.092 208.747 878.186 220.019 869.248 230.851 C 839.769 266.579 796.275 291.731 752.779 306.036 z" fill="rgb(255,255,255)" transform="translate(0,0)"></path>
<path d="M 802.831 249.171 L 805.193 250.088 C 801.158 254.015 786.019 270.621 783.434 272.664 C 786.85 264.985 796.877 255.35 802.831 249.171 z" fill="rgb(79,79,81)" transform="translate(0,0)"></path>
<path d="M 1094.25 163.954 C 1033.77 145.043 980.216 120.091 926.269 87.1184 C 910.948 77.7538 852.468 54.3544 843.42 45.6154 C 842.646 42.8328 842.038 41.5647 842.537 38.6997 C 849.188 36.9238 1057.29 138.518 1084.95 145.749 C 1111.01 152.562 1180.02 176.703 1208.05 189.014 C 1212.99 191.186 1225.26 207.13 1230.21 212.838 C 1213.88 207.381 1197.43 202.267 1180.89 197.498 C 1173.77 194.609 1166.53 191.464 1159.14 189.449 C 1124.05 177.777 1093.83 167.92 1056.68 164.544 C 1046.83 163.805 1030.31 159.761 1020.8 161.338 C 983.029 167.601 946.241 182.467 909.267 192.419 C 904.342 193.745 891.227 201.843 888.15 198.133 C 888.276 196.616 887.95 195.936 889.176 194.853 C 899.085 186.097 996.077 157.705 1013.74 154.583 C 1023.53 152.854 1033.2 152.848 1043.07 153.969 C 1060.43 155.943 1076.91 161.942 1094.25 163.954 z" fill="rgb(255,255,255)" transform="translate(0,0)"></path>
<path d="M 1578.35 958.47 C 1602.08 979.34 1649.25 980.402 1630.69 1028 C 1617.07 1062.92 1571.84 1068.47 1540.34 1056.16 C 1572.79 1056.71 1609.16 1054.77 1624.3 1021.08 C 1612.58 1034.51 1605.03 1042.2 1587.76 1047.8 C 1558.34 1053.29 1530.39 1046.9 1510.3 1024.08 C 1533.85 1019.69 1559.22 1005.06 1570.24 983.144 C 1556.03 997.567 1544.96 1010.99 1524.09 1016.22 C 1520.82 1017.04 1513.19 1018.44 1510.31 1016.73 C 1516.07 1012.94 1525.05 1011.87 1531.1 1008.5 C 1556 994.623 1564.34 981.476 1578.35 958.47 z" fill="rgb(255,255,255)" transform="translate(0,0)"></path>
<path d="M 953.393 196.119 C 955.768 196.003 956.032 196.112 958.42 196.382 C 958.334 198.633 937.671 217.665 934.542 221.431 C 915.95 243.811 897.334 268.025 888.506 296.112 C 894.913 286.137 900.636 274.87 907.175 264.56 C 923.824 238.309 940.469 220.057 962.404 198.393 C 967.659 218.522 963.927 229.426 956.007 247.448 C 938.934 282.411 899.513 310.13 866.946 329.877 C 853.988 262.537 887.076 212.304 953.393 196.119 z" fill="rgb(255,255,255)" transform="translate(0,0)"></path>
<path d="M 1056.88 207.239 C 1062.08 206.807 1073.74 206.508 1077.23 211.146 L 1076.9 212.796 C 1075.79 213.363 1074.68 213.964 1073.6 214.596 C 1040.99 233.63 1001.29 278.18 991.112 315.243 C 999.552 303.057 1005.85 289.748 1013.53 277.773 C 1027.64 255.781 1056.97 227.507 1079.14 213.696 C 1078.15 218.616 1076.81 223.423 1075.54 228.276 C 1065.93 257.607 1049.4 277.959 1027.55 299.272 C 1012.47 313.978 998.467 327.18 978.255 334.355 C 976.734 282.284 1000.01 218.772 1056.88 207.239 z" fill="rgb(255,255,255)" transform="translate(0,0)"></path>
<path d="M 1147.82 435.628 C 1151.39 391.082 1167.42 353.349 1213.18 337.085 C 1224.02 333.234 1233.7 334.821 1244.48 337.501 L 1243.25 339.065 C 1231.62 353.69 1215.15 369.095 1202.02 382.481 C 1197.41 387.18 1181.77 401.717 1178.8 406.921 C 1208.54 381.781 1222.64 364.799 1247.98 337.776 C 1265.69 396.185 1190.91 423.899 1147.82 435.628 z" fill="rgb(255,255,255)" transform="translate(0,0)"></path>
<path d="M 1086.66 249.77 C 1090.02 262.513 1045.4 355.08 1048.49 366.423 C 1050.74 362.687 1059.11 338.932 1061.17 333.238 C 1070.6 307.189 1082.02 280.55 1090.26 254.214 C 1099.91 272.374 1102.99 285.483 1100.86 305.704 C 1093.73 338.601 1059.39 377.271 1033.99 398.832 C 1026.19 366.713 1024.18 349.318 1028.04 316.382 C 1038.45 305.667 1046.86 297.772 1056.72 286.192 C 1066.15 275.114 1076.71 259.473 1086.66 249.77 z" fill="rgb(255,255,255)" transform="translate(0,0)"></path>
<path d="M 799.699 86.7164 C 792.134 106.107 782.094 121.18 763.181 132.468 C 750.809 139.852 682.178 157.62 670.15 153.093 C 668.925 151.172 668.871 149.903 669.246 147.577 C 672.371 128.199 685.338 111.056 701.13 100.048 C 724.259 83.9253 756.618 73.4664 784.806 78.3205 C 788.793 79.0069 795.262 79.968 797.536 83.2472 C 795.72 84.8224 789.068 87.2402 786.422 88.5182 C 759.988 101.285 732.623 111.577 705.555 122.842 L 707.27 124.287 C 724.777 118.363 743.437 110.923 760.534 103.792 C 773.918 98.2095 785.614 91.3082 799.699 86.7164 z" fill="rgb(255,255,255)" transform="translate(0,0)"></path>
<path d="M 707.27 124.287 C 704.123 125.599 703.885 125.733 700.358 126.397 C 701.062 124.56 703.236 124.056 705.555 122.842 L 707.27 124.287 z" fill="rgb(79,79,81)" transform="translate(0,0)"></path>
<path d="M 1425.43 1529.28 C 1425.45 1530.97 1404.36 1556.84 1401.63 1560.92 C 1369.19 1609.48 1344.23 1661.19 1316.04 1712.15 C 1313.57 1700.81 1324.9 1633.44 1328.96 1618.36 C 1331.55 1608.75 1337.89 1589.69 1341.44 1579.57 C 1359.98 1565.04 1403.38 1536.45 1425.43 1529.28 z" fill="rgb(255,255,255)" transform="translate(0,0)"></path>
<path d="M 1293.27 1258.59 C 1300.91 1241.72 1317.79 1232.35 1335.99 1239.8 C 1338.94 1241.02 1341.8 1242.78 1343.56 1245.48 L 1343.13 1246.86 C 1327.48 1241.17 1308.29 1242.17 1300.37 1259.21 C 1299.16 1260.18 1298.21 1267.41 1296.34 1266.16 C 1281.01 1255.95 1266.08 1239.16 1245.55 1248.51 C 1229.38 1255.87 1232.9 1269.3 1237.72 1282.86 C 1242.07 1295.12 1229.65 1293.37 1221.96 1292.9 C 1219.68 1294.97 1215.29 1298.31 1214.58 1301.01 C 1215.97 1304.52 1217.23 1305.84 1216.63 1308.9 C 1213.06 1309.62 1204.01 1305.79 1199.73 1305.1 C 1175.5 1301.21 1155.9 1312.99 1155.83 1338.78 L 1154.86 1339.54 C 1145.08 1336.05 1139.91 1333.27 1130.1 1338.8 C 1099.66 1355.98 1106.01 1370.34 1120.74 1393.29 C 1096.39 1385.11 1088.53 1377.7 1069.15 1398.08 C 1060.22 1390.84 1056.82 1388.7 1046.1 1384.6 C 1016.06 1391.74 1023.87 1409.44 1026.77 1433.78 C 1011.49 1430.51 1009.88 1431.2 1003.69 1445.44 C 966.15 1438.03 950.163 1466.8 981.568 1486.87 C 968.753 1484.62 941.385 1480.73 937.858 1499.11 C 937.055 1503.3 939.271 1509.44 937.291 1513.04 C 934.56 1511.77 935.55 1512.43 933.579 1509.9 L 931.1 1505.84 C 930.609 1483.75 942.713 1480.09 961.672 1479.09 C 958.029 1469.39 955.853 1463.2 960.351 1452.68 C 965.304 1441.1 979.245 1435.06 991.405 1436.55 C 992.138 1436.64 998.18 1437.51 999.317 1437.73 C 1005.04 1427.14 1004.4 1425.78 1019.58 1426.08 L 1019.23 1424.81 C 1014.18 1406.13 1013.1 1384.99 1037.58 1379.3 C 1049.97 1376.42 1059.83 1382.58 1068.17 1391.4 C 1077.29 1374.26 1091.29 1374.63 1107.04 1382.63 C 1102.43 1371.82 1100.02 1364.34 1104.72 1353.01 C 1111.49 1336.7 1130.49 1326.27 1147.75 1330.33 C 1151.18 1331.13 1156.57 1304.67 1166.22 1303.3 C 1172.6 1299.56 1181.25 1298.66 1188.07 1298.28 C 1192.24 1298.05 1207.21 1299.74 1207.69 1298.11 C 1211.11 1286.42 1218.09 1285.97 1233.03 1285.22 C 1209.58 1243.56 1263.39 1223.07 1293.27 1258.59 z" fill="rgb(255,255,255)" transform="translate(0,0)"></path>
<path d="M 749.304 189.059 C 751.182 182.182 752.344 176.431 755.613 169.995 C 767.878 145.848 792.516 124.898 820.283 122.805 C 830.778 122.013 844.979 123.677 854.408 128.522 C 833.488 139.857 787.439 160.435 770.116 173.749 C 795.949 162.158 830.468 144.405 856.107 131.324 C 856.975 132.268 856.62 132.191 856.864 133.954 C 844.789 169.877 783.046 188.955 749.304 189.059 z" fill="rgb(255,255,255)" transform="translate(0,0)"></path>
<path d="M 1265.93 392.458 C 1264.51 397.71 1259.04 406.105 1256.13 411.285 C 1250 422.218 1238.54 449.798 1243.6 461.612 C 1244.18 461.043 1254.53 393.229 1273.47 392.898 C 1275.14 394.133 1276.14 394.861 1277.72 396.23 C 1279.23 401.858 1285 404.371 1284.31 416.706 C 1282.88 442.194 1260.68 460.121 1243.43 475.883 C 1235.65 460.811 1228.93 438.3 1233.87 421.449 C 1238.35 406.167 1252.95 399.484 1265.93 392.458 z" fill="rgb(255,255,255)" transform="translate(0,0)"></path>
<path d="M 1126.65 286.786 C 1127.99 285.837 1127.13 286.333 1129.35 285.566 C 1155.31 320 1144.13 344.512 1113.65 369.51 C 1104.82 348.383 1104.48 329.604 1113.78 308.535 C 1116.02 303.452 1121.27 288.141 1126.65 286.786 z" fill="rgb(255,255,255)" transform="translate(0,0)"></path>
<path d="M 1126.65 286.786 C 1127.99 285.837 1127.13 286.333 1129.35 285.566 C 1129.82 296.793 1128.54 331.801 1122.76 339.925 C 1124.89 317.308 1128.57 311.379 1126.65 286.786 z" fill="rgb(79,79,81)" transform="translate(0,0)"></path>
<path d="M 1250.76 1689.78 C 1250.82 1690.18 1250.9 1690.57 1250.94 1690.98 C 1251.54 1698.21 1249.29 1707.13 1248.23 1714.36 C 1244.19 1741.86 1238.36 1769.01 1233.96 1796.44 L 1227 1841.43 C 1225.94 1848.35 1225.45 1856.63 1223.26 1863.21 C 1221.51 1868.52 1215.75 1874.41 1212.31 1878.92 C 1211.53 1869.03 1214.97 1856 1216.36 1846.05 C 1221.29 1810.81 1226.74 1776.04 1233.74 1741.14 C 1236.15 1729.14 1237.93 1716.26 1241.58 1704.58 C 1243.27 1699.19 1247.46 1694.3 1250.76 1689.78 z" fill="rgb(255,255,255)" transform="translate(0,0)"></path>
<path d="M 1949.85 1231.84 C 1950.17 1233.85 1949.69 1235.86 1948.49 1237.48 C 1935.66 1254.79 1924.56 1272.65 1914.18 1291.52 C 1912.82 1294 1910.97 1294.84 1908.45 1295.6 C 1904.03 1291.7 1895.09 1266.08 1892.26 1258.71 C 1891.81 1265.99 1893.61 1280.02 1888.57 1284.86 C 1885.09 1285.05 1863.56 1270.02 1856.62 1266.35 C 1863.86 1274.68 1879.84 1298.85 1877.25 1309.7 C 1876.65 1310.28 1876.05 1310.87 1875.45 1311.46 C 1868.1 1310.53 1860.44 1309.72 1853.31 1310.3 L 1851.83 1310.44 C 1855.64 1312.36 1860.95 1314.79 1863.13 1318.55 C 1858.16 1319.24 1848.96 1316 1843.7 1315.94 C 1840.6 1315.91 1834.22 1317.3 1831.02 1317.95 C 1835.21 1314.29 1837.39 1312.72 1841.97 1309.6 C 1855.59 1303.99 1858.6 1304.09 1873.15 1306.59 C 1867.02 1290.4 1853.88 1271.24 1844 1257.25 C 1860.62 1262.06 1872.8 1269.1 1886.51 1279.25 C 1888.83 1262.16 1886.76 1251.98 1884.42 1235.02 C 1897.27 1251 1905.68 1274.03 1909.32 1294.09 C 1920.23 1268.64 1926.34 1248.48 1949.85 1231.84 z" fill="rgb(255,255,255)" transform="translate(0,0)"></path>
<path d="M 1444.28 808.57 C 1450.15 812.594 1455.2 817.766 1462.31 822.285 C 1481.87 834.71 1504.65 838.636 1527 842.907 L 1515.32 848.943 C 1507.93 853.12 1500.42 857.788 1492.14 859.854 C 1462.55 867.232 1449.69 830.842 1444.28 808.57 z" fill="rgb(255,255,255)" transform="translate(0,0)"></path>
<path d="M 1358.52 354.504 L 1361.41 351.363 C 1364.78 350.468 1363.15 350.334 1366.42 352.047 C 1381.84 372.3 1358.98 398.525 1344.7 411.77 C 1335.11 397.432 1324.65 380.864 1337.96 364.579 C 1342.15 359.445 1349.86 352.745 1356.92 353.211 L 1358.52 354.504 z" fill="rgb(255,255,255)" transform="translate(0,0)"></path>
<path d="M 1356.92 353.211 L 1358.52 354.504 C 1357.37 361.249 1353.29 368.167 1351.88 375.843 C 1352.26 366.28 1353.85 362.072 1356.92 353.211 z" fill="rgb(57,56,58)" transform="translate(0,0)"></path>
<path d="M 1399.56 1330.69 L 1400.6 1331.82 C 1399.66 1340.23 1363.48 1402.03 1356 1411.55 C 1351.47 1417.33 1332.2 1433.54 1325.3 1439.21 L 1324.22 1437.89 C 1328.24 1413.9 1382.32 1349.82 1399.56 1330.69 z" fill="rgb(255,255,255)" transform="translate(0,0)"></path>
<path d="M 1799.31 1163.81 C 1800.55 1175.37 1813.39 1220.63 1809.55 1226.73 C 1801.85 1221.7 1799.74 1179.49 1795.87 1169.41 C 1791.86 1158.93 1780.91 1153.64 1778.79 1146.87 L 1779.9 1145.62 C 1796.49 1142.95 1826.57 1148.82 1838.78 1161.23 C 1842.52 1164.66 1847.15 1169.17 1851.01 1172.28 C 1854.46 1176.53 1864.94 1190.27 1859.14 1194.55 C 1857.18 1193.17 1848 1179.02 1843.43 1174.4 C 1824.24 1155 1811.11 1150.81 1784.96 1149.82 C 1811.62 1162.62 1829.88 1185.3 1832.55 1215.1 C 1827.96 1208.75 1823.76 1199.46 1819.17 1192.47 C 1812.73 1182.66 1805.95 1173.48 1799.31 1163.81 z" fill="rgb(255,255,255)" transform="translate(0,0)"></path>
<path d="M 742.189 1003.43 C 734.647 1002.92 717.111 1003.51 713.606 996.826 C 714.743 984.874 740.771 975.285 750.633 970.76 C 808.544 944.182 871.863 933.858 935.212 932.669 C 939.16 932.912 944.864 931.911 947.163 934.873 C 882.653 935.204 777.186 955.148 721.745 994.211 C 721.376 994.471 719.869 996.229 719.7 996.421 C 723.004 999.825 738.958 1000.63 744.672 1001.23 C 743.625 1003.33 744.439 1002.59 742.189 1003.43 z" fill="rgb(255,255,255)" transform="translate(0,0)"></path>
<path d="M 1940.88 1371.72 L 1943.06 1372.28 L 1943.6 1373.63 C 1934.29 1389.92 1926.6 1417.94 1919.9 1436.89 C 1937.84 1417.02 1950.62 1402.67 1980.46 1407.16 C 1983.12 1407.56 1983.9 1407.59 1985.36 1409.75 C 1979.65 1413.02 1967.84 1412.52 1961.43 1414.04 C 1943.1 1418.4 1927.72 1435.81 1913.36 1447.64 L 1916.27 1432.92 C 1921.11 1414.09 1927.43 1397.88 1935.3 1380.21 C 1912.2 1401.78 1905.07 1432.93 1893.67 1460.91 C 1894.81 1426.31 1910.94 1390.51 1940.88 1371.72 z" fill="rgb(255,255,255)" transform="translate(0,0)"></path>
<path d="M 1146.32 339.961 C 1145.77 339.206 1146.09 339.768 1145.98 338.051 C 1168.63 301.796 1211.98 293.847 1249.78 309.972 L 1248.96 311.878 C 1223.49 312.15 1194.49 318.042 1170.94 327.737 C 1165.48 329.987 1149.51 339.033 1146.32 339.961 z" fill="rgb(255,255,255)" transform="translate(0,0)"></path>
<path d="M 1148.04 342.024 C 1184.42 321.88 1207.52 316.631 1248.45 313.623 C 1236.94 326.018 1155.62 347.807 1134.98 353.161 C 1139.79 348.669 1142.72 345.939 1148.04 342.024 z" fill="rgb(255,255,255)" transform="translate(0,0)"></path>
<path d="M 1158.2 191.616 C 1162.47 192.791 1174.98 195.919 1177.6 199.014 L 1177.23 199.777 C 1160.11 200.812 1128.2 210.176 1112.44 216.967 C 1108.42 218.699 1098.25 224.755 1093.5 227.375 C 1093.42 224.879 1093.36 222.008 1095.25 220.22 C 1106.6 209.506 1144.07 194.285 1158.2 191.616 z" fill="rgb(255,255,255)" transform="translate(0,0)"></path>
<path d="M 1459.34 855.559 C 1463.56 859.544 1465.57 861.377 1469.14 866.126 C 1460.79 881.786 1453.44 893.707 1465.3 910.209 L 1464.5 911.009 C 1436.74 897.949 1444.25 875.166 1459.34 855.559 z" fill="rgb(255,255,255)" transform="translate(0,0)"></path>
<path d="M 1321.31 780.961 C 1329.95 786.968 1338.01 801.848 1345.77 810.552 C 1342.14 811.872 1336.9 813.079 1333.05 814.089 C 1321.59 815.791 1319.6 814.556 1309.73 809.228 C 1317.95 796.438 1316.4 794.911 1321.31 780.961 z" fill="rgb(255,255,255)" transform="translate(0,0)"></path>
<path d="M 1772.26 1210.32 C 1791.2 1210.45 1804.42 1223.11 1812.37 1239.26 L 1800.24 1234.61 C 1794.14 1232.19 1761.65 1219.93 1759.26 1216.49 C 1761.27 1212.86 1768.45 1211.27 1772.26 1210.32 z" fill="rgb(255,255,255)" transform="translate(0,0)"></path>
<path d="M 1768.06 1216.41 C 1782.84 1214.88 1792.78 1219.87 1801.52 1231.98 C 1793.3 1228.92 1780.06 1221.01 1768.06 1216.41 z" fill="rgb(9,9,9)" transform="translate(0,0)"></path>
<path d="M 1245.74 335.016 C 1247.56 323.68 1246.3 318.87 1256.76 311.631 C 1266.38 304.967 1303.24 284.612 1313.32 292.42 L 1313.16 294.147 C 1292.74 303.711 1255.48 313.702 1247.16 335.516 L 1245.74 335.016 z" fill="rgb(255,255,255)" transform="translate(0,0)"></path>
<path d="M 1449.3 840.849 C 1451.72 843.142 1453.8 846.641 1455.69 849.499 C 1440.62 873.16 1437.6 873.836 1438.17 901.474 L 1437.03 902.332 C 1419.26 880.929 1433.91 858.521 1449.3 840.849 z" fill="rgb(255,255,255)" transform="translate(0,0)"></path>
<path d="M 911.904 1520.68 C 900.048 1517.9 878.029 1516.59 871.895 1530.68 C 868.785 1537.82 873.818 1541.99 876.91 1548.61 L 875.701 1548.98 C 866.075 1543.69 862.198 1538.39 865.266 1527.38 C 871.123 1506.34 899.787 1516.33 908.218 1512.09 C 914.537 1502.8 917.151 1502.22 927.929 1505.65 L 930.512 1509.3 L 930.1 1511.28 C 918.902 1508.51 915.885 1509.83 911.904 1520.68 z" fill="rgb(255,255,255)" transform="translate(0,0)"></path>
<path d="M 929.385 97.1649 C 938.18 95.9589 940.95 97.8372 949.2 101.112 C 921.47 104.499 901.47 114.854 876.267 126.351 C 871.437 128.381 868.902 129.636 863.841 129.061 L 863.11 128.032 C 869.2 119.971 916.701 100.16 929.385 97.1649 z" fill="rgb(255,255,255)" transform="translate(0,0)"></path>
<path d="M 765.288 555.571 C 769.191 558.496 769.887 565.794 770.822 570.591 C 775.23 571.115 779.021 571.121 782.001 574.337 L 781.715 576.29 C 778.804 579.244 774.983 579.709 770.814 580.845 C 770.088 585.885 769.644 587.952 768.166 592.821 C 765.05 591.711 765.258 591.826 763.042 589.359 C 761.076 575.127 756.262 584.26 748.971 577.025 L 749.188 575.171 C 752.602 571.695 755.056 571.602 759.81 570.503 C 761.404 564.754 762.221 560.78 765.288 555.571 z" fill="rgb(255,255,255)" transform="translate(0,0)"></path>
<path d="M 148.1 539.303 C 150.338 540.703 152.56 542.256 152.435 545.375 C 152.069 554.53 161.877 549.878 167.517 555.546 L 166.752 557.068 C 163.438 559.107 157.883 560.266 153.96 561.316 C 153.219 565.48 152.297 568.759 151.187 572.822 C 150.033 573.509 150.795 573.153 148.769 573.541 C 144.78 568.919 147.452 565.632 143.533 561.594 C 138.815 560.123 136.106 560.069 134.007 555.477 C 135.837 553.247 137.723 552.749 140.944 551.92 C 146.075 550.599 144.846 546.716 148.1 539.303 z" fill="rgb(255,255,255)" transform="translate(0,0)"></path>
<path d="M 1979.6 1229.89 L 1980.53 1231.15 C 1980.37 1234.33 1946.69 1276.9 1941.71 1281.57 C 1940.17 1279.69 1940.55 1277.17 1941.42 1275.09 C 1948.22 1258.82 1964.47 1238.39 1979.6 1229.89 z" fill="rgb(255,255,255)" transform="translate(0,0)"></path>
<path d="M 802.895 412.695 C 805.717 413.968 805.941 413.736 807.577 416.251 C 807.873 429.955 812.289 421.102 819.334 427.879 C 819.816 433.857 808.924 433.504 808.365 435.946 C 807.721 438.759 806.964 441.637 805.097 445.653 C 798.967 441.332 802.458 437.396 798.587 434.997 C 796.495 433.7 791.204 433.963 788.433 430.604 L 788.696 429.037 C 791.442 426.561 795.085 425.595 798.616 424.309 C 800.458 422.529 801.302 416.632 802.895 412.695 z" fill="rgb(255,255,255)" transform="translate(0,0)"></path>
<path d="M 118.646 72.6199 C 120.487 74.2781 124.939 84.5242 126.661 87.9226 L 126.386 87.8623 L 131.616 88.5444 C 133.714 90.4063 133.094 89.2612 133.413 92.1566 C 131.109 94.6748 126.53 95.2983 123.019 96.2034 C 121.512 98.2462 121.147 104.665 120.724 107.732 C 117.15 107.216 117.367 107.235 115.825 104.549 C 116.943 90.2085 111.066 98.7269 105.252 91.7543 L 105.541 89.6459 C 109.208 86.631 108.47 89.202 114.053 87.4199 C 112.82 82.6419 116.162 78.194 118.646 72.6199 z" fill="rgb(255,255,255)" transform="translate(0,0)"></path>
<path d="M 2002.35 1258.28 C 2006.47 1257.84 2013.16 1258.03 2017.51 1258.01 C 1990.35 1268.08 1991.51 1263.81 1963.8 1280.39 C 1960.03 1282.35 1955.32 1284.25 1951.36 1285.97 C 1964.1 1268.78 1982.02 1261.71 2002.35 1258.28 z" fill="rgb(255,255,255)" transform="translate(0,0)"></path>
<path d="M 219.9 105.285 C 222.497 106.205 222.348 106.366 224.26 108.439 C 225.243 119.82 228.316 111.602 232.149 117.61 C 231.31 123.595 225.316 116.297 224.72 129.716 L 221.432 129.977 C 217.047 126.998 220.528 125.315 217.82 122.043 C 216.903 120.934 214.752 123.155 212.209 119.055 C 212.56 116.944 218.086 109.873 219.9 105.285 z" fill="rgb(255,255,255)" transform="translate(0,0)"></path>
<path d="M 1968.79 1427.13 C 1974.46 1426.94 1975.21 1427.27 1980.51 1429.4 L 1980.99 1430.84 C 1977.72 1433.13 1965.74 1435.08 1961.2 1436.94 C 1956.18 1439 1952.25 1441.25 1947.54 1443.86 L 1937.04 1449.86 C 1947.02 1436.43 1953.71 1432.46 1968.79 1427.13 z" fill="rgb(255,255,255)" transform="translate(0,0)"></path>
<path d="M 1989.79 1287.39 C 1993.78 1287.6 1994.43 1286.93 1997.03 1288.91 C 1995.19 1292.45 1977.21 1296.63 1969.85 1300.31 L 1968.49 1301.01 C 1964.84 1302.55 1966.57 1302.45 1963.15 1302.1 C 1962.41 1292.45 1982.12 1287.91 1989.79 1287.39 z" fill="rgb(255,255,255)" transform="translate(0,0)"></path>
<path d="M 1964.45 1447.24 C 1969.44 1446.85 1976.85 1446.26 1980.66 1449.65 L 1979.4 1451.51 C 1974.64 1454.15 1969.73 1454.22 1964.24 1454.88 C 1959.79 1455.3 1950.82 1457.19 1948.03 1453.4 C 1951.03 1449.24 1959.47 1448.2 1964.45 1447.24 z" fill="rgb(255,255,255)" transform="translate(0,0)"></path>
<path d="M 640.38 660.459 C 642.686 662.223 642.693 663.407 644.738 665.492 C 648.013 668.83 648.437 668.277 648.001 672.322 C 643.44 677.251 645.018 676.729 642.802 682.51 C 641.226 681.833 640.164 681.22 638.658 680.406 C 637.336 674.586 637.762 674.123 632.057 672.671 C 632.964 669.504 638.036 665.166 640.38 660.459 z" fill="rgb(255,255,255)" transform="translate(0,0)"></path>
<path d="M 1744.45 983.645 C 1749.21 985.374 1751.83 988.687 1754.46 992.966 C 1760.94 1003.34 1762.88 1015.93 1759.81 1027.77 L 1758.97 1028.47 C 1757.2 1027.88 1757.4 1017.15 1756.84 1013.5 C 1754.89 1000.66 1751.05 994.232 1744.45 983.645 z" fill="rgb(255,255,255)" transform="translate(0,0)"></path>
<path d="M 399.68 1002.62 C 403.5 1003.74 406.116 1005.46 409.322 1007.71 C 412.857 1012.47 409.007 1013.87 412.153 1019.35 C 415.356 1020.88 416.2 1021.05 418.496 1023.85 C 413.592 1023.53 404.897 1024.2 402.414 1019.82 C 405.813 1011.27 406.132 1009.43 399.68 1002.62 z" fill="rgb(255,255,255)" transform="translate(0,0)"></path>
<path d="M 123.256 242.565 L 124.414 243.62 C 126.925 251.44 129.31 249.296 130.405 253.724 C 127.343 255.877 125.592 257.373 122.763 259.85 C 120.854 258.675 117.418 255.156 116.222 253.044 C 116.967 248.006 119.326 246.472 123.256 242.565 z" fill="rgb(255,255,255)" transform="translate(0,0)"></path>
<path d="M 388.464 711.414 C 392.004 713.656 396.266 716.863 396.337 721.102 C 394.327 723.52 392.682 725.149 390.48 727.34 L 389.473 727.569 C 387.021 725.085 384.462 722.79 383.458 719.504 C 386.462 716.424 387.01 715.464 388.464 711.414 z" fill="rgb(255,255,255)" transform="translate(0,0)"></path>
<path d="M 941.625 563.613 C 945.383 566.874 949.483 569.127 948.588 574.145 C 945.838 576.86 945.222 577.778 942.991 580.99 L 942.841 581.145 L 941.57 580.988 C 940.051 576.195 940.072 576.152 936.483 573.888 L 936.35 572.11 C 939.725 568.925 940.254 568.046 941.625 563.613 z" fill="rgb(255,255,255)" transform="translate(0,0)"></path>
<path d="M 935.212 932.669 C 940.346 930.956 993.093 931.73 998.729 933.264 C 981.812 933.674 964.041 933.925 947.163 934.873 C 944.864 931.911 939.16 932.912 935.212 932.669 z" fill="rgb(119,119,120)" transform="translate(0,0)"></path>
<path d="M 1307.75 777.265 C 1312.14 778.018 1310.52 777.028 1313.4 779.436 C 1314.75 783.67 1312.69 788.879 1311.5 793.49 C 1304.77 787.744 1304.65 785.37 1307.75 777.265 z" fill="rgb(255,255,255)" transform="translate(0,0)"></path>
<path d="M 674.274 986.469 C 681.192 985.32 701.765 986.201 709.259 986.567 C 700.876 986.802 680.043 989.969 674.274 986.469 z" fill="rgb(147,146,149)" transform="translate(0,0)"></path>
<path d="M 744.672 1001.23 C 748.047 1001.46 752.701 1001.31 755.278 1003.09 C 752.058 1005.02 745.971 1003.89 742.189 1003.43 C 744.439 1002.59 743.625 1003.33 744.672 1001.23 z" fill="rgb(182,183,185)" transform="translate(0,0)"></path>
<path d="M 760.394 1002.48 C 763.767 1001.58 765.432 1001.71 768.169 1003.56 C 764.916 1004.13 763.767 1004.43 760.384 1004.28 L 760.394 1002.48 z" fill="rgb(182,183,185)" transform="translate(0,0)"></path>
<metadata><recraft-signature>{"signed_by": "recraft", "signature_b64": "MW3gSaX+idDJfJ2zv+ylzl4MUv95xEoKW2CR+QUg2Ojd4hpdSqs4V4D4gpa4o2sFIuvak/LPQo9tYE02bteGBw==", "signing_algo": "Ed25519", "generation_timestamp": 1766797235, "identifier": "fbc2fdff-21c5-4c6e-a218-2c9b31946a52"}</recraft-signature></metadata></svg>