<svg xmlns="http://www.w3.org/2000/svg" height="1024" preserveAspectRatio="none" style="display: block;" version="1.1" viewBox="0 0 2048 2048" width="1024">
<path d="M 0 0 L 2048 0 L 2048 2048 L 0 2048 L 0 0 z" fill="rgb(255,255,255)" transform="translate(0,0)"></path>
<path d="M 18.1855 13.0017 L 2028.34 12.9914 L 2028.19 653.345 C 1989.27 652.122 1953.97 648.489 1914.06 649.016 C 1850.33 649.119 1787.05 656.528 1723.89 663.818 C 1638.31 673.696 1553.38 682.543 1469.49 702.932 C 1449.56 707.776 1428.79 711.169 1408.89 716.432 C 1383.93 723.032 1356.31 725.49 1332.97 736.793 C 1330.47 738.556 1329.3 742.118 1329.42 744.842 C 1330.38 765.187 1295.59 763.236 1284.07 768.453 C 1271.35 774.212 1199.52 794.508 1195.42 802.441 C 1196.81 808.313 1199.39 805.899 1201.08 810.99 C 1192.7 819.029 1174.82 819.895 1164.61 826.549 C 1155.69 832.357 1163.72 838.085 1153.77 839.604 C 1131.34 843.027 1108.59 846.762 1087.01 854.072 C 1082.9 855.466 1077.39 858.849 1076.03 863.174 C 1074.58 868.393 1078.79 872.932 1080.52 878.131 C 1077 884.322 1046.03 891.646 1037.95 894.027 C 1020.41 899.02 1003.2 905.07 986.39 912.144 C 991.56 920.449 997.162 923.42 1003.02 930.675 C 1006.88 935.394 1008.55 941.54 1007.6 947.566 C 1004.85 964.016 977.098 976.907 963.695 986.584 C 934.127 1007.93 959.303 1012.63 954.777 1036.38 L 954.474 1037.93 C 967.018 1040.32 992.24 1048.99 1005.07 1053.14 C 1049.78 1067.8 1094.06 1083.77 1137.83 1101.04 C 1149.69 1105.74 1191.43 1124.06 1201.03 1125.47 C 1205.41 1118.5 1202.3 1112.53 1196.79 1108.19 C 1186.57 1100.03 1177.09 1086.27 1176.09 1072.7 C 1175.19 1060.5 1177.13 1043.28 1177.23 1030.55 C 1177.8 1023.75 1180.47 1016.41 1180.89 1009.67 C 1182.51 984.181 1188.5 954.206 1194.62 929.619 C 1199.07 911.777 1204.87 870.037 1215.4 855.695 C 1218.23 854.213 1216.81 854.344 1219.75 855.071 C 1221.15 856.496 1223.05 858.467 1223.75 860.595 C 1231.35 883.842 1234.19 910.469 1238.96 934.57 C 1239.34 936.464 1238.14 939.99 1237.51 941.718 C 1245.81 955.143 1247.62 993.694 1248.51 1010.49 C 1249.1 1021.61 1246.82 1027.62 1249.24 1040.06 C 1254.69 1068.03 1250.44 1102.43 1221.13 1115.24 C 1220.38 1120.97 1219.69 1126.71 1219.06 1132.46 C 1259.54 1150.99 1422.14 1213.43 1442.77 1242.2 C 1420.16 1245.18 1397.31 1246.7 1374.56 1248 C 1333.96 1250.31 1182.17 1253.99 1153.99 1276.11 C 1152.01 1277.66 1151.6 1278.6 1151.33 1281.04 C 1163.98 1303.52 1283.83 1336.57 1312.22 1345.76 C 1377.63 1366.36 1441.92 1390.38 1504.82 1417.71 C 1547.86 1436.36 1666.18 1487.25 1674.8 1537.19 C 1676.54 1546.8 1674.3 1556.7 1668.59 1564.62 C 1633.97 1613.4 1406.97 1632.88 1338 1646.88 C 1258.32 1663.04 1134.1 1681.78 1075.48 1752.07 C 1061.48 1768.86 1065.83 1791.87 1081.64 1806.96 C 1154.65 1876.63 1371.29 1919.02 1393.9 2027.86 C 1355.11 2030.01 1306.38 2029.01 1266.83 2029.07 L 1015.3 2029.13 C 973.561 2029.15 924.036 2027.96 883.173 2029.61 C 875.158 2004.34 870.992 1980.09 862.022 1954.94 C 853.388 1949.86 843.384 1946.47 834.558 1941.74 C 781.102 1913.09 737.564 1867.82 696.551 1823.95 C 659.577 1784.1 623.466 1743.46 588.243 1702.05 C 595.24 1743.67 602.693 1785.22 610.602 1826.67 C 612.884 1839.24 622.858 1894.89 627.017 1905.05 C 641.847 1941.29 674.467 1999.79 700.038 2028.95 C 693.406 2028.69 686.81 2028.79 680.173 2028.82 C 671.238 2014.54 663.968 2002.65 656.12 1987.83 C 649.128 1974.63 639.711 1953.06 631.879 1941.24 C 637.445 1970.62 643.633 1999.87 650.437 2028.99 C 644.639 2029.42 638.614 2029.36 632.782 2029.42 C 608.604 1902.75 582.148 1777.33 561.27 1649.73 C 541.506 1526.38 523.269 1402.78 506.562 1278.98 L 485.244 1107.18 C 479.201 1058.68 472.19 1010.3 464.214 962.071 C 458.984 931.633 447.517 879.146 446.828 850.98 C 433.729 865.991 413.118 901.723 403.253 920.363 C 405.269 933.796 409.981 950.671 412.68 964.753 C 419.052 999.852 426.024 1034.84 433.593 1069.7 C 440.034 1098.98 447.508 1128.13 453.986 1157.5 C 474.395 1250.92 491.484 1345.04 505.223 1439.67 C 509.223 1466.29 515.061 1496.75 518.111 1523.04 C 515.165 1515.99 513.004 1504.14 511.228 1496.49 C 506.829 1477.52 503.557 1458.25 500.029 1439.1 L 478.83 1329.36 L 441.416 1149.93 C 429.699 1095.48 419.054 1048.34 409.747 993.28 L 407.561 995.404 L 423.295 1254.29 C 425.273 1287.57 426.526 1326.69 430.302 1359.82 C 431.494 1370.27 444.084 1399.06 448.337 1410.94 C 457.539 1437.41 466.108 1464.1 474.037 1490.99 C 492.297 1552.47 509.121 1614.37 524.497 1676.64 C 547.307 1773.34 568.075 1870.52 586.788 1968.09 C 588.505 1976.66 600.147 2023.57 598.221 2028.39 C 591.372 2030.38 587.898 2027.75 586.635 2021.05 C 581.121 1991.82 574.719 1962.42 569.403 1933.17 C 539.672 1774.59 501.964 1617.6 456.422 1462.81 C 447.922 1434 440.141 1404.23 431.011 1375.65 C 431.945 1384.68 432.754 1393.7 433.343 1402.76 C 436.276 1447.79 440.321 1492.72 444.257 1537.67 C 453.748 1656.85 467.383 1775.66 485.135 1893.88 C 490.056 1925.81 495.18 1957.7 500.505 1989.56 C 501.387 1994.66 507.723 2023.72 506.422 2026.41 C 503.864 2027.89 502.901 2027.47 499.888 2027.28 C 492.683 2020.78 457.646 1769.62 454.246 1737.99 C 437.334 1580.64 425.568 1420.68 416.186 1262.69 C 412.549 1202.81 409.607 1142.89 407.362 1082.94 C 406.52 1057.13 405.422 1031.32 404.069 1005.53 C 402.846 979.559 403.197 956.192 396.292 931.038 C 388.029 943.834 361.836 979.432 360.188 991.101 C 353.033 1041.78 350.12 1106.36 348.434 1156.52 C 337.231 1448.37 354.636 1740.62 400.4 2029.09 C 393.357 2028.52 388.493 2028.47 381.405 2028.57 C 370.307 1957.18 362.497 1877.07 354.566 1805.1 C 348.762 1755.87 343.958 1706.53 340.156 1657.1 C 337.819 1630.18 334.32 1593.7 333.539 1567.23 C 308.767 1533.08 282.199 1516.74 241.945 1507.19 C 274.053 1507.41 309.176 1524.47 331.211 1547.5 C 330.703 1537.78 331.082 1519.33 328.32 1510.41 C 324.843 1503.78 316.282 1500.13 310.374 1497.26 C 245.531 1465.68 145.45 1504.87 98.6248 1553.26 C 63.6151 1589.45 36.107 1653.12 17.0219 1699.5 C 18.757 1656.82 17.6722 1611.37 17.4718 1568.56 L 17.479 1400.49 L 18.0221 835.243 C 38.0642 837.589 58.7648 837.148 77.706 839.362 C 79.0428 835.563 81.2775 830.213 80.764 826.38 C 64.127 821.467 36.7043 823.435 17.9941 818.839 C 17.1852 754.293 17.9028 688.986 17.7121 624.351 L 18.1855 13.0017 z" fill="rgb(9,9,9)" transform="translate(0,0)"></path>
<path d="M 407.561 995.404 C 406.677 987.875 405.228 977.23 405.807 969.788 C 407.499 977.913 408.576 985.049 409.747 993.28 L 407.561 995.404 z" fill="rgb(197,198,203)" transform="translate(0,0)"></path>
<path d="M 848.484 653.265 C 858.158 668.541 884.926 740.019 892.549 760.356 C 896.633 771.252 886.498 798.205 902.042 822.535 C 908.789 836.374 920.44 846.254 928.539 858.496 C 938.457 873.489 989.761 930.121 997.033 940.841 C 1006.11 954.215 948.518 979.963 941.389 992.33 C 931.77 1009.02 942.113 1011.31 947.042 1028.06 C 948.351 1034.38 937.063 1042.82 933.977 1046.93 C 935.469 1051.74 942.003 1052.81 944.101 1057.79 C 949.655 1070.99 928.884 1082.42 927.172 1095.26 C 924.176 1117.73 944.174 1138.07 946.082 1159.63 C 946.42 1163.45 946.024 1167.34 944.683 1170.94 C 929.304 1212.27 811.752 1194.92 775.93 1212.04 C 769.721 1215.01 765.523 1219.78 762.643 1225.98 C 757.102 1237.92 754.237 1252.05 750.684 1264.71 C 745.517 1283.09 740.062 1301.39 734.322 1319.6 C 722.957 1355.83 709.528 1389.62 697.334 1425.26 C 688.542 1452.82 666.893 1534.62 681.906 1559.43 C 699.74 1588.9 720.241 1621.61 737.049 1654.27 C 691.837 1627.35 655.051 1585.94 616.38 1550.27 C 596.42 1531.85 572.545 1511.45 554.034 1492.21 C 550.959 1480.26 548.633 1457.78 546.874 1444.73 C 543.221 1417.29 539.37 1389.87 535.32 1362.48 C 533.566 1353.31 532.054 1338.13 530.736 1328.48 C 526.541 1296.85 522.579 1265.18 518.851 1233.49 C 514.749 1200.57 495.145 1075.84 499.569 1054.32 C 502.507 1040.03 508.445 1027.52 520.676 1019.1 C 512.128 1031.12 506.768 1038.6 503.216 1053.28 C 490.456 1106.02 536.765 1113.36 572.396 1091.24 C 585.313 1092.8 589.242 1093.91 601.394 1089.13 C 612.115 1127.96 638.607 1159.41 677.041 1171.63 C 688.977 1175.42 732.773 1189.48 744.287 1186.4 C 743.253 1185.13 743.951 1185.66 741.906 1185.18 C 705.046 1176.5 660.48 1160.26 635.916 1129.82 C 626.307 1117.91 615.914 1099.98 607.649 1086.49 C 607.85 1086.3 608.051 1086.12 608.252 1085.93 L 609.24 1084.97 C 618.009 1076.59 618.424 1073.96 622.608 1062.61 C 611.202 1070.88 603.829 1079.73 587.144 1078.36 C 551.58 1075.44 544.919 1037.97 527.248 1018.61 L 526.266 1017.55 C 530.652 1012.34 533.847 1010.01 539.643 1006.58 C 550.38 1007.64 568.628 1005.91 576.522 1007.42 C 560.924 1022.3 559.73 1031.38 582.319 1040.49 C 587.146 1042.43 590.78 1042.13 595.332 1039.84 C 604.345 1027.15 583.775 1032.89 579.872 1025.83 C 578.829 1023.94 576.56 1021.36 577.669 1018.76 C 585.241 1001 610.471 1005.04 624.841 995.225 C 657.83 972.514 669.419 930.395 674.573 893.023 C 675.912 883.314 678.017 858.409 680.404 851.925 C 691.677 819.243 729.436 804.828 747.253 778.093 C 770.465 743.265 781.442 701.703 811.477 670.446 C 822.681 658.787 835.701 660.497 848.484 653.265 z" fill="rgb(255,255,255)" transform="translate(0,0)"></path>
<path d="M 849.381 782.695 C 850.922 784.001 851.529 786.649 852.398 788.652 L 855.952 786.275 C 862.09 787.145 866.59 786.876 872.768 786.714 C 863.652 791.697 858.137 790.65 850.797 796.237 C 849.077 799.734 849.223 797.992 850.159 801.625 C 853.478 800.993 861.215 801.987 863.092 800.495 C 865.089 798.907 863.466 796.883 868.094 795.925 C 871.989 799.013 867.621 796.272 868.805 800.408 C 873.426 799.008 873.414 798.192 877.358 799.188 L 877.026 800.44 C 873.628 802.146 870.283 803.957 866.996 805.871 C 857.743 811.284 850.219 816.011 847.512 826.222 C 844.351 823.386 847.105 819.736 842.597 816.694 C 836.93 819.16 843.334 824.045 835.237 831.312 C 834.013 838.963 841.361 835.056 844.487 840.609 C 842.617 842.218 842.195 842.583 840.636 844.476 C 838.019 853.915 845.833 862.604 847.669 873.628 L 846.849 874.719 C 846.276 874.474 845.351 874.1 844.883 873.771 C 835.229 866.976 803.88 869.267 789.07 857.501 C 787.07 855.913 786.29 855.166 786.023 852.621 L 787.441 852.126 C 795.753 855.957 803.593 859.302 812.387 861.868 C 820.182 864.144 831.62 863.103 837.686 867.91 C 837.463 863.262 834.059 854.274 832.426 849.4 C 828.823 839.682 826.921 833.855 825.033 823.74 C 803.128 834.088 785.5 843.999 764.894 854.265 C 783.468 827.674 817.044 823.637 841.783 805.88 C 844.126 804.198 844.74 799.106 844.848 796.306 L 843.678 795.651 C 832.303 798.252 785.174 823.277 775.31 831.33 C 786.045 815.972 810.189 803.824 826.928 795.451 C 836.68 790.573 841.181 789.962 849.381 782.695 z" fill="rgb(9,9,9)" transform="translate(0,0)"></path>
<path d="M 842.079 739.114 C 853.311 738.156 861.697 738.777 872.148 742.699 C 875.706 746.372 878.826 749.508 879.491 754.618 C 879.129 755.31 878.767 756.002 878.405 756.694 C 868.468 756.465 851.956 755.583 842.544 758.315 C 815.605 766.133 795.678 780.582 773.981 797.235 C 769.549 800.774 757.212 809.886 752.397 812.555 C 750.853 807.262 763.491 794.38 767.18 790.372 C 788.428 767.284 811.508 748.339 842.079 739.114 z" fill="rgb(9,9,9)" transform="translate(0,0)"></path>
<path d="M 958.524 958.352 C 962.463 958.823 967.522 959.61 970.568 962.218 L 969.898 963.651 C 949.815 969.304 937.919 980.96 926.404 983.831 C 923.326 983.449 917.694 981.903 915.509 979.569 C 935.392 972.475 933.291 962.177 958.524 958.352 z" fill="rgb(9,9,9)" transform="translate(0,0)"></path>
<path d="M 936.018 1021.87 L 936.668 1022.52 C 934.458 1033.12 906.875 1054.94 897.662 1059.9 C 908.93 1059.96 925.546 1060.46 935.119 1066.51 C 936.311 1069.17 936.107 1069.1 935.861 1072.07 L 934.645 1072.2 L 932.718 1068.76 C 917.014 1062.65 893.522 1064.15 889.025 1061.55 C 891.699 1058.45 893.757 1058.94 897.199 1057.15 C 910.76 1050.08 924.716 1032.05 936.018 1021.87 z" fill="rgb(9,9,9)" transform="translate(0,0)"></path>
<path d="M 914.423 942.683 L 915.743 943.069 C 916.479 945.091 909.553 955.152 907.406 960.012 L 906.878 961.239 C 907.564 965.619 909.521 972.937 910.604 977.482 L 909.273 979.586 C 894.631 967.016 901.677 953.246 914.423 942.683 z" fill="rgb(9,9,9)" transform="translate(0,0)"></path>
<path d="M 430.335 749.519 C 442.538 728.452 457.436 707.621 471.077 687.501 C 522.284 611.971 583.909 546.789 655.773 490.645 C 668.129 480.992 678.623 467.618 690.475 458.343 C 701.38 449.808 724.359 477.746 732.454 483.816 C 750.557 496.482 761.158 504.658 772.263 523.006 C 746.579 529.529 719.268 547.236 696.209 559.636 C 618.957 600.853 551.894 660.911 507.315 737.048 C 452.815 831.203 380 913.694 331.424 1011.36 C 311.761 1050.9 287.903 1086.95 255.767 1117.33 C 276.211 1084.6 293.694 1036.02 311.096 1000.3 C 318.007 986.12 340.929 943.321 344.615 931.785 C 320.77 966.16 299.23 1013.51 280.393 1051.52 C 269.755 1072.98 259.619 1096.19 246.678 1116.7 C 243.491 1121.76 237.794 1126.13 232.697 1128.93 C 210.664 1141.04 184.735 1150.08 159.745 1153.35 C 156.148 1153.82 151.359 1155.95 147.878 1154.73 C 142.984 1153.03 137.204 1152.17 132.039 1151.14 C 155.81 1126.89 190.803 1107.76 211.468 1080.84 C 236.079 1048.77 248.051 1012.5 264.613 976.08 C 280.125 941.659 297.017 907.877 315.248 874.816 C 348.412 814.46 391.096 759.313 432.279 704.545 C 463.924 661.718 496.986 619.956 531.41 579.328 C 543.242 565.329 560.56 544.49 572.92 531.788 C 590.607 513.611 631.355 477.471 653.972 467.985 L 666.99 469.09 C 643.771 486.933 621.02 504.415 599.367 524.261 C 546.327 572.873 503.242 629.072 463.943 688.996 C 451.592 707.829 438.918 728.243 428.387 748.179 L 430.335 749.519 z" fill="rgb(255,255,255)" transform="translate(0,0)"></path>
<path d="M 428.387 748.179 L 430.335 749.519 C 427.367 754.131 424.18 758.433 420.966 762.87 C 423.269 757.674 425.183 752.912 428.387 748.179 z" fill="rgb(9,9,9)" transform="translate(0,0)"></path>
<path d="M 291.755 548.158 L 292.348 548.582 C 281.9 567.217 274.28 584.308 267.883 604.795 C 243.198 683.852 246.971 821.374 285.41 893.603 C 279.417 906.69 272.577 918.465 266.685 931.948 C 236.227 927.91 202.168 911.555 177.281 893.836 C 169.552 888.333 162.411 882.167 154.748 877.007 L 153.831 876.399 C 177.67 904.828 225.086 933.019 261.381 939.532 C 257.395 951.1 245.524 976.66 240.1 988.091 C 213.457 983.614 185.481 976.182 163.068 960.668 C 158.922 957.798 154.679 955.118 150.323 952.58 C 150.675 954.584 152.399 955.451 154.312 957.206 C 183.18 981.495 203.147 987.151 237.587 996.782 C 232.172 1010.2 226.311 1024.02 222.055 1037.8 C 174.496 1005.23 120.155 956.652 89.8044 907.135 C 78.8395 889.246 80.2838 872.434 85.1474 852.839 C 89.2303 836.39 96.0282 820.611 102.096 804.813 C 137.958 711.442 204.677 601.126 291.755 548.158 z" fill="rgb(255,255,255)" transform="translate(0,0)"></path>
<path d="M 518.002 457.447 C 520.261 457.183 520.734 457.294 523.024 457.513 C 523.156 458.043 523.288 458.573 523.419 459.103 C 516.112 469.12 507.638 482.982 502.26 493.444 C 478.15 540.346 463.503 592.944 457.636 645.187 C 449.332 657.122 437.349 671.132 428.185 683.402 C 393.338 730.059 359.092 774.188 327.457 823.16 C 308.896 782.041 292.779 742.559 287.133 697.255 C 284.963 679.841 286.748 659.37 283.833 642.95 C 274.317 712.819 289.157 773.431 321.061 835.55 L 304.499 861.754 C 294.625 829.849 292.587 786.414 283.897 756.837 C 282.729 784.645 291.969 840.68 301.053 867.205 C 297.765 874.408 292.497 882.428 288.274 889.279 C 277.458 854.74 272.237 832.966 267.12 797.235 C 262.912 761.773 260.397 734.537 262.607 698.77 C 265.401 653.546 270.157 610.976 287.814 568.516 C 291.031 560.779 296.367 548.767 302.295 542.185 C 326.067 523.931 368.536 502.207 395.449 491.057 C 380.068 516.551 363.711 548.879 360.293 578.671 C 370.183 555.867 391.448 498.254 413.235 484.057 C 430.372 472.89 472.642 463.48 494.324 459.723 C 483.265 477.421 471.545 491.44 462.892 512.175 C 458.667 522.302 453.143 534.177 449.705 544.62 C 441.527 569.461 416.899 665.142 419.516 687.717 C 423.861 668.765 429.761 649.129 434.34 630.004 C 449.954 564.787 462.874 514.092 502.338 458.389 L 518.002 457.447 z" fill="rgb(255,255,255)" transform="translate(0,0)"></path>
<path d="M 556.47 1511.45 C 563.357 1516.3 584.138 1538.83 591.243 1545.86 C 609.777 1564.02 628.493 1582 647.389 1599.79 C 675.929 1626.73 705.044 1655.23 740.183 1673.42 C 745.549 1676.19 757.486 1683.2 762.169 1677.87 C 762.421 1669.63 728.188 1612.85 722.868 1601.73 C 712.658 1580.39 694.998 1565.22 689.565 1539.97 C 712.901 1565.94 731.008 1589.64 752.973 1616.37 C 800.926 1671.07 792.921 1697.34 793.231 1766.79 C 793.262 1773.68 795.273 1785.18 785.971 1786.3 C 761.199 1789.29 730.934 1773.88 714.74 1755.71 C 669.774 1696.41 617.507 1642.6 570.042 1585.7 C 566.687 1581.68 558.82 1522.4 556.47 1511.45 z" fill="rgb(255,255,255)" transform="translate(0,0)"></path>
<path d="M 342.573 1011.72 C 344.202 1020.12 333.388 1060.27 330.55 1070.45 C 311.83 1137.45 290.902 1205.57 258.802 1267.48 C 246.48 1291.24 221.564 1315.13 193.204 1313.41 C 174.704 1312.28 163.376 1309.38 150.113 1295.5 C 133.514 1273.27 133.71 1250.48 147.445 1227.08 C 150.507 1230.28 151.819 1231.65 155.725 1233.77 C 162.941 1237.69 176.984 1234.16 184.603 1231.03 C 212.898 1219.41 237.138 1186.9 248.795 1159.49 C 252.599 1150.54 256.363 1133.98 261.146 1126.95 C 268.298 1116.91 282.599 1109.97 289.964 1100.44 C 309.751 1074.82 328.733 1040.97 342.573 1011.72 z" fill="rgb(255,255,255)" transform="translate(0,0)"></path>
<path d="M 571.302 1604.6 C 574.171 1606.12 694.968 1755.93 709.513 1770.41 C 724.465 1785.3 751.348 1814.88 770.858 1831.27 C 780.1 1839.03 808.291 1861.84 816.173 1869.81 L 817.295 1870.95 C 824.596 1855.04 822.757 1843.39 821.15 1826.65 C 836.955 1854.06 846.709 1871.86 855.576 1902.8 C 859.05 1916.95 861.259 1926.87 862.376 1941.33 C 793.839 1907.97 730.602 1839.13 678.574 1784.77 C 647.898 1752.72 612.888 1717.24 586.523 1681.8 C 583.206 1677.34 573.312 1615.88 571.302 1604.6 z" fill="rgb(255,255,255)" transform="translate(0,0)"></path>
<path d="M 1680.51 612.443 L 1693.03 612.688 C 1692.78 621.883 1691.6 638.596 1694.42 646.742 L 1695.59 646.726 C 1699.25 637.003 1698.16 623.332 1698.27 612.639 C 1706.21 613.277 1713.3 614.628 1721.12 616.018 C 1721.38 628.22 1722.37 640.396 1724.1 652.478 C 1647.06 659.56 1570.49 671.076 1494.78 686.969 C 1472.25 692.069 1449.69 696.99 1427.08 701.731 C 1429.14 689.865 1428.91 678.779 1428.73 666.841 C 1434.57 666.145 1440.4 665.403 1446.23 664.616 C 1445.84 656.319 1445.94 649.895 1446.21 641.567 C 1528.72 623.657 1596.92 616.419 1680.51 612.443 z" fill="rgb(255,255,255)" transform="translate(0,0)"></path>
<path d="M 202.726 1417.41 C 207.157 1416.68 216.517 1416.76 221.43 1416.69 C 260.033 1416.2 292.446 1425.18 327.031 1441.32 C 326.96 1459.69 327.55 1478.05 328.8 1496.37 C 323.388 1493.14 317.784 1490.25 312.019 1487.72 C 267.498 1468.58 215.35 1476.64 171.723 1494.24 C 138.539 1507.58 102.401 1532.14 79.3933 1559.47 C 84.2111 1549.44 96.5048 1526.38 102.61 1518.19 C 122.884 1491 165.17 1438.53 191.018 1418.69 C 194.686 1418.12 198.984 1417.79 202.726 1417.41 z" fill="rgb(255,255,255)" transform="translate(0,0)"></path>
<path d="M 543.047 456.42 C 573.01 455.045 617.278 462.793 648.133 465.489 C 610.425 484.376 540.968 550.442 512.105 582.388 C 496.263 599.644 477.618 621.851 463.057 640.327 C 467.769 622.796 471.11 603.446 475.604 585.721 C 487.422 539.11 501.882 496.314 530.218 456.936 C 534.347 456.881 538.883 456.593 543.047 456.42 z" fill="rgb(255,255,255)" transform="translate(0,0)"></path>
<path d="M 1556.2 378.744 C 1561.12 378.877 1602.35 387.983 1608.74 389.475 C 1633.41 395.235 1653.99 398.104 1678.94 401.711 L 1678.95 417.603 C 1667.95 418.543 1645.92 424.004 1634.09 426.608 C 1604.58 432.987 1575.14 439.682 1545.78 446.692 L 1477.66 462.521 C 1471.42 463.908 1447.29 470.522 1443.34 467.182 C 1442.64 463.983 1441.92 460.412 1442.86 457.172 C 1443.87 453.66 1512.08 405.779 1520.45 400.308 C 1532.07 392.704 1544.22 385.775 1556.2 378.744 z" fill="rgb(255,255,255)" transform="translate(0,0)"></path>
<path d="M 1555.78 396.994 C 1563.89 396.519 1617.73 404.22 1625.44 409.02 L 1625.51 410.391 C 1612.92 415.598 1571.18 408.652 1556.81 406.612 C 1553.11 409.285 1547.84 413.819 1544.17 416.799 C 1534.3 424.895 1522.15 435.968 1509.69 438.451 C 1504.49 439.488 1492.04 442.639 1487.77 440.018 C 1488.78 438.748 1488.2 439.178 1489.72 438.506 C 1511.78 428.754 1534.07 406.465 1555.78 396.994 z" fill="rgb(9,9,9)" transform="translate(0,0)"></path>
<path d="M 1682.71 427.619 C 1696.95 429.5 1738.4 444.897 1754.49 449.56 C 1817.58 467.846 1881.13 491.036 1944.53 508.181 L 1944.39 537.905 C 1943.37 538.675 1942.26 538.925 1940.94 538.558 C 1871.9 519.411 1803.62 496.915 1734.13 479.437 C 1722.44 476.495 1696.38 468.861 1685.29 468.85 C 1683.81 454.449 1683.27 442.085 1682.71 427.619 z" fill="rgb(255,255,255)" transform="translate(0,0)"></path>
<path d="M 333.437 1104.37 C 333.899 1104.65 335.075 1105.31 335.389 1105.66 C 334.915 1123.67 332.217 1142.65 331.701 1160.5 C 330.588 1198.94 328.388 1237.95 327.341 1276.32 C 301.356 1305.71 266.186 1329.32 235.708 1354.53 C 232.531 1354.21 229.362 1353.82 226.203 1353.36 C 204.161 1350.01 179.69 1332.18 166.636 1314.5 C 172.61 1317.78 177.444 1320.5 184.05 1322.51 C 200.419 1327.41 218.076 1325.47 232.988 1317.12 C 282.365 1290.02 317.997 1157.64 333.437 1104.37 z" fill="rgb(255,255,255)" transform="translate(0,0)"></path>
<path d="M 1673.52 429.139 C 1674.34 429.037 1675.02 429.353 1675.93 429.597 C 1680.93 437.901 1678.89 458.763 1678.42 468.98 C 1652.97 474.274 1627.03 480.429 1601.62 486.331 C 1558.03 496.457 1509.64 503.163 1467.08 515.715 C 1465.63 513.518 1467.06 489.332 1467.22 484.986 C 1465.08 482.072 1463.39 479.361 1461.46 476.299 C 1516.37 466.865 1571.8 451.025 1626.5 439.949 C 1641.99 436.812 1658.29 433.163 1673.52 429.139 z" fill="rgb(255,255,255)" transform="translate(0,0)"></path>
<path d="M 334.331 85.2003 C 360.599 82.5261 373.274 87.1622 395.899 100.316 C 378.619 96.6457 367.239 96.0916 350.596 102.736 C 318.946 115.373 302.749 148.802 316.25 181.047 C 322.455 195.956 334.452 207.705 349.487 213.596 C 366.034 220.15 381.464 217.99 397.348 211.164 C 377.019 239.071 330.847 245.314 301.904 227.107 C 285.005 216.307 273.034 199.293 268.575 179.74 C 264.003 159.537 267.836 138.343 279.195 121.021 C 292.889 100.037 310.447 90.2988 334.331 85.2003 z" fill="rgb(255,255,255)" transform="translate(0,0)"></path>
<path d="M 325.819 1303.83 C 326.752 1307.81 325.986 1350.53 325.939 1356.28 C 325.816 1382.49 326.003 1408.7 326.5 1434.9 C 301.664 1414.41 254.613 1406.27 223.302 1407 C 216.694 1408.37 205.398 1409.06 197.619 1410.29 C 211.278 1394.08 227.054 1382.22 243.61 1369.06 L 298.716 1325.91 C 307.421 1319.1 317.98 1311.36 325.819 1303.83 z" fill="rgb(255,255,255)" transform="translate(0,0)"></path>
<path d="M 754.861 739.978 C 755.541 740.634 755.124 740.135 755.599 741.785 C 750.403 754.487 739.632 766.736 730.893 776.774 C 680.796 834.317 601.879 797.051 550.371 824.75 L 549.39 824.793 L 549.32 823.403 C 554.435 817.321 567.563 797.183 572.574 793.794 C 625.879 757.742 702.562 775.42 754.861 739.978 z" fill="rgb(255,255,255)" transform="translate(0,0)"></path>
<path d="M 561.264 837.531 C 565.719 838.571 575.275 838.673 581.984 840.176 C 618.735 848.412 637.451 851.114 673.813 837.89 C 646.85 864.677 622.259 872.298 585.962 879.586 C 571.347 881.551 557.598 880.487 542.907 880.436 C 519.476 880.353 502.142 885.863 480.773 894.061 C 495.39 877.603 524.959 847.943 545.516 840.058 C 548.537 838.899 557.585 837.939 561.264 837.531 z" fill="rgb(255,255,255)" transform="translate(0,0)"></path>
<path d="M 249.244 1132.98 C 249.962 1133.67 249.51 1133.13 249.988 1134.95 C 236.976 1172.51 222.373 1195.62 188.333 1218.45 C 166.371 1212.37 164.522 1211.19 150.355 1193.52 C 146.01 1187.71 124.519 1160.58 131.713 1153.77 C 137.723 1155.08 143.883 1159.95 151.774 1160.5 C 184.584 1162.79 223.055 1151.44 249.244 1132.98 z" fill="rgb(255,255,255)" transform="translate(0,0)"></path>
<path d="M 796.473 660.314 L 802.328 661.06 L 802.928 662.19 C 796.003 669.685 784.139 684.56 777.434 689.956 C 738.69 721.137 668.604 710.009 628.43 729.093 L 624.623 730.373 L 624.397 728.985 C 627.564 720.723 643.437 701.723 650.231 695.478 C 655.951 695.057 661.118 693.27 666.648 691.794 C 701.706 682.44 738.411 680.066 772.613 667.402 C 779.444 664.873 789.41 661.013 796.473 660.314 z" fill="rgb(255,255,255)" transform="translate(0,0)"></path>
<path d="M 1686.18 400.634 C 1700.86 404.006 1718.98 410.759 1734.01 415.408 C 1779.27 429.645 1824.36 444.387 1869.29 459.631 C 1884.63 464.701 1900.02 469.619 1915.45 474.385 C 1930.89 479.138 1945.01 482.405 1959.06 490.354 C 1959.24 494.768 1959.71 498.804 1958.77 503.089 C 1949.34 500.991 1936.02 495.947 1926.48 492.923 C 1906.18 486.681 1885.91 480.321 1865.69 473.843 L 1684.94 416.362 L 1686.18 400.634 z" fill="rgb(255,255,255)" transform="translate(0,0)"></path>
<path d="M 653.875 870.946 L 654.45 872.509 C 637.623 899.933 623.698 919.976 592.66 932.361 C 566.698 943.029 537.864 944.368 511.898 932.963 C 503.151 929.121 495.109 922.994 486.032 919.319 C 481.942 918.68 476.863 918.721 473.163 917.482 L 472.168 914.976 C 473.253 905.665 476.034 904.577 484.326 902.863 C 508.917 897.781 530.013 910.306 554.394 911.548 C 593.071 913.518 625.818 896.425 653.875 870.946 z" fill="rgb(255,255,255)" transform="translate(0,0)"></path>
<path d="M 599.573 646.85 C 600.34 651.241 598.442 662.465 598.324 667.879 C 597.398 710.689 586.254 761.441 557.017 794.236 C 558.111 788.898 558.68 785.119 558.424 779.642 C 556.776 744.412 551.307 703.274 573.687 673.14 C 581.225 662.99 590.313 655.218 599.573 646.85 z" fill="rgb(255,255,255)" transform="translate(0,0)"></path>
<path d="M 476.687 934.826 C 487.374 943.556 494.135 949.931 507.682 954.752 C 547.376 968.877 566.202 962.83 602.193 946.837 C 595.989 952.404 591.662 955.581 584.828 960.451 C 544.582 988.916 533.669 988.46 487.392 989.121 C 483.284 975.515 478.876 949.074 476.687 934.826 z" fill="rgb(255,255,255)" transform="translate(0,0)"></path>
<path d="M 1925.19 76.221 C 1925.69 76.418 1926.23 76.5439 1926.69 76.812 C 1930.22 78.8454 1933.07 108.785 1934.56 114.906 C 1939.18 113.05 1950.5 105.491 1954.28 106.842 C 1952.65 113.225 1943.3 118.489 1943.98 125.359 C 1949.68 127.7 1964.57 129.871 1972.03 131.961 L 1972.13 133.046 C 1968.89 134.91 1946.16 138.364 1940.74 139.366 C 1946.76 147.075 1949.46 150.403 1953.85 159.113 C 1947.75 155.305 1942.33 148.826 1934.58 151.336 C 1928.51 156.931 1932.88 179.402 1926.48 187.238 C 1920.23 177.021 1921.42 159.602 1919.07 146.283 C 1911.75 151.843 1907.88 154.787 1899.91 159.146 C 1902.07 155.629 1910.02 143.52 1910.46 140.471 C 1903.07 135.993 1888.97 136.574 1880.84 132.752 L 1880.83 131.467 C 1884.02 129.782 1906.99 125.68 1912.99 124.247 C 1908.41 118.855 1902.22 109.619 1897.95 103.641 C 1905.24 107.199 1911.06 112.155 1918.51 110.35 C 1923.22 105.647 1922.43 85.4963 1925.19 76.221 z" fill="rgb(255,255,255)" transform="translate(0,0)"></path>
<path d="M 927.291 172.499 C 937.676 179.285 926.68 203.354 936.43 205.897 C 943.523 204.006 949.486 197.802 954.922 192.856 C 952.506 199.618 945.12 211.947 946.499 216.886 C 949.282 218.589 967.708 221.226 974.088 222.871 C 967.999 224.408 950.062 228.396 947.077 232.477 C 945.842 237.977 953.398 247.132 956.945 253.856 C 950.93 250.288 942.7 243.021 936.202 243.355 C 932.307 246.656 930.759 265.341 929.188 272.749 L 928.011 273.743 C 924.672 270.687 922.418 249.571 920.698 242.696 L 920.383 241.479 C 913.208 244.092 906.561 250.317 902.737 250.628 C 902.065 243.131 910.932 239.806 906.994 231.385 C 899.383 224.931 881.977 228.682 878.393 223.292 C 882.51 219.919 902.784 221.069 908.437 214.367 C 908.921 209.503 903.32 198.462 901.163 193.516 C 905.886 197.308 916.315 207.812 922.332 204.479 C 923.644 201.725 925.755 179.624 927.291 172.499 z" fill="rgb(255,255,255)" transform="translate(0,0)"></path>
<path d="M 810.341 515.469 C 847.367 511.943 899.572 557.74 899.082 597.194 C 898.956 607.35 869.885 647.923 857.521 645.427 L 856.67 643.479 C 857.483 640.177 858 639.838 860.153 637.294 L 860.799 636.545 C 891.456 610.924 883.192 584.849 865.425 554.563 C 845.828 521.157 813.45 528.157 781.041 528.708 C 778.825 528.745 778.061 526.185 777.478 524.716 L 778.418 523.404 C 788.767 521.448 800.072 518.185 810.341 515.469 z" fill="rgb(255,255,255)" transform="translate(0,0)"></path>
<path d="M 1682.91 491.168 C 1688.97 492.573 1693.29 492.75 1699.48 493.182 C 1698.27 511.047 1701.56 594.669 1697.85 604.146 L 1695.24 604.825 C 1689.39 604.736 1683.07 604.367 1677.18 604.135 C 1676.07 581.088 1677.52 557.087 1677.75 533.972 C 1677.88 521.277 1677.34 508.537 1677.68 495.9 L 1682.91 491.168 z" fill="rgb(255,255,255)" transform="translate(0,0)"></path>
<path d="M 672.294 859.681 C 672.55 860.384 672.935 861.276 672.867 862.028 C 669.806 895.845 660.981 927.654 643.642 956.902 C 622.309 992.886 593.8 999.09 554.47 999.03 C 553.941 994.227 570.445 993.616 574.416 992.398 C 626.568 976.405 640.715 926.861 660.217 882.184 C 662.942 875.941 667.89 864.931 672.294 859.681 z" fill="rgb(255,255,255)" transform="translate(0,0)"></path>
<path d="M 1605.98 507.355 C 1608.86 507.046 1611.67 507.3 1614.3 508.544 C 1617.21 517.501 1614.57 590.553 1615.98 607.372 L 1616.15 609.254 L 1603.76 610.323 C 1599.72 610.936 1594.94 610.857 1590.8 610.928 C 1591.84 600.333 1591.9 584.332 1592.2 573.399 C 1592.74 553.262 1594.04 529.84 1592.54 509.865 L 1605.98 507.355 z" fill="rgb(255,255,255)" transform="translate(0,0)"></path>
<path d="M 175.122 252.628 C 182.32 258.31 179.958 285.017 186.303 288.55 C 191.514 286.155 197.205 279.707 203.548 276.128 C 200.765 280.898 193.073 291.767 191.759 295.292 C 194.411 301.693 215.237 299.887 221.54 304.295 C 215.518 309.893 200.382 305.31 192.245 311.608 C 192.424 317.711 199.633 320.416 199.975 326.715 C 196.385 331.086 190.691 319.578 182.563 320.766 C 181.805 323.217 178.916 350.651 177.553 357.779 L 176.626 359.178 C 172.865 355.025 170.931 326.414 170.127 318.652 C 166.085 321.087 156.639 328.974 153.202 328.491 C 153.85 324.051 158.394 316.089 160.652 311.445 C 151.286 307.118 139.969 305.294 129.681 302.725 C 140.654 300.257 152.039 297.933 162.76 294.624 C 159.313 290.62 152.305 284.08 153.938 278.539 C 158.894 278.52 164.283 286.455 169.889 286.5 C 174.55 280.24 171.647 263.246 175.122 252.628 z" fill="rgb(255,255,255)" transform="translate(0,0)"></path>
<path d="M 732.486 1778.68 C 735.318 1779.2 742.972 1783.23 745.94 1784.63 C 764.534 1793.43 777.064 1797.21 797.399 1792.08 C 809.926 1812.7 812.335 1831.6 813.415 1855.25 L 813.191 1857.41 L 811.867 1857.6 C 782.056 1836.46 756.082 1806.38 732.486 1778.68 z" fill="rgb(255,255,255)" transform="translate(0,0)"></path>
<path d="M 1653.59 499.478 C 1654.67 499.321 1653.95 499.323 1655.62 500.201 C 1658.53 509.605 1657.51 590.683 1657.22 604.872 C 1650.73 605.67 1643.78 606.164 1637.24 606.736 L 1635.94 606.611 C 1633.44 603.65 1636.81 512.888 1636.76 501.358 C 1642.25 500.877 1648.08 500.112 1653.59 499.478 z" fill="rgb(255,255,255)" transform="translate(0,0)"></path>
<path d="M 766.805 616.328 C 807.769 611.431 814.185 643.428 858.103 625.772 C 842.523 636.207 822.912 651.053 803.359 647.958 C 785.011 644.98 767.838 638.899 749.657 635.165 C 733.54 631.855 724.103 634.547 709.17 640.619 C 727.62 626.743 743.268 618.743 766.805 616.328 z" fill="rgb(255,255,255)" transform="translate(0,0)"></path>
<path d="M 1723.05 499.634 L 1741.86 504.588 C 1745.41 535.675 1740.29 583.268 1744.75 610.645 C 1737.28 609.744 1729.83 608.709 1722.4 607.541 C 1720.89 586.533 1722 567.069 1722.69 546.23 C 1723.19 531.158 1723 514.801 1723.05 499.634 z" fill="rgb(255,255,255)" transform="translate(0,0)"></path>
<path d="M 719.961 563.014 L 720.636 564.369 C 707.74 588.418 699.076 619.563 684.549 641.137 C 677.964 650.917 655.793 671.484 645.941 681.78 C 645.209 681.243 645.679 681.677 645.136 680.04 C 662.502 632.414 675.269 590.938 719.961 563.014 z" fill="rgb(255,255,255)" transform="translate(0,0)"></path>
<path d="M 1120.2 70.7385 C 1127.58 76.1514 1121.95 96.3189 1127.79 102.836 C 1130.56 102.759 1143.82 95.0624 1147.25 93.2594 C 1144.32 99.3428 1135.05 110.064 1137.59 116.021 C 1140.32 117.284 1163.23 119.353 1168.71 120.261 C 1159.14 122.851 1142.98 123.3 1138.81 128.724 C 1137.81 135.592 1142.43 140.635 1146.32 146.7 C 1137.97 142.534 1133.58 140.045 1126.82 133.727 C 1125.24 143.147 1125.67 161.654 1120.87 167.921 C 1117.36 159.253 1117.56 140.357 1112.59 136.62 C 1105.64 136.654 1099.49 142.933 1093.83 147.388 C 1097.84 140.144 1101.79 134.656 1105.77 126.861 C 1097.62 125.087 1085.97 125.676 1078.19 121.698 L 1078.91 120.405 C 1086.48 117.7 1097.8 115.669 1106.17 113.484 C 1103.38 108.059 1097.38 100.398 1093.58 95.2103 C 1100.79 97.456 1108.26 103.074 1115.21 101.99 C 1116.3 100.358 1117.73 77.957 1120.2 70.7385 z" fill="rgb(255,255,255)" transform="translate(0,0)"></path>
<path d="M 728.037 647.412 C 744.255 645.904 763.357 653.395 779.878 657.029 C 751.779 669.345 726.02 673.091 696.318 678.542 C 679.457 682.309 670.547 684.081 654.546 691.07 C 677.196 665.518 694.067 650.506 728.037 647.412 z" fill="rgb(255,255,255)" transform="translate(0,0)"></path>
<path d="M 1729.5 618.337 C 1767.85 622.204 1808.75 633.679 1847.49 637.872 C 1852.12 638.374 1859.85 638.438 1863.93 639.981 C 1860.24 641.492 1857.33 640.295 1853.14 640.923 C 1812.42 641.001 1771.4 647.554 1731.15 651.483 C 1731.08 641.532 1728.72 626.616 1729.5 618.337 z" fill="rgb(255,255,255)" transform="translate(0,0)"></path>
<path d="M 772.241 536.864 C 773.659 536.813 772.761 536.75 774.863 537.513 C 774.965 538.318 775.125 539.19 774.925 539.966 C 765.186 577.718 734.957 603.771 707.626 626.034 L 706.675 626.775 C 706.158 625.027 712.761 610.104 713.838 607.04 C 729.351 562.915 728.62 555.248 772.241 536.864 z" fill="rgb(255,255,255)" transform="translate(0,0)"></path>
<path d="M 1763.23 510.786 C 1769.9 513.058 1776.5 515.521 1783.03 518.173 C 1782.41 550.884 1784.83 585.462 1783.31 618.692 C 1776.46 617.282 1769.65 615.741 1762.87 614.071 C 1764.09 599.045 1763.36 581.633 1763.6 566.344 C 1763.91 547.462 1766.7 529.318 1763.23 510.786 z" fill="rgb(255,255,255)" transform="translate(0,0)"></path>
<path d="M 1561.62 518.38 C 1564.02 517.833 1566.05 517.559 1567.87 519.054 C 1568.71 523.997 1568.9 528.556 1568.93 533.561 C 1569.08 560.307 1570.52 587.111 1570.82 613.836 C 1565.86 614.758 1560.8 614.966 1555.76 615.323 C 1553.38 615.492 1550.53 616.38 1548.14 616.984 C 1548.09 601.612 1548.37 532.227 1551.4 520.848 C 1554.23 518.677 1557.95 518.759 1561.62 518.38 z" fill="rgb(255,255,255)" transform="translate(0,0)"></path>
<path d="M 1806.07 523.902 L 1824.61 527.75 C 1824.71 547.193 1824.91 566.635 1825.21 586.076 C 1825.41 595.977 1826.52 616.728 1825.15 625.427 C 1817.37 624.089 1813.27 623.001 1805.67 620.712 C 1803.4 596.791 1805.08 548.901 1806.07 523.902 z" fill="rgb(255,255,255)" transform="translate(0,0)"></path>
<path d="M 1479.1 535.365 C 1482.95 534.949 1483.63 534.888 1487.45 535.134 L 1488.37 536.196 C 1488.53 546.33 1490 622.395 1487.82 625.363 C 1484.81 626.222 1483.33 626.85 1480.16 626.723 C 1475.83 627.33 1471.49 627.892 1467.15 628.408 C 1466.82 607.238 1466.88 586.043 1468.48 564.947 C 1469.14 556.223 1468.98 546.384 1470.47 537.83 C 1472.79 535.62 1475.74 535.778 1479.1 535.365 z" fill="rgb(255,255,255)" transform="translate(0,0)"></path>
<path d="M 1527.11 525.295 C 1528.13 524.968 1528.84 525.038 1529.95 524.976 C 1531.78 527.925 1528.64 609.568 1527.37 619.09 C 1524.26 620.815 1512.5 621.99 1508.12 622.603 C 1505.31 619.048 1511.86 552.74 1510.89 543.286 C 1510.68 541.236 1511.4 531.211 1511.61 528.267 L 1527.11 525.295 z" fill="rgb(255,255,255)" transform="translate(0,0)"></path>
<path d="M 675.503 587.908 C 676.128 588.347 675.791 588.012 676.178 589.161 C 661.082 612.106 651.081 635.589 643.81 662.117 C 639.01 679.634 632.678 693.632 623.533 709.253 C 622.722 704.535 625.964 689.583 625.985 683.425 C 626.184 626.091 628.752 620.54 675.503 587.908 z" fill="rgb(255,255,255)" transform="translate(0,0)"></path>
<path d="M 1846.62 536.329 C 1853.12 537.821 1857.01 539.016 1863.32 541.17 C 1865.18 563.976 1863.43 587.917 1864.38 610.856 C 1864.66 617.508 1864.74 624.744 1864.5 631.397 C 1856.88 631.19 1852.43 630.07 1844.98 628.491 C 1844.91 605.477 1845.17 582.788 1846.17 559.802 C 1846.5 552.205 1846.1 543.526 1846.62 536.329 z" fill="rgb(255,255,255)" transform="translate(0,0)"></path>
<path d="M 1883.97 547.419 C 1890.78 548.694 1896.27 550.385 1902.9 552.342 C 1902.96 570.356 1904.04 588.483 1903.84 606.691 C 1903.72 617.501 1905.29 627.868 1904.74 639.389 C 1897.93 638.774 1891.43 637.483 1884.7 636.267 C 1885.12 614.006 1883.71 591.574 1884.56 569.295 C 1884.85 561.876 1885.1 554.8 1883.97 547.419 z" fill="rgb(255,255,255)" transform="translate(0,0)"></path>
<path d="M 1921.07 556.28 C 1928.12 557.939 1932.12 559.251 1938.96 561.714 C 1938.9 571.383 1941.42 636.802 1939.81 639.215 C 1931.72 639.874 1928.5 639.671 1920.35 638.999 C 1920.72 610.964 1920.22 584.747 1921.07 556.28 z" fill="rgb(255,255,255)" transform="translate(0,0)"></path>
<path d="M 868.491 583.821 C 872.702 586.985 871.209 595.702 870.84 600.442 C 837.896 624.557 827.363 615.995 792.219 608.373 C 783.092 606.394 754.074 611.742 744.22 614.629 C 743.795 614.616 740.396 615.347 739.736 615.48 L 740.037 615.246 L 740.112 614.614 C 754.519 606.943 783.054 596.209 799.346 598.239 C 828.524 601.875 843.952 604.646 868.491 583.821 z" fill="rgb(255,255,255)" transform="translate(0,0)"></path>
<path d="M 785.035 537.605 C 798.998 536.316 808.326 536.799 822.013 539.078 C 815.455 562.204 801.068 569.529 781.52 580.057 C 774.221 583.918 763.592 590.817 756.152 595.192 C 771.992 577.376 783.179 561.859 785.035 537.605 z" fill="rgb(255,255,255)" transform="translate(0,0)"></path>
<path d="M 841.863 1487.07 C 856.161 1486.69 879.009 1503.08 888.61 1513.03 C 905.154 1530.19 912.102 1553.79 912.305 1577.23 C 912.331 1580.15 911.157 1585.95 908.968 1588.03 C 906.758 1585.82 907.298 1585.04 906.574 1581.31 C 904.963 1564.13 898.196 1545.74 890.682 1530.32 C 890.95 1537.45 891.144 1544.58 891.265 1551.71 C 870.908 1531.27 880.531 1507.28 841.863 1487.07 z" fill="rgb(255,255,255)" transform="translate(0,0)"></path>
<path d="M 509.256 765.645 C 510.635 770.155 512.111 778.643 513.237 783.554 C 518.026 804.438 520.639 818.512 507.199 837.136 C 501.647 844.828 494.11 853.871 490.252 862.417 L 489.628 863.823 C 486.921 866.166 488.201 865.877 485.276 866.486 C 492.873 851.653 493.045 823.784 496.318 806.421 C 499.38 790.184 502.262 780.736 509.256 765.645 z" fill="rgb(255,255,255)" transform="translate(0,0)"></path>
<path d="M 737.787 737.161 L 738.333 737.423 L 737.944 738.433 C 706.715 755.701 635.527 758.476 591.386 777.079 L 590.455 775.982 C 625.377 740.105 647.139 749.132 693.756 746.175 C 708.509 745.239 723.807 742.014 737.787 737.161 z" fill="rgb(255,255,255)" transform="translate(0,0)"></path>
<path d="M 1045.76 1545.18 L 1048.9 1545.22 C 1049.07 1544.55 1012.21 1571.68 1009.05 1573.67 C 1020.22 1571.02 1024.49 1570.57 1036 1570.32 C 1021.31 1580.16 1007.71 1594.68 995.804 1607.8 C 992.077 1613.02 986.047 1618.34 981.432 1623.8 C 983.537 1609.43 981.138 1600.73 989.165 1588.76 C 1001.09 1570.98 1025.07 1550.34 1045.76 1545.18 z" fill="rgb(255,255,255)" transform="translate(0,0)"></path>
<path d="M 1416.71 668.394 C 1418.36 668.148 1418.5 668.338 1420.21 668.565 C 1422.33 672.87 1420.39 678.854 1420.83 683.509 C 1423.33 709.698 1415.18 703.783 1392.22 709.976 C 1389.97 710.735 1390.82 710.534 1388.34 710.397 C 1385.7 705.036 1388.13 681.49 1388.67 674.316 C 1398.57 671.587 1406.57 669.697 1416.71 668.394 z" fill="rgb(255,255,255)" transform="translate(0,0)"></path>
<path d="M 1109.45 1585.58 C 1117.16 1584.94 1124.14 1585 1131.89 1585.01 C 1108.16 1592.28 1079.54 1609.37 1060.29 1625.41 C 1058.13 1627.21 1053.81 1633.7 1052.05 1636.32 C 1056.49 1622.21 1059.55 1617 1069.32 1606.06 C 1070.62 1604.66 1073.59 1600.13 1074.83 1598.33 C 1058.43 1609.04 1051.93 1615.29 1037.28 1627.44 C 1050.32 1592.45 1076.08 1587.48 1109.45 1585.58 z" fill="rgb(255,255,255)" transform="translate(0,0)"></path>
<path d="M 877.115 1460.68 C 881.6 1461.69 891.921 1466.73 895.781 1469.58 C 929.461 1494.4 924.937 1541.56 930.807 1577.16 L 931.007 1578.32 C 928.413 1576.03 927.491 1570.07 925.94 1566.79 C 913.04 1539.53 910.689 1508.22 897.306 1481.48 C 894.802 1476.47 881.441 1464.76 877.115 1460.68 z" fill="rgb(255,255,255)" transform="translate(0,0)"></path>
<path d="M 1028.37 1511.08 L 1029.62 1511.49 C 1028.83 1513.57 1005.64 1529.84 1001.14 1533.58 C 979.866 1551.28 958.094 1585.49 955.541 1613.37 L 954.539 1613.5 C 950.937 1601.65 961.151 1566.55 968.208 1555.04 C 982.887 1531.11 1001.48 1518.04 1028.37 1511.08 z" fill="rgb(255,255,255)" transform="translate(0,0)"></path>
<path d="M 817.761 1522.29 C 819.505 1522.18 821.253 1522.16 822.999 1522.22 C 842.015 1522.93 866.497 1531.74 879.757 1545.93 C 889.572 1556.43 889.99 1569.77 889.14 1583.25 C 883.948 1582.11 882.318 1573.89 879.129 1569.51 C 863.027 1547.41 842.153 1533.27 817.761 1522.29 z" fill="rgb(255,255,255)" transform="translate(0,0)"></path>
<path d="M 952.502 1485.88 L 953.458 1487.54 C 951.321 1494.98 945.873 1512.92 945.211 1519.77 C 942.018 1552.81 946.699 1564.44 935.183 1596.84 C 932.076 1590.68 933.563 1578.67 933.347 1571.82 C 932.332 1539.47 927.562 1511.02 952.502 1485.88 z" fill="rgb(255,255,255)" transform="translate(0,0)"></path>
<path d="M 625.318 880.061 C 625.722 880.289 626.126 880.517 626.53 880.745 C 624.692 882.029 622.814 883.256 620.9 884.424 C 579.725 909.829 557.789 905.132 514.208 894.831 C 510.162 894.205 507.872 895.197 504.333 893.682 L 504.094 893.016 C 510.952 888.312 569.877 892.623 583.716 890.649 C 602.016 888.038 607.784 886.446 625.318 880.061 z" fill="rgb(255,255,255)" transform="translate(0,0)"></path>
<path d="M 769.628 707.032 L 770.503 707.839 C 739.314 740.66 681.59 732.788 640.928 736.975 C 635.792 737.504 624.572 741.445 619.33 743.207 C 618.51 743.483 619.116 743.334 617.46 743.081 C 624.978 729.924 673.062 729.542 687.776 728.209 C 698.131 727.242 708.439 725.823 718.67 723.957 C 737.948 720.393 752.426 716.104 769.628 707.032 z" fill="rgb(255,255,255)" transform="translate(0,0)"></path>
<path d="M 549.638 708.756 C 550.46 714.297 547.477 725.217 547.417 732.301 C 547.09 770.462 561.733 795.313 535.845 828.25 C 537.623 819.471 543.34 812.455 543.529 800.226 C 544.147 760.355 524.881 747.286 549.638 708.756 z" fill="rgb(255,255,255)" transform="translate(0,0)"></path>
<path d="M 685.276 820.25 C 686.496 820.123 685.78 820.101 687.399 820.593 C 686.032 821.48 684.658 822.358 683.278 823.226 C 651.239 843.344 620.279 836.165 585.991 828.384 C 580.577 828.893 575.442 827.85 570.021 827.092 C 609.777 821.339 644.555 829.318 685.276 820.25 z" fill="rgb(255,255,255)" transform="translate(0,0)"></path>
<path d="M 801.326 1556.46 C 824.469 1555.91 833.493 1566.65 844.667 1584.32 L 825.668 1577.68 C 803.482 1571.37 797.436 1574.59 772.598 1563.26 C 783.589 1560.14 790.014 1558.18 801.326 1556.46 z" fill="rgb(255,255,255)" transform="translate(0,0)"></path>
<path d="M 791.124 1533.39 C 823.665 1528.82 860.518 1548.48 864.856 1582.87 L 863.161 1582.22 C 845.304 1559.74 817.416 1543.96 791.124 1533.39 z" fill="rgb(255,255,255)" transform="translate(0,0)"></path>
<path d="M 1302.82 1466.57 C 1320.35 1475.14 1330.47 1531.56 1322.3 1547.97 C 1319.91 1551.24 1321.33 1550.58 1318.29 1551.62 C 1316.34 1549.15 1315.68 1542.38 1315.32 1539.03 C 1312.66 1514.27 1308.91 1490.72 1302.82 1466.57 z" fill="rgb(255,255,255)" transform="translate(0,0)"></path>
<path d="M 834.516 539.38 C 844.978 542.271 850.67 547.924 855.912 557.013 C 844.865 567.72 834.756 572.254 820.386 576.717 C 819.005 577.827 807.583 580.96 803.837 582.349 C 820.254 570.604 828.976 558.439 834.516 539.38 z" fill="rgb(255,255,255)" transform="translate(0,0)"></path>
<path d="M 521.137 1032.63 C 522.437 1033.37 525.327 1035.79 524.838 1037.35 C 519.408 1054.66 516.275 1071.49 530.661 1085.76 C 533.902 1088.97 543.097 1091.27 544.178 1093.32 L 540.75 1093.63 C 511.224 1092.9 505.27 1084.18 511.652 1052.64 C 513.119 1045.39 517.021 1038.75 521.137 1032.63 z" fill="rgb(255,255,255)" transform="translate(0,0)"></path>
<path d="M 1074.6 1569.28 C 1077.11 1569.14 1076 1568.88 1077.99 1569.83 C 1063.36 1577.03 1026.35 1606.77 1017.84 1619.33 C 1017.33 1620.18 1017.73 1619.66 1016.23 1620.47 L 1015.4 1618.76 C 1017.98 1592.3 1050.16 1572.05 1074.6 1569.28 z" fill="rgb(255,255,255)" transform="translate(0,0)"></path>
<path d="M 1022.76 1535.11 C 1022.88 1535.24 1024.2 1536.57 1023.5 1537.32 C 1008.82 1552.98 991.199 1565.64 979.878 1584.55 C 976.826 1589.65 973.939 1594.54 971.066 1599.64 L 970.213 1599.27 C 968.883 1593.84 975.397 1578.27 977.923 1572.84 C 987.607 1552.03 1002.17 1542.7 1022.76 1535.11 z" fill="rgb(255,255,255)" transform="translate(0,0)"></path>
<path d="M 1093.18 1365.55 C 1111.11 1377.06 1113.68 1410.72 1108.95 1429.81 L 1107.81 1430.86 L 1106.3 1429.95 C 1098.94 1416.74 1094.06 1380.48 1093.18 1365.55 z" fill="rgb(255,255,255)" transform="translate(0,0)"></path>
<path d="M 1129.23 1603.36 C 1134.18 1602.97 1140 1603.44 1145.03 1603.67 C 1130.82 1611.68 1106.63 1619.12 1088.88 1628.11 C 1084.81 1630.27 1079.66 1633.62 1075.62 1636.07 C 1090.92 1611.89 1100.86 1606.94 1129.23 1603.36 z" fill="rgb(255,255,255)" transform="translate(0,0)"></path>
<path d="M 980.708 1475.66 L 982.338 1476.17 C 981.814 1479.11 974.076 1488.59 971.032 1497.72 C 963.212 1521.18 968.252 1535.18 956.475 1556.48 L 955.596 1556.75 C 955.537 1556.41 956.806 1533.31 957.05 1531.41 C 961.011 1500.57 958.003 1495.78 980.708 1475.66 z" fill="rgb(255,255,255)" transform="translate(0,0)"></path>
<path d="M 618.607 630.777 C 618.835 632.749 618.918 631.911 618.474 633.701 C 609.273 670.763 620.629 712.447 599.752 747.297 C 596.184 753.253 592.285 758.006 587.927 763.308 L 587.61 761.402 C 596.626 742.185 604.556 721.411 609.424 700.713 C 614.125 680.723 606.582 647.362 618.607 630.777 z" fill="rgb(255,255,255)" transform="translate(0,0)"></path>
<path d="M 489.637 786.999 L 490.345 787.666 C 486.965 809.49 487.922 862.196 476.192 875.627 L 475.539 875.076 C 477.05 850.117 479.37 809.212 489.637 786.999 z" fill="rgb(255,255,255)" transform="translate(0,0)"></path>
<path d="M 530.178 1049.38 C 532.712 1051.01 540.798 1069.09 544.853 1073.88 C 552.066 1082.42 557.653 1082.11 566.206 1088.49 L 565.751 1090.31 C 540.287 1096.5 525.138 1072.9 530.178 1049.38 z" fill="rgb(255,255,255)" transform="translate(0,0)"></path>
<path d="M 634.361 918.998 C 634.581 921.788 628.817 930.394 627.246 933.507 C 612.589 962.561 591.578 977.806 563.011 991.021 C 562.823 988.925 572.281 982.766 574.803 980.934 C 596.096 965.471 619.682 940.854 634.361 918.998 z" fill="rgb(255,255,255)" transform="translate(0,0)"></path>
<path d="M 861.204 569.998 C 863.489 571.127 864.695 573.313 864.734 575.756 C 855.709 587.407 824.382 595.182 810.14 594.346 C 806.746 594.195 804.37 593.876 800.996 593.404 C 804.003 591.715 817.719 588.749 822.407 587.351 C 837.956 582.716 847.397 578.187 861.204 569.998 z" fill="rgb(255,255,255)" transform="translate(0,0)"></path>
<path d="M 1356.8 108.142 C 1371.17 113.451 1370.09 127.891 1354.84 133.28 C 1353.24 132.643 1351.38 131.722 1349.93 130.785 C 1346.82 128.738 1344.67 125.502 1344.01 121.833 C 1342.3 112.893 1348.9 108.867 1356.8 108.142 z" fill="rgb(255,255,255)" transform="translate(0,0)"></path>
<path d="M 351.536 333.534 C 357.867 332.402 363.913 336.629 365.024 342.964 C 366.135 349.299 361.888 355.331 355.549 356.42 C 349.241 357.504 343.244 353.282 342.138 346.977 C 341.033 340.672 345.235 334.661 351.536 333.534 z" fill="rgb(255,255,255)" transform="translate(0,0)"></path>
<path d="M 143.262 95.8752 C 144.745 95.901 146.556 95.9459 148.005 96.1955 C 151.805 96.8674 155.109 99.194 157.022 102.545 C 161.546 110.329 156.624 115.265 150.073 118.534 C 149.379 118.612 148.683 118.677 147.986 118.729 C 133.889 119.722 131.4 105.371 143.262 95.8752 z" fill="rgb(255,255,255)" transform="translate(0,0)"></path>
<path d="M 688.378 82.6308 C 694.336 80.8769 700.582 84.3177 702.283 90.2915 C 703.984 96.2652 700.488 102.48 694.5 104.128 C 688.585 105.756 682.464 102.313 680.784 96.4136 C 679.104 90.514 682.493 84.3629 688.378 82.6308 z" fill="rgb(255,255,255)" transform="translate(0,0)"></path>
<path d="M 1770.42 273.57 C 1776 272.067 1781.76 275.266 1783.44 280.798 C 1785.12 286.329 1782.1 292.193 1776.63 294.043 C 1772.93 295.293 1768.84 294.43 1765.96 291.792 C 1763.09 289.153 1761.88 285.157 1762.8 281.365 C 1763.73 277.572 1766.65 274.585 1770.42 273.57 z" fill="rgb(255,255,255)" transform="translate(0,0)"></path>
<path d="M 194.243 487.793 C 199.765 486.203 205.544 489.327 207.237 494.818 C 208.93 500.309 205.914 506.144 200.455 507.939 C 196.833 509.131 192.85 508.273 190.038 505.696 C 187.227 503.12 186.027 499.226 186.899 495.513 C 187.77 491.801 190.579 488.849 194.243 487.793 z" fill="rgb(255,255,255)" transform="translate(0,0)"></path>
<path d="M 1023.1 372.736 C 1028.74 371.624 1034.22 375.241 1035.42 380.858 C 1036.61 386.476 1033.08 392.013 1027.48 393.292 C 1023.78 394.136 1019.92 392.924 1017.37 390.12 C 1014.82 387.315 1013.97 383.354 1015.16 379.753 C 1016.35 376.152 1019.38 373.471 1023.1 372.736 z" fill="rgb(255,255,255)" transform="translate(0,0)"></path>
<path d="M 1338.35 1505.38 C 1346.55 1511.24 1348.58 1543.38 1344.53 1553.03 C 1340.97 1551.66 1339.39 1550.37 1339.09 1546.1 C 1338.38 1536.01 1332.82 1513.54 1338.35 1505.38 z" fill="rgb(255,255,255)" transform="translate(0,0)"></path>
<path d="M 1241.56 351.179 C 1256.34 351.875 1260.61 363.071 1246.93 370.989 C 1230.49 372.21 1228.86 357.1 1241.56 351.179 z" fill="rgb(255,255,255)" transform="translate(0,0)"></path>
<path d="M 89.736 606.493 C 95.1837 604.884 100.916 607.939 102.617 613.358 C 104.319 618.778 101.361 624.561 95.9713 626.354 C 92.4025 627.541 88.4708 626.711 85.6866 624.182 C 82.9025 621.653 81.6988 617.82 82.5381 614.153 C 83.3774 610.487 86.129 607.559 89.736 606.493 z" fill="rgb(255,255,255)" transform="translate(0,0)"></path>
<path d="M 522.285 763.916 C 535.858 782.918 533.996 805.008 524.843 825.209 L 523.944 827.2 L 523.492 826.776 C 525.691 813.579 526.317 801.99 523.92 788.777 C 522.295 779.823 523.055 772.348 522.285 763.916 z" fill="rgb(255,255,255)" transform="translate(0,0)"></path>
<path d="M 1679.48 477.17 C 1685.46 477.418 1705.31 478.979 1705.52 486.519 C 1702.84 489.872 1703.94 489.467 1700.44 490.698 C 1693.55 488.948 1673.17 488.661 1672.11 481.369 C 1674.9 478.034 1674.73 478.906 1679.48 477.17 z" fill="rgb(255,255,255)" transform="translate(0,0)"></path>
<path d="M 1619.27 216.53 C 1624.23 215.128 1629.43 217.852 1631.09 222.733 C 1632.76 227.613 1630.33 232.947 1625.54 234.878 C 1622.21 236.225 1618.4 235.619 1615.65 233.304 C 1612.9 230.99 1611.66 227.344 1612.41 223.83 C 1613.17 220.316 1615.81 217.507 1619.27 216.53 z" fill="rgb(255,255,255)" transform="translate(0,0)"></path>
<path d="M 1124.93 1395.56 C 1134.74 1403.73 1128.18 1430.35 1125.28 1440.6 L 1123.52 1439.69 C 1119.43 1424.43 1120.78 1410.57 1124.93 1395.56 z" fill="rgb(255,255,255)" transform="translate(0,0)"></path>
<path d="M 1055.84 1384.09 C 1071.01 1388.84 1078.35 1410.87 1077.82 1425.53 L 1075.49 1424.25 C 1070.72 1415.89 1058.17 1392.52 1055.84 1384.09 z" fill="rgb(255,255,255)" transform="translate(0,0)"></path>
<path d="M 1842.92 518.808 C 1852.07 521.679 1863.69 522.94 1870.8 528.566 C 1871.94 531.843 1871.63 530.72 1869.69 534.961 C 1864.17 537.009 1846.32 531.105 1842.1 526.41 C 1841.14 522.465 1841.61 523.311 1842.92 518.808 z" fill="rgb(255,255,255)" transform="translate(0,0)"></path>
<path d="M 1609.71 493.348 C 1614.3 492.672 1614.53 492.703 1617.29 495.951 C 1617.83 499.105 1618.14 497.721 1616.58 500.287 C 1611.98 503.223 1601.62 504.21 1595.76 505.169 C 1592.48 505.754 1591.91 506.139 1588.69 505.242 L 1587.38 502.445 C 1587.99 493.962 1602.41 494.323 1609.71 493.348 z" fill="rgb(255,255,255)" transform="translate(0,0)"></path>
<path d="M 1882.39 530.289 C 1888.84 531.505 1902.77 534.739 1907.75 539.585 C 1909.75 541.524 1908.61 544.497 1908.19 547.495 C 1898.76 545.135 1890.51 545.147 1883.09 539.24 C 1881.18 535.221 1881.97 535.472 1882.39 530.289 z" fill="rgb(255,255,255)" transform="translate(0,0)"></path>
<path d="M 1762.08 495.842 C 1771.34 498.163 1782.21 499.302 1789.4 504.97 C 1790.95 508.657 1790.3 507.853 1788.99 512.75 C 1782.53 512.936 1769.11 507.547 1763.15 503.586 C 1761.17 499.878 1761.84 500.723 1762.08 495.842 z" fill="rgb(255,255,255)" transform="translate(0,0)"></path>
<path d="M 1482.75 520.38 C 1486.16 519.835 1486.17 519.678 1489.7 520.423 C 1492.53 523.135 1491.7 521.582 1492.71 524.993 L 1491.44 526.878 C 1486.86 529.356 1479.62 530.068 1474.25 530.974 C 1468.8 532.168 1464.84 533.046 1461.38 528.283 C 1464.44 521.482 1476.33 521.147 1482.75 520.38 z" fill="rgb(255,255,255)" transform="translate(0,0)"></path>
<path d="M 1652.86 484.371 C 1656.3 483.809 1654.73 483.567 1657.76 484.87 C 1659.69 488.254 1659.38 486.541 1659.22 490.063 C 1655.55 494.476 1641.01 495.495 1634.41 496.478 C 1630.81 495.324 1631.03 495.484 1628.34 492.845 L 1628.4 490.895 C 1632.92 486.486 1646.13 485.354 1652.86 484.371 z" fill="rgb(255,255,255)" transform="translate(0,0)"></path>
<path d="M 1566.64 502.347 C 1568.93 502.028 1568.17 502.095 1570.53 502.546 C 1574.04 508.367 1574.53 510.833 1566.67 512.555 C 1562.21 513.534 1556.77 514.098 1552.23 514.716 C 1548.19 514.564 1547.9 513.885 1545.58 511.047 C 1544.82 503.563 1560.49 503.28 1566.64 502.347 z" fill="rgb(255,255,255)" transform="translate(0,0)"></path>
<path d="M 1363.52 1515.55 C 1371.28 1522.67 1369.49 1541.56 1366.07 1550.7 L 1363.94 1550.67 C 1356.76 1546.13 1359.04 1522.19 1363.52 1515.55 z" fill="rgb(255,255,255)" transform="translate(0,0)"></path>
<path d="M 1239.8 1530.1 C 1256.11 1533.64 1263.13 1540.82 1263.81 1557.8 C 1256.11 1558.78 1245.01 1537.27 1239.8 1530.1 z" fill="rgb(255,255,255)" transform="translate(0,0)"></path>
<path d="M 490.808 932.752 C 493.819 933.479 511.83 941.631 515.856 943.454 C 535.374 952.287 546.663 948.724 565.67 950.633 L 566.72 952.493 C 564.422 952.994 557.415 954.569 555.465 954.716 C 535.014 956.257 506.565 944.924 490.808 932.752 z" fill="rgb(255,255,255)" transform="translate(0,0)"></path>
<path d="M 1802.18 508.496 C 1809.4 509.776 1824.32 511.286 1828.8 516.801 C 1829.87 518.118 1829.05 521.405 1828.84 523.587 C 1819.94 521.323 1809.74 520.669 1802.64 516.308 C 1800.65 512.963 1801.44 513.479 1802.18 508.496 z" fill="rgb(255,255,255)" transform="translate(0,0)"></path>
<path d="M 1525.51 510.147 C 1530.27 509.822 1533.77 510.622 1534.14 515.959 C 1530.07 520.751 1519.32 520.788 1512.38 521.632 C 1511.22 521.914 1508.82 521.876 1507.51 521.911 C 1505.1 520.269 1504.96 520.483 1503.95 517.826 C 1507 513.253 1519.36 511.574 1525.51 510.147 z" fill="rgb(255,255,255)" transform="translate(0,0)"></path>
<path d="M 1718.74 484.524 C 1726.7 486.363 1740.53 488.662 1747.7 493.19 C 1749.96 494.613 1749.37 497.428 1749.4 500.161 C 1742.82 499.619 1728.29 496.91 1722.65 493.16 C 1719.57 491.109 1719.6 488.071 1718.74 484.524 z" fill="rgb(255,255,255)" transform="translate(0,0)"></path>
<path d="M 488.915 1002.53 C 499.669 1009.51 493.385 1008.43 508.903 1009.44 C 503.604 1015.18 501.948 1017.5 497.651 1024.07 L 493.712 1035.81 C 492.055 1025.55 489.394 1012.62 488.915 1002.53 z" fill="rgb(255,255,255)" transform="translate(0,0)"></path>
<path d="M 1917.82 540.645 C 1926.49 542.973 1935.18 545.256 1943.88 547.496 C 1944.95 550.532 1943.92 553.124 1943.32 556.663 C 1935.86 555.291 1926.15 553.309 1919.41 549.838 C 1916.25 548.211 1920.28 548.743 1919.74 546.968 C 1919.22 545.256 1918.34 542.346 1917.82 540.645 z" fill="rgb(255,255,255)" transform="translate(0,0)"></path>
<path d="M 1175.9 1408.78 C 1176.82 1409.15 1176.25 1408.85 1177.41 1409.98 C 1165.91 1421.41 1165.58 1430.79 1159.23 1445.46 C 1154.98 1443.6 1156.15 1431.77 1157.62 1428.17 C 1161.76 1418.06 1166.11 1413.32 1175.9 1408.78 z" fill="rgb(255,255,255)" transform="translate(0,0)"></path>
<path d="M 1033.43 1392.34 C 1049.31 1395.89 1054.84 1409.66 1054.91 1424.3 C 1046.96 1417.13 1037.88 1402.17 1033.43 1392.34 z" fill="rgb(255,255,255)" transform="translate(0,0)"></path>
<path d="M 1216.98 1540.12 C 1221.49 1540.35 1225.48 1540.73 1229.96 1541.19 C 1238.22 1547.1 1242.22 1548.84 1242.1 1559.7 C 1235.26 1558.53 1218.37 1546.18 1216.98 1540.12 z" fill="rgb(255,255,255)" transform="translate(0,0)"></path>
<path d="M 1415.55 1516.67 C 1421.22 1521.98 1408.18 1546.96 1404.53 1552.31 C 1403.84 1549.64 1403.4 1546.92 1403.21 1544.18 C 1402.4 1533.04 1408.82 1524.53 1415.55 1516.67 z" fill="rgb(255,255,255)" transform="translate(0,0)"></path>
<path d="M 153.196 1213.05 C 161.882 1219.66 166.731 1222.55 177.489 1223.5 C 176.588 1224.89 173.973 1225.76 172.161 1226.66 C 161.968 1227.77 158.3 1227.81 147.717 1227.56 L 153.196 1213.05 z" fill="rgb(255,255,255)" transform="translate(0,0)"></path>
<path d="M 553.803 202.131 C 557.859 200.751 562.282 202.822 563.82 206.821 C 565.359 210.82 563.465 215.321 559.529 217.016 C 556.842 218.174 553.736 217.768 551.436 215.958 C 549.137 214.148 548.012 211.225 548.505 208.34 C 548.999 205.456 551.032 203.073 553.803 202.131 z" fill="rgb(255,255,255)" transform="translate(0,0)"></path>
<path d="M 1269.05 1525.27 C 1281.01 1530.13 1282.69 1543.65 1281.77 1555.07 C 1280.49 1554.8 1279.56 1554.24 1278.34 1553.68 C 1273.38 1547.97 1270.89 1533.18 1269.05 1525.27 z" fill="rgb(255,255,255)" transform="translate(0,0)"></path>
<path d="M 1284.46 1517.28 C 1298.14 1521.52 1299.7 1539.32 1298.52 1551.38 L 1296.72 1550.85 C 1294.44 1547.2 1287.51 1524.54 1284.46 1517.28 z" fill="rgb(255,255,255)" transform="translate(0,0)"></path>
<path d="M 1147.92 1404.33 L 1149.94 1405.03 C 1150.8 1408.35 1141.45 1435.33 1139.55 1440.66 L 1138.95 1441.18 L 1138.46 1440.66 C 1139.13 1423.71 1136.27 1415.69 1147.92 1404.33 z" fill="rgb(255,255,255)" transform="translate(0,0)"></path>
<path d="M 1387.25 1522.52 C 1388.98 1524.02 1388.49 1523.77 1389.6 1526.02 C 1389.52 1532.58 1388.87 1547.45 1384.73 1552.54 L 1381.77 1549.23 C 1378.82 1538.9 1382.99 1532.19 1387.25 1522.52 z" fill="rgb(255,255,255)" transform="translate(0,0)"></path>
<path d="M 757.853 411.022 C 760.245 409.998 763.009 410.392 765.019 412.043 C 767.03 413.694 767.954 416.328 767.415 418.873 C 766.876 421.419 764.964 423.452 762.457 424.147 C 758.922 425.126 755.233 423.198 754.019 419.736 C 752.805 416.275 754.481 412.465 757.853 411.022 z" fill="rgb(255,255,255)" transform="translate(0,0)"></path>
<path d="M 470.103 830.701 C 471.064 835.279 470.462 879.931 468.072 885.437 C 465.917 868.509 464.691 846.868 470.103 830.701 z" fill="rgb(255,255,255)" transform="translate(0,0)"></path>
<path d="M 1105.41 558.397 C 1107.54 557.203 1110.14 557.261 1112.21 558.547 C 1114.28 559.833 1115.49 562.144 1115.36 564.578 C 1115.23 567.011 1113.79 569.182 1111.59 570.242 C 1108.34 571.812 1104.43 570.517 1102.76 567.316 C 1101.09 564.114 1102.26 560.165 1105.41 558.397 z" fill="rgb(255,255,255)" transform="translate(0,0)"></path>
<path d="M 1311.05 626.569 C 1312.93 625.389 1315.31 625.364 1317.21 626.503 C 1319.11 627.643 1320.22 629.754 1320.07 631.967 C 1319.91 634.179 1318.53 636.12 1316.49 636.988 C 1313.66 638.192 1310.38 637.018 1308.96 634.292 C 1307.53 631.566 1308.44 628.204 1311.05 626.569 z" fill="rgb(255,255,255)" transform="translate(0,0)"></path>
<path d="M 1014.86 1405.68 C 1025.09 1407.71 1033.29 1411.76 1035.11 1422.78 C 1030.41 1422.28 1019.05 1409.72 1014.86 1405.68 z" fill="rgb(255,255,255)" transform="translate(0,0)"></path>
<path d="M 497.22 994.451 C 502.882 994.408 519.701 993.899 524.358 994.913 C 515.535 998.353 506.064 997.512 497.22 994.451 z" fill="rgb(197,198,203)" transform="translate(0,0)"></path>
<path d="M 587.107 945.34 L 589.004 945.211 C 586.286 947.306 574.398 950.77 570.396 952.066 C 569.187 952.049 569.98 952.139 568.125 951.303 L 568.847 949.977 C 575.294 947.676 580.418 946.731 587.107 945.34 z" fill="rgb(197,198,203)" transform="translate(0,0)"></path>
<path d="M 333.437 1104.37 C 334.19 1100.8 334.429 1097.09 336.62 1094.61 C 337.556 1097.29 336.463 1103.23 335.389 1105.66 C 335.075 1105.31 333.899 1104.65 333.437 1104.37 z" fill="rgb(197,198,203)" transform="translate(0,0)"></path>
<path d="M 1607.22 895.119 C 1612.02 896.895 1613.26 901.193 1614.56 905.807 C 1620.62 925.003 1620.91 946.402 1624.94 965.7 C 1629.12 985.714 1635.59 1004.1 1636.59 1025.01 C 1636.93 1032.17 1634.57 1042.72 1635.58 1048.6 C 1638.45 1065.41 1640.46 1081.25 1640.77 1098.34 C 1641.03 1103.9 1644.11 1112.19 1643.76 1117.65 C 1642.13 1143.6 1646.17 1173.45 1632.9 1196.85 C 1626.9 1207.45 1620.62 1211.17 1609.83 1214.11 C 1609.7 1219.51 1609.99 1224.94 1610.19 1230.34 C 1619.48 1235.37 1632.01 1239.45 1642.19 1242.98 C 1670.08 1252.64 1697.16 1264.37 1725.14 1273.72 C 1730.97 1275.67 1736.62 1278.63 1742.62 1279.71 C 1743.66 1276.79 1743.27 1273.9 1741.44 1271.35 C 1735.45 1262.97 1730.35 1255.86 1727 1246.04 C 1724.89 1239.97 1723.6 1233.65 1723.16 1227.25 C 1722.18 1213.27 1724.61 1200.87 1725.17 1187.03 C 1725.53 1177.9 1725.16 1171.82 1729.38 1163.37 C 1733.28 1155.55 1729.99 1144.21 1732 1134.64 C 1734.24 1123.97 1738.79 1114.52 1742.02 1104.14 C 1744 1088.05 1751.68 1017.98 1767.21 1012.31 C 1770.01 1014.18 1770.98 1017.23 1771.56 1020.49 C 1773.74 1032.76 1772.73 1049.93 1773.61 1062.88 C 1774.29 1072.97 1783.71 1135.07 1786.39 1141.67 C 1787.96 1145.52 1787.94 1148.68 1787.87 1152.78 C 1787.65 1166.15 1786.53 1179.65 1787.04 1193.02 C 1787.37 1201.83 1789.26 1210.66 1788.9 1219.48 C 1788.66 1225.38 1787.57 1231.14 1786.16 1236.87 C 1781.55 1255.7 1776.02 1265.2 1759.04 1275.55 C 1758.13 1278.53 1759.44 1283.54 1760.01 1286.82 C 1791.82 1299.61 1828.54 1315.39 1860.09 1327.09 C 1860.18 1321.58 1860.04 1314.36 1860.89 1309.07 C 1859.63 1308.08 1858.38 1307.07 1857.17 1306.02 C 1840.69 1291.66 1833.26 1268.2 1833.35 1246.8 C 1833.38 1239.22 1835.18 1225.52 1834.22 1218.93 C 1831.87 1202.9 1835.68 1197.47 1839.06 1182.61 C 1839.59 1180.26 1837.54 1168.72 1837.5 1164.34 C 1837.37 1147.75 1847.77 1136.22 1851.24 1121.93 C 1852.93 1114.94 1852.4 1100.35 1853.7 1091.35 C 1855.8 1076.83 1859.19 1071.83 1862.89 1058.51 C 1864 1049.12 1863.99 1038.88 1864.99 1029.54 C 1866.14 1018.82 1867.82 1007.69 1870.4 997.321 C 1872.72 988.024 1874.43 976.389 1880.8 969.107 C 1882.47 967.204 1884.61 967.439 1886.67 967.49 C 1894.18 973.634 1895.02 981.53 1896.82 990.465 C 1900.27 1007.5 1899.96 1025.31 1902.51 1042.26 C 1904.24 1053.76 1908.14 1065.32 1908.64 1077.19 C 1908.96 1084.55 1907.89 1091.69 1907.58 1099.02 C 1907.31 1117.7 1910.74 1135.83 1913.04 1154.25 C 1914.12 1159.27 1911.46 1181.01 1912.76 1184.26 C 1918.77 1199.33 1918.82 1203.69 1916.02 1220.28 C 1915.15 1225.45 1916.37 1235.9 1916.92 1241.75 C 1918.4 1257.42 1913.61 1272.64 1906.92 1286.68 C 1900.5 1299.82 1893.16 1306.61 1879.79 1312.49 C 1879.44 1320.3 1879.19 1328.1 1879.05 1335.91 C 1916.53 1350.49 1997.46 1393.5 2028.01 1417.26 C 2027.09 1453.89 2027.86 1493.21 2027.81 1530.02 L 2027.9 1800 C 2027.85 1842.59 2028.4 1887.23 2027.45 1929.63 C 2013.64 1928.42 1985.5 1921.92 1970.99 1918.57 C 1917.55 1906.25 1864.34 1891.13 1810.79 1879.04 C 1742.42 1863.46 1674.45 1846.14 1606.97 1827.07 C 1570.42 1816.95 1534.72 1806.62 1498.84 1794.27 C 1479.93 1787.76 1460.47 1781.18 1442.57 1772.25 C 1434.08 1768.01 1425.76 1762.93 1419.22 1755.97 C 1413.97 1750.38 1409.24 1743.02 1409.77 1735.04 C 1410.58 1722.63 1421.78 1713.7 1431.52 1707.57 C 1454.35 1693.22 1481.97 1685.09 1507.51 1676.96 C 1558.68 1660.67 1610.97 1648.4 1661.92 1631.49 C 1691.47 1621.68 1727.08 1609.44 1750.59 1588.64 C 1759.86 1580.45 1767.02 1570.21 1767.46 1557.45 C 1769.67 1493.78 1579.77 1425.54 1529.58 1405.75 C 1457.74 1377.43 1385.79 1351.28 1312.25 1327.66 C 1292.79 1321.41 1199.63 1296.24 1190.4 1286.39 L 1190.94 1284.9 C 1196.47 1282.34 1209.06 1280.64 1212.08 1279.13 C 1241.62 1264.36 1450.48 1262.56 1461.99 1246.87 C 1471.1 1214.06 1291.68 1153.79 1266.6 1141.51 C 1282.37 1142.27 1305.53 1147.22 1321.65 1150.1 C 1390.09 1162.37 1456.84 1182.3 1523.34 1202.24 C 1543.23 1208.2 1566.82 1217.55 1586.47 1222.04 L 1586.04 1209.05 C 1577.52 1201.74 1571.41 1195.13 1566.13 1183.64 C 1553.28 1155.64 1555.21 1117.4 1562.29 1088 C 1565.57 1074.35 1565.47 1066.76 1567.1 1053.1 C 1568.33 1048.95 1569.09 1038.61 1571.03 1034.97 C 1579.18 1019.66 1577.61 1009.13 1579.88 993.454 C 1584.24 963.256 1586.96 930.368 1598.45 901.973 C 1600.43 897.091 1602.77 896.455 1607.22 895.119 z" fill="rgb(9,9,9)" transform="translate(0,0)"></path>
<path d="M 1876.17 1652.61 C 1879.69 1655.11 1882.03 1665.23 1883.94 1669.58 C 1898.35 1702.29 1897.11 1734.06 1893.71 1768.77 L 1892.42 1769.98 L 1890.81 1769.09 C 1883.28 1754.46 1878.01 1673.72 1876.17 1652.61 z" fill="rgb(255,255,255)" transform="translate(0,0)"></path>
<path d="M 1776.71 1681.65 C 1780.81 1682.85 1784.07 1685.08 1787.54 1687.54 C 1813.98 1706.24 1837.37 1739.55 1843.23 1771.51 C 1831.29 1768.52 1813.06 1729.98 1805.27 1718.71 C 1796.06 1705.39 1789.04 1693.06 1776.71 1681.65 z" fill="rgb(255,255,255)" transform="translate(0,0)"></path>
<path d="M 1962.34 1677.73 L 1963.9 1678.44 C 1964.24 1680.88 1962.33 1681.07 1960.06 1682.81 C 1931.44 1704.64 1927.68 1737.95 1914.41 1767.9 L 1913.68 1769.51 L 1911.67 1767.31 C 1906.12 1745.91 1919.74 1718.22 1931.24 1700.57 C 1938.56 1689.32 1950.34 1682.9 1962.34 1677.73 z" fill="rgb(255,255,255)" transform="translate(0,0)"></path>
<path d="M 1837.05 1703.98 C 1838.32 1703.81 1839.6 1703.74 1840.89 1703.77 C 1846.08 1703.89 1854.71 1709.08 1858.13 1713.17 C 1871.78 1729.48 1871.1 1747.67 1869.77 1767.01 L 1867.43 1769.07 C 1865.51 1768.2 1862.99 1760.75 1862.17 1758.47 C 1854.76 1737.77 1847.65 1722.95 1837.05 1703.98 z" fill="rgb(255,255,255)" transform="translate(0,0)"></path>
<path d="M 1739.76 1731.28 C 1767.22 1732.94 1781.91 1742.36 1786.67 1770.9 C 1787.24 1774.32 1787.61 1775.48 1785.62 1778.27 C 1775.11 1765.75 1763.02 1752.88 1751.12 1741.61 C 1746.53 1737.26 1742.04 1735.56 1738.75 1732.57 L 1739.76 1731.28 z" fill="rgb(255,255,255)" transform="translate(0,0)"></path>
<path d="M 1603.69 1289.43 C 1624.55 1301.87 1622.32 1335.29 1622.93 1355.68 C 1613.32 1357.43 1606.27 1298.12 1603.69 1289.43 z" fill="rgb(255,255,255)" transform="translate(0,0)"></path>
<path d="M 2007.7 1735.38 L 2010.37 1735.19 L 2010.93 1736.16 C 1986.54 1747.68 1975.81 1756.75 1959.98 1779.38 C 1958.98 1780.52 1959.64 1780.06 1957.82 1780.48 C 1955.25 1773.35 1960.27 1763.17 1964.49 1757.54 C 1976.13 1742.02 1989.38 1737.87 2007.7 1735.38 z" fill="rgb(255,255,255)" transform="translate(0,0)"></path>
<path d="M 1803.51 1679.99 C 1826.59 1688.78 1844 1724.93 1846.15 1748.33 C 1839.65 1741.59 1827.53 1717.19 1822.16 1707.95 C 1815.52 1696.52 1811.78 1690.59 1803.51 1679.99 z" fill="rgb(255,255,255)" transform="translate(0,0)"></path>
<path d="M 1891.58 1392.72 C 1891.77 1393.96 1891.86 1394.1 1891.77 1395.18 C 1890.67 1408.5 1898.58 1463.85 1892.89 1472.38 L 1891.73 1470.75 C 1885.86 1447.35 1880.32 1415.08 1891.58 1392.72 z" fill="rgb(255,255,255)" transform="translate(0,0)"></path>
<path d="M 1899.91 1671.57 C 1901.3 1672.47 1902.13 1673.1 1902.78 1674.71 C 1912.21 1697.9 1911.33 1718.01 1904.37 1740.74 L 1903.2 1743.86 C 1900.55 1739.8 1900.1 1680.91 1899.91 1671.57 z" fill="rgb(255,255,255)" transform="translate(0,0)"></path>
<path d="M 1966.78 1725.91 C 1968.5 1725.72 1969.22 1725.95 1970.97 1726.16 C 1971.68 1728.4 1968.73 1729.33 1966.58 1731.06 C 1953.01 1742 1945.26 1758.88 1936.95 1773.48 L 1936.07 1775.09 L 1935.34 1774.67 C 1934.67 1769.24 1936.75 1761.16 1938.79 1756.04 C 1945.16 1740.01 1951.41 1732.81 1966.78 1725.91 z" fill="rgb(255,255,255)" transform="translate(0,0)"></path>
<path d="M 1775.09 1729.15 C 1803.88 1725.58 1813.02 1751.9 1814.1 1775.4 C 1809.89 1772.29 1805.68 1754.63 1797.93 1746.63 C 1787.75 1736.11 1788.02 1736.55 1775.09 1729.15 z" fill="rgb(255,255,255)" transform="translate(0,0)"></path>
<path d="M 1966.92 1708.18 L 1967.63 1709.34 C 1944.96 1727.21 1943.6 1731.12 1925.16 1754.77 L 1924.74 1754.44 C 1923.76 1750.55 1928.54 1739.86 1930.6 1735.93 C 1938.39 1721.08 1951.43 1713.02 1966.92 1708.18 z" fill="rgb(255,255,255)" transform="translate(0,0)"></path>
<path d="M 1724.15 1741.28 C 1736.4 1743.93 1746.58 1746.94 1755.29 1756.98 C 1758.15 1760.28 1764.54 1769.6 1764.09 1773.78 L 1762.24 1773.18 C 1753.79 1765.21 1742.03 1756.42 1732.02 1750.42 C 1727.55 1747.74 1719.68 1745.94 1716.97 1743.48 C 1718.79 1741.42 1720.62 1741.85 1724.15 1741.28 z" fill="rgb(255,255,255)" transform="translate(0,0)"></path>
<path d="M 1908.21 1423.88 C 1912.48 1427.37 1911.66 1426.96 1913.24 1432.16 C 1915.46 1439.5 1917.06 1467.65 1913.67 1473.16 C 1900.41 1460.9 1906.73 1439.28 1908.21 1423.88 z" fill="rgb(255,255,255)" transform="translate(0,0)"></path>
<path d="M 1799.2 1421.06 C 1823.15 1424.16 1839.78 1445.26 1847.7 1466.59 C 1838.63 1462.6 1828.76 1445.53 1820.92 1437.88 C 1812.9 1430.05 1808.82 1426.96 1799.2 1421.06 z" fill="rgb(255,255,255)" transform="translate(0,0)"></path>
<path d="M 1708.4 1755.06 C 1726.3 1754.55 1734.3 1756.51 1744.85 1772.23 L 1744.43 1773.3 L 1741.24 1772.03 C 1725.53 1764.75 1715.4 1762.15 1698.43 1760.54 L 1708.4 1755.06 z" fill="rgb(255,255,255)" transform="translate(0,0)"></path>
<path d="M 1630.84 1320.43 C 1643.22 1326.51 1644.7 1348.5 1641.96 1360.42 L 1641.1 1360.5 C 1633.93 1354.44 1631.78 1329.74 1630.84 1320.43 z" fill="rgb(255,255,255)" transform="translate(0,0)"></path>
<path d="M 1840.63 1425.65 C 1854.37 1435.8 1858.9 1452.52 1861.81 1468.39 C 1849.67 1459.43 1843.98 1439.27 1840.63 1425.65 z" fill="rgb(255,255,255)" transform="translate(0,0)"></path>
<path d="M 1553.07 1319.44 C 1567.62 1321.63 1578.09 1338.56 1574.38 1353.12 L 1573.24 1353.53 C 1570.78 1351.93 1568.74 1345.87 1567.09 1342.55 C 1562.75 1333.82 1558.69 1327.35 1553.07 1319.44 z" fill="rgb(255,255,255)" transform="translate(0,0)"></path>
<path d="M 1854.84 1422.55 C 1867.59 1427.63 1871.47 1455.01 1871.89 1467.25 C 1868.48 1463.14 1857.81 1430.74 1854.84 1422.55 z" fill="rgb(255,255,255)" transform="translate(0,0)"></path>
<path d="M 1690.98 1335.14 L 1691.38 1336.38 C 1680.69 1347.37 1680.26 1353.2 1673.97 1366.49 L 1672.59 1365.16 C 1669.25 1350.68 1677.12 1339.33 1690.98 1335.14 z" fill="rgb(255,255,255)" transform="translate(0,0)"></path>
<path d="M 1649.97 1333.68 C 1652.32 1334.56 1658.21 1340.73 1660.77 1342.87 C 1661.63 1352.69 1661.92 1356.02 1658.83 1365.48 C 1652.69 1365.99 1654.69 1342.39 1649.97 1333.68 z" fill="rgb(255,255,255)" transform="translate(0,0)"></path>
<path d="M 1580.43 1320.55 C 1593.82 1325.54 1595.43 1341.9 1594.76 1353.99 C 1594.56 1353.94 1594.35 1353.92 1594.16 1353.83 C 1589.57 1351.63 1584.78 1328.37 1580.43 1320.55 z" fill="rgb(255,255,255)" transform="translate(0,0)"></path>
<path d="M 1984.39 1727.14 L 1989.95 1727.16 L 1990.57 1727.9 C 1977.57 1737.11 1977.68 1735.13 1964.67 1747.97 C 1963.52 1748.98 1964.29 1748.42 1962.15 1749.3 L 1961.24 1747.71 C 1962.61 1738.03 1976.16 1730.63 1984.39 1727.14 z" fill="rgb(255,255,255)" transform="translate(0,0)"></path>
<path d="M 1963.52 1448.91 L 1964.34 1449.95 C 1961.28 1454.36 1950.57 1472.78 1948.61 1474.2 C 1941.4 1462.61 1954.69 1454.36 1963.52 1448.91 z" fill="rgb(255,255,255)" transform="translate(0,0)"></path>
<path d="M 1931.04 1445.31 L 1933.28 1446.56 C 1936.53 1456.96 1934.03 1459.03 1935.3 1466.6 L 1933.6 1466.94 L 1930.59 1470.21 L 1929.08 1470.14 C 1926.36 1465.32 1928.02 1449.72 1931.04 1445.31 z" fill="rgb(255,255,255)" transform="translate(0,0)"></path>
<path d="M 1660.18 1485.77 C 1661.26 1485.91 1661.39 1485.89 1662.61 1486.26 C 1683.35 1492.61 1710.26 1511.41 1720.86 1530.65 C 1725.97 1539.93 1727.1 1550.47 1723.94 1560.61 C 1703.27 1627.01 1493.56 1654.24 1432.77 1664.26 C 1384.86 1672.16 1336.81 1679.1 1289.33 1689.42 C 1243.42 1699.03 1198.93 1714.49 1156.95 1735.41 C 1132.72 1747.76 1121.42 1753.97 1113.07 1779.75 C 1117.46 1803.76 1141.47 1811.6 1161.2 1821.12 C 1148.19 1807.2 1141.39 1792.29 1151.83 1774.21 C 1165.41 1750.7 1196.24 1741.54 1220.61 1734.6 C 1205.67 1747.15 1181.43 1753.42 1167.84 1770.73 C 1138.58 1810.24 1177.77 1828.09 1208.39 1840.94 C 1271.71 1867.51 1331.84 1898.71 1386.34 1940.23 C 1408.38 1956.42 1451.67 2001.55 1458.8 2025.99 C 1456.9 2027.45 1451.73 2026.97 1448.73 2027.01 C 1443.52 2013.2 1432.74 1999.6 1422.96 1988.35 C 1367.1 1924.07 1291.71 1886.88 1215.08 1853.29 C 1184.85 1837.7 1143.53 1826.1 1117.24 1804.91 C 1079.73 1774.66 1120.89 1740.87 1147.21 1726.58 C 1203.14 1696.19 1260.27 1683.23 1321.96 1670.8 C 1334.79 1668.21 1348.15 1667.34 1361.04 1665 C 1458.94 1647.16 1561.59 1647.5 1654.05 1606.84 C 1679.4 1595.69 1715.38 1576.91 1711.36 1543.82 C 1707.96 1515.8 1679.88 1501.54 1660.18 1485.77 z" fill="rgb(9,9,9)" transform="translate(0,0)"></path>
<path d="M 1355.55 1715.19 L 1358.81 1714.96 L 1359.39 1715.86 C 1356.45 1718.69 1341.87 1725.06 1336.66 1727.59 C 1307.53 1741.7 1263.34 1776.67 1313.86 1800.11 C 1335.97 1810.37 1366.61 1817.42 1391.43 1823.33 L 1484.46 1845.26 C 1465.65 1850.94 1447.32 1850.12 1427.84 1848.41 C 1398.48 1845.91 1365.49 1839.11 1335.74 1836.01 C 1316.9 1834.04 1298.76 1833.54 1280.35 1829.57 C 1269.34 1827.3 1258.71 1823.52 1248.75 1818.32 C 1204.8 1794.88 1237.37 1769.45 1265.28 1753.21 C 1292.36 1737.46 1325.12 1721.58 1355.55 1715.19 z" fill="rgb(9,9,9)" transform="translate(0,0)"></path>
<path d="M 1298.21 1742.81 L 1299.58 1743.53 C 1294.23 1748.36 1288.03 1753.56 1285.41 1760.66 C 1267.65 1808.75 1337.2 1819.3 1368.32 1828.55 C 1379.51 1831.87 1392.86 1834.21 1403.49 1838.46 C 1400.66 1838.8 1395.25 1837.79 1392.24 1837.36 C 1372.06 1834.98 1349.8 1831.46 1329.61 1827.45 C 1309.39 1823.43 1259.75 1808 1268.02 1778.98 C 1273.35 1760.29 1282.4 1752.44 1298.21 1742.81 z" fill="rgb(255,255,255)" transform="translate(0,0)"></path>
<path d="M 1270.98 1756.18 C 1274.05 1764.01 1225.56 1797.85 1307.22 1828.47 C 1299.64 1827.31 1293.11 1826.08 1285.6 1824.49 C 1278.21 1822.45 1270.94 1819.99 1263.83 1817.1 C 1250.47 1811.61 1240.88 1806.78 1235.14 1793.14 C 1241.4 1775.06 1255.31 1765.59 1270.98 1756.18 z" fill="rgb(255,255,255)" transform="translate(0,0)"></path>
<path d="M 1371.17 1739.73 C 1371.87 1742.99 1371.37 1747.05 1371.48 1750.4 C 1371.89 1762.95 1375.99 1773.96 1385.46 1782.44 C 1413.91 1807.92 1516.87 1831.72 1557.48 1842.67 C 1615.67 1858.7 1674 1874.16 1732.49 1889.04 C 1768.87 1898.34 2013.74 1954.53 2027.05 1970.13 C 2028.03 1973.32 2027.77 1973.19 2026.64 1976.41 L 2024.7 1976.82 C 1979.57 1966.12 1932.13 1949.12 1886.19 1937.44 L 1643.1 1876.99 C 1592.44 1864.13 1541.74 1851.6 1491.64 1836.35 C 1456.11 1825.54 1416.55 1815.84 1385.22 1794.74 C 1366.79 1782.32 1356.09 1759.5 1371.17 1739.73 z" fill="rgb(9,9,9)" transform="translate(0,0)"></path>
<path d="M 233.692 1642.62 C 233.676 1647.77 231.126 1663.69 230.365 1669.51 C 227.917 1688.24 225.984 1704.7 225.088 1723.5 C 221.949 1791.4 223.274 1859.44 229.055 1927.16 C 232.042 1963.02 234.82 1993.15 241.808 2028.59 C 238.247 2028.74 234.219 2028.54 230.62 2028.46 L 218.804 2028.59 C 218.368 2008.72 214.45 1978.22 213.319 1955.87 C 208.744 1865.39 209.184 1773.42 224.339 1683.87 C 226.195 1672.91 230.253 1652.73 233.692 1642.62 z" fill="rgb(9,9,9)" transform="translate(0,0)"></path>
<path d="M 1374 1890.43 C 1383.59 1896.92 1395.29 1903.03 1405.3 1908.99 C 1439.73 1929.48 1470.82 1951.74 1492.84 1986.11 C 1498.45 1994.86 1510.39 2014.69 1513.43 2024.36 C 1512.03 2027.35 1512.79 2025.99 1509.71 2028.25 C 1507.19 2028.34 1504.22 2027.77 1503.12 2025.27 C 1475.95 1963.76 1421 1921.62 1363.36 1890.33 C 1355.93 1886.29 1334.49 1879.26 1330.06 1875.71 L 1330.77 1874.63 C 1338.91 1873.26 1346.77 1875.03 1354.79 1876.01 C 1389.91 1880.29 1423.03 1897.04 1453.11 1915.03 C 1490.26 1937.25 1522.13 1960.25 1532.74 2004.81 C 1533.92 2009.79 1537.54 2022.75 1534.89 2026.98 C 1531.54 2029.47 1533.26 2029.14 1529.78 2028.84 C 1525.74 2025.65 1518.02 1993.23 1512.07 1982.74 C 1487.01 1938.55 1422.77 1901.77 1375.75 1887.85 C 1368.84 1885.66 1361.33 1882.68 1354.63 1880.81 C 1361.43 1885.38 1366.4 1887.23 1374 1890.43 z" fill="rgb(9,9,9)" transform="translate(0,0)"></path>
<path d="M 1400.06 1882.9 C 1414.68 1882.99 1431.67 1888.97 1446.12 1891.91 C 1546.25 1912.27 1646.16 1940.75 1734.44 1993.58 C 1748.8 2002.18 1775.64 2015.49 1787.65 2026.57 L 1775.09 2027 C 1758.33 2015.62 1737.19 2004.99 1719.11 1995.67 C 1690.07 1980.65 1660.22 1967.25 1629.7 1955.52 C 1563.24 1930.59 1494.06 1913.96 1426.92 1890.93 C 1418.3 1887.97 1409.82 1886.37 1401.21 1883.32 L 1400.06 1882.9 z" fill="rgb(9,9,9)" transform="translate(0,0)"></path>
<path d="M 1661.32 1927.03 C 1681.46 1928.25 1718.8 1939.81 1739.3 1944.41 C 1804.5 1959.05 1868.53 1977.37 1931.99 1998.24 C 1959.46 2007.27 1991.92 2015.67 2018.03 2027.69 C 1986.65 2030.54 1975.05 2025.31 1946.41 2016 C 1922.99 2008.36 1899.52 2000.84 1876.01 1993.46 C 1852.29 1986.06 1818.05 1975.68 1795.15 1968.93 C 1775.17 1963.04 1672.75 1936 1661.32 1927.03 z" fill="rgb(9,9,9)" transform="translate(0,0)"></path>
<path d="M 135.408 1700.86 C 136.338 1715.31 127.831 1757.92 126.183 1775.68 C 118.505 1858.4 108.173 1945.1 113.932 2028.16 C 108.116 2028.05 102.906 2028.2 97.1049 2028.39 L 96.2744 2027.18 C 95.3645 2017.83 97.1721 1995.52 97.5462 1984.66 C 99.6851 1922.56 107.532 1860.89 117.041 1799.53 C 120.7 1775.92 128.513 1722.31 135.408 1700.86 z" fill="rgb(9,9,9)" transform="translate(0,0)"></path>
<path d="M 1949.41 705.58 C 1971.52 703.118 1993.9 704.713 2015.43 710.287 C 1989.92 713.519 1951.23 705.792 1924.51 719.441 C 1916.77 723.398 1909.61 739.15 1906.47 739.981 C 1891.93 743.831 1878.2 738.357 1862.65 747.22 C 1852.74 752.876 1852.97 762.641 1849.75 772.866 C 1834.93 781.604 1801.14 775.423 1783.93 780.467 C 1772.3 783.876 1763.59 788.253 1754.16 796.071 C 1747.91 801.246 1738.46 815.771 1731.91 817.889 C 1729.95 818.526 1712.4 819.002 1708.53 819.46 C 1698.33 820.671 1688.36 822.303 1678.22 823.915 C 1658.3 828.799 1655.97 838.191 1642.6 850.138 L 1641.17 851.408 L 1642.12 848.377 C 1651.3 818.39 1672.98 816.937 1699.46 812.837 C 1710.36 811.147 1721.79 808.993 1732.72 807.098 C 1736.45 804.069 1743.42 796.213 1748.68 791.941 C 1786.72 761.016 1802.73 776.218 1842.52 767.789 C 1849.88 732.46 1870.66 733.411 1901.01 733.82 C 1911.22 712.035 1927.11 708.092 1949.41 705.58 z" fill="rgb(9,9,9)" transform="translate(0,0)"></path>
<path d="M 1936.21 838.403 C 1962.78 835.063 1987.89 840.922 2012.22 851.176 C 2001.94 851.211 1990.34 848.551 1979.89 847.234 C 1953.48 843.904 1926.08 846.608 1901.01 855.707 C 1894.83 857.951 1878.78 865.887 1873.1 865.986 C 1858.57 866.239 1843.11 862.594 1828.26 864.825 C 1807.43 867.754 1808.24 882.515 1799.3 896.381 C 1794.86 903.258 1769.84 900.335 1761.41 901.292 C 1755.83 901.926 1748.2 902.579 1742.01 903.333 C 1720.12 905.907 1700.44 915.45 1681.63 926.408 C 1700.83 903.868 1732.17 896.644 1760.49 894.064 C 1771.66 893.047 1782.13 893.788 1792.82 890.604 L 1794.21 890.177 C 1797.74 878.755 1800.89 869.699 1811.49 862.524 C 1826.26 852.528 1855.24 855.197 1871.81 859.036 C 1893.45 846.81 1911.72 840.94 1936.21 838.403 z" fill="rgb(9,9,9)" transform="translate(0,0)"></path>
<path d="M 1544.21 743.283 L 1546.23 743.72 C 1543.18 746.974 1493.58 758.956 1482.7 762.548 C 1449.39 773.548 1390.49 787.147 1370.89 818.816 C 1369.35 821.302 1366.81 831.77 1367.69 834.703 L 1371.48 834.702 C 1377.57 834.664 1382.19 834.434 1387.39 837.972 L 1387.68 839.604 C 1378.68 849.846 1362.01 826.755 1351.02 864.899 C 1325.82 866.508 1291.1 870.86 1282.23 899.39 C 1275.15 901.218 1268.81 903.809 1261.97 901.953 L 1262.62 899.307 C 1267.42 896.017 1271.36 895.329 1276.98 894.771 C 1295.76 864.643 1311.87 861.728 1345.09 856.437 C 1349.69 848.476 1351.83 842.889 1359.51 837.972 C 1360.94 829.145 1362.69 817.34 1368.12 810.341 C 1396.93 773.214 1500.74 750.807 1544.21 743.283 z" fill="rgb(9,9,9)" transform="translate(0,0)"></path>
<path d="M 1534.52 1949.06 C 1549.91 1949.66 1610.69 1984.12 1625.28 1993.62 C 1639 2002.54 1658.34 2017.13 1672.76 2026.71 C 1663.01 2026.67 1654.75 2026.77 1644.96 2027.32 C 1623.86 2005.57 1597.26 1987.39 1571.64 1971.46 C 1559.51 1963.92 1546.34 1956.95 1534.52 1949.06 z" fill="rgb(9,9,9)" transform="translate(0,0)"></path>
<path d="M 1664.37 1949.03 C 1669.33 1949.17 1684.57 1954.87 1690 1956.74 C 1730.81 1970.76 1794.28 2000.27 1827.88 2027.02 C 1805.5 2028.74 1799.45 2020.65 1780.71 2009.53 C 1757.5 1995.55 1733.69 1982.61 1709.32 1970.75 C 1698.12 1965.31 1673.35 1955.29 1664.37 1949.03 z" fill="rgb(9,9,9)" transform="translate(0,0)"></path>
<path d="M 1571.58 867.355 C 1574.72 866.991 1578.52 866.199 1580.76 868.436 C 1578.31 870.802 1570.1 871.76 1566.51 872.783 C 1539.01 880.618 1523.86 887.676 1525.1 918.387 C 1511.18 920.73 1483.86 920.674 1472.92 927.081 C 1461.07 934.025 1452.69 940.638 1438.7 947.004 C 1436.14 948.557 1435.22 949.002 1432.47 950.19 C 1433.63 948.61 1462.85 926.43 1465.8 924.085 C 1475.52 916.373 1501.11 916.106 1514.67 912.721 L 1515.98 912.381 C 1524.49 878.677 1538.93 871.759 1571.58 867.355 z" fill="rgb(9,9,9)" transform="translate(0,0)"></path>
<path d="M 1187.99 888.918 L 1188.63 889.475 C 1170.79 891.25 1161.55 902.996 1156.82 919.182 L 1161.21 928.129 C 1158.4 929.611 1154.49 926.859 1150.64 927.524 C 1127.65 931.501 1108.31 940.033 1086.85 948.818 C 1084.68 949.785 1083.77 949.972 1081.46 950.665 L 1080.92 949.804 C 1094.3 933.357 1130.41 924.823 1150.55 921.227 C 1151.77 900.531 1168.24 889.123 1187.99 888.918 z" fill="rgb(9,9,9)" transform="translate(0,0)"></path>
<path d="M 1509.58 980.42 C 1520.91 979.51 1521.23 980.526 1530.98 981.289 L 1531.12 981.91 C 1527.22 983.095 1522.65 982.826 1518.55 982.923 C 1490.4 983.586 1466.59 993.468 1440.58 1003.36 C 1427.04 999.869 1415.16 1002.73 1403.51 1009.79 C 1399.49 1012.81 1391.86 1019.4 1387.27 1019.25 C 1386.91 1017.41 1386.74 1015.85 1388.54 1014.08 C 1395.53 1007.26 1406.77 1001.52 1415.71 998.2 C 1426.22 994.299 1437.07 995.821 1446.28 993.558 C 1469.28 987.9 1485.39 982.021 1509.58 980.42 z" fill="rgb(9,9,9)" transform="translate(0,0)"></path>
<path d="M 1366.56 973.288 C 1378.95 972.595 1395.46 977.034 1406.88 981.545 C 1377.22 983.276 1371.98 972.344 1342.61 987.246 C 1330.97 993.471 1321.92 999.243 1308.93 1002.02 C 1331.38 989.379 1340.12 977.564 1366.56 973.288 z" fill="rgb(9,9,9)" transform="translate(0,0)"></path>
<metadata><recraft-signature>{"signed_by": "recraft", "signature_b64": "WTYDebY5VDgVKUiAeycErcRsyfCp7BxzxkVfFQJ6sieVvU9BR9uY33M3Mg6LBcPECJg8zleWEY2RYwCiarNaDg==", "signing_algo": "Ed25519", "generation_timestamp": 1766797341, "identifier": "96639c2a-b3f0-4fd9-b8e5-b7dda547455b"}</recraft-signature></metadata></svg>