<svg xmlns="http://www.w3.org/2000/svg" width="300" height="300" fill="none" xmlns:v="https://vecta.io/nano"><style><![CDATA[.B{fill:#f2f2e3}.C{fill:#696868}.D{fill:#363534}.E{fill:#000}.F{fill:#8c8b8a}.G{fill:#dbd6cc}.H{fill:#b7b6ae}]]></style><g clip-path="url(#A)"><path d="M0 0h300v197.723.433 13.829.524 7.416.501 15.056.423 27.055.52 6.032.52 7.274.486 13.207.416V300H192.565h-.635H85.478h-.617H0v-3.744-.568V0z" class="E"/><path d="M0 0h298.507v199.609c-2.781-.281-4.769-.539-7.509.287-3.059.922-4.898.527-7.678 2.543-.558 1.586-1.614 4.964-2.521 6.188-1.332 1.252-4.738 1.108-6.148 1.627-2.874 1.056-4.221 1.018-7.116 1.078l-4.676.292c-2.331-1.213-3.783-.877-6-3.132l.024-47.692.018-13.592-.134-7.373c-.144-1.611-.991-2.768-2.684-2.528-.857.121-1.468.675-2.246.827-.731-1.064-.186-3.04-.372-4.398-.247-1.797-1.004-3.523-1.067-5.306l.011-6.738c-.431-8.996.459-23.265-8.391-28.481-5.693-3.061-11.599 4.716-13.448 9.228-1.955 4.775-3.427 10.642-1.253 15.542.193.436.196.428.601.572.595-.217.835-.399 1.361-.172.435.649 1.189 2.639 1.174 3.379-.031 1.457-2.872 1.694-3.912 2.956-1.085 1.318-1.027 1.688-1.061 3.354l-1.37 1.833c-1.861-2.894-2.771-5.525-2.854-9.032-.115-4.823-.428-12.626-4.101-16.186-7.665-7.425-15.902 4.334-15.517 11.957-1.714.718-3.249 1.363-5.005 1.967-.212-2.048-.416-8.134.203-10.305.301-.792 2.709-2.201 2.519-3.074-.804-3.698-.288-7.019.203-10.798 1.352-1.077 1.89-2.032 3.443-3.021 1.322-.841 5.697-.967 6.108-1.225.099-1.717 1.91-3.489 3.181-4.564.441-.373 1.889-.938 2.177-1.259 1.568-1.749 1.743-5.642 2.023-7.827 3.572-.603 8.159-1.607 11.634-2.638.142-1.059.538-2.469.804-3.533 3.182-1.072 4.028-1.458 6.605-3.379l-.134-.279c-3.223 2.001-3.324 1.998-6.902 3.413a62.91 62.91 0 0 1-.833 3.318c-1.518.557-3.268 1.076-4.86 1.35-9.594-19.787-26.529-34.909-47.093-42.052-20.651-7.027-43.202-5.498-62.747 4.256-19.027 9.526-33.59 26.271-40.537 46.611-1.972 5.854-3.211 11.936-3.688 18.103-.3 4.038-.242 8.035-.242 12.081l.004 15.827-.002 49.66-.002 42.618-.006 13.467c-.001 1.75-.105 5.141.033 6.793l.815.241c-.755.145-.85.013-.953.899l.094.418.013 12.196-.007.383c-.007 1.322-.038 2.649.014 3.967.025.62.529.536.306.804-.594.715-.324 2.455-.337 3.422-.033 2.325.126 4.721-.031 7.036l-.096.221.289.218-.038.223c-.087.451-.089.42.009.868l-.228.529.074.188a108.35 108.35 0 0 1 .026 6.203c-4.511-2.147-5.101-.137-9.591-.05-1.564.029-3.914-.864-5.491-1.101-2.157-.324-4.644-.198-6.827-.279-1.965-.137-4.183.648-6.016.854-1.219.137-5.013.714-6.003.585-5.27-.683-4.869-1.394-9.763 1.51-1.14 3.777-.868 6.431-1.492 9.889-3.056 1.173-4.794.81-7.661 1.178-4.022.515-12.755 3.054-15.631 5.953V0z" class="B"/><path d="M236.576 66.076c.978-.532 1.322-.654 2.38-1.006l-2.246 1.283-.134-.277z" class="D"/><g class="B"><path d="M275.806 234.491c4.312 1.184 11.408-.349 16.203.563 2.535.482 5.207.115 7.991.851v27.055c-3.639.276-8.821.338-12.304-.843-2.176-.738-3.938-1.822-6.398-2.238-6.197-1.048-12.611-1.045-18.822-2.033-1.854-.296-4.839-1.789-6.965-2.173-2.272-.412-7.731.429-9.471-.061-3.058-1.272-5.79-3.554-8.824-5.023-2.024-.981-9.658-2.429-10.009-4.69.144-.316.266-.561.669-.691 3.228-1.045 7.021-1.148 10.446-1.852 3.924-.807 4.423-2.291 8.132-3.077 1.529-.671 4.962-.187 6.224-.658 2.477-.922 4.296-1.132 6.918-1.511 1.608-.233 3.386-.832 5.04-1.105 3.819-.631 7.609-.901 11.17-2.514zM0 296.256c4.154-3.478 10.962-5.337 16.291-6.097 1.335-.191 3.88.03 5.088-.316 3.535-1.012 6.941-1.412 10.399-2.747 2.134-.823 4.594-2.427 6.677-2.992 1.483-.403 4.407-.884 5.969-1.112 2.54-.37 7.277-1.396 9.762-1.264 3.433.182 6.418.582 9.963.599 3.562.017 6.669-.844 10.019-.657 5.263.294 8.519 2.909 12.761 5.479 2.154 1.304 3.181 1.256 5.578 3.158l-1.095 1.504c.695.724 1.83 1.539 1.835 2.426-1.02.952-2.775 1.822-3.992 2.561-1.658 1.005-2.973 1.904-4.392 3.202H0v-3.744z"/><path d="M203.554 263.204c1.798.642 3.6.739 5.502.924 4.326.335 9.438 1.096 13.725.184 5.123-1.089 10.11-4.134 15.184-5.469 1.243-.326 2.681-.521 3.954-.649 5.227-.523 10.508-.162 15.749-.169 4.216-.019 8.36.882 12.559 1.191 3.735.316 7.519.453 11.207 1.132 1.856.337 3.557 1.28 5.305 1.941 1.067.403 2.401.735 3.52 1.035 3.524 4.018 5.091 4.397 9.741 6.708v7.274c-2.98-.022-6.29-.243-9.154-.965-3.303-.808-7.076-2.663-10.571-2.207-3.135.41-6.398 1.562-9.646 1.959-2.923.357-7.568 2.741-9.555 4.995-.056.464-.096 1.226-.375 1.558-.811.97-3.287 1.046-4.615 1.211.813-1.201.86-1.69 1.06-3.082-.248-.714-1.58-2.869-2.326-3.266-.859-.368-2.132-.475-3.053-.478-3.136-.011-6.034-.593-9.094-1.196 3.757-.506 7.505-1.083 11.24-1.734 1.651-.284 4.648-.727 6.094-1.334 2.338-1.078 2.941-3.178 5.61-3.789 5.378-1.232 11.207-.292 16.423-2.014 1.53-.506 3.925-1.527 4.715-2.968.2-.364-.044-.992-.216-1.348l-.109 1.145c-.451.754-1.466 1.327-2.241 1.751-4.896 2.655-10.867 1.779-16.237 2.563-4.748.694-3.9.715-7.4 3.788-.831.73-5.866 1.667-7.121 1.765-3.824.299-10.256 2.348-13.955 1.718-2.429-4.705-7.763-2.257-11.97-3.19-3.108-.69-6.275-2.636-9.397-2.957-6.079-.625-12.209 1.705-14.553-6.027zm-12.311 35.68c.217-.364.719-1.178 1.07-1.363 1.729-.896 5.194-.477 7.214-.542 3.966-.129 8.849-.24 12.705-1.051 3.805-.8 8.884-3.101 12.57-4.619 2.661-1.188 5.141-3.121 8.031-3.686 3.187-.623 6.495-.422 9.716-.801 3.812-.448 7.584-1.358 11.344-2.128 2.022-.415 5.956-.57 7.515-1.805.788.207 1.588.334 2.387.499 7.642 1.576 15.143 3.876 22.778 5.505 4.444.948 9.035 1.44 13.427 2.522V300H192.564c-.466-.325-.896-.736-1.321-1.116zM85.479 300c13.769-11.308 34.789-11.405 51.332-7.451 4.267 1.02 9.624 1.216 14.037 1.72 6.127.698 12.409.979 18.522.033 1.485-.241 2.901-.293 4.371-.771l.211.064c2.384.748 1.136 2.098 3.234 2.825 1.658.574 3.224-.112 4.895-.135 1.498.088 3.514.475 5.064.68 1.837.246 2.913.26 4.732.275-.38.516-.839 1.087-1.126 1.649l1.18 1.111H85.479zm181.018-88.835c1.228 2.998-.111 1.87-.319 3.261l.213.154c2.809 1.906 17.557-.351 21.608-.741 3.481-.335 7.229-.374 10.645-1.06l1.356-.27v7.416c-.635-.055-1.274-.042-1.913-.033-4.766.069-9.557.061-14.279.794-2.049.27-4.163 1.093-6.219 1.237-1.772.124-3.742.012-5.53.005-2.236.003-4.472.085-6.703.245l-15.738 1.023c-1.842.133-12.463 1.456-13.168-.369.942-2.952-1.729-1.836-3.05-2.02l-.105-.225c1.593-1.631 7.434-1.346 9.375-1.71 2.635-.495 5.007-1.067 7.686-1.488 2.188-.354 4.384-.66 6.586-.915 2.099-.243 4.81-.371 6.752-1.071.535-.193 2.449-3.479 2.803-4.233z"/><path d="M300 290.999c-4.635-1.167-9.936-1.69-14.676-2.778-6.233-1.431-12.361-3.029-18.559-4.626-1.366-.352-4.035-.668-5.334-1.283-.127-.06-.119-.298-.146-.48.175-.501.377-.796.796-1.161 2.481-2.165 5.722-3.493 8.91-4.185 1.139-.247 2.657-.329 3.679-.587 2.933-.74 4.997-1.573 8.118-1.198 2.654.319 4.891 1.306 7.468 1.996 3.424.917 6.257 1.005 9.744 1.095v13.207zm-32.419-78.21c-.412-.885-.92-1.857-.23-2.726.964-.574 3.286-.243 4.478-.29 1.588-.061 3.069-.865 4.74-1.162l4.81-.889c2.775-1.249 2.256-5.418 4.333-7.27 1.329-1.185 3.568-1.242 5.248-1.576 1.342-.266 2.994-.954 4.312-.997 1.477-.049 3.24.158 4.728.278v13.828c-1.766.79-10.465 1.19-13.125 1.494-6.413.733-13.85 1.984-20.233 1 .358-.58.624-1.09.939-1.69zm8.456 11.125c2.324-1.206 1.86-1.519 4.767-2.159 4.872-1.074 9.656-1.393 14.641-1.382 1.292.003 3.357-.227 4.555.053v15.056c-1.198-.324-2.349-.319-3.401-.617-.744-.21-2.183-1.478-2.983-1.804-1.299-.528-3.088-.705-4.29-1.428-.566-.341-.694-1.39-.836-2.058-.878-.278-1.929-.85-2.811-.937-2.932-.287-4.027.15-6.983-.657-.604-.683-.897-1.079-1.689-1.563-.194-1.09-.34-1.598-.97-2.504z"/></g><path d="M69.686 240.103c1.861.252 8.641.094 10.95.091l22.047-.002 37.961.06c5.506.015 11.828.223 17.265.074.342.458.236.567.08 1.152-.528.395-2.519.194-3.371.267-13.605.157-27.239-.169-40.875.003l-13.107.215c-2.442.072-8.639.476-10.678.053-1.497.154-5.039-.563-6.866-.594-4.758-.082-9.512-.033-14.268-.014l-.095-.414c.103-.878.199-.747.957-.891z" class="E"/><path d="M89.998 241.861c.574-.222 6.468-.19 7.532-.21l44.39-.289 10.473-.016 5.596.131c-.529.396-2.52.195-3.371.268-13.606.157-27.239-.169-40.875.003l-13.108.215c-2.442.071-8.639.476-10.678.052l.041-.154z" class="B"/><path d="M68.729 240.994c1.201.23 3.869.122 5.193.134 5.21.043 10.372-.351 15.525.689a1.83 1.83 0 0 0 .552.044l-.041.155c-1.497.155-5.039-.563-6.866-.594-4.758-.082-9.512-.033-14.268-.014l-.095-.414z" class="C"/><path d="M122.271 249.726c6.179.626 11.83.231 17.927.417 1.952.059 13.212.194 14.166.737-.753.432-18.888-.625-21.854-.192 1.344.272 3.359.138 2.889 1.933l-.093.335c-1.154.54-1.786.873-3.092 1.037-1.105.138-3.696-.939-4.439-.091.593.228 2.445.114 3.308.166-1.426.374-6.346 1.067-6.971 1.346l.111.05-.737.295c.635.179 1.258.339 1.872.579-1.411.67-5.274 1.792-6.002 2.535l-.416.293-.312-.23c-1.996-1.729-3.732-.947-4.772-1.988l.343-.217c.671-.266 1.347-.521 2.027-.765-3.226-.051-5.227-.677-8.353-1.075-7.139-.911-15.868.315-22.675-1.754l-.114-.176-.263.013.223.101-.218-.117c.596-.035 1.741.213 2.35.346 5.182 1.126 10.463.525 15.727.527.677.045 3.74.045 4.059.116l-.692.29c.284.027.541.064.826.054 2.211-.417 9.035-.432 11.555-.468l.252-.444.133-.129c-.564-.462-5.687-.947-6.679-1.003l.135-.298c4.037-.027 9.363-.673 13.35-1.321l-3.835-.423.265-.479z" class="B"/><g class="E"><path d="M118.65 253.823c.147-.052.79-.353.744-.334 1.32-.554 6.291-.174 7.439.216l.099.181c-1.149.855-8.518 1.554-10.279 1.508-2.896-.076-6.579-.789-9.558-1.103 2.21-.417 9.035-.432 11.555-.468zm.706 5.05c-.713-1.935-2.81-1.25-3.51-2.305.642-.664 6.478-.913 7.64-.809l1.872.579c-1.411.67-5.274 1.792-6.002 2.535zm8.19-7.737l1.064-.066c1.44-.057 5.438-.118 6.508.875.199 2.29-8.101 1.118-9.544 1.042-3.402-.04-5.774-.296-9.114-.761l11.086-1.09z"/></g><path d="M107.371 242.591c7.205-.874 15.588.04 22.781.604l17.957 1.299c2.552.204 7.189.046 9.153.36l.142.151c-3.843.319-7.049.191-10.876.196l-14.956.019c-4.77-.048-9.557-.5-14.258.317-.639.111-1.758.343-2.376.229.147-.318.117-.242.351-.519-.41-.002-.521.132-.873.359l-.117.25c1.223.633 2.476.727 3.572 1.453l-.081.483-.085.044c-1.216-.995-3.168-1.18-4.612-1.631-.292-.092-.145-.019-.368-.433-.481-.1-2.417-.089-3.074-.117-4.852-.208-14.984-.265-19.457.913l.056.137.114-.001c2.02-.098 9.75.567 11.596 1.287l13.789 1.054c1.037.086 2.108.083 3.119.182 1.127.111 2.26.378 3.403.499l-.265.48c-6.159-.042-13.205-1.637-19.527-1.668-1.826-.009-13.043-.466-13.837-1.526l.105-.342c1.489-1.194 11.014-1.385 13.513-1.538 3.574-.219 6.918.314 10.714-.176-1.856-.157-4.644.118-6.197-.253 3.78-.558 6.489-.075 10.201.14 1.131.066 2.895-.219 4.011-.403-5.443-.159-10.863-1.154-16.054-1.281l-.26-.31c.622.011 1.805-.002 2.385.051l.311-.309z" class="B"/><path d="M110.517 242.704c6.94-.55 15.254.589 22.191 1.071l8.097.545c1.551.1 3.845.179 5.307.456l.057.071c-1.999.206-5.523.093-7.641.105-9.627.054-19.48-.919-29.097-1.822.367-.236.662-.29 1.086-.426z" class="E"/><path d="M90.363 246.704c2.02-.098 9.751.567 11.596 1.287-.766.019-3.31.125-3.905-.119-.834-.608-6.119-.846-7.509-.926l-.182-.242z" class="C"/><g class="E"><path d="M90.194 246.568l.056.137.114-.001.182.242c1.391.08 6.675.318 7.509.926-1.542-.024-7.585-.173-8.588-.929l.094-.18.634-.195zm16.866-3.668l.311-.309c1.126.098 2.012.11 3.146.113-.423.136-.718.19-1.086.426l-2.371-.23z"/></g><path d="M116.902 249.352c.827-.166 2.13.043 2.906.355-1.027.162-1.958.075-2.906-.355z" class="D"/><path d="M157.245 240.05c1.72-.37.897-2.345 3.505-1.949.32.222.396.173.437.629.215 2.339-.617 4.832-.873 7.189l-.31 4.24-.747.41.046.181.631.059c.302.463.252 1.801.346 2.807.445 4.751.101 7.429-5.247 8.177l-.284-.079.012-.228.809-.244c-.215-.403-.131-.265-.497-.582l-.019-.219.249-.287c-.277-3.156-1.964-6.044.455-9.112.295-.374.17-.307.574-.367l.286.114.001-.139c-1.923-2.825-1.06-3.337 1.142-5.558.179-1.065.177-2.16.204-3.241l-3.347-.106c.851-.073 2.843.128 3.371-.268.155-.585.262-.694-.081-1.151l-.663-.276z" class="B"/><path d="M156.62 250.65c.71.207 1.741.384 2.314.683-.78-.072-1.729-.059-2.316-.543l.002-.14z" class="G"/><path d="M124.223 255.464c.523.147 1.05.22 1.392.619.113 1.536-5.743 2.326-7.19 4.497l-.165.245-.114.177c-2.147.913-3.967 2.093-6.192 2.593-3.265.736-6.668 1.311-9.926 1.572-6.59.527-27.705 1.161-33.09 4.442l.038-.221-.291-.216.096-.219c.522.091 1.692-.603 2.305-.792 1.649-.511 3.591-.801 5.296-1.072a169.08 169.08 0 0 1 14.072-1.574c7.429-.475 14.956-.458 22.146-2.6-.944-.103-1.253-.155-2.185-.402l-.034-.233-.513-.071c.162-.381.076-.206.59-.475l-.883-.047-.078-.161c1.408-.025 4.287-.086 5.331-.998l.43-.361c1.025-.493 2.277-.859 3.37-1.23l.312.229.416-.293c.728-.743 4.59-1.865 6.002-2.535-.614-.24-1.238-.399-1.872-.579l.737-.295z" class="B"/><g class="E"><path d="M110.458 261.733c1.307-.116 3.521-.475 4.654-.026l.241.271c-2.096.991-2.818-.09-4.972.301l-.513-.07c.162-.381.075-.207.59-.476zm8.04-2.229l-.03.165c-1.144 1.068-1.345 1.077-2.831 1.391l-.072-.055.038-.17c.712-.536 1.988-.92 2.895-1.331z"/></g><g class="B"><path d="M68.866 239.864c1.617-.161 4.22-.088 5.947-.087l10.53.005 34.793-.003 26.108.132 7.097.023 3.903.116.663.276c-5.436.148-11.758-.06-17.265-.075l-37.96-.059-22.047.002c-2.309.003-9.09.161-10.95-.091-.278-.074-.545-.157-.819-.239zM290.415 263.1c3.984.725 5.545.493 9.585.379v6.033c-1.309-.525-5.033-2.514-6.17-3.319-.554-.391-2.803-2.524-3.415-3.093z"/></g><path d="M110.415 262.513c-8.254-.21-16.62-.904-24.889-1.107-2.338-.058-14.513-.882-15.71-1.815.692-.081 2.276.385 3.122.473l5.281.523c5.862.56 11.659.656 17.535.877 3.687.139 7.679.608 11.417.373l.156-.021c.733-.192 1.413-.3 2.171-.29l.078.161.883.047c-.514.269-.428.094-.59.475l.513.071.034.233z" class="F"/><path d="M107.325 261.816c.733-.192 1.414-.3 2.171-.29l.079.161.883.047c-.515.269-.429.094-.59.475a13.21 13.21 0 0 1-2.543-.393z" class="D"/><path d="M112.356 252.247a1083.49 1083.49 0 0 0-17.293.045l-5.774.094-3.07.059c1.26-.649 23.281-.55 26.271-.496l-.135.298z" class="C"/><path d="M68.947 270.469c3.536 3.093 12.972 2.443 17.573 2.834-1.264.188-2.475.295-3.752.226-4.549-.246-9.832-.087-13.864-2.422l-.111.072-.074-.186.229-.524z" class="B"/><g class="C"><path d="M114.829 260.528c-.978-.131-2.473.099-3.424.104-3.194.018-10.82 1.207-13.494.391.441-.138 1.892-.039 2.447-.051 4.976-.111 9.92-.698 14.9-.805l-.429.361zm-45.993-7.039c1.773.067 15.055-.222 15.325-.107-.811.599-13.328.485-15.332.486l.007-.379z"/></g><g class="F"><path d="M102.901 253.831c2.466-.357 7.301-.069 10.036-.131 2.079-.047 3.887-.154 5.964-.321l-.251.444c-2.52.036-9.345.051-11.555.468-.285.01-.542-.027-.827-.054l.693-.29c-.319-.071-3.383-.071-4.06-.116zm2.034-10.672c-1.928-.037-6.949-.08-8.532-.747l.063.071.053-.178c2.6.432 6.192.165 8.156.544l.26.31z"/></g><path d="M117.871 247.309c.597.411.642.306.91.867-.627.921-3.067.263-4.067.23l-.08-.285c1.448.169 1.687-.411 3.071-.286l.084-.043.082-.483z" class="B"/><path d="M113.856 256.948c-.906-.658-2.613-.048-3.385-.737l-.006-.314.228-.222c.299-.026 2.981.901 3.505 1.056l-.342.217z" class="G"/><path d="M109.435 248.008c1.123-.02 4.328-.132 5.199.113l.08.285c-1.413.159-3.873-.105-5.279-.398z" class="D"/><path d="M171.231 126.806c.818.036 1.502.17 2.305.307 1.577 1.849 2.931 5.108 3.917 7.403 4.543 10.573 8.59 21.416 12.094 32.376 2.16 6.755 5.406 14.219 5.933 21.332-.907-2.045-1.966-4.455-2.671-6.567-4.512-13.534-8.645-27.086-13.686-40.443l-.179.23c1.87 4.726 3.656 10.365 5.239 15.202l7.863 24.135c.838 2.522 1.964 5.259 3.03 7.707 2.801 6.433 1.329 12.548-1.215 18.846-.799-2.686-1.377-7.184-1.033-9.992l-.344.229c-.05.455-.29 1.051-.282 1.599.031 2.35.353 5.352.968 7.6.335 1.226 2.047 3.978 1.879 5.144-.733 5.091-4.977 9.3-5.529 14.496-.697 6.543 1.145 10.836 3.318 16.788.673 1.733.728 4.419 1.388 6.098 1.766 4.49 2.94 8.083 3.809 12.871-1.412-1.844-3.047-2.498-4.518-4.198-2.128-2.459-2.627-5.458-3.713-8.354-1.187-3.122-2.751-6.535-3.415-9.814-1.488-7.348-.842-14.859.034-22.232.336-2.83.36-5.599 1.029-8.389.37-1.497.896-2.95 1.57-4.336.426-.895 2.354-4.148 2.42-4.772-2.107 3.164-4.395 7.267-4.756 11.163-.668 7.224-1.922 14.678-1.348 21.941l.356 4.24c-6.39-14.742-5.269-28.036-5.993-43.616-.301-6.483-.589-11.398-2.36-17.669l-.141.146c1.552 6.062 1.824 12.098 2.11 18.324.149 3.248.346 7.393.201 10.616-2.191-7.482-5.054-7.171-10.481-12.246-2.658-2.486-4.704-5.79-6.068-9.107-.58-1.409-1.52-2.467-1.99-4.01-1.233-.496-4.275-1.638-5.512-1.824 1.578.836 3.316 1.572 4.953 2.303 1.427 2.733 1.953 2.737 3.191 6.035-1.782-2.643-3.428-4.195-5.974-6.081-1.723-1.276-1.495-.552-3.049-.696-.415-1.172 1.961-2.437 1.972-2.498.916-4.525 3.439-9.093 5.969-13.053 2.837-4.444 1.74-9.53 4.265-14.139.444-.812.985-2.459 1.293-3.373l-.232-.2c-.548 1.801-1.538 4.066-2.458 5.719.208-2.821.347-4.647.793-7.422.453-2.818 2.985-9.458 2.801-11.465-.218.424-.902 3.226-1.133 3.949-.923 2.889-2.081 6.32-2.458 9.318-.565 4.479-.432 9.471-1.691 13.855-.211.6-.216.585-.6 1.103-.429 1.718-3.76 7.44-4.782 8.93-.609-4.583.676-8.653.099-13.058-.364-2.78-4.312-5.73-3.5-9.12.24-.999 1.322-3.679 2.153-4.24l.369.184a15.39 15.39 0 0 1 .23-.698c.77-2.158 4.837-6.327 6.4-8.503 2.008-2.795 4.051-6.575 7.16-8.074z" class="B"/><g class="E"><path d="M163.867 140.307l.356.835c.055 2.505.264 3.845.116 6.465l-.708 7.89-.209.676-.127-.261c.085-3.207.624-6.736.727-9.995.065-2.057-.023-3.57-.155-5.61zm-6.426 3.774c-.994 3.819-.271 4.295 1.236 7.659.168.374.339.785.32 1.196-2.207-3.893-2.964-4.635-1.925-9.039l.369.184z"/></g><path d="M163.295 155.912l.127.261.209-.675c-.058 1.051-.392 4.016.07 4.784-.21.6-.215.585-.599 1.103-.054-.336.124-5.176.193-5.473z" class="F"/><g class="H"><path d="M177.199 176.277c-.56-1.575-.831-3.327-1.033-4.982l1.174 4.836-.141.146zm-13.466-37.099c-.128-.711-.272-2.191-.074-2.853l.155.114-.22.062-.015.073.274.119c.049.634.064.964.029 1.597l-.149.888z"/></g><path d="M178.944 141.444c-.273-.631-.807-1.775-.824-2.415.431.301.802 1.617 1.003 2.185l-.179.23z" class="F"/><path d="M192.984 194.79l.127.289-.284 2.263-.344.229c.099-.982.295-1.819.501-2.781z" class="C"/><path d="M192.983 194.79c.072-.821-.008-1.361.439-1.984l-.074-.076c.221.51-.082 1.818-.238 2.349l-.127-.289z" class="G"/><g class="C"><path d="M163.732 139.178l.15-.887.341 2.851-.356-.835c-.106-.267-.112-.813-.135-1.129zm4.117 7.15c.119-.567.216-1.295.515-1.767.021.746-.127 1.242-.284 1.967l-.231-.2z"/></g><path d="M183.401 219.791l.046-7.006c.542-6.861 1.294-13.185 1.329-20.105a95.24 95.24 0 0 0-.425-9.834c-.131-1.49-.662-6.493-.544-7.681.492 4.083 1.186 9.842 1.225 13.874.19 1.391.207 6.04.006 7.445-.069 4.938-.728 10.029-1.102 14.965-.247 3.268-.274 6.018-.232 9.273l-.303-.931z" class="D"/><path d="M185.032 189.039c.189 1.391.207 6.04.006 7.446-.121-1.686-.103-5.761-.006-7.446z" class="C"/><path d="M166.715 156l.112.221c-.247.886-.944 2.273-1.432 3.065l-.146-.046c.034-.452 1.143-2.424 1.466-3.24z" class="G"/><path d="M183.4 219.792l.303.93c.027.586-.04 1.444-.069 2.05l-.234-2.98z" class="C"/><path d="M194.287 207.9c.229-1.197.837-2.664 1.23-3.808 1.372-3.992 1.977-8.072 1.096-12.241-.125-.59-.293-1.466-.361-2.069-.506-4.508-1.546-8.837-2.952-13.146l-3.032-9.155c-1.116-4.483-1.731-9.022-2.793-13.529-1.57-6.656-3.756-13.43-4.835-20.169-1.126-7.031-1.043-14.259-2.638-21.251-.276-1.207-.905-3.634-.947-4.726l.189.06c1.833 5.687 1.985 9.468 3.163 15.107a53.62 53.62 0 0 0 2.009 7.036c1.029 2.934 3.083 7.212 4.337 10.255l7.975 19.988c1.653 4.137 3.479 8.364 4.915 12.578 3.424 10.053 8.601 21.687 8.551 32.463-.06 4.36-.826 8.682-2.27 12.796-1.412 4.013-3.16 7.448-3.527 11.837-.544 5.836 1.214 11.947 1.138 17.714-.058 4.356-.535 8.399-2.15 12.403-.399.992-.082 4.118-.466 5.55-.977 3.644-2.299 6.953-3.113 10.654-.813-3.929-.858-5.656-.838-9.674.01-1.942-.79-6.099-1.193-8.042-1.312-5.103-3.421-8.565-3.917-13.956-.422-4.59.005-4.635 1.173-8.971 1.536-5.702 3.318-11.346 4.258-17.18l-.332.129c-.883 5.381-2.941 11.011-4.217 16.368-.754 3.166-1.615 4.284-1.605 7.747-.115-.239-.187-.417-.284-.66-2.52-6.123-4.438-13.125-1.756-19.554 1.147-2.75 2.927-5.58 3.987-8.483.974-2.665.126-3.69-.795-6.071z" class="B"/><path d="M199.4 215.381c-.108-1.022.116-2.267.203-3.326.034 1.149.168 3.157-.034 4.22l-.169-.894z" class="H"/><path d="M199.4 215.381l.17.894-.281 2.149-.332.129.443-3.172z" class="D"/><g class="B"><path d="M228.755 115.286c1.215-.042 3.729.252 5.085.365l9.107.539c.028 1.069.029 3.17-.324 4.081-1.249 3.223-3.556 4.075-3.553 8.076l.121 17.198.312 47.289.104 20.836c-.71.055-3.758.671-4.179.567-1.855-.454-6.177-.754-7.454-2.075-.316-1.358-.205-6.326-.204-7.942l.022-15.567.082-39.868-.003-18.549c-.003-.636.052-1.252.2-1.857.143-.586.571-1.297 1.129-1.546 1.923-.864 7.334.246 9.29.755l.081-.126c-.533-.662-2.502-.827-3.476-1.004-2.551-.547-4.912-.725-7.212.609a5.54 5.54 0 0 0-.186.617c-.332 1.367-.246 6.416-.252 8.135l-.048 14.755-.056 38.711-.019 20.304c0 3.58.614 3.759 4.146 4.347l3.059.535c-1.364.317-3.062.469-4.472.722l-8.196 1.463c.626-2.67.655-2.641 2.957-4.176.231-2.073.149-5.655.155-7.802l.051-14.11.13-37.845.152-23.356 1.759-2.535c-.021-5.113 3.782-2.742 5.13-6.475.123-.34.206-1.127.005-1.466-.499.019-.337.075-.758-.101-.994-3.351-1.407-1.41-2.702-2.003-.158-.508-.079-.763-.011-1.292l.028-.209zm-73.92 88.59c.66 1.123 1.029 2.536 1.779 3.741 2.749 4.416 5.424 9.146 8.413 13.375 1.37 2.028 6.026 3.567 6.944 5.699 2.381 5.53 5.701 10.186 8.715 15.325 2.016 3.438 3.869 7.392 5.722 10.966l11.427 22.457c.946 1.9 2.145 3.693 2.989 5.623.234.534-.387 1.245-.701 1.669l-.814 1.119c-4.227-.806-7.707-3.661-11.846-4.908-3.65-1.1-7.332-3.093-10.704-4.895-.884-.473-2.457-2.213-3.003-3.096-2.125-3.434-4.914-6.875-6.36-10.655-1.094-2.857-.987-6.36-1.401-9.361-.693-4.572-1.369-9.101-2.275-13.629-.681-3.349-2.158-6.623-3.187-9.865-1.884-5.945-3.453-11.986-4.701-18.097-.329-1.652-.813-3.853-.997-5.468zm4.554 56.827l.241.027.122.223c-.089.864-.48 1.728-.754 2.62-.366 1.121-.481 2.278-.753 3.416-1.208 5.047 1.169 13.795-5.945 15.074-1.453.231-2.859.286-4.337.339-7.12.255-14.691-.124-21.384-2.751-.99-.358-2.243-1.077-3.32-1.022-4.158.212-8.719.042-12.83.35-4.26.32-8.131 1.038-12.459.216-1.27-.242-2.638-.512-3.927-.679-4.102-.127-8.314-.12-12.415.095-2.006.047-4.143.236-6.178.32.926-.416 2.232-.692 3.244-.941 4.343-5.059 6.297-4.078 12.453-4.837 8.645-1.067 17.299-1.311 25.912-2.689a123.05 123.05 0 0 0 15.137-3.411c3.241-.971 5.989-2.248 9.329-2.87a111.75 111.75 0 0 1 6.298-1.003c3.947-.496 8.129-.579 11.566-2.477z"/><path d="M161.445 241.542c.444 3.379 1.443 6.674 1.621 10.04.092 1.736-.831 4.489-.63 6.178.417 3.517 2.736 6.388 3.766 10.063 1.222 4.356.845 8.447 2.407 12.542.695 1.821 2.275 3.041 3.718 4.275-1.495-.665-4.164-2.763-5.628-2.721-1.308.038-4.671.881-6.207 1.165-1.547.419-3.144 1.14-4.751 1.305-8.469.87-16.44.066-24.878-.665l-.034.308c2.102.083 5.616.57 7.906.784 5.933.554 11.693.477 17.632-.065 1.731-.157 3.646-1.249 5.631-1.581l.239-.037c-1.719 2.467-3.628 2.361-6.424 2.984-2.955.658-5.93 1.488-8.962 1.541-4.573.08-9.196-1.05-13.71-1.78-4.199-.719-8.481-.817-12.709-.288-7.987.961-14.508 5.023-22.179 7.019-1.449.378-2.81.917-4.185 1.491-.576-.946-1.327-1.545-2.137-2.295.354-.523.748-1.058 1.116-1.574-2.461-2.151-3.797-1.996-5.894-3.375-6.177-4.065-8.435-5.436-15.98-5.804.864-.357 2.965-1.524 3.516-1.607 1.604-.244 3.823-.297 5.472-.371a192.32 192.32 0 0 1 8.921-.239c3.704-.041 5.258.009 8.917.819 4.35.962 9.381-.088 13.742-.283 3.849-.172 7.847-.203 11.703-.265.891-.02 3.089 1.008 4.056 1.365a31.22 31.22 0 0 0 3.389 1.018c5.517 1.292 11.155 1.581 16.795 1.376 2.225-.081 5.38.046 7.231-1.231 4.284-2.957 2.832-9.405 3.65-13.929.501-2.768 1.276-5.068 1.819-7.678.108 1.68-.15 4.636.168 6.08.415 1.88 1.444 3.301 1.673 5.533.261 2.536.29 5.2-1.469 7.306-1.319 1.579-3.915 3.61-5.901 4.241-.4.127-1.838.297-2.303.353 2.52.123 2.579.204 4.796-1.096 5.467-3.204 6.537-7.842 4.613-13.653-.237-.716-1.001-2.281-1.037-3.004-.132-2.669-.013-5.413-.042-8.091.001-2.901-.285-5.713-.301-8.588-.014-2.502.414-5.111.863-7.566z"/></g><path d="M124.454 283.125c1.576.057 4.858.283 6.41.599l-.034.308-5.539-.557-.837-.35z" class="D"/><path d="M125.29 283.475c-.643-.085-5.181-.186-5.354-.367.905-.065 3.785-.302 4.517.016l.837.351z" class="H"/><path d="M213.143 279.506c3.785-.505 4.388-2.526 8.042-3.151 2.982-.51 5.084.698 7.504.817 2.236.109 7.389-1.369 9.68-1.375 2.5-.006 6.773 1.123 9.406 1.475 2.218.296 4.454.201 6.644.389.921 1.102 2.285 2.31 2.17 3.847-.095 1.273-1.029 2.224-2.232 2.536-3.769.978-7.718 1.775-11.575 2.272-4.164.537-8.43.114-12.434 1.552-1.839.67-4.121 2.332-5.71 3.021-2.189.949-12.709 5.466-14.359 4.769.23-.126.871-.454.87-.729-.011-6.064-10.712-5.401-14.165-7.381.383-.456.754-.905 1.183-1.319 1.463-1.412 2.288-3.285 3.472-4.942-.3-.663-.694-1.368-.741-2.072 1.058-1.305 6.327-.067 7.883-.082 2.617-.026 5.361 1.397 7.877 1.528l.076-.247c-1.277-.21-2.36-.498-3.591-.908z" class="B"/><path d="M216.734 280.415c1.491.111 3.335.314 4.621 1.117 2.568 1.603 4.533 2.343 3.839 5.644-.271-2.363.147-2.491-1.812-4.024-2.39-1.872-3.794-2.2-6.724-2.491l.076-.246z" class="D"/><g class="B"><path d="M155.301 179.853c3.602.266 7.844 6.513 9.744 9.198 1.19 1.556 2.53 3.009 3.878 4.418 2.731 2.854 7.471 4.811 9.075 8.585 1.997 5.088 1.891 11.09 2.36 16.509.706 8.154 3.564 14.954 5.955 22.651.202.65.702 1.778.691 2.408l-.161-.095c-.935-1.154-2.048-3.235-2.701-3.934-2.187-2.339-3.123-2.989-4.938-5.727-1.792-2.702-1.669-4.548-3.23-7.077-.511-.827-2.449-2.171-3.111-2.918-2.402-2.711-4.101-6.51-6.049-9.558-1.641-2.568-3.497-4.649-4.857-7.394-1.282-1.929-1.323-5.495-2.149-7.328-2.586-5.739-5.441-10.685-5.089-17.294.051-.951-.156-1.706.582-2.444zm48.803-53.393c3.072-.238 4.269.343 7.061 1.441l.17 21.421.457 39.542.134 17.738c.025 3.521-.083 7.932.398 11.358-.744.086-3.302.435-3.896.304l-.019-.21c5.519-16.639-.937-29.885-6.38-45.385-.487-1.389-.25-6.322-.238-8.066l.041-9.782.032-16.555.05-9.083c.026-1.792.431-2.302 2.19-2.723zm-37.9 155.84c2.54.331 3.916 2.026 5.882 2.675 3.554 1.171 7.7 1.881 11.387 2.426-1.932 1.435-4.036 1.558-4.757 4.065-1.383.589-2.503 1.128-3.835 1.799-1.681-.29-6.722.858-8.806 1.007-3.1.226-5.822.273-8.941.097a223.89 223.89 0 0 1-20.602-2.239c-2.167-.352-4.11-.89-6.238-1.307-2.191-.429-4.659-.644-6.881-.845-3.964-.446-9.243-.215-13.224.121-1.649.139-3.495.711-5.209.764 11.096-4.836 18.97-6.51 31.088-4.04 3.437.7 9.326 1.659 12.684 1.154 3.429-.515 8.881-1.583 12.18-2.852.524-.201 1.271-1.317 1.722-1.573.911-.518 2.506-.909 3.55-1.252zm-2.855-183.789c5.188-.411 10.612.133 13.23 5.267 4.42 8.668 4.212 19.044 5.377 28.507.543 4.41 1.813 8.036 2.644 12.262-1.044-2.19-2.018-4.413-2.92-6.665-1.908-4.987-2.665-9.318-6.03-13.889-5.483-7.478-14.469-11.604-19.346-19.591-.785-1.284-2.33-3.526-1.428-4.99 1.106-.631 6.921-.802 8.473-.901zm106.148 123.918l8.36-.035c-1.832 1.071-3.154 1.497-5.115 2.242-2.677 1.017-5.688 2.09-8.507 2.662l-13.344 2.501c-2.176.471-4.283 1.607-6.495 1.709-4.237.194-8.546-.159-12.787-.274-1.41-.038-3.041.508-4.357.504-1.379-.005-2.973-.561-4.475-.59-4.692-.089-9.326.36-14.001.7-1.531.063-2.51-.032-4.005-.334.002-2.75.562-4.689 1.272-7.305 3.714 1.899 16.183-2.342 21.538-.75.906.936 1.393 2.177 2.402 3.184 1.989 1.983 4.733-1.489 6.624-1.833 2.469-.36 4.995-.528 7.485-.702 8.389-.587 17.014-1.398 25.405-1.679zm-43.083 23.155l.262-.039.112.129c.01.351.116.546.299.836 1.817 2.867 7.617 3.159 10.528 4.74.958.521 7.567 4.673 7.825 4.725.067.013.136.022.203.035 3.081.57 6.186-.257 9.251.081 1.656.183 3.32.966 4.948 1.378-2.245.265-4.504.085-6.772.035-6.401-.141-12.329-.361-18.438 1.86-3.64 1.655-7.956 3.408-11.82 4.461-1.065.29-2.761.366-3.902.453.34-2.676-.998-3.236-3.065-4.46-.385-1.708-.344-3.502-1.197-5.025-.326-.583-.272-.594.029-1.116-.018-1.745-1.805-1.474-2.431-2.247l.136-.505c-.593-.705-1.76-1.625-2.557-2.101-1.014-.606-4.022-.793-3.7-2.513 2.775-1.184 6.289-.064 9.179-.212l11.11-.515z"/><path d="M161.139 230.514c2.192 4.478 3.732 15.372 4.414 20.518.675 5.09.013 8.24 3.478 13.337 2.096 3.083 4.313 7.543 7.312 9.853 1.156.947 2.947 1.436 4.143 2.181 2.932 1.83 6.183 2.386 9.207 3.655 3.527 1.48 5.711 3.337 9.623 4.211-.599.791-1.906 2.054-2.636 2.807-1.534 1.663-2.842 1.591-4.902 1.749-2.621.202-4.459-1.001-6.884-1.547-4.862-1.096-10.365-.879-14.179-4.622-.777-.754-1.756-2.282-2.054-3.333-1.117-3.746-.894-7.771-2.039-11.533-.376-1.232-.811-2.333-1.331-3.5-.876-1.968-2.051-3.865-2.372-6.02-.356-2.387.75-4.837.547-7.227-.212-2.503-.87-4.962-1.263-7.44-.322-2.103-.487-4.612-.655-6.756-.155-1.975-.418-4.395-.409-6.333zm56.616 1.162c2.458-.168 6.886-.263 9.119.572l.149.527c1.197.756 2.354 1.811 3.32 2.446 3.145 2.07 5.249 2.411 6.707 6.289-.726.776-.984 1.006-1.516 1.935l-5.338.737c-2.858.653-4.249.975-7.186 1.162l-7.803.249c-3.293.025-5.963-.759-9.236.239-.464-4.942-.999-8.832-1.235-13.889 3.933.769 8.831-.087 13.019-.267zm37.524-95.47c1.748-.008 2.315 1.544 2.384 3.032l.057 6.39-.01 11.55-.011 32.224c-.002 5.485-.16 11.856.045 17.286 1.59 1.821 3.616 2.369 5.832 3.001l-5.469.622c-2.192.233-4.787.757-6.994.897-.302.019-.394-.175-.531-.355.128-1.675 2.221-2.814 2.911-3.689.334-.423.219-6.79.219-7.526l-.002-11.775.005-35.657-.02-9.116c-.007-1.184-.111-4.898.127-5.848.421-.535.857-.706 1.457-1.036zm-15.813-44.044c4.357-.407 6.597 2.53 8.436 5.965-5.459 3.638-6.466 11.53-6.853 17.594-1.347-.158-3.273-.228-4.668-.317-2.49-.195-5.616-.687-8.026-.397-.224-.218-.351-.491-.397-.798-1.1-7.321 3.673-20.093 11.508-22.047zm-127.377 5.313a9.68 9.68 0 0 1 10.193 9.051c.334 5.304-3.673 9.885-8.975 10.259-5.358.379-9.998-3.68-10.336-9.041s3.755-9.971 9.118-10.269zM45.651 276.329c2.502-.078 6.169.027 8.648.353 1.436.201 3.411 1.137 4.815 1.142 4.117.015 6.734-2.846 10.223.887-.09 1.319-.072 1.6.559 2.752a54.27 54.27 0 0 1-8.839.317c-3.3-.176-6.771-.747-10.021-.3-2.039.159-4.541.873-6.524 1.058-4.993.465-8.058 1.655-12.42 3.997-1.842.988-5.986 1.746-8.277 2.255.257-1.985.512-3.901.671-5.897 1.279-.176 3.528-.221 4.665-.521 4.37-1.154 7.729-.959 12.237-.725 2.459.031 5.587.025 8.094-.376 2.472-.396 4.497-1.803 7.041-1.714 3.186.11 6.268-.055 9.418.188.731.056 2.833 1.652 3.446 1.405-.414-.643-2.554-1.549-3.359-1.75-.753-.155-1.6-.262-2.373-.234-3.616.131-7.764-.616-11.171.766-5.632 2.286-12.123.852-18.033 1.103-1.723.074-3.346.592-5.037.876-1.642.266-3.307.398-4.951.556.665-2.859 1.591-4.637 4.782-5.207 2.04-.168 3.769.414 5.887.469 3.501.091 7.233-1.222 10.52-1.4z"/><path d="M266.193 209.98l.331-.006.054.208c-.459.874-2.535 4.9-3.5 5.066-5.692.976-11.924 1.092-17.532 2.616-4.182 1.136-8.479.178-12.182 2.224l-1.548-.195c-1.505.881-1.254.628-2.816-.005-1.245-.493-3.401-.341-4.725-.039-4.344.99-12.844.75-16.634 2.451l-1.117.677c.245-.657 1.301-3.76 1.805-3.95 2.334-.881 6.652-.374 9.063-.836 2.536-.485 4.733-1.095 7.171-1.563 5.391-.995 10.799-1.893 16.223-2.691 1.816-.269 8.447-1.03 9.686-1.844l-.033-.397c.383-.141 1.95-.171 2.567-.257 4.376-.61 8.771-1.227 13.187-1.459zm-6.008 21.392c1.454-.115 2.915-.1 4.365.045 1.348.145 9.684 1.883 10.498 2.444l.028.265c-1.363 1.344-8.888 2.06-11.085 2.555-2.47.556-5.581 1.353-8.053 1.456-5.785.24-10.216-2.672-15.875-.041-1.253 1.306-.668 1.787-2.671 3.341-1.217-3.94-4.286-4.929-7.433-6.897-.8-.501-1.514-1.436-2.819-2.253 5.6-1.097 11.166-.223 16.853-.26 1.278-.009 2.665.286 3.978.251 1.777-.046 3.533-.258 5.3-.425 2.3-.222 4.606-.382 6.914-.481zm-76.263 56.29c1.932-.052 4.158 1.446 6.14 1.576 2.513.164 4.643.119 6.663-1.471 3.166 2.132 8.509 1.393 11.885 3.721.971.669 2.927 2.515 1.876 3.704-1.522.627-5.518 1.175-7.209 1.272l-13.99.29c-2.229.041-4.834-.847-7.07-.938-1.953-.082-3.849.9-5.76-.137-.501-.548-.272-1.134-1.027-2.016l.054-.187c.763-.549 2.538-1.201 3.578-1.748l.542-1.381c.923-.737 3.168-1.994 4.318-2.685z"/><path d="M275.313 224.113l.365.059c.772.633.729 1.434.863 2.442.993.617 1.124.779 1.774 1.775 3.176 1.005 4.829.258 7.923.775.267.044 1.564.642 1.888.792.119.492.416 1.757.845 1.977 1.374.706 5.143 1.482 6.11 2.606l-.138.18c-2.089.204-5.625-.483-7.795-.471-3.096.016-6.214.394-9.311.102-1.379-.129-1.259-.147-2.405-.76-1.592-.852-4.776-1.39-6.607-1.798-6.071-1.446-9.895-.892-16.04-.336-2.399.217-4.542.522-6.965.355 5.354-2.194 12.463-2.832 18.198-4.001 4.453-.907 7.267-2.442 11.295-3.697zm-71.766 40.406c.469.529 1.29 2.238 2.059 3.013 3.204 3.225 8.79 1.42 12.904 2.203 3.192.608 5.212 1.822 8.112 2.688 2.298.687 5.61.319 7.991.424 2.249.099 3.038.777 4.473 2.349-1.47.062-6.287.977-8.062 1.247-2.972.649-3.803-.127-6.675-.733-2.017-.426-4.18-.759-6.197-1.175-5.276-1.086-8.813-1.683-14.097.012-2.895.929-3.051 2.849-3.607 3.093-.706-1.92 2.53-9.981 3.099-13.121zm-49.212-82.473c-.095 5.993 1.22 9.762 3.768 15.026l1.877 3.975c.414 1.925.197 3.715 1.272 5.634 2.54 4.537 5.61 8.817 8.24 13.291.382.65 2.212 4.82 2.059 5.375l-.417-.319c-1.66-1.466-3.099-1.925-4.571-3.112-2.171-1.751-3.81-5.214-5.262-7.546-1.367-2.264-2.613-3.725-3.945-6.082-4.071-7.206-4.927-16.101-4.289-24.206.046-.586.891-1.575 1.268-2.036zm57.916-80.218c3.476-.31 5.169 1.367 7.142 3.906-4.488.954-5.817 8.017-6.198 11.795l-2.655-.398c-1.298-.24-6.797-.888-7.389-1.733-.475-2.079 1.149-6.479 2.332-8.262 1.818-2.741 3.543-4.533 6.768-5.308zm-9.482 14.497c1.491-.145 1.527.421 2.088 1.622-.163 2.684-.43 1.844-1.712 4.298-.694 1.329-.425 2.587.002 3.93-.797.496-1.472 1.036-1.584 2.034-.197 1.758-.148 3.518-.148 5.286l-.003 8.45-.169 28.675-1.231-3.297c-.581-1.552-.29-8.846-.283-11.073l.062-20.448c.005-2.145.157-4.924-.145-7.071-.286-2.029-4.844-7.165-4.461-8.833 1.11-1.574 5.709-2.938 7.584-3.573zm3.241 131.338c2.289 1.518 5.171.881 5.879 4.366.392.101 1.877.434 1.935.739.507 2.677.791 6.565 2.35 8.868-.565.748-1.6 1.801-2.264 2.514-1.818-.158-9.125-.691-10.153-1.642-.486-1.868.794-3.928 1.177-5.57.683-2.925.949-6.282 1.076-9.275zm-49.651-141.35c.145.204.183.37.247.612 1.196 4.523 4.735 6.378 7.746 9.465 1.386 1.423 2.936 3.919 4.318 5.465 1.503 1.683 2.946 2.766 4.288 4.623-.677-.046-1.389-.049-2.07-.064-1.088.558-1.757 1.083-2.638 1.896-.156.214-.106.142-.357.286-.389-.619-.357-1.456-.59-2.01-.739-1.751-2.201-3.946-3.622-5.166-1.913.312-4.203 1.708-5.703 1.221-1.394-.453-.388-1.822-.509-2.085-.399-.874-1.494-1.792-1.953-2.869.107-1.119.019-.958-.806-1.71 1.245-3.043 1.82-2.783.871-6.403-.239-.913.153-2.466.778-3.261zm.632.138c.337.204 1.713 1.857 2.097 2.275l3.725 3.743c4.242 3.895 8.419 6.36 12.065 11.186 3.559 4.709 4.461 9.043 6.412 14.418 1.033 2.847 2.851 6.239 3.807 9.108 1.539 4.621 2.925 10.497 3.567 15.297-.859-1.686-2.228-6.303-3.039-8.418-2.376-6.198-4.642-12.503-7.317-18.585-1.03-2.342-2.129-5.048-3.401-7.246-1.421-2.452-4.048-4.547-5.923-6.653-1.408-1.583-3.023-4.201-4.466-5.634-2.933-2.913-6.61-5.091-7.527-9.491zm24.492 135.905l.234.15c2.201 2.146 6.898 5.623 8.036 8.388 1.13 2.743 1.423 4.581 3.297 7.094 1.742 2.337 3.969 2.545 4.903 5.308.998 2.952.33 5.699.593 8.614.173 1.918.952 4.295 1.308 6.318-.973-1.084-5.323-10.429-6.299-12.338l-7.851-15.181c-1.323-2.556-3.115-5.774-4.221-8.353zm23.125-125.784c3.652.553 7.509 1.293 11.221 1.646.226.022.541.49.585.716.33 1.695-2.087 2.48-2.877 3.705-.718.999-.964 1.472-1.542 2.545-.396.742-.645 1.482-.94 2.268-3.143-1.28-4.211-1.705-7.624-1.361-1.187-5.469 3.026-4.303 1.177-9.519z"/><path d="M209.465 273.985c3.621-.311 9.105 1.167 13.032 1.722-1.086.158-2.03.251-3.06.659-2.257.893-3.603 2.318-6.056 2.65-3.989.226-8.139-1.417-12.621-.546 1.602-3.927 4.937-4.101 8.705-4.485zm-38.57-51.953c.225.181 1.13 1.371 1.469 1.731.95 1.007 2.726 2.41 3.484 3.472 1.089 1.527 1.384 4.201 2.495 5.89.849 1.16 1.75 2.926 2.8 3.891 3.774 3.47 6.055 7.282 8.053 12.058-.654-.512-1.185-1.486-1.866-2.02-8.806-6.899-12.555-14.688-16.435-25.022zm55.111-1.956c2.127-.142 2.445.032 4.386.777.387.148 1.318-.771 2.227-.455.515.513.602.882.873 1.554-.954 2.627-1.131 1.856-3.599 1.237-4.74-1.188-9.455-.231-14.233.296-1.366.132-8.935 1.712-9.043.037 1.397-1.669 7.443-2.011 9.6-2.253l9.789-1.193zm17.696 17.417c2.626-.373 4.516.312 7.079.684 1.294.187 2.595.27 3.901.351-2.388.932-3.977.767-6.48 1.035-1.155.124-2.605.502-3.752.797l-2.057.691c-.122.187-.401.6-.559.72-.901.681-4.271 1.395-5.297 1.319l-.138-.175c.493-.929 2.299-1.948 3.021-3.207l.706-1.225c1.21-.58 2.264-.768 3.576-.99zm-86.264-71.134c.19.624.267 3.105.666 4.628l-1.568 3.969-.222.035c-1.224-4.057-1.834-5.225 1.124-8.632zm70.577 56.973c2.444.045 4.423 1.217 7.445 1.596l-1.415.64c-3.829 2.563-3.668.71-5.93-2.113l-.1-.123zm6.472-2.34c2.433.018 1.149.938 1.749 2.161.385.783 2.152.804 2.993.879l-1.304.193-1.006.121c-.916.096-3.219.224-3.913-.332.465-1.016.804-2.419 1.481-3.022zm-18.094 39.529l.87.55c.894.617 1.925 1.92 1.117 2.976-.508.352-.964.242-1.611.213-.793-.061-1.511-.055-2.304-.056 1.174-1.467 2.027-1.63 1.928-3.683z"/></g><path d="M118.138 262.871c4.759-.227 17.349-.119 21.783 1.054l-.03.112c-.58.036-3.421-.33-4.251-.407-4.454-.421-8.929-.59-13.403-.506-1.639.02-6.67.232-7.967.019.351-.272 3.225-.267 3.868-.272z" class="C"/><path d="M154.067 251.869c.143-.006.057-.016.248.078-.694.541-5.446.328-6.54.344-3.962.023-7.922.167-11.875.432l-.188-.012c1.669-.813 15.508-.753 18.355-.842z" class="F"/><g class="B"><path d="M86.027 183.032a.841.841 0 1 1 .769 1.497.84.84 0 0 1-1.238-.788.84.84 0 0 1 .468-.709zm-8.672-90.234c.236-.086.5-.032.683.139s.255.431.185.672-.269.422-.516.468c-.34.064-.673-.144-.765-.478s.088-.683.414-.802z"/></g></g><defs><clipPath id="A"><path fill="#fff" d="M0 0h300v300H0z"/></clipPath></defs></svg>