<svg width="300" height="300" viewBox="0 0 300 300" fill="none" xmlns="http://www.w3.org/2000/svg">
<g clip-path="url(#clip0_119_1807)">
<path d="M0 0H298.5H300V197.723V198.156V211.985V212.509V219.925V220.426V235.482V235.905V262.96V263.48V269.512V270.032V277.306V277.792V290.999V291.415V300H192.565H191.93H85.4783H84.8616H0V296.256V295.688V0Z" fill="black"/>
<path d="M0 0H298.507V199.609C295.726 199.328 293.738 199.07 290.998 199.896C287.939 200.818 286.1 200.423 283.32 202.439C282.762 204.025 281.706 207.403 280.799 208.627C279.467 209.879 276.061 209.735 274.651 210.254C271.777 211.31 270.43 211.272 267.535 211.332C265.973 211.365 264.413 211.462 262.859 211.624C260.528 210.411 259.076 210.747 256.859 208.492L256.883 160.8L256.901 147.208C256.902 144.76 256.985 142.262 256.767 139.835C256.623 138.224 255.776 137.067 254.083 137.307C253.226 137.428 252.615 137.982 251.837 138.134C251.106 137.07 251.651 135.094 251.465 133.736C251.218 131.939 250.461 130.213 250.398 128.43C250.319 126.201 250.434 123.925 250.409 121.692C249.978 112.696 250.868 98.4269 242.018 93.2105C236.325 90.1497 230.419 97.9262 228.57 102.439C226.615 107.214 225.143 113.081 227.317 117.981C227.51 118.417 227.513 118.409 227.918 118.553C228.513 118.336 228.753 118.154 229.279 118.381C229.714 119.03 230.468 121.02 230.453 121.76C230.422 123.217 227.581 123.454 226.541 124.716C225.456 126.034 225.514 126.404 225.48 128.07L224.11 129.903C222.249 127.009 221.339 124.378 221.256 120.871C221.141 116.048 220.828 108.245 217.155 104.685C209.49 97.2595 201.253 109.019 201.638 116.642C199.924 117.36 198.389 118.005 196.633 118.609C196.421 116.561 196.217 110.475 196.836 108.304C197.137 107.512 199.545 106.103 199.355 105.23C198.551 101.532 199.067 98.2107 199.558 94.432C200.91 93.3554 201.448 92.4004 203.001 91.4108C204.323 90.5694 208.698 90.4434 209.109 90.1855C209.208 88.4686 211.019 86.6969 212.29 85.6218C212.731 85.2483 214.179 84.684 214.467 84.3631C216.035 82.6136 216.21 78.7214 216.49 76.5357C220.062 75.9323 224.649 74.9285 228.124 73.8975C228.266 72.8387 228.662 71.4282 228.928 70.3643C232.11 69.2928 232.956 68.9062 235.533 66.9855L235.399 66.706C232.176 68.7072 232.075 68.7045 228.497 70.1194C228.249 71.233 227.972 72.3394 227.664 73.4373C226.146 73.9945 224.396 74.5136 222.804 74.7869C213.21 54.9995 196.275 39.8777 175.711 32.735C155.06 25.7075 132.509 27.2372 112.964 36.9913C93.9371 46.517 79.3735 63.2625 72.4268 83.6027C70.4548 89.4564 69.2158 95.5385 68.7389 101.706C68.439 105.744 68.4973 109.741 68.497 113.787L68.5008 129.614L68.4984 179.274L68.4967 221.892L68.4908 235.359C68.4897 237.109 68.3853 240.5 68.5238 242.152C68.7969 242.235 69.0628 242.318 69.3389 242.393C68.5838 242.538 68.4891 242.406 68.3862 243.292L68.4806 243.71L68.4935 255.906L68.4868 256.289C68.4795 257.611 68.4483 258.938 68.5013 260.256C68.5261 260.876 69.0304 260.792 68.8071 261.06C68.2127 261.775 68.4833 263.515 68.4699 264.482C68.4372 266.807 68.5961 269.203 68.4384 271.518L68.3428 271.739L68.6322 271.957L68.5946 272.18C68.5077 272.631 68.506 272.6 68.6037 273.048L68.376 273.577L68.45 273.764C68.518 275.832 68.5267 277.901 68.4763 279.968C63.9648 277.821 63.3748 279.832 58.8853 279.918C57.3216 279.947 54.9717 279.054 53.3941 278.817C51.2369 278.493 48.75 278.619 46.5669 278.538C44.6021 278.401 42.3837 279.186 40.5504 279.392C39.3319 279.529 35.5375 280.106 34.5476 279.977C29.2773 279.294 29.6788 278.583 24.7845 281.487C23.6447 285.264 23.9163 287.918 23.2927 291.376C20.2371 292.549 18.4989 292.186 15.6314 292.554C11.6097 293.069 2.87673 295.608 0 298.507V0Z" fill="#F2F2E3"/>
<path d="M236.576 66.0759C237.554 65.5436 237.898 65.4214 238.956 65.0698C238.351 65.4261 237.305 66.0806 236.71 66.3527L236.576 66.0759Z" fill="#363534"/>
<path d="M275.806 234.491C280.118 235.675 287.214 234.142 292.009 235.054C294.544 235.536 297.216 235.169 300 235.905V262.96C296.361 263.236 291.179 263.298 287.696 262.117C285.52 261.379 283.758 260.295 281.298 259.879C275.101 258.831 268.687 258.834 262.476 257.846C260.622 257.55 257.637 256.057 255.511 255.673C253.239 255.261 247.78 256.102 246.04 255.612C242.982 254.34 240.25 252.058 237.216 250.589C235.192 249.608 227.558 248.16 227.207 245.899C227.351 245.583 227.473 245.338 227.876 245.208C231.104 244.163 234.897 244.06 238.322 243.356C242.246 242.549 242.745 241.065 246.454 240.279C247.983 239.608 251.416 240.092 252.678 239.621C255.155 238.699 256.974 238.489 259.596 238.11C261.204 237.877 262.982 237.278 264.636 237.005C268.455 236.374 272.245 236.104 275.806 234.491Z" fill="#F2F2E3"/>
<path d="M0 296.256C4.15389 292.778 10.962 290.919 16.2911 290.159C17.6264 289.968 20.1714 290.189 21.3794 289.843C24.9145 288.831 28.3202 288.431 31.778 287.096C33.9123 286.273 36.3724 284.669 38.4548 284.104C39.9381 283.701 42.8622 283.22 44.4237 282.992C46.9635 282.622 51.7005 281.596 54.1857 281.728C57.6182 281.91 60.6041 282.31 64.1481 282.327C67.7101 282.344 70.8173 281.483 74.1668 281.67C79.43 281.964 82.686 284.579 86.9282 287.149C89.0824 288.453 90.109 288.405 92.5058 290.307L91.4104 291.811C92.1056 292.535 93.2408 293.35 93.2449 294.237C92.2254 295.189 90.4699 296.059 89.2532 296.798C87.5956 297.803 86.2805 298.702 84.8616 300H0V296.256Z" fill="#F2F2E3"/>
<path d="M203.554 263.204C205.352 263.846 207.154 263.943 209.056 264.128C213.382 264.463 218.494 265.224 222.781 264.312C227.904 263.223 232.891 260.178 237.965 258.843C239.208 258.517 240.646 258.322 241.919 258.194C247.146 257.671 252.427 258.032 257.668 258.025C261.884 258.006 266.028 258.907 270.227 259.216C273.962 259.532 277.746 259.669 281.434 260.348C283.29 260.685 284.991 261.628 286.739 262.289C287.806 262.692 289.14 263.024 290.259 263.324C293.783 267.342 295.35 267.721 300 270.032V277.306C297.02 277.284 293.71 277.063 290.846 276.341C287.543 275.533 283.77 273.678 280.275 274.134C277.14 274.544 273.877 275.696 270.629 276.093C267.706 276.45 263.061 278.834 261.074 281.088C261.018 281.552 260.978 282.314 260.699 282.646C259.888 283.616 257.412 283.692 256.084 283.857C256.897 282.656 256.944 282.167 257.144 280.775C256.896 280.061 255.564 277.906 254.818 277.509C253.959 277.141 252.686 277.034 251.765 277.031C248.629 277.02 245.731 276.438 242.671 275.835C246.428 275.329 250.176 274.752 253.911 274.101C255.562 273.817 258.559 273.374 260.005 272.767C262.343 271.689 262.946 269.589 265.615 268.978C270.993 267.746 276.822 268.686 282.038 266.964C283.568 266.458 285.963 265.437 286.753 263.996C286.953 263.632 286.709 263.004 286.537 262.648L286.428 263.793C285.977 264.547 284.962 265.12 284.187 265.544C279.291 268.199 273.32 267.323 267.95 268.107C263.202 268.801 264.05 268.822 260.55 271.895C259.719 272.625 254.684 273.562 253.429 273.66C249.605 273.959 243.173 276.008 239.474 275.378C237.045 270.673 231.711 273.121 227.504 272.188C224.396 271.498 221.229 269.552 218.107 269.231C212.028 268.606 205.898 270.936 203.554 263.204Z" fill="#F2F2E3"/>
<path d="M191.243 298.884C191.46 298.52 191.962 297.706 192.313 297.521C194.042 296.625 197.507 297.044 199.527 296.979C203.493 296.85 208.376 296.739 212.232 295.928C216.037 295.128 221.116 292.827 224.802 291.309C227.463 290.121 229.943 288.188 232.833 287.623C236.02 287 239.328 287.201 242.549 286.822C246.361 286.374 250.133 285.464 253.893 284.694C255.915 284.279 259.849 284.124 261.408 282.889C262.196 283.096 262.996 283.223 263.795 283.388C271.437 284.964 278.938 287.264 286.573 288.893C291.017 289.841 295.608 290.333 300 291.415V300H192.564C192.098 299.675 191.668 299.264 191.243 298.884Z" fill="#F2F2E3"/>
<path d="M85.4785 300C99.2478 288.692 120.267 288.595 136.81 292.549C141.077 293.569 146.434 293.765 150.847 294.269C156.974 294.967 163.256 295.248 169.369 294.302C170.854 294.061 172.27 294.009 173.74 293.531L173.951 293.595C176.335 294.343 175.087 295.693 177.185 296.42C178.843 296.994 180.409 296.308 182.08 296.285C183.578 296.373 185.594 296.76 187.144 296.965C188.981 297.211 190.057 297.225 191.876 297.24C191.496 297.756 191.037 298.327 190.75 298.889L191.93 300H85.4785Z" fill="#F2F2E3"/>
<path d="M266.497 211.165C267.725 214.163 266.386 213.035 266.178 214.426C266.249 214.477 266.319 214.53 266.391 214.58C269.2 216.486 283.948 214.229 287.999 213.839C291.48 213.504 295.228 213.465 298.644 212.779L300 212.509V219.925C299.365 219.87 298.726 219.883 298.087 219.892C293.321 219.961 288.53 219.953 283.808 220.686C281.759 220.956 279.645 221.779 277.589 221.923C275.817 222.047 273.847 221.935 272.059 221.928C269.823 221.931 267.587 222.013 265.356 222.173L249.618 223.196C247.776 223.329 237.155 224.652 236.45 222.827C237.392 219.875 234.721 220.991 233.4 220.807L233.295 220.582C234.888 218.951 240.729 219.236 242.67 218.872C245.305 218.377 247.677 217.805 250.356 217.384C252.544 217.03 254.74 216.724 256.942 216.469C259.041 216.226 261.752 216.098 263.694 215.398C264.229 215.205 266.143 211.919 266.497 211.165Z" fill="#F2F2E3"/>
<path d="M300 290.999C295.365 289.832 290.064 289.309 285.324 288.221C279.091 286.79 272.963 285.192 266.765 283.595C265.399 283.243 262.73 282.927 261.431 282.312C261.304 282.252 261.312 282.014 261.285 281.832C261.46 281.331 261.662 281.036 262.081 280.671C264.562 278.506 267.803 277.178 270.991 276.486C272.13 276.239 273.648 276.157 274.67 275.899C277.603 275.159 279.667 274.326 282.788 274.701C285.442 275.02 287.679 276.007 290.256 276.697C293.68 277.614 296.513 277.702 300 277.792V290.999Z" fill="#F2F2E3"/>
<path d="M267.581 212.789C267.169 211.904 266.661 210.932 267.351 210.063C268.315 209.489 270.637 209.82 271.829 209.773C273.417 209.712 274.898 208.908 276.569 208.611C277.738 208.404 280.453 208.045 281.379 207.722C284.154 206.473 283.635 202.304 285.712 200.452C287.041 199.267 289.28 199.21 290.96 198.876C292.302 198.61 293.954 197.922 295.272 197.879C296.749 197.83 298.512 198.037 300 198.157V211.985C298.234 212.775 289.535 213.175 286.875 213.479C280.462 214.212 273.025 215.463 266.642 214.479C267 213.899 267.266 213.389 267.581 212.789Z" fill="#F2F2E3"/>
<path d="M276.037 223.914C278.361 222.708 277.897 222.395 280.804 221.755C285.676 220.681 290.46 220.362 295.445 220.373C296.737 220.376 298.802 220.146 300 220.426V235.482C298.802 235.158 297.651 235.163 296.599 234.865C295.855 234.655 294.416 233.387 293.616 233.061C292.317 232.533 290.528 232.356 289.326 231.633C288.76 231.292 288.632 230.243 288.49 229.575C287.612 229.297 286.561 228.725 285.679 228.638C282.747 228.351 281.652 228.788 278.696 227.981C278.092 227.298 277.799 226.902 277.007 226.418C276.813 225.328 276.667 224.82 276.037 223.914Z" fill="#F2F2E3"/>
<path d="M69.6859 240.103C71.5466 240.355 78.3271 240.197 80.6362 240.194L102.683 240.192L140.644 240.252C146.15 240.267 152.472 240.475 157.909 240.326C158.251 240.784 158.145 240.893 157.989 241.478C157.461 241.873 155.47 241.672 154.618 241.745C141.013 241.902 127.379 241.576 113.743 241.748C109.374 241.781 105.004 241.853 100.636 241.963C98.1936 242.035 91.997 242.439 89.9576 242.016C88.4603 242.17 84.9186 241.453 83.0916 241.422C78.3338 241.34 73.5798 241.389 68.8234 241.408L68.7285 240.994C68.8319 240.116 68.9272 240.247 69.6859 240.103Z" fill="black"/>
<path d="M89.9978 241.861C90.5714 241.639 96.4656 241.671 97.5297 241.651C112.325 241.374 127.123 241.278 141.92 241.362L152.393 241.346C153.687 241.344 156.852 241.261 157.989 241.477C157.46 241.873 155.469 241.672 154.618 241.745C141.012 241.902 127.379 241.576 113.743 241.748C109.373 241.781 105.004 241.852 100.635 241.963C98.193 242.034 91.9964 242.439 89.957 242.015L89.9978 241.861Z" fill="#F2F2E3"/>
<path d="M68.7285 240.994C69.9297 241.224 72.5975 241.116 73.9214 241.128C79.131 241.171 84.2939 240.777 89.4467 241.817C89.6925 241.866 89.7496 241.868 89.9983 241.861L89.9576 242.016C88.4603 242.171 84.9186 241.453 83.0916 241.422C78.3338 241.34 73.5798 241.389 68.8234 241.408L68.7285 240.994Z" fill="#696868"/>
<path d="M122.271 249.726C128.45 250.352 134.101 249.957 140.198 250.143C142.15 250.202 153.41 250.337 154.364 250.88C153.611 251.312 135.476 250.255 132.51 250.688C133.854 250.96 135.869 250.826 135.399 252.621C135.369 252.733 135.339 252.845 135.306 252.956C134.152 253.496 133.52 253.829 132.214 253.993C131.109 254.131 128.518 253.054 127.775 253.902C128.368 254.13 130.22 254.016 131.083 254.068C129.657 254.442 124.737 255.135 124.112 255.414L124.223 255.464L123.486 255.759C124.121 255.938 124.744 256.098 125.358 256.338C123.947 257.008 120.084 258.13 119.356 258.873L118.94 259.166L118.628 258.936C116.632 257.207 114.896 257.989 113.856 256.948L114.199 256.731C114.87 256.465 115.546 256.21 116.226 255.966C113 255.915 110.999 255.289 107.873 254.891C100.734 253.98 92.0054 255.206 85.1977 253.137L85.0834 252.961L84.8203 252.974L85.0436 253.075L84.8253 252.958C85.4209 252.923 86.5667 253.171 87.1749 253.304C92.3566 254.43 97.638 253.829 102.902 253.831C103.579 253.876 106.642 253.876 106.961 253.947L106.269 254.237C106.553 254.264 106.81 254.301 107.095 254.291C109.306 253.874 116.13 253.859 118.65 253.823L118.902 253.379L119.035 253.25C118.471 252.788 113.348 252.303 112.356 252.247L112.491 251.949C116.528 251.922 121.854 251.276 125.841 250.628L122.006 250.205L122.271 249.726Z" fill="#F2F2E3"/>
<path d="M118.65 253.823C118.797 253.771 119.44 253.47 119.394 253.489C120.714 252.935 125.685 253.315 126.833 253.705L126.932 253.886C125.783 254.741 118.414 255.44 116.653 255.394C113.757 255.318 110.074 254.605 107.095 254.291C109.305 253.874 116.13 253.859 118.65 253.823Z" fill="black"/>
<path d="M119.356 258.873C118.643 256.938 116.546 257.623 115.846 256.568C116.488 255.904 122.324 255.655 123.486 255.759C124.121 255.939 124.744 256.098 125.358 256.338C123.947 257.008 120.084 258.13 119.356 258.873Z" fill="black"/>
<path d="M127.546 251.136C127.9 251.106 128.255 251.084 128.61 251.07C130.05 251.013 134.048 250.952 135.118 251.945C135.317 254.235 127.017 253.063 125.574 252.987C122.172 252.947 119.8 252.691 116.46 252.226C120.01 251.833 123.984 251.471 127.546 251.136Z" fill="black"/>
<path d="M107.371 242.591C114.576 241.717 122.959 242.631 130.152 243.195L148.109 244.494C150.661 244.698 155.298 244.54 157.262 244.854L157.404 245.005C153.561 245.324 150.355 245.196 146.528 245.201C141.543 245.235 136.557 245.241 131.572 245.22C126.802 245.172 122.015 244.72 117.314 245.537C116.675 245.648 115.556 245.88 114.938 245.766C115.085 245.448 115.055 245.524 115.289 245.247C114.879 245.245 114.768 245.379 114.416 245.606L114.299 245.856C115.522 246.489 116.775 246.583 117.871 247.309L117.79 247.792L117.705 247.836C116.489 246.841 114.537 246.656 113.093 246.205C112.801 246.113 112.948 246.186 112.725 245.772C112.244 245.672 110.308 245.683 109.651 245.655C104.799 245.447 94.6665 245.39 90.1943 246.568L90.2503 246.705L90.364 246.704C92.3837 246.606 100.114 247.271 101.96 247.991L115.749 249.045C116.786 249.131 117.857 249.128 118.868 249.227C119.995 249.338 121.128 249.605 122.271 249.726L122.006 250.206C115.847 250.164 108.801 248.569 102.479 248.538C100.653 248.529 89.4358 248.072 88.6416 247.012L88.7468 246.67C90.2353 245.476 99.7603 245.285 102.26 245.132C105.834 244.913 109.178 245.446 112.974 244.956C111.118 244.799 108.33 245.074 106.777 244.703C110.557 244.145 113.266 244.628 116.978 244.843C118.109 244.909 119.873 244.624 120.989 244.44C115.546 244.281 110.126 243.286 104.935 243.159L104.675 242.849C105.297 242.86 106.48 242.847 107.06 242.9L107.371 242.591Z" fill="#F2F2E3"/>
<path d="M110.517 242.704C117.457 242.154 125.771 243.293 132.708 243.775L140.805 244.32C142.356 244.42 144.65 244.499 146.112 244.776L146.169 244.847C144.17 245.053 140.646 244.94 138.528 244.952C128.901 245.006 119.048 244.033 109.431 243.13C109.798 242.894 110.093 242.84 110.517 242.704Z" fill="black"/>
<path d="M90.3633 246.704C92.383 246.606 100.114 247.271 101.959 247.991C101.193 248.01 98.649 248.116 98.0543 247.872C97.2199 247.264 91.9356 247.026 90.5449 246.946L90.3633 246.704Z" fill="#696868"/>
<path d="M90.1936 246.568L90.2495 246.705L90.3632 246.704L90.5448 246.946C91.9356 247.026 97.2198 247.264 98.0542 247.872C96.512 247.848 90.4687 247.699 89.4658 246.943L89.5596 246.763L90.1936 246.568Z" fill="black"/>
<path d="M107.06 242.9L107.371 242.591C108.497 242.689 109.383 242.701 110.517 242.704C110.094 242.84 109.799 242.894 109.431 243.13C108.639 243.073 107.848 242.996 107.06 242.9Z" fill="black"/>
<path d="M116.902 249.352C117.729 249.186 119.032 249.395 119.808 249.707C118.781 249.869 117.85 249.782 116.902 249.352Z" fill="#363534"/>
<path d="M157.245 240.05C158.965 239.68 158.142 237.705 160.75 238.101C161.07 238.323 161.146 238.274 161.187 238.73C161.402 241.069 160.57 243.562 160.314 245.919C160.157 247.372 160.163 248.81 160.004 250.159C159.751 250.303 159.515 250.434 159.257 250.569L159.303 250.75L159.934 250.809C160.236 251.272 160.186 252.61 160.28 253.616C160.725 258.367 160.381 261.045 155.033 261.793C154.938 261.767 154.844 261.74 154.749 261.714L154.761 261.486C155.041 261.395 155.284 261.315 155.57 261.242C155.355 260.839 155.439 260.977 155.073 260.66L155.054 260.441L155.303 260.154C155.026 256.998 153.339 254.11 155.758 251.042C156.053 250.668 155.928 250.735 156.332 250.675L156.618 250.789L156.619 250.65C154.696 247.825 155.559 247.313 157.761 245.092C157.94 244.027 157.938 242.932 157.965 241.851C156.849 241.826 155.734 241.791 154.618 241.745C155.469 241.672 157.461 241.873 157.989 241.477C158.144 240.892 158.251 240.783 157.908 240.326L157.245 240.05Z" fill="#F2F2E3"/>
<path d="M156.62 250.65C157.33 250.857 158.361 251.034 158.934 251.333C158.154 251.261 157.205 251.274 156.618 250.79L156.62 250.65Z" fill="#DBD6CC"/>
<path d="M124.223 255.464C124.746 255.611 125.273 255.684 125.615 256.083C125.728 257.619 119.872 258.409 118.425 260.58L118.26 260.825C118.222 260.884 118.184 260.944 118.146 261.002C115.999 261.915 114.179 263.095 111.954 263.595C108.689 264.331 105.286 264.906 102.028 265.167C95.4379 265.694 74.3233 266.328 68.9377 269.609L68.9755 269.388L68.6846 269.172L68.7807 268.953C69.3027 269.044 70.4726 268.35 71.0855 268.161C72.7343 267.65 74.6764 267.36 76.3817 267.089C81.0484 266.368 85.743 265.843 90.4536 265.515C97.8827 265.04 105.41 265.057 112.6 262.915C111.656 262.812 111.347 262.76 110.415 262.513L110.381 262.28L109.868 262.209C110.03 261.828 109.944 262.003 110.458 261.734L109.575 261.687L109.497 261.526C110.905 261.501 113.784 261.44 114.828 260.528L115.258 260.167C116.283 259.674 117.535 259.308 118.628 258.937L118.94 259.166L119.356 258.873C120.084 258.13 123.946 257.008 125.358 256.338C124.744 256.098 124.12 255.939 123.486 255.759L124.223 255.464Z" fill="#F2F2E3"/>
<path d="M110.458 261.733C111.765 261.617 113.979 261.258 115.112 261.707L115.353 261.978C113.257 262.969 112.535 261.888 110.381 262.279L109.868 262.209C110.03 261.828 109.943 262.002 110.458 261.733Z" fill="black"/>
<path d="M118.498 259.504L118.468 259.669C117.324 260.737 117.123 260.746 115.637 261.06L115.565 261.005L115.603 260.835C116.315 260.299 117.591 259.915 118.498 259.504Z" fill="black"/>
<path d="M68.8662 239.864C70.4834 239.703 73.0867 239.776 74.8135 239.777L85.344 239.782L120.137 239.779L146.245 239.911L153.342 239.934C154.276 239.937 156.403 239.908 157.245 240.05L157.908 240.326C152.472 240.474 146.15 240.266 140.643 240.251L102.683 240.192L80.6356 240.194C78.3265 240.197 71.546 240.355 69.6854 240.103C69.4079 240.029 69.1407 239.946 68.8662 239.864Z" fill="#F2F2E3"/>
<path d="M290.415 263.1C294.399 263.825 295.96 263.593 300 263.479V269.512C298.691 268.987 294.967 266.998 293.83 266.193C293.276 265.802 291.027 263.669 290.415 263.1Z" fill="#F2F2E3"/>
<path d="M110.415 262.513C102.161 262.303 93.7946 261.609 85.5259 261.406C83.1883 261.348 71.0128 260.524 69.8154 259.591C70.5077 259.51 72.0915 259.976 72.9373 260.064C74.6995 260.249 76.4535 260.419 78.2187 260.587C84.081 261.147 89.8774 261.243 95.7534 261.464C99.4407 261.603 103.432 262.072 107.17 261.837C107.222 261.83 107.274 261.823 107.326 261.816C108.059 261.624 108.739 261.516 109.497 261.526L109.575 261.687L110.458 261.734C109.944 262.003 110.03 261.828 109.868 262.209L110.381 262.28L110.415 262.513Z" fill="#8C8B8A"/>
<path d="M107.325 261.816C108.058 261.624 108.739 261.516 109.496 261.526L109.575 261.687L110.458 261.734C109.943 262.003 110.029 261.828 109.868 262.209C109.141 262.183 108.023 262.007 107.325 261.816Z" fill="#363534"/>
<path d="M112.356 252.247C106.592 252.216 100.827 252.231 95.0633 252.292L89.2895 252.386C88.2365 252.408 87.2653 252.526 86.2197 252.445C87.4798 251.796 109.501 251.895 112.491 251.949L112.356 252.247Z" fill="#696868"/>
<path d="M68.9466 270.469C72.4824 273.562 81.9184 272.912 86.5197 273.303C85.2559 273.491 84.045 273.598 82.7674 273.529C78.2187 273.283 72.9351 273.442 68.9032 271.107L68.7922 271.179L68.7178 270.993L68.9466 270.469Z" fill="#F2F2E3"/>
<path d="M114.829 260.528C113.851 260.397 112.356 260.627 111.405 260.632C108.211 260.65 100.585 261.839 97.9111 261.023C98.3521 260.885 99.8028 260.984 100.358 260.972C105.334 260.861 110.278 260.274 115.258 260.167L114.829 260.528Z" fill="#696868"/>
<path d="M68.8358 253.489C70.6089 253.556 83.8912 253.267 84.161 253.382C83.3498 253.981 70.8333 253.867 68.8291 253.868L68.8358 253.489Z" fill="#696868"/>
<path d="M102.901 253.831C105.367 253.474 110.202 253.762 112.937 253.7C115.016 253.653 116.824 253.546 118.901 253.379L118.65 253.823C116.13 253.859 109.305 253.874 107.095 254.291C106.81 254.301 106.553 254.264 106.268 254.237L106.961 253.947C106.642 253.876 103.578 253.876 102.901 253.831Z" fill="#8C8B8A"/>
<path d="M104.935 243.159C103.007 243.122 97.9859 243.079 96.4033 242.412L96.466 242.483L96.5185 242.305C99.1186 242.737 102.711 242.47 104.675 242.849L104.935 243.159Z" fill="#8C8B8A"/>
<path d="M117.871 247.309C118.468 247.72 118.513 247.615 118.781 248.176C118.154 249.097 115.714 248.439 114.714 248.406L114.634 248.121C116.082 248.29 116.321 247.71 117.705 247.835L117.789 247.792L117.871 247.309Z" fill="#F2F2E3"/>
<path d="M113.856 256.948C112.95 256.29 111.243 256.9 110.471 256.211L110.465 255.897L110.693 255.675C110.992 255.649 113.674 256.576 114.198 256.731L113.856 256.948Z" fill="#DBD6CC"/>
<path d="M109.435 248.008C110.558 247.988 113.763 247.876 114.634 248.121L114.714 248.406C113.301 248.565 110.841 248.301 109.435 248.008Z" fill="#363534"/>
<path d="M171.231 126.806C172.049 126.842 172.733 126.976 173.536 127.113C175.113 128.962 176.467 132.221 177.453 134.516C181.996 145.089 186.043 155.932 189.547 166.892C191.707 173.647 194.953 181.111 195.48 188.224C194.573 186.179 193.514 183.769 192.809 181.657C188.297 168.123 184.164 154.571 179.123 141.214L178.944 141.444C180.814 146.17 182.6 151.809 184.183 156.646L192.046 180.781C192.884 183.303 194.01 186.04 195.076 188.488C197.877 194.921 196.405 201.036 193.861 207.334C193.062 204.648 192.484 200.15 192.828 197.342L192.484 197.571C192.434 198.026 192.194 198.622 192.202 199.17C192.233 201.52 192.555 204.522 193.17 206.77C193.505 207.996 195.217 210.748 195.049 211.914C194.316 217.005 190.072 221.214 189.52 226.41C188.823 232.953 190.665 237.246 192.838 243.198C193.511 244.931 193.566 247.617 194.226 249.296C195.992 253.786 197.166 257.379 198.035 262.167C196.623 260.323 194.988 259.669 193.517 257.969C191.389 255.51 190.89 252.511 189.804 249.615C188.617 246.493 187.053 243.08 186.389 239.801C184.901 232.453 185.547 224.942 186.423 217.569C186.759 214.739 186.783 211.97 187.452 209.18C187.822 207.683 188.348 206.23 189.022 204.844C189.448 203.949 191.376 200.696 191.442 200.072C189.335 203.236 187.047 207.339 186.686 211.235C186.018 218.459 184.764 225.913 185.338 233.175C185.451 234.613 185.551 236.001 185.694 237.416C179.304 222.674 180.425 209.38 179.701 193.8C179.4 187.317 179.112 182.402 177.341 176.131L177.2 176.277C178.752 182.339 179.024 188.375 179.31 194.601C179.459 197.849 179.656 201.994 179.511 205.217C177.32 197.735 174.457 198.046 169.03 192.971C166.372 190.485 164.326 187.181 162.962 183.864C162.382 182.455 161.442 181.397 160.972 179.854C159.739 179.358 156.697 178.216 155.46 178.03C157.038 178.866 158.776 179.602 160.413 180.333C161.84 183.066 162.366 183.07 163.604 186.368C161.822 183.725 160.176 182.173 157.63 180.287C155.907 179.011 156.135 179.735 154.581 179.591C154.166 178.419 156.542 177.154 156.553 177.093C157.469 172.568 159.992 168 162.522 164.04C165.359 159.596 164.262 154.51 166.787 149.901C167.231 149.089 167.772 147.442 168.08 146.528L167.848 146.328C167.3 148.129 166.31 150.394 165.39 152.047C165.598 149.226 165.737 147.4 166.183 144.625C166.636 141.807 169.168 135.167 168.984 133.16C168.766 133.584 168.082 136.386 167.851 137.109C166.928 139.998 165.77 143.429 165.393 146.427C164.828 150.906 164.961 155.898 163.701 160.282C163.491 160.882 163.486 160.867 163.102 161.385C162.673 163.103 159.342 168.825 158.32 170.315C157.711 165.732 158.996 161.662 158.419 157.257C158.055 154.477 154.107 151.527 154.919 148.137C155.159 147.138 156.241 144.458 157.072 143.897L157.441 144.081C157.512 143.846 157.589 143.614 157.671 143.383C158.441 141.225 162.508 137.056 164.071 134.88C166.079 132.085 168.122 128.305 171.231 126.806Z" fill="#F2F2E3"/>
<path d="M163.867 140.307L164.223 141.142C164.278 143.647 164.487 144.987 164.339 147.607C164.249 149.209 163.56 154.302 163.631 155.497L163.422 156.173L163.295 155.912C163.38 152.705 163.919 149.176 164.022 145.917C164.087 143.86 163.999 142.347 163.867 140.307Z" fill="black"/>
<path d="M157.441 144.081C156.447 147.9 157.17 148.376 158.677 151.74C158.845 152.114 159.016 152.525 158.997 152.936C156.79 149.043 156.033 148.301 157.072 143.897L157.441 144.081Z" fill="black"/>
<path d="M163.295 155.912L163.422 156.173L163.631 155.498C163.573 156.549 163.239 159.514 163.701 160.282C163.491 160.882 163.486 160.867 163.102 161.385C163.048 161.049 163.226 156.209 163.295 155.912Z" fill="#8C8B8A"/>
<path d="M177.199 176.277C176.639 174.702 176.368 172.95 176.166 171.295C176.489 172.455 177.217 174.985 177.34 176.131L177.199 176.277Z" fill="#B7B6AE"/>
<path d="M163.733 139.178C163.605 138.467 163.461 136.987 163.659 136.325L163.814 136.439L163.594 136.501L163.579 136.574L163.853 136.693C163.902 137.327 163.917 137.657 163.882 138.29L163.733 139.178Z" fill="#B7B6AE"/>
<path d="M178.944 141.444C178.671 140.813 178.137 139.669 178.12 139.029C178.551 139.33 178.922 140.646 179.123 141.214L178.944 141.444Z" fill="#8C8B8A"/>
<path d="M192.984 194.79L193.111 195.079C193.071 195.444 192.912 197.074 192.827 197.342L192.483 197.571C192.582 196.589 192.778 195.752 192.984 194.79Z" fill="#696868"/>
<path d="M192.983 194.79C193.055 193.969 192.975 193.429 193.422 192.806L193.348 192.73C193.569 193.24 193.266 194.548 193.11 195.079L192.983 194.79Z" fill="#DBD6CC"/>
<path d="M163.732 139.178L163.882 138.291C164.004 139.24 164.118 140.191 164.223 141.142L163.867 140.307C163.761 140.04 163.755 139.494 163.732 139.178Z" fill="#696868"/>
<path d="M167.849 146.328C167.968 145.761 168.065 145.033 168.364 144.561C168.385 145.307 168.237 145.803 168.08 146.528L167.849 146.328Z" fill="#696868"/>
<path d="M183.401 219.791C183.382 217.513 183.268 215.054 183.447 212.785C183.989 205.924 184.741 199.6 184.776 192.68C184.804 189.397 184.662 186.114 184.351 182.846C184.22 181.356 183.689 176.353 183.807 175.165C184.299 179.248 184.993 185.007 185.032 189.039C185.222 190.43 185.239 195.079 185.038 196.484C184.969 201.422 184.31 206.513 183.936 211.449C183.689 214.717 183.662 217.467 183.704 220.722L183.401 219.791Z" fill="#363534"/>
<path d="M185.032 189.039C185.221 190.43 185.239 195.079 185.038 196.485C184.917 194.799 184.935 190.724 185.032 189.039Z" fill="#696868"/>
<path d="M166.715 156L166.827 156.221C166.58 157.107 165.883 158.494 165.395 159.286L165.249 159.24C165.283 158.788 166.392 156.816 166.715 156Z" fill="#DBD6CC"/>
<path d="M183.4 219.792L183.703 220.722C183.73 221.308 183.663 222.166 183.634 222.772C183.509 221.689 183.424 220.877 183.4 219.792Z" fill="#696868"/>
<path d="M194.287 207.9C194.516 206.703 195.124 205.236 195.517 204.092C196.889 200.1 197.494 196.02 196.613 191.851C196.488 191.261 196.32 190.385 196.252 189.782C195.746 185.274 194.706 180.945 193.3 176.636C192.321 173.582 191.211 170.546 190.268 167.481C189.152 162.998 188.537 158.459 187.475 153.952C185.905 147.296 183.719 140.522 182.64 133.783C181.514 126.752 181.597 119.524 180.002 112.532C179.726 111.325 179.097 108.898 179.055 107.806L179.244 107.866C181.077 113.553 181.229 117.334 182.407 122.973C182.916 125.362 183.587 127.713 184.416 130.009C185.445 132.943 187.499 137.221 188.753 140.264C191.464 146.906 194.122 153.569 196.728 160.252C198.381 164.389 200.207 168.616 201.643 172.83C205.067 182.883 210.244 194.517 210.194 205.293C210.134 209.653 209.368 213.975 207.924 218.089C206.512 222.102 204.764 225.537 204.397 229.926C203.853 235.762 205.611 241.873 205.535 247.64C205.477 251.996 205 256.039 203.385 260.043C202.986 261.035 203.303 264.161 202.919 265.593C201.942 269.237 200.62 272.546 199.806 276.247C198.993 272.318 198.948 270.591 198.968 266.573C198.978 264.631 198.178 260.474 197.775 258.531C196.463 253.428 194.354 249.966 193.858 244.575C193.436 239.985 193.863 239.94 195.031 235.604C196.567 229.902 198.349 224.258 199.289 218.424L198.957 218.553C198.074 223.934 196.016 229.564 194.74 234.921C193.986 238.087 193.125 239.205 193.135 242.668C193.02 242.429 192.948 242.251 192.851 242.008C190.331 235.885 188.413 228.883 191.095 222.454C192.242 219.704 194.022 216.874 195.082 213.971C196.056 211.306 195.208 210.281 194.287 207.9Z" fill="#F2F2E3"/>
<path d="M199.4 215.381C199.292 214.359 199.516 213.114 199.603 212.055C199.637 213.204 199.771 215.212 199.569 216.275L199.4 215.381Z" fill="#B7B6AE"/>
<path d="M199.4 215.381L199.57 216.275C199.468 216.99 199.375 217.706 199.289 218.424L198.957 218.553C199.079 217.488 199.299 216.487 199.4 215.381Z" fill="#363534"/>
<path d="M228.755 115.286C229.97 115.244 232.484 115.538 233.84 115.651C236.87 115.919 239.907 116.099 242.947 116.19C242.975 117.259 242.976 119.36 242.623 120.271C241.374 123.494 239.067 124.346 239.07 128.347C239.074 134.067 239.159 139.815 239.191 145.545L239.503 192.834C239.537 199.721 239.721 206.812 239.607 213.67C238.897 213.725 235.849 214.341 235.428 214.237C233.573 213.783 229.251 213.483 227.974 212.162C227.658 210.804 227.769 205.836 227.77 204.22L227.792 188.653L227.874 148.785C227.885 142.604 227.892 136.416 227.871 130.236C227.868 129.6 227.923 128.984 228.071 128.379C228.214 127.793 228.642 127.082 229.2 126.833C231.123 125.969 236.534 127.079 238.49 127.588L238.571 127.462C238.038 126.8 236.069 126.635 235.095 126.458C232.544 125.911 230.183 125.733 227.883 127.067C227.809 127.269 227.747 127.475 227.697 127.684C227.365 129.051 227.451 134.1 227.445 135.819L227.397 150.574L227.341 189.285C227.333 196.052 227.324 202.813 227.322 209.589C227.322 213.169 227.936 213.348 231.468 213.936C232.446 214.099 233.538 214.297 234.527 214.471C233.163 214.788 231.465 214.94 230.055 215.193C227.324 215.682 224.591 216.174 221.859 216.656C222.485 213.986 222.514 214.015 224.816 212.48C225.047 210.407 224.965 206.825 224.971 204.678L225.022 190.568C225.149 177.954 225.192 165.338 225.152 152.723C225.16 145.074 225.112 136.985 225.304 129.367C225.874 128.489 226.453 127.683 227.063 126.832C227.042 121.719 230.845 124.09 232.193 120.357C232.316 120.017 232.399 119.23 232.198 118.891C231.699 118.91 231.861 118.966 231.44 118.79C230.446 115.439 230.033 117.38 228.738 116.787C228.58 116.279 228.659 116.024 228.727 115.495L228.755 115.286Z" fill="#F2F2E3"/>
<path d="M154.835 203.876C155.495 204.999 155.864 206.412 156.614 207.617C159.363 212.033 162.038 216.763 165.027 220.992C166.397 223.02 171.053 224.559 171.971 226.691C174.352 232.221 177.672 236.877 180.686 242.016C182.702 245.454 184.555 249.408 186.408 252.982C190.309 260.42 194.118 267.907 197.835 275.439C198.781 277.339 199.98 279.132 200.824 281.062C201.058 281.596 200.437 282.307 200.123 282.731L199.309 283.85C195.082 283.044 191.602 280.189 187.463 278.942C183.813 277.842 180.131 275.849 176.759 274.047C175.875 273.574 174.302 271.834 173.756 270.951C171.631 267.517 168.842 264.076 167.396 260.296C166.302 257.439 166.409 253.936 165.995 250.935C165.302 246.363 164.626 241.834 163.72 237.306C163.039 233.957 161.562 230.683 160.533 227.441C158.649 221.496 157.08 215.455 155.832 209.344C155.503 207.692 155.019 205.491 154.835 203.876Z" fill="#F2F2E3"/>
<path d="M159.389 260.703L159.63 260.73L159.752 260.953C159.663 261.817 159.272 262.681 158.998 263.573C158.632 264.694 158.517 265.851 158.245 266.989C157.037 272.036 159.414 280.784 152.3 282.063C150.847 282.294 149.441 282.349 147.963 282.402C140.843 282.657 133.272 282.278 126.579 279.651C125.589 279.293 124.336 278.574 123.259 278.629C119.101 278.841 114.54 278.671 110.429 278.979C106.169 279.299 102.298 280.017 97.9698 279.195C96.6998 278.953 95.3314 278.683 94.0432 278.516C89.9407 278.389 85.7293 278.396 81.6283 278.611C79.6224 278.658 77.4849 278.847 75.4502 278.931C76.3766 278.515 77.6826 278.239 78.6942 277.99C83.0372 272.931 84.9907 273.912 91.1472 273.153C99.7924 272.086 108.446 271.842 117.059 270.464C122.171 269.647 127.227 268.507 132.196 267.053C135.437 266.082 138.185 264.805 141.525 264.183C143.615 263.789 145.715 263.454 147.823 263.18C151.77 262.684 155.952 262.601 159.389 260.703Z" fill="#F2F2E3"/>
<path d="M161.445 241.542C161.889 244.921 162.888 248.216 163.066 251.582C163.158 253.318 162.235 256.071 162.436 257.76C162.853 261.277 165.172 264.148 166.202 267.823C167.424 272.179 167.047 276.27 168.609 280.365C169.304 282.186 170.884 283.406 172.327 284.64C170.832 283.975 168.163 281.877 166.699 281.919C165.391 281.957 162.028 282.8 160.492 283.084C158.945 283.503 157.348 284.224 155.741 284.389C147.272 285.259 139.301 284.455 130.863 283.724L130.829 284.032C132.931 284.115 136.445 284.602 138.735 284.816C144.668 285.37 150.428 285.293 156.367 284.751C158.098 284.594 160.013 283.502 161.998 283.17L162.237 283.133C160.518 285.6 158.609 285.494 155.813 286.117C152.858 286.775 149.883 287.605 146.851 287.658C142.278 287.738 137.655 286.608 133.141 285.878C128.942 285.159 124.66 285.061 120.432 285.59C112.445 286.551 105.924 290.613 98.2529 292.609C96.8042 292.987 95.4431 293.526 94.0676 294.1C93.4913 293.154 92.7404 292.555 91.931 291.805C92.2846 291.282 92.6792 290.747 93.0472 290.231C90.5862 288.08 89.25 288.235 87.1535 286.856C80.976 282.791 78.7184 281.42 71.1738 281.052C72.0375 280.695 74.139 279.528 74.6897 279.445C76.2938 279.201 78.5124 279.148 80.1621 279.074C83.1334 278.925 86.1079 278.846 89.083 278.835C92.787 278.794 94.3412 278.844 98.0004 279.654C102.35 280.616 107.381 279.566 111.742 279.371C115.591 279.199 119.589 279.168 123.445 279.106C124.336 279.086 126.534 280.114 127.501 280.471C128.61 280.874 129.742 281.214 130.89 281.489C136.407 282.781 142.045 283.07 147.685 282.865C149.91 282.784 153.065 282.911 154.916 281.634C159.2 278.677 157.748 272.229 158.566 267.705C159.067 264.937 159.842 262.637 160.385 260.027C160.493 261.707 160.235 264.663 160.553 266.107C160.968 267.987 161.997 269.408 162.226 271.64C162.487 274.176 162.516 276.84 160.757 278.946C159.438 280.525 156.842 282.556 154.856 283.187C154.456 283.314 153.018 283.484 152.553 283.54C155.073 283.663 155.132 283.744 157.349 282.444C162.816 279.24 163.886 274.602 161.962 268.791C161.725 268.075 160.961 266.51 160.925 265.787C160.793 263.118 160.912 260.374 160.883 257.696C160.884 254.795 160.598 251.983 160.582 249.108C160.568 246.606 160.996 243.997 161.445 241.542Z" fill="#F2F2E3"/>
<path d="M124.454 283.125C126.03 283.182 129.312 283.408 130.864 283.724L130.83 284.032C129.333 283.824 126.685 283.405 125.291 283.475L124.454 283.125Z" fill="#363534"/>
<path d="M125.29 283.475C124.647 283.39 120.109 283.289 119.936 283.108C120.841 283.043 123.721 282.806 124.453 283.124L125.29 283.475Z" fill="#B7B6AE"/>
<path d="M213.143 279.506C216.928 279.001 217.531 276.98 221.185 276.355C224.167 275.845 226.269 277.053 228.689 277.172C230.925 277.281 236.078 275.803 238.369 275.797C240.869 275.791 245.142 276.92 247.775 277.272C249.993 277.568 252.229 277.473 254.419 277.661C255.34 278.763 256.704 279.971 256.589 281.508C256.494 282.781 255.56 283.732 254.357 284.044C250.588 285.022 246.639 285.819 242.782 286.316C238.618 286.853 234.352 286.43 230.348 287.868C228.509 288.538 226.227 290.2 224.638 290.889C222.449 291.838 211.929 296.355 210.279 295.658C210.509 295.532 211.15 295.204 211.149 294.929C211.138 288.865 200.437 289.528 196.984 287.548C197.367 287.092 197.738 286.643 198.167 286.229C199.63 284.817 200.455 282.944 201.639 281.287C201.339 280.624 200.945 279.919 200.898 279.215C201.956 277.91 207.225 279.148 208.781 279.133C211.398 279.107 214.142 280.53 216.658 280.661L216.734 280.414C215.457 280.204 214.374 279.916 213.143 279.506Z" fill="#F2F2E3"/>
<path d="M216.734 280.415C218.225 280.526 220.069 280.729 221.355 281.532C223.923 283.135 225.888 283.875 225.194 287.176C224.923 284.813 225.341 284.685 223.382 283.152C220.992 281.28 219.588 280.952 216.658 280.661L216.734 280.415Z" fill="#363534"/>
<path d="M155.301 179.853C158.903 180.119 163.145 186.366 165.045 189.051C166.235 190.607 167.575 192.06 168.923 193.469C171.654 196.323 176.394 198.28 177.998 202.054C179.995 207.142 179.889 213.144 180.358 218.563C181.064 226.717 183.922 233.517 186.313 241.214C186.515 241.864 187.015 242.992 187.004 243.622L186.843 243.527C185.908 242.373 184.795 240.292 184.142 239.593C181.955 237.254 181.019 236.604 179.204 233.866C177.412 231.164 177.535 229.318 175.974 226.789C175.463 225.962 173.525 224.618 172.863 223.871C170.461 221.16 168.762 217.361 166.814 214.313C165.173 211.745 163.317 209.664 161.957 206.919C160.675 204.99 160.634 201.424 159.808 199.591C157.222 193.852 154.367 188.906 154.719 182.297C154.77 181.346 154.563 180.591 155.301 179.853Z" fill="#F2F2E3"/>
<path d="M204.104 126.46C207.176 126.222 208.373 126.803 211.165 127.901C211.183 135.042 211.239 142.182 211.335 149.322L211.792 188.864L211.926 206.602C211.951 210.123 211.843 214.534 212.324 217.96C211.58 218.046 209.022 218.395 208.428 218.264L208.409 218.054C213.928 201.415 207.472 188.169 202.029 172.669C201.542 171.28 201.779 166.347 201.791 164.603L201.832 154.821L201.864 138.266C201.87 135.238 201.869 132.211 201.914 129.183C201.94 127.391 202.345 126.881 204.104 126.46Z" fill="#F2F2E3"/>
<path d="M166.204 282.3C168.744 282.631 170.12 284.326 172.086 284.975C175.64 286.146 179.786 286.856 183.473 287.401C181.541 288.836 179.437 288.959 178.716 291.466C177.333 292.055 176.213 292.594 174.881 293.265C173.2 292.975 168.159 294.123 166.075 294.272C162.975 294.498 160.253 294.545 157.134 294.369C150.236 293.941 143.361 293.194 136.532 292.13C134.365 291.778 132.422 291.24 130.294 290.823C128.103 290.394 125.635 290.179 123.413 289.978C119.449 289.532 114.17 289.763 110.189 290.099C108.54 290.238 106.694 290.81 104.98 290.863C116.076 286.027 123.95 284.353 136.068 286.823C139.505 287.523 145.394 288.482 148.752 287.977C152.181 287.462 157.633 286.394 160.932 285.125C161.456 284.924 162.203 283.808 162.654 283.552C163.565 283.034 165.16 282.643 166.204 282.3Z" fill="#F2F2E3"/>
<path d="M163.349 98.5105C168.537 98.0995 173.961 98.6432 176.579 103.777C180.999 112.445 180.791 122.821 181.956 132.284C182.499 136.694 183.769 140.32 184.6 144.546C183.556 142.356 182.582 140.133 181.68 137.881C179.772 132.894 179.015 128.563 175.65 123.992C170.167 116.514 161.181 112.388 156.304 104.401C155.519 103.117 153.974 100.875 154.876 99.4114C155.982 98.7803 161.797 98.6098 163.349 98.5105Z" fill="#F2F2E3"/>
<path d="M269.497 222.429C272.305 222.341 275.052 222.423 277.857 222.394C276.025 223.465 274.703 223.891 272.742 224.636C270.065 225.653 267.054 226.726 264.235 227.298C259.826 228.192 255.303 228.843 250.891 229.799C248.715 230.27 246.608 231.406 244.396 231.508C240.159 231.702 235.85 231.349 231.609 231.234C230.199 231.196 228.568 231.742 227.252 231.738C225.873 231.733 224.279 231.177 222.777 231.148C218.085 231.059 213.451 231.508 208.776 231.848C207.245 231.911 206.266 231.816 204.771 231.514C204.773 228.764 205.333 226.825 206.043 224.209C209.757 226.108 222.226 221.867 227.581 223.459C228.487 224.395 228.974 225.636 229.983 226.643C231.972 228.626 234.716 225.154 236.607 224.81C239.076 224.45 241.602 224.282 244.092 224.108C252.481 223.521 261.106 222.71 269.497 222.429Z" fill="#F2F2E3"/>
<path d="M226.414 245.584L226.676 245.545L226.788 245.674C226.798 246.025 226.904 246.22 227.087 246.51C228.904 249.377 234.704 249.669 237.615 251.25C238.573 251.771 245.182 255.923 245.44 255.975C245.507 255.988 245.576 255.997 245.643 256.01C248.724 256.58 251.829 255.753 254.894 256.091C256.55 256.274 258.214 257.057 259.842 257.469C257.597 257.734 255.338 257.554 253.07 257.504C246.669 257.363 240.741 257.143 234.632 259.364C230.992 261.019 226.676 262.772 222.812 263.825C221.747 264.115 220.051 264.191 218.91 264.278C219.25 261.602 217.912 261.042 215.845 259.818C215.46 258.11 215.501 256.316 214.648 254.793C214.322 254.21 214.376 254.199 214.677 253.677C214.659 251.932 212.872 252.203 212.246 251.43L212.382 250.925C211.789 250.22 210.622 249.3 209.825 248.824C208.811 248.218 205.803 248.031 206.125 246.311C208.9 245.127 212.414 246.247 215.304 246.099C219.009 245.909 222.707 245.795 226.414 245.584Z" fill="#F2F2E3"/>
<path d="M161.139 230.514C163.331 234.992 164.871 245.886 165.553 251.032C166.228 256.122 165.566 259.272 169.031 264.369C171.127 267.452 173.344 271.912 176.343 274.222C177.499 275.169 179.29 275.658 180.486 276.403C183.418 278.233 186.669 278.789 189.693 280.058C193.22 281.538 195.404 283.395 199.316 284.269C198.717 285.06 197.41 286.323 196.68 287.076C195.146 288.739 193.838 288.667 191.778 288.825C189.157 289.027 187.319 287.824 184.894 287.278C180.032 286.182 174.529 286.399 170.715 282.656C169.938 281.902 168.959 280.374 168.661 279.323C167.544 275.577 167.767 271.552 166.622 267.79C166.246 266.558 165.811 265.457 165.291 264.29C164.415 262.322 163.24 260.425 162.919 258.27C162.563 255.883 163.669 253.433 163.466 251.043C163.254 248.54 162.596 246.081 162.203 243.603C161.881 241.5 161.716 238.991 161.548 236.847C161.393 234.872 161.13 232.452 161.139 230.514Z" fill="#F2F2E3"/>
<path d="M217.755 231.676C220.213 231.508 224.641 231.413 226.874 232.248L227.023 232.775C228.22 233.531 229.377 234.586 230.343 235.221C233.488 237.291 235.592 237.632 237.05 241.51C236.324 242.286 236.066 242.516 235.534 243.445C234.013 243.617 231.663 243.847 230.196 244.182C227.338 244.835 225.947 245.157 223.01 245.344C220.429 245.379 217.775 245.573 215.207 245.593C211.914 245.618 209.244 244.834 205.971 245.832C205.507 240.89 204.972 237 204.736 231.943C208.669 232.712 213.567 231.856 217.755 231.676Z" fill="#F2F2E3"/>
<path d="M255.279 136.206C257.027 136.198 257.594 137.75 257.663 139.238C257.761 141.364 257.724 143.499 257.72 145.628L257.71 157.178L257.699 189.402C257.697 194.887 257.539 201.258 257.744 206.688C259.334 208.509 261.36 209.057 263.576 209.689L258.107 210.311C255.915 210.544 253.32 211.068 251.113 211.208C250.811 211.227 250.719 211.033 250.582 210.853C250.71 209.178 252.803 208.039 253.493 207.164C253.827 206.741 253.712 200.374 253.712 199.638L253.71 187.863L253.715 152.206L253.695 143.09C253.688 141.906 253.584 138.192 253.822 137.242C254.243 136.707 254.679 136.536 255.279 136.206Z" fill="#F2F2E3"/>
<path d="M239.466 92.1623C243.823 91.7554 246.063 94.6924 247.902 98.1272C242.443 101.765 241.436 109.657 241.049 115.721C239.702 115.563 237.776 115.493 236.381 115.404C233.891 115.209 230.765 114.717 228.355 115.007C228.131 114.789 228.004 114.516 227.958 114.209C226.858 106.888 231.631 94.1161 239.466 92.1623Z" fill="#F2F2E3"/>
<path d="M112.089 97.4746C117.396 97.1796 121.947 101.221 122.282 106.526C122.616 111.83 118.609 116.411 113.307 116.785C107.949 117.164 103.309 113.105 102.971 107.744C102.632 102.383 106.726 97.7729 112.089 97.4746Z" fill="#F2F2E3"/>
<path d="M45.6507 276.329C48.153 276.251 51.8192 276.356 54.2991 276.682C55.735 276.883 57.7099 277.819 59.1141 277.824C63.2315 277.839 65.8477 274.978 69.3369 278.711C69.247 280.03 69.2654 280.311 69.8959 281.463C66.963 281.809 64.007 281.915 61.0568 281.78C57.7571 281.604 54.2862 281.033 51.0355 281.48C48.9967 281.639 46.4945 282.353 44.5119 282.538C39.5186 283.003 36.4538 284.193 32.0915 286.535C30.2499 287.523 26.1058 288.281 23.8145 288.79C24.0712 286.805 24.3264 284.889 24.4857 282.893C25.7646 282.717 28.0142 282.672 29.1507 282.372C33.5209 281.218 36.8801 281.413 41.3877 281.647C43.8469 281.678 46.9749 281.672 49.4813 281.271C51.9536 280.875 53.9778 279.468 56.5219 279.557C59.7079 279.667 62.7903 279.502 65.94 279.745C66.6715 279.801 68.773 281.397 69.3862 281.15C68.9719 280.507 66.8323 279.601 66.027 279.4C65.274 279.245 64.4265 279.138 63.6536 279.166C60.0375 279.297 55.8894 278.55 52.4821 279.932C46.8501 282.218 40.3594 280.784 34.4496 281.035C32.7264 281.109 31.1036 281.627 29.4123 281.911C27.7707 282.177 26.1049 282.309 24.4617 282.467C25.1263 279.608 26.0531 277.83 29.2437 277.26C31.2835 277.092 33.0129 277.674 35.1308 277.729C38.6321 277.82 42.3636 276.507 45.6507 276.329Z" fill="#F2F2E3"/>
<path d="M266.193 209.98L266.524 209.974L266.578 210.182C266.119 211.056 264.043 215.082 263.078 215.248C257.386 216.224 251.154 216.34 245.546 217.864C241.364 219 237.067 218.042 233.364 220.088L231.816 219.893C230.311 220.774 230.562 220.521 229 219.888C227.755 219.395 225.599 219.547 224.275 219.849C219.931 220.839 211.431 220.599 207.641 222.3L206.524 222.977C206.769 222.32 207.825 219.217 208.329 219.027C210.663 218.146 214.981 218.653 217.392 218.191C219.928 217.706 222.125 217.096 224.563 216.628C229.954 215.633 235.362 214.735 240.786 213.937C242.602 213.668 249.233 212.907 250.472 212.093L250.439 211.696C250.822 211.555 252.389 211.525 253.006 211.439C257.382 210.829 261.777 210.212 266.193 209.98Z" fill="#F2F2E3"/>
<path d="M260.185 231.372C261.639 231.257 263.1 231.272 264.55 231.417C265.898 231.562 274.234 233.3 275.048 233.861L275.076 234.126C273.713 235.47 266.188 236.186 263.991 236.681C261.521 237.237 258.41 238.034 255.938 238.137C250.153 238.377 245.722 235.465 240.063 238.096C238.81 239.402 239.395 239.883 237.392 241.437C236.175 237.497 233.106 236.508 229.959 234.54C229.159 234.039 228.445 233.104 227.14 232.287C232.74 231.19 238.306 232.064 243.993 232.027C245.271 232.018 246.658 232.313 247.971 232.278C249.748 232.232 251.504 232.02 253.271 231.853C255.571 231.631 257.877 231.471 260.185 231.372Z" fill="#F2F2E3"/>
<path d="M183.922 287.662C185.854 287.61 188.08 289.108 190.062 289.238C192.575 289.402 194.705 289.357 196.725 287.767C199.891 289.899 205.234 289.16 208.61 291.488C209.581 292.157 211.537 294.003 210.486 295.192C208.964 295.819 204.968 296.367 203.277 296.464C198.627 296.52 193.934 296.672 189.287 296.754C187.058 296.795 184.453 295.907 182.217 295.816C180.264 295.734 178.368 296.716 176.457 295.679C175.956 295.131 176.185 294.545 175.43 293.663L175.484 293.476C176.247 292.927 178.022 292.275 179.062 291.728L179.604 290.347C180.527 289.61 182.772 288.353 183.922 287.662Z" fill="#F2F2E3"/>
<path d="M275.313 224.113L275.678 224.172C276.45 224.805 276.407 225.606 276.541 226.614C277.534 227.231 277.665 227.393 278.315 228.389C281.491 229.394 283.144 228.647 286.238 229.164C286.505 229.208 287.802 229.806 288.126 229.956C288.245 230.448 288.542 231.713 288.971 231.933C290.345 232.639 294.114 233.415 295.081 234.539L294.943 234.719C292.854 234.923 289.318 234.236 287.148 234.248C284.052 234.264 280.934 234.642 277.837 234.35C276.458 234.221 276.578 234.203 275.432 233.59C273.84 232.738 270.656 232.2 268.825 231.792C262.754 230.346 258.93 230.9 252.785 231.456C250.386 231.673 248.243 231.978 245.82 231.811C251.174 229.617 258.283 228.979 264.018 227.81C268.471 226.903 271.285 225.368 275.313 224.113Z" fill="#F2F2E3"/>
<path d="M203.547 264.519C204.016 265.048 204.837 266.757 205.606 267.532C208.81 270.757 214.396 268.952 218.51 269.735C221.702 270.343 223.722 271.557 226.622 272.423C228.92 273.11 232.232 272.742 234.613 272.847C236.862 272.946 237.651 273.624 239.086 275.196C237.616 275.258 232.799 276.173 231.024 276.443C228.052 277.092 227.221 276.316 224.349 275.71C222.332 275.284 220.169 274.951 218.152 274.535C212.876 273.449 209.339 272.852 204.055 274.547C201.16 275.476 201.004 277.396 200.448 277.64C199.742 275.72 202.978 267.659 203.547 264.519Z" fill="#F2F2E3"/>
<path d="M154.335 182.046C154.24 188.039 155.555 191.808 158.103 197.072C158.317 197.514 159.939 200.857 159.98 201.047C160.394 202.972 160.177 204.762 161.252 206.681C163.792 211.218 166.862 215.498 169.492 219.972C169.874 220.622 171.704 224.792 171.551 225.347L171.134 225.028C169.474 223.562 168.035 223.103 166.563 221.916C164.392 220.165 162.753 216.702 161.301 214.37C159.934 212.106 158.688 210.645 157.356 208.288C153.285 201.082 152.429 192.187 153.067 184.082C153.113 183.496 153.958 182.507 154.335 182.046Z" fill="#F2F2E3"/>
<path d="M212.251 101.828C215.727 101.518 217.42 103.195 219.393 105.734C214.905 106.688 213.576 113.751 213.195 117.529L210.54 117.131C209.242 116.891 203.743 116.243 203.151 115.398C202.676 113.319 204.3 108.919 205.483 107.136C207.301 104.395 209.026 102.603 212.251 101.828Z" fill="#F2F2E3"/>
<path d="M202.769 116.325C204.26 116.18 204.296 116.746 204.857 117.947C204.694 120.631 204.427 119.791 203.145 122.245C202.451 123.574 202.72 124.832 203.147 126.175C202.35 126.671 201.675 127.211 201.563 128.209C201.366 129.967 201.415 131.727 201.415 133.495L201.412 141.945L201.243 170.62L200.012 167.323C199.431 165.771 199.722 158.477 199.729 156.25L199.791 135.802C199.796 133.657 199.948 130.878 199.646 128.731C199.36 126.702 194.802 121.566 195.185 119.898C196.295 118.324 200.894 116.96 202.769 116.325Z" fill="#F2F2E3"/>
<path d="M206.01 247.663C208.299 249.181 211.181 248.544 211.889 252.029C212.281 252.13 213.766 252.463 213.824 252.768C214.331 255.445 214.615 259.333 216.174 261.636C215.609 262.384 214.574 263.437 213.91 264.15C212.092 263.992 204.785 263.459 203.757 262.508C203.271 260.64 204.551 258.58 204.934 256.938C205.617 254.013 205.883 250.656 206.01 247.663Z" fill="#F2F2E3"/>
<path d="M156.359 106.313C156.504 106.517 156.542 106.683 156.606 106.925C157.802 111.448 161.341 113.303 164.352 116.39C165.738 117.813 167.288 120.309 168.67 121.855C170.173 123.538 171.616 124.621 172.958 126.478C172.281 126.432 171.569 126.429 170.888 126.414C169.8 126.972 169.131 127.497 168.25 128.31C168.094 128.524 168.144 128.452 167.893 128.596C167.504 127.977 167.536 127.14 167.303 126.586C166.564 124.835 165.102 122.64 163.681 121.42C161.768 121.732 159.478 123.128 157.978 122.641C156.584 122.188 157.59 120.819 157.469 120.556C157.07 119.682 155.975 118.764 155.516 117.687C155.623 116.568 155.535 116.729 154.71 115.977C155.955 112.934 156.53 113.194 155.581 109.574C155.342 108.661 155.734 107.108 156.359 106.313Z" fill="#F2F2E3"/>
<path d="M156.991 106.451C157.328 106.655 158.704 108.308 159.088 108.726C160.274 110.028 161.517 111.277 162.813 112.469C167.055 116.364 171.232 118.829 174.878 123.655C178.437 128.364 179.339 132.698 181.29 138.073C182.323 140.92 184.141 144.312 185.097 147.181C186.636 151.802 188.022 157.678 188.664 162.478C187.805 160.792 186.436 156.175 185.625 154.06C183.249 147.862 180.983 141.557 178.308 135.475C177.278 133.133 176.179 130.427 174.907 128.229C173.486 125.777 170.859 123.682 168.984 121.576C167.576 119.993 165.961 117.375 164.518 115.942C161.585 113.029 157.908 110.851 156.991 106.451Z" fill="#F2F2E3"/>
<path d="M181.483 242.356C181.561 242.406 181.639 242.456 181.717 242.506C183.918 244.652 188.615 248.129 189.753 250.894C190.883 253.637 191.176 255.475 193.05 257.988C194.792 260.325 197.019 260.533 197.953 263.296C198.951 266.248 198.283 268.995 198.546 271.91C198.719 273.828 199.498 276.205 199.854 278.228C198.881 277.144 194.531 267.799 193.555 265.89L185.704 250.709C184.381 248.153 182.589 244.935 181.483 242.356Z" fill="#F2F2E3"/>
<path d="M204.608 116.572C208.26 117.125 212.117 117.865 215.829 118.218C216.055 118.24 216.37 118.708 216.414 118.934C216.744 120.629 214.327 121.414 213.537 122.639C212.819 123.638 212.573 124.111 211.995 125.184C211.599 125.926 211.35 126.666 211.055 127.452C207.912 126.172 206.844 125.747 203.431 126.091C202.244 120.622 206.457 121.788 204.608 116.572Z" fill="#F2F2E3"/>
<path d="M209.465 273.985C213.086 273.674 218.57 275.152 222.497 275.707C221.411 275.865 220.467 275.958 219.437 276.366C217.18 277.259 215.834 278.684 213.381 279.016C209.392 279.242 205.242 277.599 200.76 278.47C202.362 274.543 205.697 274.369 209.465 273.985Z" fill="#F2F2E3"/>
<path d="M170.895 222.032C171.12 222.213 172.025 223.403 172.364 223.763C173.314 224.77 175.09 226.173 175.848 227.235C176.937 228.762 177.232 231.436 178.343 233.125C179.192 234.285 180.093 236.051 181.143 237.016C184.917 240.486 187.198 244.298 189.196 249.074C188.542 248.562 188.011 247.588 187.33 247.054C178.524 240.155 174.775 232.366 170.895 222.032Z" fill="#F2F2E3"/>
<path d="M226.006 220.076C228.133 219.934 228.451 220.108 230.392 220.853C230.779 221.001 231.71 220.082 232.619 220.398C233.134 220.911 233.221 221.28 233.492 221.952C232.538 224.579 232.361 223.808 229.893 223.189C225.153 222.001 220.438 222.958 215.66 223.485C214.294 223.617 206.725 225.197 206.617 223.522C208.014 221.853 214.06 221.511 216.217 221.269C219.485 220.911 222.748 220.514 226.006 220.076Z" fill="#F2F2E3"/>
<path d="M243.702 237.493C246.328 237.12 248.218 237.805 250.781 238.177C252.075 238.364 253.376 238.447 254.682 238.528C252.294 239.46 250.705 239.295 248.202 239.563C247.047 239.687 245.597 240.065 244.45 240.36C243.788 240.546 243.05 240.823 242.393 241.051C242.271 241.238 241.992 241.651 241.834 241.771C240.933 242.452 237.563 243.166 236.537 243.09L236.399 242.915C236.892 241.986 238.698 240.967 239.42 239.708L240.126 238.483C241.336 237.903 242.39 237.715 243.702 237.493Z" fill="#F2F2E3"/>
<path d="M157.438 166.359C157.628 166.983 157.705 169.464 158.104 170.987C157.548 172.278 157.043 173.641 156.536 174.956L156.314 174.991C155.09 170.934 154.48 169.766 157.438 166.359Z" fill="#F2F2E3"/>
<path d="M228.015 223.332C230.459 223.377 232.438 224.549 235.46 224.928L234.045 225.568C230.216 228.131 230.377 226.278 228.115 223.455L228.015 223.332Z" fill="#F2F2E3"/>
<path d="M234.487 220.992C236.92 221.01 235.636 221.93 236.236 223.153C236.621 223.936 238.388 223.957 239.229 224.032C238.795 224.102 238.36 224.166 237.925 224.225C237.59 224.271 237.255 224.311 236.919 224.346C236.003 224.442 233.7 224.57 233.006 224.014C233.471 222.998 233.81 221.595 234.487 220.992Z" fill="#F2F2E3"/>
<path d="M216.393 260.521C216.688 260.696 216.979 260.879 217.263 261.071C218.157 261.688 219.188 262.991 218.38 264.047C217.872 264.399 217.416 264.289 216.769 264.26C215.976 264.199 215.258 264.205 214.465 264.204C215.639 262.737 216.492 262.574 216.393 260.521Z" fill="#F2F2E3"/>
<path d="M118.138 262.871C122.897 262.644 135.487 262.752 139.921 263.925L139.891 264.037C139.311 264.073 136.47 263.707 135.64 263.63C131.186 263.209 126.711 263.04 122.237 263.124C120.598 263.144 115.567 263.356 114.27 263.143C114.621 262.871 117.495 262.876 118.138 262.871Z" fill="#696868"/>
<path d="M154.067 251.869C154.21 251.863 154.124 251.853 154.315 251.947C153.621 252.488 148.869 252.275 147.775 252.291C143.813 252.314 139.853 252.458 135.9 252.723L135.712 252.711C137.381 251.898 151.22 251.958 154.067 251.869Z" fill="#8C8B8A"/>
<path d="M86.027 183.032C86.4392 182.828 86.9384 182.993 87.1485 183.402C87.3586 183.811 87.2018 184.313 86.7964 184.529C86.5283 184.673 86.2037 184.66 85.9473 184.497C85.6907 184.334 85.5424 184.045 85.5589 183.741C85.5753 183.437 85.7543 183.166 86.027 183.032Z" fill="#F2F2E3"/>
<path d="M77.3545 92.7976C77.5904 92.7118 77.8543 92.7654 78.0374 92.9368C78.2205 93.1082 78.292 93.3677 78.222 93.6085C78.152 93.8497 77.9525 94.0307 77.7061 94.077C77.3657 94.1412 77.0329 93.9334 76.9409 93.5992C76.8492 93.2652 77.029 92.9166 77.3545 92.7976Z" fill="#F2F2E3"/>
<path d="M298.5 198H300M300 197.5H298.5V0H300V197H299M299 196.5H299.5V0.5" stroke="#F2F2E3"/>
</g>
<defs>
<clipPath id="clip0_119_1807">
<rect width="300" height="300" fill="white"/>
</clipPath>
</defs>
</svg>
