<?xml version="1.0" standalone="no"?>
<!DOCTYPE svg PUBLIC "-//W3C//DTD SVG 20010904//EN"
 "http://www.w3.org/TR/2001/REC-SVG-20010904/DTD/svg10.dtd">
<svg version="1.0" xmlns="http://www.w3.org/2000/svg"
 width="512.000000pt" height="512.000000pt" viewBox="0 0 512.000000 512.000000"
 preserveAspectRatio="xMidYMid meet">
<metadata>
Created by potrace 1.16, written by Peter Selinger 2001-2019
</metadata>
<!-- Add background -->
<rect width="100%" height="100%" fill="transparent"/>
<g transform="translate(0.000000,512.000000) scale(0.100000,-0.100000)"
fill="#adafb0" stroke="none">
<path d="M153 5072 c-28 -26 -74 -60 -102 -77 -30 -18 -51 -37 -51 -48 0 -15
9 -12 58 19 84 54 176 120 191 138 12 14 10 16 -15 16 -20 -1 -45 -15 -81 -48z"/>
<path d="M583 5071 c-52 -60 -206 -167 -224 -156 -7 5 -10 4 -5 -3 4 -6 -22
-26 -65 -48 -81 -43 -154 -107 -164 -144 -7 -23 -5 -22 31 11 47 44 123 93
224 144 131 66 214 134 251 208 28 53 4 47 -48 -12z"/>
<path d="M859 5083 c-26 -21 -59 -48 -75 -61 -16 -13 3 -2 41 24 78 52 104 74
89 74 -5 0 -30 -17 -55 -37z"/>
<path d="M1295 5058 c-131 -72 -227 -137 -219 -149 3 -5 8 -9 11 -9 4 0 3 3 0
7 -9 8 30 36 42 29 17 -11 284 113 365 170 19 13 16 14 -34 14 -48 -1 -69 -9
-165 -62z m54 -13 c-10 -9 -212 -106 -215 -102 -4 4 196 106 210 106 5 1 7 -1
5 -4z"/>
<path d="M1740 5069 c-94 -86 -207 -166 -257 -182 -26 -8 -81 -18 -122 -21
-55 -4 -83 -11 -110 -29 -106 -70 -113 -72 -275 -70 -134 3 -155 0 -217 -21
-171 -59 -360 -264 -406 -438 -16 -61 -16 -69 -1 -124 19 -66 17 -79 -6 -37
-8 15 -15 23 -16 17 -1 -28 78 -113 138 -148 28 -17 9 3 -33 33 -25 18 -43 37
-39 42 3 5 0 8 -7 7 -6 -2 -14 3 -17 11 -3 9 0 11 8 6 9 -6 9 -3 0 14 -39 75
11 231 110 345 l31 34 37 -37 c20 -20 69 -58 107 -83 39 -25 80 -57 92 -70
l22 -24 -25 -49 c-38 -75 -20 -146 46 -180 16 -8 107 -31 202 -50 95 -20 236
-50 312 -67 134 -31 138 -33 110 -46 -39 -18 -12 -11 135 32 223 65 398 81
557 51 44 -8 142 -33 219 -55 101 -30 172 -44 255 -51 218 -18 367 -47 620
-122 47 -14 119 -28 160 -31 l75 -6 -80 14 c-44 7 -143 31 -220 54 -206 59
-319 81 -499 97 -161 14 -184 19 -349 70 l-88 27 188 191 c103 106 208 208
233 228 63 51 161 109 300 179 66 33 120 63 120 66 0 11 -355 -178 -415 -221
-33 -24 -78 -61 -99 -84 -45 -46 -67 -45 -34 2 75 107 256 264 413 357 157 93
214 138 255 201 39 61 81 167 79 203 0 12 -8 -1 -18 -29 -26 -71 -69 -154
-103 -198 -17 -20 -82 -72 -146 -114 -65 -41 -147 -96 -184 -120 -88 -58 -241
-204 -298 -283 -65 -90 -93 -124 -210 -256 l-106 -119 -64 12 c-150 28 -355
11 -547 -47 l-103 -30 -72 20 c-40 11 -172 40 -293 64 -121 25 -235 50 -254
55 -86 26 -106 98 -52 184 34 52 71 74 176 106 82 24 168 73 246 141 78 68
135 104 204 129 96 36 154 72 203 126 42 46 56 72 108 195 10 25 39 70 63 100
24 30 48 61 54 68 7 9 1 12 -24 12 -27 -1 -46 -12 -89 -51z m736 -786 c-2 -9
-8 -19 -14 -21 -7 -2 -10 -7 -8 -11 3 -4 -41 -52 -96 -107 l-101 -99 92 107
c51 59 100 112 109 117 9 6 13 11 9 11 -5 0 -5 5 -2 10 9 15 14 12 11 -7z"/>
<path d="M2700 5078 c-19 -23 -96 -95 -170 -161 -149 -133 -210 -191 -150
-142 163 130 392 347 363 344 -4 0 -24 -19 -43 -41z"/>
<path d="M3350 5037 c-105 -157 -222 -258 -476 -410 -179 -107 -317 -217 -366
-292 -12 -19 -2 -11 29 20 90 94 205 171 393 265 191 96 394 239 458 323 39
52 102 157 102 170 0 4 -19 7 -42 7 -42 -1 -44 -2 -98 -83z"/>
<path d="M3725 4992 c-211 -206 -364 -312 -602 -412 -57 -24 -101 -45 -99 -47
7 -7 235 90 334 143 134 70 191 110 380 261 86 69 173 137 194 150 21 14 38
27 38 29 0 2 -26 4 -57 4 l-58 -1 -130 -127z"/>
<path d="M4203 5063 c-27 -32 -62 -76 -77 -98 l-28 -40 33 40 c19 22 58 66 88
98 30 31 50 57 44 57 -5 0 -32 -26 -60 -57z"/>
<path d="M4547 5063 c-27 -31 -87 -112 -135 -180 -240 -342 -344 -460 -527
-599 -100 -76 -284 -198 -347 -230 -27 -13 -48 -27 -48 -30 0 -10 150 75 255
143 141 93 255 184 353 282 95 96 128 138 267 336 80 114 177 246 238 323 5 6
5 12 0 12 -5 0 -30 -25 -56 -57z"/>
<path d="M4909 5103 c-13 -16 -12 -17 4 -4 9 7 17 15 17 17 0 8 -8 3 -21 -13z"/>
<path d="M5018 5061 c-51 -48 -76 -81 -119 -163 -61 -116 -120 -193 -274 -357
-59 -63 -141 -160 -183 -215 -41 -56 -107 -135 -146 -176 -83 -88 -123 -157
-133 -231 l-8 -53 -60 -12 c-33 -6 -53 -12 -44 -13 9 0 52 5 95 13 44 8 110
18 149 22 53 5 64 9 47 15 -19 7 -21 13 -16 56 14 114 47 188 139 318 113 159
242 272 404 356 47 24 93 55 102 69 10 14 27 69 38 123 15 73 31 119 65 182
76 140 54 166 -56 66z"/>
<path d="M4863 5048 c-97 -103 -489 -618 -470 -618 3 0 30 35 60 78 58 83 383
499 425 545 14 15 24 27 21 27 -3 0 -19 -15 -36 -32z"/>
<path d="M1580 4999 c-30 -34 -67 -70 -84 -80 -17 -10 -25 -19 -18 -19 15 0
93 70 133 122 47 59 28 45 -31 -23z"/>
<path d="M425 4977 c-56 -58 -48 -57 18 3 24 21 55 62 45 59 -2 0 -30 -28 -63
-62z"/>
<path d="M624 4884 c-18 -14 -18 -15 4 -4 12 6 22 13 22 15 0 8 -5 6 -26 -11z"/>
<path d="M985 4890 c28 -12 37 -12 30 0 -3 6 -16 10 -28 9 -21 0 -21 -1 -2 -9z"/>
<path d="M490 4880 c-8 -5 -10 -10 -5 -10 6 0 17 5 25 10 8 5 11 10 5 10 -5 0
-17 -5 -25 -10z"/>
<path d="M928 4883 c6 -2 18 -2 25 0 6 3 1 5 -13 5 -14 0 -19 -2 -12 -5z"/>
<path d="M842 4863 c-24 -8 -41 -17 -39 -19 2 -2 28 5 58 15 30 11 47 20 39
19 -8 0 -34 -6 -58 -15z"/>
<path d="M574 4854 c-18 -14 -18 -15 4 -4 12 6 22 13 22 15 0 8 -5 6 -26 -11z"/>
<path d="M1198 4834 c-27 -13 -48 -27 -48 -29 0 -3 23 6 50 20 28 14 50 28 50
30 0 7 1 7 -52 -21z"/>
<path d="M485 4824 l-30 -26 33 22 c17 12 32 23 32 26 0 7 -4 5 -35 -22z"/>
<path d="M702 4796 c-94 -59 -176 -123 -232 -182 -34 -36 -27 -32 27 17 83 76
221 172 234 163 5 -3 9 -1 9 5 0 6 7 7 17 4 10 -4 14 -2 9 5 -3 6 2 15 11 21
10 6 13 11 8 11 -6 0 -43 -20 -83 -44z"/>
<path d="M800 4825 c-19 -7 -28 -13 -20 -13 8 0 31 6 50 13 19 7 28 13 20 13
-8 0 -31 -6 -50 -13z"/>
<path d="M822 4810 c-40 -11 -95 -31 -122 -46 -72 -39 -202 -147 -251 -207
-51 -63 -108 -180 -115 -233 -4 -37 -4 -37 15 14 34 91 82 164 165 250 115
120 215 180 371 225 75 22 21 19 -63 -3z"/>
<path d="M436 4761 c-107 -80 -234 -206 -284 -280 -79 -119 -111 -245 -77
-308 18 -34 88 -91 160 -132 22 -12 29 -14 15 -5 -57 40 -126 120 -138 160
-28 95 -8 186 64 295 50 76 179 203 277 273 58 41 75 56 65 56 -2 0 -39 -27
-82 -59z"/>
<path d="M358 4730 c-47 -38 -90 -75 -94 -82 -8 -14 -5 -12 96 72 81 67 96 80
90 80 -3 0 -44 -31 -92 -70z"/>
<path d="M2314 4728 l-19 -23 23 19 c21 18 27 26 19 26 -2 0 -12 -10 -23 -22z"/>
<path d="M175 4687 c-38 -29 -93 -84 -122 -122 -46 -61 -53 -76 -53 -115 l0
-45 28 50 c46 84 93 147 161 218 35 37 62 67 60 67 -2 0 -35 -24 -74 -53z"/>
<path d="M479 4663 c-45 -48 -107 -122 -73 -88 37 37 136 145 133 145 -3 0
-29 -26 -60 -57z"/>
<path d="M2269 4693 c-13 -16 -12 -17 4 -4 9 7 17 15 17 17 0 8 -8 3 -21 -13z"/>
<path d="M3124 4694 c-18 -14 -18 -15 4 -4 12 6 22 13 22 15 0 8 -5 6 -26 -11z"/>
<path d="M3074 4664 c-18 -14 -18 -15 4 -4 12 6 22 13 22 15 0 8 -5 6 -26 -11z"/>
<path d="M5088 4610 c-14 -19 -46 -66 -69 -105 -37 -61 -43 -80 -48 -145 -9
-115 -47 -157 -300 -329 -91 -61 -160 -111 -155 -111 5 0 18 6 29 14 29 20
208 124 300 174 44 23 69 40 55 36 l-25 -7 21 19 c49 44 99 120 140 215 24 56
53 117 65 135 15 25 19 46 17 86 l-3 53 -27 -35z"/>
<path d="M365 4511 c-14 -28 -22 -57 -19 -66 9 -24 26 4 18 29 -4 12 -2 16 4
12 6 -4 16 3 22 15 8 15 9 19 1 15 -14 -9 -14 0 -1 25 6 10 8 19 6 19 -3 0
-17 -22 -31 -49z"/>
<path d="M409 4543 c-13 -16 -12 -17 4 -4 9 7 17 15 17 17 0 8 -8 3 -21 -13z"/>
<path d="M2968 4514 c-39 -21 -35 -28 5 -8 37 19 44 24 31 24 -5 -1 -21 -8
-36 -16z"/>
<path d="M336 4421 c4 -16 3 -21 -5 -17 -6 4 -11 1 -11 -8 0 -8 4 -17 9 -20
13 -9 22 35 10 53 -8 12 -8 10 -3 -8z"/>
<path d="M216 4385 c-3 -9 -6 -22 -5 -28 0 -7 5 -1 10 12 5 13 8 26 5 28 -2 2
-6 -3 -10 -12z"/>
<path d="M311 4294 c0 -43 4 -88 8 -98 4 -11 6 23 4 74 -3 114 -13 133 -12 24z"/>
<path d="M203 4295 c0 -22 2 -30 4 -17 2 12 2 30 0 40 -3 9 -5 -1 -4 -23z"/>
<path d="M2534 4239 c-10 -12 -71 -63 -134 -114 -63 -51 -126 -105 -140 -121
-18 -20 -13 -18 20 10 25 20 86 70 135 110 85 69 155 136 143 136 -3 0 -13
-10 -24 -21z"/>
<path d="M211 4234 c0 -11 3 -14 6 -6 3 7 2 16 -1 19 -3 4 -6 -2 -5 -13z"/>
<path d="M5055 4205 c-27 -14 -39 -22 -25 -19 30 8 99 43 85 43 -5 1 -32 -10
-60 -24z"/>
<path d="M5021 4148 c-81 -30 -195 -86 -416 -203 -60 -32 -171 -87 -246 -120
-149 -68 -281 -150 -369 -232 -32 -29 -60 -49 -64 -45 -4 4 -6 1 -4 -7 3 -15
-179 -168 -394 -332 -65 -49 -118 -92 -118 -95 0 -5 53 34 240 172 77 58 110
74 102 51 -3 -11 107 75 162 126 23 21 -1 4 -53 -37 -52 -41 -99 -72 -104 -69
-6 4 9 23 34 42 24 20 87 77 139 126 131 124 275 217 435 283 71 29 186 83
255 119 296 156 349 183 415 209 66 26 101 45 80 43 -6 0 -48 -14 -94 -31z"/>
<path d="M4940 4160 c-8 -5 -10 -10 -5 -10 6 0 17 5 25 10 8 5 11 10 5 10 -5
0 -17 -5 -25 -10z"/>
<path d="M0 4124 c0 -6 17 -26 38 -45 l37 -34 -35 40 c-19 22 -36 42 -37 44
-2 2 -3 0 -3 -5z"/>
<path d="M10 4030 c8 -5 26 -10 39 -10 32 0 24 6 -19 14 -25 4 -31 3 -20 -4z"/>
<path d="M4965 3990 c-162 -56 -170 -66 -13 -16 59 19 120 37 137 41 17 4 31
11 31 16 0 13 1 13 -155 -41z"/>
<path d="M88 4013 c7 -3 16 -2 19 1 4 3 -2 6 -13 5 -11 0 -14 -3 -6 -6z"/>
<path d="M138 4003 c7 -3 16 -2 19 1 4 3 -2 6 -13 5 -11 0 -14 -3 -6 -6z"/>
<path d="M0 3936 c0 -9 20 -16 63 -20 34 -4 154 -23 267 -42 284 -48 577 -84
658 -82 l67 2 -60 3 c-94 5 -270 30 -520 74 -256 45 -456 78 -467 79 -5 0 -8
-6 -8 -14z"/>
<path d="M4747 3918 c-32 -11 -56 -22 -54 -24 4 -5 127 36 127 42 0 6 -11 4
-73 -18z"/>
<path d="M4985 3904 c-115 -31 -197 -70 -293 -138 -45 -31 -101 -60 -134 -70
-65 -19 -77 -32 -114 -128 -31 -81 -85 -134 -171 -167 -32 -12 -144 -45 -250
-72 -226 -58 -234 -60 -474 -178 -102 -50 -189 -91 -193 -91 -4 0 -4 6 -1 13
4 6 1 5 -7 -4 -19 -22 -182 -121 -285 -173 -217 -109 -429 -175 -695 -217 -78
-13 -137 -24 -130 -27 6 -2 82 9 168 23 295 50 536 135 774 275 75 44 152 86
172 95 21 8 162 47 314 85 304 78 398 110 782 265 272 109 558 210 630 221 23
4 42 10 42 15 0 12 0 12 -104 -12 -83 -20 -278 -90 -466 -169 -41 -17 -97 -41
-125 -51 l-50 -20 35 35 c19 19 103 72 185 117 140 77 452 228 503 243 18 6
22 15 22 47 0 38 -1 39 -27 33 -58 -12 -131 -37 -208 -71 -124 -54 -130 -57
-115 -38 23 28 132 82 243 120 65 23 107 43 107 51 0 19 -30 17 -135 -12z"/>
<path d="M4478 3913 c7 -3 16 -2 19 1 4 3 -2 6 -13 5 -11 0 -14 -3 -6 -6z"/>
<path d="M4438 3903 c7 -3 16 -2 19 1 4 3 -2 6 -13 5 -11 0 -14 -3 -6 -6z"/>
<path d="M4383 3893 c9 -2 23 -2 30 0 6 3 -1 5 -18 5 -16 0 -22 -2 -12 -5z"/>
<path d="M1277 3863 c-48 -14 -86 -28 -83 -30 4 -4 187 46 195 53 10 9 -30 1
-112 -23z"/>
<path d="M3998 3833 c6 -2 18 -2 25 0 6 3 1 5 -13 5 -14 0 -19 -2 -12 -5z"/>
<path d="M7 3824 c-4 -4 -7 -15 -7 -24 0 -15 20 -18 178 -23 97 -4 191 -9 207
-12 61 -11 -44 24 -118 39 -89 18 -249 31 -260 20z"/>
<path d="M1110 3815 c-25 -7 -36 -13 -25 -13 11 0 38 5 60 13 52 17 24 17 -35
0z"/>
<path d="M3958 3823 c7 -3 16 -2 19 1 4 3 -2 6 -13 5 -11 0 -14 -3 -6 -6z"/>
<path d="M4675 3788 l-40 -40 43 33 c23 18 42 36 42 41 0 11 0 11 -45 -34z"/>
<path d="M3918 3813 c7 -3 16 -2 19 1 4 3 -2 6 -13 5 -11 0 -14 -3 -6 -6z"/>
<path d="M4470 3805 c-19 -7 -28 -13 -20 -13 8 0 31 6 50 13 19 7 28 13 20 13
-8 0 -31 -6 -50 -13z"/>
<path d="M3840 3800 c-20 -6 -21 -8 -5 -8 11 0 31 4 45 8 20 6 21 8 5 8 -11 0
-31 -4 -45 -8z"/>
<path d="M2428 3793 c23 -2 61 -2 85 0 23 2 4 4 -43 4 -47 0 -66 -2 -42 -4z"/>
<path d="M2148 3783 c18 -2 45 -2 60 0 15 2 0 4 -33 4 -33 0 -45 -2 -27 -4z"/>
<path d="M3750 3780 c-20 -6 -21 -8 -5 -8 11 0 31 4 45 8 20 6 21 8 5 8 -11 0
-31 -4 -45 -8z"/>
<path d="M2038 3773 c12 -2 30 -2 40 0 9 3 -1 5 -23 4 -22 0 -30 -2 -17 -4z"/>
<path d="M788 3763 c6 -2 18 -2 25 0 6 3 1 5 -13 5 -14 0 -19 -2 -12 -5z"/>
<path d="M1963 3763 c9 -2 23 -2 30 0 6 3 -1 5 -18 5 -16 0 -22 -2 -12 -5z"/>
<path d="M3688 3763 c6 -2 18 -2 25 0 6 3 1 5 -13 5 -14 0 -19 -2 -12 -5z"/>
<path d="M600 3735 c-146 -28 -263 -56 -257 -61 2 -3 42 5 88 15 46 11 138 30
204 41 130 23 153 28 115 28 -14 0 -81 -10 -150 -23z"/>
<path d="M1898 3753 c6 -2 18 -2 25 0 6 3 1 5 -13 5 -14 0 -19 -2 -12 -5z"/>
<path d="M3633 3753 c9 -2 23 -2 30 0 6 3 -1 5 -18 5 -16 0 -22 -2 -12 -5z"/>
<path d="M4290 3745 c-14 -8 -20 -14 -15 -14 6 0 21 6 35 14 14 8 21 14 15 14
-5 0 -21 -6 -35 -14z"/>
<path d="M4499 3737 c-21 -14 -39 -37 -47 -61 -16 -49 -9 -58 12 -17 9 17 30
47 47 66 36 41 34 43 -12 12z"/>
<path d="M1838 3743 c6 -2 18 -2 25 0 6 3 1 5 -13 5 -14 0 -19 -2 -12 -5z"/>
<path d="M3168 3743 c6 -2 18 -2 25 0 6 3 1 5 -13 5 -14 0 -19 -2 -12 -5z"/>
<path d="M3563 3743 c9 -2 25 -2 35 0 9 3 1 5 -18 5 -19 0 -27 -2 -17 -5z"/>
<path d="M1798 3733 c7 -3 16 -2 19 1 4 3 -2 6 -13 5 -11 0 -14 -3 -6 -6z"/>
<path d="M3488 3733 c12 -2 30 -2 40 0 9 3 -1 5 -23 4 -22 0 -30 -2 -17 -4z"/>
<path d="M398 3723 c6 -2 18 -2 25 0 6 3 1 5 -13 5 -14 0 -19 -2 -12 -5z"/>
<path d="M1673 3700 c-94 -32 -205 -89 -248 -126 -26 -22 -25 -22 15 4 71 46
127 73 240 113 58 21 98 38 90 38 -8 0 -52 -13 -97 -29z"/>
<path d="M4220 3713 c-50 -33 -78 -64 -73 -83 10 -39 -108 -141 -347 -300
-124 -82 -177 -122 -110 -83 19 12 103 60 185 108 211 123 280 174 317 233 23
38 19 59 -14 64 -20 3 -16 8 30 37 28 19 52 36 52 37 0 8 -16 2 -40 -13z"/>
<path d="M333 3713 c9 -2 23 -2 30 0 6 3 -1 5 -18 5 -16 0 -22 -2 -12 -5z"/>
<path d="M245 3703 c-44 -10 -221 -54 -234 -59 -8 -2 -11 -7 -8 -10 3 -3 38 4
77 16 40 12 109 30 154 40 44 10 70 18 56 18 -14 0 -34 -2 -45 -5z"/>
<path d="M773 3673 c9 -2 23 -2 30 0 6 3 -1 5 -18 5 -16 0 -22 -2 -12 -5z"/>
<path d="M698 3663 c6 -2 18 -2 25 0 6 3 1 5 -13 5 -14 0 -19 -2 -12 -5z"/>
<path d="M545 3625 c-39 -17 -21 -18 25 0 19 7 28 14 20 14 -8 0 -28 -6 -45
-14z"/>
<path d="M425 3574 c-38 -20 -101 -62 -140 -93 l-70 -58 -85 40 c-115 53 -133
60 -128 46 2 -6 44 -27 93 -48 50 -21 200 -90 335 -153 272 -129 355 -160 571
-218 82 -22 188 -55 236 -73 73 -29 812 -337 878 -367 38 -17 -4 -10 -152 26
-81 19 -208 48 -281 65 -103 23 -156 41 -233 80 -56 28 -103 49 -104 47 -2 -2
30 -21 71 -42 41 -21 73 -41 70 -43 -2 -3 -28 0 -56 6 -60 13 -101 13 -50 0
19 -5 100 -22 180 -39 80 -16 260 -56 400 -89 140 -34 334 -77 430 -97 253
-51 455 -105 620 -164 362 -129 415 -142 595 -140 122 1 353 16 290 19 -35 1
-38 3 -20 13 26 14 65 50 65 59 0 4 -12 22 -27 40 l-27 32 109 105 c60 58 99
100 87 93 -30 -16 -202 -185 -202 -199 0 -6 11 -24 25 -40 l24 -29 -22 -20
c-12 -11 -42 -27 -67 -36 -79 -28 -125 -29 -213 -6 -125 32 -158 38 -207 37
-34 0 -27 -3 30 -9 41 -5 95 -15 120 -23 25 -8 54 -17 65 -20 11 -3 -23 -3
-75 -1 -124 5 -216 25 -375 81 -224 79 -366 124 -492 157 l-123 33 328 83
c446 113 509 139 622 258 l55 57 -67 -61 c-88 -80 -166 -116 -346 -160 -81
-19 -262 -63 -402 -98 -227 -56 -321 -70 -306 -46 3 4 -19 7 -47 8 -54 1 -114
18 -201 58 -28 13 -60 26 -71 30 -13 5 -15 9 -7 12 6 3 9 10 5 16 -4 7 1 6 10
-2 10 -8 20 -11 24 -7 3 3 1 6 -6 6 -7 0 -10 4 -7 9 11 16 -5 40 -21 34 -11
-4 -14 -2 -9 5 5 8 0 12 -13 12 -15 0 -21 6 -21 21 0 16 -5 20 -19 16 -13 -3
-22 3 -30 20 -6 13 -9 28 -6 32 7 12 -18 40 -40 44 -11 2 -38 12 -60 21 -22
10 -74 33 -116 51 -82 35 -147 76 -192 120 l-27 28 0 -25 c0 -32 33 -99 81
-167 34 -47 48 -81 35 -81 -2 0 -46 18 -97 39 -382 159 -446 182 -602 222 -65
16 -165 45 -223 64 -108 36 -554 242 -554 256 0 18 133 117 203 152 39 20 68
36 62 36 -5 0 -41 -16 -80 -35z"/>
<path d="M591 3429 c0 -28 5 -52 15 -65 8 -10 12 -12 7 -4 -4 8 -10 38 -14 65
l-6 50 -2 -46z"/>
<path d="M2397 3403 c-4 -3 -26 -8 -50 -9 -23 -1 -107 -12 -187 -24 -80 -11
-164 -23 -187 -25 -23 -3 -62 -9 -87 -15 -25 -5 -49 -9 -53 -8 -12 4 -116 -31
-134 -45 -9 -7 -22 -30 -27 -51 l-11 -38 52 7 c175 22 467 102 630 171 88 38
98 44 75 44 -8 0 -18 -3 -21 -7z"/>
<path d="M5042 3381 c-211 -84 -393 -232 -734 -600 -151 -163 -208 -231 -229
-276 -16 -33 -29 -69 -29 -80 0 -13 7 -6 19 20 17 37 135 195 146 195 3 0 -6
-19 -20 -42 l-26 -43 43 50 c24 28 121 132 215 231 257 270 432 416 609 506
46 24 84 49 84 56 0 15 9 17 -78 -17z"/>
<path d="M3148 3306 c-100 -64 -145 -98 -73 -56 76 44 175 110 175 115 0 7 8
11 -102 -59z"/>
<path d="M630 3326 c21 -27 106 -79 170 -104 75 -29 358 -112 378 -111 10 0 1
5 -18 11 -167 47 -372 114 -414 135 -28 14 -69 40 -91 57 -22 17 -33 22 -25
12z"/>
<path d="M3719 3313 c-13 -16 -12 -17 4 -4 16 13 21 21 13 21 -2 0 -10 -8 -17
-17z"/>
<path d="M5019 3212 c-132 -67 -328 -201 -409 -278 -19 -19 -75 -65 -125 -103
-49 -37 -146 -126 -215 -197 -69 -71 -129 -128 -133 -126 -5 1 -6 -2 -3 -7 3
-5 -3 -19 -13 -32 -10 -13 -26 -40 -36 -59 -18 -35 -18 -35 2 -18 15 14 22 15
33 5 12 -10 12 -9 1 5 -11 15 -8 23 21 59 58 72 453 412 598 514 30 21 60 43
65 48 15 14 -74 -32 -130 -67 -71 -46 -75 -48 -75 -42 0 7 166 127 271 196 51
34 127 77 168 97 85 40 86 41 79 48 -2 3 -47 -17 -99 -43z"/>
<path d="M3579 3213 c-13 -16 -12 -17 4 -4 16 13 21 21 13 21 -2 0 -10 -8 -17
-17z"/>
<path d="M3624 3214 c-18 -14 -18 -15 4 -4 12 6 22 13 22 15 0 8 -5 6 -26 -11z"/>
<path d="M0 2949 l0 -212 37 6 c20 4 44 14 52 23 15 15 14 15 -7 4 -39 -20
-34 -6 12 30 65 52 86 88 90 154 2 31 0 56 -3 56 -3 0 -7 18 -8 40 0 22 -7 47
-13 55 -16 19 -14 19 54 -5 85 -29 132 -59 152 -96 10 -18 21 -31 25 -28 4 2
7 -9 7 -26 -1 -17 2 -33 5 -37 4 -3 7 10 7 30 0 23 -7 44 -19 56 -11 11 -17
21 -15 24 7 7 -73 56 -128 78 -54 21 -201 59 -230 59 -15 0 -17 -20 -18 -211z
m127 175 c-3 -3 -12 -4 -19 -1 -8 3 -5 6 6 6 11 1 17 -2 13 -5z m-87 -25 c0
-5 4 -8 9 -4 5 3 15 -1 23 -8 7 -7 17 -14 21 -14 5 -1 11 -4 14 -7 3 -3 -4 -4
-16 -1 -11 2 -21 -1 -21 -7 0 -5 -7 -7 -16 -4 -15 6 -15 4 -3 -11 11 -15 10
-15 -9 1 -17 15 -20 22 -10 29 10 7 10 10 1 14 -15 6 -17 23 -3 23 6 0 10 -5
10 -11z"/>
<path d="M1208 3103 c7 -3 16 -2 19 1 4 3 -2 6 -13 5 -11 0 -14 -3 -6 -6z"/>
<path d="M1258 3093 c7 -3 16 -2 19 1 4 3 -2 6 -13 5 -11 0 -14 -3 -6 -6z"/>
<path d="M3524 2975 c-126 -138 -186 -168 -484 -235 -193 -43 -527 -133 -513
-137 17 -6 766 187 816 210 29 13 69 38 89 56 42 36 183 191 175 191 -3 0 -40
-38 -83 -85z"/>
<path d="M5029 3008 c-118 -72 -309 -266 -408 -413 -41 -60 -88 -126 -105
-145 -23 -26 -24 -29 -5 -12 32 28 42 28 34 0 -4 -13 14 13 40 58 131 228 302
405 522 540 10 7 15 14 12 18 -3 3 -43 -18 -90 -46z"/>
<path d="M454 3012 c42 -54 33 -101 -32 -160 -21 -19 -28 -29 -17 -23 87 46
110 125 54 183 l-31 33 26 -33z"/>
<path d="M3594 2978 l-19 -23 23 19 c12 11 22 21 22 23 0 8 -8 2 -26 -19z"/>
<path d="M5029 2941 c-136 -90 -296 -262 -374 -404 l-37 -67 37 16 c20 8 44
12 54 9 19 -6 67 -53 60 -58 -8 -6 -275 -91 -344 -109 -59 -15 -63 -17 -22
-12 26 3 110 25 187 50 158 49 256 75 380 99 47 9 100 21 118 26 l32 11 0 244
c0 134 -4 244 -8 244 -4 0 -42 -22 -83 -49z"/>
<path d="M561 2939 c-1 -33 -52 -80 -126 -117 -67 -33 -227 -86 -293 -97 -24
-4 -41 -9 -38 -12 9 -9 125 17 236 53 162 52 237 108 227 171 -4 27 -4 27 -6
2z"/>
<path d="M1250 2900 c8 -5 20 -10 25 -10 6 0 3 5 -5 10 -8 5 -19 10 -25 10 -5
0 -3 -5 5 -10z"/>
<path d="M386 2883 c-6 -14 -5 -15 5 -6 7 7 10 15 7 18 -3 3 -9 -2 -12 -12z"/>
<path d="M1300 2880 c8 -5 20 -10 25 -10 6 0 3 5 -5 10 -8 5 -19 10 -25 10 -5
0 -3 -5 5 -10z"/>
<path d="M135 2804 l-30 -26 33 22 c17 12 32 23 32 26 0 7 -4 5 -35 -22z"/>
<path d="M855 2815 c-82 -15 -218 -55 -211 -62 3 -3 26 2 53 11 109 36 195 49
353 56 l165 7 -145 0 c-80 1 -176 -5 -215 -12z"/>
<path d="M1243 2813 c9 -2 25 -2 35 0 9 3 1 5 -18 5 -19 0 -27 -2 -17 -5z"/>
<path d="M1318 2803 c7 -3 16 -2 19 1 4 3 -2 6 -13 5 -11 0 -14 -3 -6 -6z"/>
<path d="M890 2759 c-144 -18 -326 -68 -443 -121 -79 -36 -84 -46 -8 -17 96
36 405 95 706 134 l100 13 -145 0 c-80 0 -174 -4 -210 -9z"/>
<path d="M1308 2743 c12 -2 30 -2 40 0 9 3 -1 5 -23 4 -22 0 -30 -2 -17 -4z"/>
<path d="M565 2730 c-13 -6 -15 -9 -5 -9 8 0 22 4 30 9 18 12 2 12 -25 0z"/>
<path d="M1135 2721 c-123 -27 -236 -68 -311 -113 -133 -80 -178 -131 -225
-255 -58 -153 -135 -250 -354 -441 -187 -164 -245 -223 -245 -250 0 -23 0 -23
37 8 21 18 92 75 158 128 66 53 170 146 231 207 128 127 163 185 187 312 19
100 36 134 97 192 105 102 273 175 495 216 39 7 57 13 40 13 -16 0 -66 -7
-110 -17z"/>
<path d="M4015 2710 c-11 -17 -57 -60 -102 -96 -88 -70 -133 -117 -133 -139 0
-17 48 -55 69 -54 12 0 11 2 -4 9 -32 12 -48 37 -41 63 3 14 41 52 90 91 86
68 146 128 146 146 0 15 -3 12 -25 -20z"/>
<path d="M53 2703 c9 -2 23 -2 30 0 6 3 -1 5 -18 5 -16 0 -22 -2 -12 -5z"/>
<path d="M410 2685 c-25 -7 -36 -13 -25 -13 11 0 38 5 60 13 52 17 24 17 -35
0z"/>
<path d="M250 2655 c-36 -7 -87 -14 -115 -15 -30 -2 -40 -5 -25 -7 27 -5 182
13 228 27 26 8 27 8 2 8 -14 -1 -54 -6 -90 -13z"/>
<path d="M28 2623 c7 -3 16 -2 19 1 4 3 -2 6 -13 5 -11 0 -14 -3 -6 -6z"/>
<path d="M2478 2593 c6 -2 18 -2 25 0 6 3 1 5 -13 5 -14 0 -19 -2 -12 -5z"/>
<path d="M210 2415 c13 -14 26 -25 28 -25 3 0 -5 11 -18 25 -13 14 -26 25 -28
25 -3 0 5 -11 18 -25z"/>
<path d="M2007 2416 c-79 -33 -131 -68 -198 -136 -75 -74 -101 -129 -143 -300
-40 -163 -69 -220 -161 -314 -33 -34 -96 -88 -140 -120 -96 -71 -110 -83 -69
-63 58 30 189 134 251 200 74 80 118 157 171 299 72 192 153 288 305 364 51
25 81 43 67 39 -14 -3 -69 -28 -124 -56 -54 -27 -101 -47 -105 -43 -11 12 82
85 153 119 82 40 78 46 -7 11z"/>
<path d="M2408 2433 c28 -2 76 -2 105 0 28 2 5 3 -53 3 -58 0 -81 -1 -52 -3z"/>
<path d="M2263 2423 c9 -2 25 -2 35 0 9 3 1 5 -18 5 -19 0 -27 -2 -17 -5z"/>
<path d="M2638 2423 c6 -2 18 -2 25 0 6 3 1 5 -13 5 -14 0 -19 -2 -12 -5z"/>
<path d="M2198 2413 c6 -2 18 -2 25 0 6 3 1 5 -13 5 -14 0 -19 -2 -12 -5z"/>
<path d="M2158 2403 c7 -3 16 -2 19 1 4 3 -2 6 -13 5 -11 0 -14 -3 -6 -6z"/>
<path d="M3324 2396 c11 -9 24 -16 30 -16 12 0 7 5 -24 19 -24 11 -24 11 -6
-3z"/>
<path d="M2523 2353 c26 -2 68 -2 95 0 26 2 4 3 -48 3 -52 0 -74 -1 -47 -3z"/>
<path d="M3238 2353 c7 -3 16 -2 19 1 4 3 -2 6 -13 5 -11 0 -14 -3 -6 -6z"/>
<path d="M3378 2353 c7 -3 16 -2 19 1 4 3 -2 6 -13 5 -11 0 -14 -3 -6 -6z"/>
<path d="M3461 2350 c-9 -5 -4 -7 13 -7 29 0 32 2 13 10 -8 3 -20 2 -26 -3z"/>
<path d="M3538 2353 c7 -3 16 -2 19 1 4 3 -2 6 -13 5 -11 0 -14 -3 -6 -6z"/>
<path d="M260 2345 c0 -5 5 -17 10 -25 5 -8 10 -10 10 -5 0 6 -5 17 -10 25 -5
8 -10 11 -10 5z"/>
<path d="M2423 2343 c9 -2 23 -2 30 0 6 3 -1 5 -18 5 -16 0 -22 -2 -12 -5z"/>
<path d="M2698 2343 c6 -2 18 -2 25 0 6 3 1 5 -13 5 -14 0 -19 -2 -12 -5z"/>
<path d="M3278 2343 c6 -2 18 -2 25 0 6 3 1 5 -13 5 -14 0 -19 -2 -12 -5z"/>
<path d="M3598 2343 c6 -2 18 -2 25 0 6 3 1 5 -13 5 -14 0 -19 -2 -12 -5z"/>
<path d="M2315 2320 c-66 -25 -46 -25 30 0 33 10 51 19 40 19 -11 0 -42 -9
-70 -19z"/>
<path d="M2758 2333 c7 -3 16 -2 19 1 4 3 -2 6 -13 5 -11 0 -14 -3 -6 -6z"/>
<path d="M3333 2333 c9 -2 23 -2 30 0 6 3 -1 5 -18 5 -16 0 -22 -2 -12 -5z"/>
<path d="M3518 2333 c7 -3 16 -2 19 1 4 3 -2 6 -13 5 -11 0 -14 -3 -6 -6z"/>
<path d="M3668 2333 c7 -3 16 -2 19 1 4 3 -2 6 -13 5 -11 0 -14 -3 -6 -6z"/>
<path d="M3600 2320 c-13 -8 -13 -10 2 -10 9 0 20 5 23 10 8 13 -5 13 -25 0z"/>
<path d="M2838 2313 c7 -3 16 -2 19 1 4 3 -2 6 -13 5 -11 0 -14 -3 -6 -6z"/>
<path d="M2558 2303 c12 -2 30 -2 40 0 9 3 -1 5 -23 4 -22 0 -30 -2 -17 -4z"/>
<path d="M3638 2303 c7 -3 16 -2 19 1 4 3 -2 6 -13 5 -11 0 -14 -3 -6 -6z"/>
<path d="M4313 2303 c9 -2 23 -2 30 0 6 3 -1 5 -18 5 -16 0 -22 -2 -12 -5z"/>
<path d="M281 2284 c0 -11 3 -14 6 -6 3 7 2 16 -1 19 -3 4 -6 -2 -5 -13z"/>
<path d="M2404 2281 c-78 -22 -122 -50 -178 -112 -64 -71 -80 -126 -73 -258 3
-73 12 -126 27 -169 12 -35 23 -62 25 -60 2 2 -4 35 -12 73 -9 44 -13 107 -11
170 3 85 8 109 31 157 50 103 159 184 278 207 42 8 43 9 9 9 -19 0 -62 -7 -96
-17z"/>
<path d="M2910 2290 c8 -5 20 -10 25 -10 6 0 3 5 -5 10 -8 5 -19 10 -25 10 -5
0 -3 -5 5 -10z"/>
<path d="M4243 2293 c9 -2 25 -2 35 0 9 3 1 5 -18 5 -19 0 -27 -2 -17 -5z"/>
<path d="M4073 2283 c26 -2 67 -2 90 0 23 2 2 3 -48 3 -49 0 -68 -1 -42 -3z"/>
<path d="M33 2234 c45 -64 45 -124 0 -187 -19 -25 -33 -58 -33 -73 l0 -28 45
44 c74 73 92 136 59 207 -15 30 -76 83 -96 83 -4 0 7 -21 25 -46z"/>
<path d="M3095 2202 c83 -43 184 -98 225 -121 41 -24 78 -46 83 -48 4 -2 7 -2
7 1 0 12 -435 246 -457 246 -5 0 60 -35 142 -78z"/>
<path d="M2114 2242 c-53 -39 -96 -90 -123 -145 -22 -45 -29 -83 -51 -257 -21
-175 -90 -258 -298 -362 -136 -68 -191 -110 -234 -177 -31 -49 -37 -110 -16
-156 15 -34 21 -32 36 17 29 93 112 173 232 223 184 77 251 129 296 228 26 59
28 71 34 253 5 181 7 193 33 246 17 34 50 77 83 107 63 58 65 64 8 23z"/>
<path d="M242 2219 c-3 -74 -45 -144 -149 -246 -51 -51 -93 -95 -93 -98 0 -12
84 58 142 118 77 79 110 148 105 218 -3 54 -3 54 -5 8z"/>
<path d="M1439 2197 c-53 -51 -122 -147 -106 -147 2 0 20 24 41 54 20 30 61
77 91 105 30 28 50 51 46 51 -5 0 -37 -28 -72 -63z"/>
<path d="M291 2224 c0 -11 3 -14 6 -6 3 7 2 16 -1 19 -3 4 -6 -2 -5 -13z"/>
<path d="M2537 2189 c-58 -14 -91 -34 -135 -84 -92 -104 -101 -244 -34 -498
45 -171 51 -242 28 -321 -30 -100 -82 -146 -179 -157 -31 -4 -65 -13 -73 -20
-9 -7 -32 -46 -52 -87 -52 -107 -123 -167 -308 -266 -82 -43 -199 -111 -260
-151 -272 -180 -346 -366 -225 -557 44 -69 55 -59 18 14 -28 54 -32 71 -32
142 1 184 100 285 522 534 203 120 256 168 306 274 39 81 39 81 132 98 75 13
120 48 159 123 43 84 41 171 -9 347 -32 114 -38 151 -39 237 -1 56 2 104 6
108 7 7 65 -30 85 -55 7 -8 13 -11 13 -7 0 4 11 -2 23 -15 49 -47 185 -168
257 -227 41 -34 95 -79 119 -99 24 -20 55 -41 68 -45 12 -5 23 -12 23 -16 0
-3 16 -15 35 -25 19 -11 35 -23 35 -28 0 -4 5 -8 11 -8 28 0 213 -179 227
-219 l10 -29 -66 -17 c-159 -41 -176 -47 -207 -78 -17 -18 -36 -39 -41 -48 -5
-9 -33 -28 -61 -43 -29 -14 -53 -28 -53 -30 0 -7 145 57 148 65 2 5 9 6 14 3
6 -4 8 -3 5 3 -17 27 84 82 164 89 36 3 109 32 276 113 244 117 355 157 541
195 130 27 125 34 -10 11 l-86 -15 -99 35 c-115 42 -315 137 -393 187 -30 20
-95 68 -145 107 -49 39 -126 90 -170 113 -122 63 -159 93 -200 164 -83 141
-221 214 -348 183z"/>
<path d="M900 2168 c0 -34 -82 -177 -135 -235 -84 -93 -324 -274 -377 -286 -6
-1 -18 -8 -27 -15 -9 -7 -61 -46 -116 -86 -136 -100 -245 -205 -245 -235 0
-20 9 -14 73 45 109 102 208 178 362 279 246 161 360 267 424 394 31 61 56
140 47 149 -3 3 -6 -2 -6 -10z"/>
<path d="M2025 2043 c-6 -58 1 -102 44 -293 10 -47 22 -112 26 -145 4 -33 10
-54 12 -47 7 20 -15 162 -44 282 -16 65 -25 134 -26 183 0 42 -1 77 -2 77 -2
0 -6 -26 -10 -57z"/>
<path d="M1275 1905 c-97 -97 -126 -114 -421 -253 -286 -135 -342 -168 -424
-254 -48 -49 -93 -83 -170 -126 -272 -152 -260 -143 -260 -184 0 -21 3 -38 6
-38 3 0 55 25 116 56 142 73 261 153 372 249 110 96 174 136 396 255 266 141
369 216 435 316 20 30 35 56 33 57 -1 1 -39 -34 -83 -78z"/>
<path d="M4994 1899 c-16 -17 -48 -42 -71 -56 -54 -31 -57 -42 -4 -12 35 20
123 99 110 99 -3 0 -18 -14 -35 -31z"/>
<path d="M5010 1739 c-205 -137 -421 -225 -657 -269 -54 -10 -89 -19 -77 -19
42 -2 248 40 342 70 111 35 310 128 425 196 60 37 77 52 77 70 0 13 -1 23 -2
22 -2 0 -50 -31 -108 -70z"/>
<path d="M2281 1704 c0 -11 3 -14 6 -6 3 7 2 16 -1 19 -3 4 -6 -2 -5 -13z"/>
<path d="M2142 1580 c0 -150 -27 -226 -107 -299 -26 -24 -74 -56 -108 -73 -66
-31 -64 -31 22 -3 40 13 71 33 112 74 48 47 60 67 78 125 21 69 26 179 11 241
-5 20 -7 -3 -8 -65z"/>
<path d="M4860 1424 c-140 -91 -315 -206 -389 -256 -74 -50 -140 -91 -148 -91
-7 0 -13 -4 -13 -9 0 -4 -4 -8 -9 -8 -15 0 -390 -254 -436 -295 -22 -20 0 -7
50 28 50 35 149 101 220 147 72 46 245 159 385 250 260 170 398 255 527 326
48 25 73 45 73 57 0 9 -1 17 -3 17 -1 0 -117 -75 -257 -166z"/>
<path d="M2092 1500 c0 -14 2 -19 5 -12 2 6 2 18 0 25 -3 6 -5 1 -5 -13z"/>
<path d="M4203 1443 c9 -2 25 -2 35 0 9 3 1 5 -18 5 -19 0 -27 -2 -17 -5z"/>
<path d="M4128 1433 c12 -2 30 -2 40 0 9 3 -1 5 -23 4 -22 0 -30 -2 -17 -4z"/>
<path d="M1995 1328 l-40 -43 43 40 c23 21 42 40 42 42 0 8 -9 0 -45 -39z"/>
<path d="M5075 1274 c-16 -13 -143 -101 -281 -194 -138 -93 -257 -177 -265
-186 -7 -9 81 45 196 121 280 183 388 258 393 273 6 19 -10 14 -43 -14z"/>
<path d="M1757 1156 c-104 -31 -174 -81 -251 -180 -68 -87 -94 -110 -194 -170
-243 -146 -353 -390 -288 -635 18 -66 58 -155 75 -166 6 -3 -1 14 -14 37 -73
131 -71 317 6 469 43 86 150 191 264 259 123 73 148 95 205 171 86 114 160
176 265 221 56 24 24 21 -68 -6z"/>
<path d="M5025 1098 c-44 -29 -138 -82 -210 -120 -71 -37 -126 -68 -121 -68
19 0 253 123 339 180 51 33 88 59 82 59 -5 0 -46 -23 -90 -51z"/>
<path d="M5054 1016 c-33 -24 -108 -86 -167 -139 -123 -107 -174 -138 -267
-162 -36 -9 -89 -25 -117 -35 -47 -17 -53 -18 -53 -4 0 32 36 76 94 115 67 45
59 51 -17 13 -70 -36 -150 -91 -217 -150 l-55 -48 40 43 c36 39 151 135 201
169 10 7 1 3 -22 -7 -56 -27 -126 -85 -214 -177 -218 -229 -305 -291 -540
-381 -99 -37 -98 -41 2 -13 40 11 172 35 294 54 281 44 342 59 489 114 245 91
480 218 578 310 54 52 45 59 -16 13 -29 -22 -73 -49 -97 -59 -51 -22 -113 -38
-92 -24 11 7 8 11 -10 17 -12 4 -26 7 -31 6 -4 -1 2 17 13 39 28 54 131 163
207 217 61 43 63 46 63 89 0 24 -2 44 -4 44 -2 0 -30 -20 -62 -44z"/>
<path d="M4910 960 c-36 -22 -61 -40 -56 -40 10 0 126 70 126 76 0 6 -1 6 -70
-36z"/>
<path d="M2495 921 c-271 -114 -413 -194 -633 -358 -241 -179 -263 -217 -227
-387 17 -80 70 -176 97 -176 17 0 17 2 3 30 -8 16 -15 55 -15 88 0 113 72 209
278 374 238 191 423 317 576 394 48 24 81 44 72 44 -27 0 -219 -105 -348 -191
-163 -108 -407 -298 -489 -381 -71 -71 -128 -169 -130 -222 -1 -30 -1 -30 -9
-6 -14 43 -11 139 5 178 23 53 72 100 227 218 211 160 354 250 572 361 111 56
197 102 191 101 -5 0 -82 -30 -170 -67z"/>
<path d="M2748 943 c6 -2 18 -2 25 0 6 3 1 5 -13 5 -14 0 -19 -2 -12 -5z"/>
<path d="M1036 879 c-206 -222 -258 -457 -150 -673 38 -77 50 -81 14 -5 -45
97 -58 202 -37 304 26 125 120 308 205 398 20 20 33 37 30 37 -3 0 -31 -27
-62 -61z"/>
<path d="M2678 933 c7 -3 16 -2 19 1 4 3 -2 6 -13 5 -11 0 -14 -3 -6 -6z"/>
<path d="M1061 753 c-170 -212 -202 -400 -106 -628 8 -19 7 -19 -11 -5 -18 14
-18 14 -5 -3 26 -32 31 -3 11 62 -26 82 -26 186 0 279 21 77 112 267 162 340
47 68 25 48 -51 -45z"/>
<path d="M3789 703 l-24 -28 28 24 c15 14 27 26 27 28 0 8 -8 1 -31 -24z"/>
<path d="M5 701 c3 -5 42 -35 88 -67 99 -69 236 -200 278 -266 32 -50 48 -65
28 -25 -55 105 -147 200 -295 303 -89 62 -112 74 -99 55z"/>
<path d="M3695 624 c-27 -25 -88 -64 -135 -86 -322 -153 -383 -191 -484 -293
-65 -66 -196 -226 -196 -239 0 -22 31 3 65 51 22 32 80 97 128 145 85 85 95
92 260 173 139 68 192 100 277 168 92 74 151 128 139 127 -2 -1 -26 -21 -54
-46z"/>
<path d="M0 628 c0 -7 37 -40 81 -73 109 -80 217 -197 256 -276 30 -59 57
-174 48 -202 -2 -7 -6 -27 -9 -44 -5 -33 -5 -33 36 -33 l41 0 -5 69 c-6 80
-27 128 -109 251 -86 127 -182 221 -311 303 -20 13 -28 14 -28 5z"/>
<path d="M5070 576 c0 -2 11 -11 25 -20 14 -9 25 -13 25 -8 0 5 -11 14 -25 20
-14 6 -25 10 -25 8z"/>
<path d="M73 491 c60 -71 94 -142 107 -222 12 -82 -1 -166 -37 -227 l-25 -43
38 3 c35 3 41 8 67 58 25 48 28 63 25 125 -5 100 -47 182 -144 282 -52 53 -61
61 -31 24z"/>
<path d="M4535 307 c-93 -78 -176 -163 -254 -264 l-33 -43 29 0 c24 0 35 11
78 78 29 45 97 125 167 195 64 64 116 117 115 117 -1 0 -47 -38 -102 -83z"/>
<path d="M3354 301 c-50 -26 -113 -63 -140 -81 -55 -38 -158 -138 -193 -187
-21 -31 -21 -33 -4 -33 11 0 38 26 67 64 67 89 169 170 306 245 41 22 71 41
65 41 -5 0 -51 -22 -101 -49z"/>
<path d="M410 305 c0 -5 5 -17 10 -25 5 -8 10 -10 10 -5 0 6 -5 17 -10 25 -5
8 -10 11 -10 5z"/>
<path d="M441 214 c0 -11 3 -14 6 -6 3 7 2 16 -1 19 -3 4 -6 -2 -5 -13z"/>
<path d="M452 170 c0 -14 2 -19 5 -12 2 6 2 18 0 25 -3 6 -5 1 -5 -13z"/>
<path d="M4659 108 c-29 -35 -62 -74 -73 -87 -13 -14 -16 -22 -7 -19 13 4 147
168 138 168 -3 0 -29 -28 -58 -62z"/>
<path d="M462 100 c0 -19 2 -27 5 -17 2 9 2 25 0 35 -3 9 -5 1 -5 -18z"/>
<path d="M966 92 c-3 -5 14 -26 37 -48 l42 -39 -35 38 c-19 21 -33 40 -32 43
2 3 1 8 -1 10 -3 3 -8 1 -11 -4z"/>
</g>
</svg>
